G04 #@! TF.GenerationSoftware,KiCad,Pcbnew,(5.0.0-3-g5ebb6b6)*
G04 #@! TF.CreationDate,2019-02-03T17:20:29+01:00*
G04 #@! TF.ProjectId,HolyIoT-NRF52840-Breakout,486F6C79496F542D4E52463532383430,1.0*
G04 #@! TF.SameCoordinates,Original*
G04 #@! TF.FileFunction,Legend,Top*
G04 #@! TF.FilePolarity,Positive*
%FSLAX46Y46*%
G04 Gerber Fmt 4.6, Leading zero omitted, Abs format (unit mm)*
G04 Created by KiCad (PCBNEW (5.0.0-3-g5ebb6b6)) date 2019 February 03, Sunday 17:20:29*
%MOMM*%
%LPD*%
G01*
G04 APERTURE LIST*
%ADD10C,0.150000*%
%ADD11C,0.100000*%
%ADD12C,0.120000*%
%ADD13C,0.127000*%
G04 APERTURE END LIST*
D10*
X111785714Y-139285714D02*
X111976190Y-139952380D01*
X112166666Y-139476190D01*
X112357142Y-139952380D01*
X112547619Y-139285714D01*
X112833333Y-139285714D02*
X113023809Y-139952380D01*
X113214285Y-139476190D01*
X113404761Y-139952380D01*
X113595238Y-139285714D01*
X113880952Y-139285714D02*
X114071428Y-139952380D01*
X114261904Y-139476190D01*
X114452380Y-139952380D01*
X114642857Y-139285714D01*
X115023809Y-139857142D02*
X115071428Y-139904761D01*
X115023809Y-139952380D01*
X114976190Y-139904761D01*
X115023809Y-139857142D01*
X115023809Y-139952380D01*
X115928571Y-139952380D02*
X115928571Y-139428571D01*
X115880952Y-139333333D01*
X115785714Y-139285714D01*
X115595238Y-139285714D01*
X115499999Y-139333333D01*
X115928571Y-139904761D02*
X115833333Y-139952380D01*
X115595238Y-139952380D01*
X115499999Y-139904761D01*
X115452380Y-139809523D01*
X115452380Y-139714285D01*
X115499999Y-139619047D01*
X115595238Y-139571428D01*
X115833333Y-139571428D01*
X115928571Y-139523809D01*
X116404761Y-139285714D02*
X116404761Y-139952380D01*
X116404761Y-139380952D02*
X116452380Y-139333333D01*
X116547619Y-139285714D01*
X116690476Y-139285714D01*
X116785714Y-139333333D01*
X116833333Y-139428571D01*
X116833333Y-139952380D01*
X117738095Y-139952380D02*
X117738095Y-138952380D01*
X117738095Y-139904761D02*
X117642857Y-139952380D01*
X117452380Y-139952380D01*
X117357142Y-139904761D01*
X117309523Y-139857142D01*
X117261904Y-139761904D01*
X117261904Y-139476190D01*
X117309523Y-139380952D01*
X117357142Y-139333333D01*
X117452380Y-139285714D01*
X117642857Y-139285714D01*
X117738095Y-139333333D01*
X118595238Y-139904761D02*
X118499999Y-139952380D01*
X118309523Y-139952380D01*
X118214285Y-139904761D01*
X118166666Y-139809523D01*
X118166666Y-139428571D01*
X118214285Y-139333333D01*
X118309523Y-139285714D01*
X118499999Y-139285714D01*
X118595238Y-139333333D01*
X118642857Y-139428571D01*
X118642857Y-139523809D01*
X118166666Y-139619047D01*
X119071428Y-139952380D02*
X119071428Y-139285714D01*
X119071428Y-139476190D02*
X119119047Y-139380952D01*
X119166666Y-139333333D01*
X119261904Y-139285714D01*
X119357142Y-139285714D01*
X119642857Y-139904761D02*
X119738095Y-139952380D01*
X119928571Y-139952380D01*
X120023809Y-139904761D01*
X120071428Y-139809523D01*
X120071428Y-139761904D01*
X120023809Y-139666666D01*
X119928571Y-139619047D01*
X119785714Y-139619047D01*
X119690476Y-139571428D01*
X119642857Y-139476190D01*
X119642857Y-139428571D01*
X119690476Y-139333333D01*
X119785714Y-139285714D01*
X119928571Y-139285714D01*
X120023809Y-139333333D01*
X120642857Y-139952380D02*
X120547619Y-139904761D01*
X120500000Y-139857142D01*
X120452380Y-139761904D01*
X120452380Y-139476190D01*
X120500000Y-139380952D01*
X120547619Y-139333333D01*
X120642857Y-139285714D01*
X120785714Y-139285714D01*
X120880952Y-139333333D01*
X120928571Y-139380952D01*
X120976190Y-139476190D01*
X120976190Y-139761904D01*
X120928571Y-139857142D01*
X120880952Y-139904761D01*
X120785714Y-139952380D01*
X120642857Y-139952380D01*
X121404761Y-139285714D02*
X121404761Y-139952380D01*
X121404761Y-139380952D02*
X121452380Y-139333333D01*
X121547619Y-139285714D01*
X121690476Y-139285714D01*
X121785714Y-139333333D01*
X121833333Y-139428571D01*
X121833333Y-139952380D01*
X122738095Y-138952380D02*
X122547619Y-138952380D01*
X122452380Y-139000000D01*
X122404761Y-139047619D01*
X122309523Y-139190476D01*
X122261904Y-139380952D01*
X122261904Y-139761904D01*
X122309523Y-139857142D01*
X122357142Y-139904761D01*
X122452380Y-139952380D01*
X122642857Y-139952380D01*
X122738095Y-139904761D01*
X122785714Y-139857142D01*
X122833333Y-139761904D01*
X122833333Y-139523809D01*
X122785714Y-139428571D01*
X122738095Y-139380952D01*
X122642857Y-139333333D01*
X122452380Y-139333333D01*
X122357142Y-139380952D01*
X122309523Y-139428571D01*
X122261904Y-139523809D01*
X123309523Y-139952380D02*
X123499999Y-139952380D01*
X123595238Y-139904761D01*
X123642857Y-139857142D01*
X123738095Y-139714285D01*
X123785714Y-139523809D01*
X123785714Y-139142857D01*
X123738095Y-139047619D01*
X123690476Y-139000000D01*
X123595238Y-138952380D01*
X123404761Y-138952380D01*
X123309523Y-139000000D01*
X123261904Y-139047619D01*
X123214285Y-139142857D01*
X123214285Y-139380952D01*
X123261904Y-139476190D01*
X123309523Y-139523809D01*
X123404761Y-139571428D01*
X123595238Y-139571428D01*
X123690476Y-139523809D01*
X123738095Y-139476190D01*
X123785714Y-139380952D01*
X124166666Y-139904761D02*
X124261904Y-139952380D01*
X124452380Y-139952380D01*
X124547619Y-139904761D01*
X124595238Y-139809523D01*
X124595238Y-139761904D01*
X124547619Y-139666666D01*
X124452380Y-139619047D01*
X124309523Y-139619047D01*
X124214285Y-139571428D01*
X124166666Y-139476190D01*
X124166666Y-139428571D01*
X124214285Y-139333333D01*
X124309523Y-139285714D01*
X124452380Y-139285714D01*
X124547619Y-139333333D01*
X125023809Y-139857142D02*
X125071428Y-139904761D01*
X125023809Y-139952380D01*
X124976190Y-139904761D01*
X125023809Y-139857142D01*
X125023809Y-139952380D01*
X125928571Y-139904761D02*
X125833333Y-139952380D01*
X125642857Y-139952380D01*
X125547619Y-139904761D01*
X125499999Y-139857142D01*
X125452380Y-139761904D01*
X125452380Y-139476190D01*
X125499999Y-139380952D01*
X125547619Y-139333333D01*
X125642857Y-139285714D01*
X125833333Y-139285714D01*
X125928571Y-139333333D01*
X126499999Y-139952380D02*
X126404761Y-139904761D01*
X126357142Y-139857142D01*
X126309523Y-139761904D01*
X126309523Y-139476190D01*
X126357142Y-139380952D01*
X126404761Y-139333333D01*
X126499999Y-139285714D01*
X126642857Y-139285714D01*
X126738095Y-139333333D01*
X126785714Y-139380952D01*
X126833333Y-139476190D01*
X126833333Y-139761904D01*
X126785714Y-139857142D01*
X126738095Y-139904761D01*
X126642857Y-139952380D01*
X126499999Y-139952380D01*
X127261904Y-139952380D02*
X127261904Y-139285714D01*
X127261904Y-139380952D02*
X127309523Y-139333333D01*
X127404761Y-139285714D01*
X127547619Y-139285714D01*
X127642857Y-139333333D01*
X127690476Y-139428571D01*
X127690476Y-139952380D01*
X127690476Y-139428571D02*
X127738095Y-139333333D01*
X127833333Y-139285714D01*
X127976190Y-139285714D01*
X128071428Y-139333333D01*
X128119047Y-139428571D01*
X128119047Y-139952380D01*
D11*
X121719047Y-131350000D02*
X121671428Y-131326190D01*
X121600000Y-131326190D01*
X121528571Y-131350000D01*
X121480952Y-131397619D01*
X121457142Y-131445238D01*
X121433333Y-131540476D01*
X121433333Y-131611904D01*
X121457142Y-131707142D01*
X121480952Y-131754761D01*
X121528571Y-131802380D01*
X121600000Y-131826190D01*
X121647619Y-131826190D01*
X121719047Y-131802380D01*
X121742857Y-131778571D01*
X121742857Y-131611904D01*
X121647619Y-131611904D01*
X121957142Y-131826190D02*
X121957142Y-131326190D01*
X122242857Y-131826190D01*
X122242857Y-131326190D01*
X122480952Y-131826190D02*
X122480952Y-131326190D01*
X122600000Y-131326190D01*
X122671428Y-131350000D01*
X122719047Y-131397619D01*
X122742857Y-131445238D01*
X122766666Y-131540476D01*
X122766666Y-131611904D01*
X122742857Y-131707142D01*
X122719047Y-131754761D01*
X122671428Y-131802380D01*
X122600000Y-131826190D01*
X122480952Y-131826190D01*
X119657142Y-129926190D02*
X119823809Y-130426190D01*
X119990476Y-129926190D01*
X120157142Y-130426190D02*
X120157142Y-129926190D01*
X120276190Y-129926190D01*
X120347619Y-129950000D01*
X120395238Y-129997619D01*
X120419047Y-130045238D01*
X120442857Y-130140476D01*
X120442857Y-130211904D01*
X120419047Y-130307142D01*
X120395238Y-130354761D01*
X120347619Y-130402380D01*
X120276190Y-130426190D01*
X120157142Y-130426190D01*
X120657142Y-130426190D02*
X120657142Y-129926190D01*
X120776190Y-129926190D01*
X120847619Y-129950000D01*
X120895238Y-129997619D01*
X120919047Y-130045238D01*
X120942857Y-130140476D01*
X120942857Y-130211904D01*
X120919047Y-130307142D01*
X120895238Y-130354761D01*
X120847619Y-130402380D01*
X120776190Y-130426190D01*
X120657142Y-130426190D01*
X121680952Y-130616666D02*
X121657142Y-130592857D01*
X121609523Y-130521428D01*
X121585714Y-130473809D01*
X121561904Y-130402380D01*
X121538095Y-130283333D01*
X121538095Y-130188095D01*
X121561904Y-130069047D01*
X121585714Y-129997619D01*
X121609523Y-129950000D01*
X121657142Y-129878571D01*
X121680952Y-129854761D01*
X121823809Y-129926190D02*
X122133333Y-129926190D01*
X121966666Y-130116666D01*
X122038095Y-130116666D01*
X122085714Y-130140476D01*
X122109523Y-130164285D01*
X122133333Y-130211904D01*
X122133333Y-130330952D01*
X122109523Y-130378571D01*
X122085714Y-130402380D01*
X122038095Y-130426190D01*
X121895238Y-130426190D01*
X121847619Y-130402380D01*
X121823809Y-130378571D01*
X122276190Y-129926190D02*
X122442857Y-130426190D01*
X122609523Y-129926190D01*
X122728571Y-130616666D02*
X122752380Y-130592857D01*
X122800000Y-130521428D01*
X122823809Y-130473809D01*
X122847619Y-130402380D01*
X122871428Y-130283333D01*
X122871428Y-130188095D01*
X122847619Y-130069047D01*
X122823809Y-129997619D01*
X122800000Y-129950000D01*
X122752380Y-129878571D01*
X122728571Y-129854761D01*
X132919047Y-131602380D02*
X132990476Y-131626190D01*
X133109523Y-131626190D01*
X133157142Y-131602380D01*
X133180952Y-131578571D01*
X133204761Y-131530952D01*
X133204761Y-131483333D01*
X133180952Y-131435714D01*
X133157142Y-131411904D01*
X133109523Y-131388095D01*
X133014285Y-131364285D01*
X132966666Y-131340476D01*
X132942857Y-131316666D01*
X132919047Y-131269047D01*
X132919047Y-131221428D01*
X132942857Y-131173809D01*
X132966666Y-131150000D01*
X133014285Y-131126190D01*
X133133333Y-131126190D01*
X133204761Y-131150000D01*
X133371428Y-131126190D02*
X133490476Y-131626190D01*
X133585714Y-131269047D01*
X133680952Y-131626190D01*
X133800000Y-131126190D01*
X133990476Y-131626190D02*
X133990476Y-131126190D01*
X134109523Y-131126190D01*
X134180952Y-131150000D01*
X134228571Y-131197619D01*
X134252380Y-131245238D01*
X134276190Y-131340476D01*
X134276190Y-131411904D01*
X134252380Y-131507142D01*
X134228571Y-131554761D01*
X134180952Y-131602380D01*
X134109523Y-131626190D01*
X133990476Y-131626190D01*
X134776190Y-131578571D02*
X134752380Y-131602380D01*
X134680952Y-131626190D01*
X134633333Y-131626190D01*
X134561904Y-131602380D01*
X134514285Y-131554761D01*
X134490476Y-131507142D01*
X134466666Y-131411904D01*
X134466666Y-131340476D01*
X134490476Y-131245238D01*
X134514285Y-131197619D01*
X134561904Y-131150000D01*
X134633333Y-131126190D01*
X134680952Y-131126190D01*
X134752380Y-131150000D01*
X134776190Y-131173809D01*
X135228571Y-131626190D02*
X134990476Y-131626190D01*
X134990476Y-131126190D01*
X135395238Y-131626190D02*
X135395238Y-131126190D01*
X135680952Y-131626190D02*
X135466666Y-131340476D01*
X135680952Y-131126190D02*
X135395238Y-131411904D01*
X132840476Y-130402380D02*
X132911904Y-130426190D01*
X133030952Y-130426190D01*
X133078571Y-130402380D01*
X133102380Y-130378571D01*
X133126190Y-130330952D01*
X133126190Y-130283333D01*
X133102380Y-130235714D01*
X133078571Y-130211904D01*
X133030952Y-130188095D01*
X132935714Y-130164285D01*
X132888095Y-130140476D01*
X132864285Y-130116666D01*
X132840476Y-130069047D01*
X132840476Y-130021428D01*
X132864285Y-129973809D01*
X132888095Y-129950000D01*
X132935714Y-129926190D01*
X133054761Y-129926190D01*
X133126190Y-129950000D01*
X133292857Y-129926190D02*
X133411904Y-130426190D01*
X133507142Y-130069047D01*
X133602380Y-130426190D01*
X133721428Y-129926190D01*
X133911904Y-130426190D02*
X133911904Y-129926190D01*
X134030952Y-129926190D01*
X134102380Y-129950000D01*
X134150000Y-129997619D01*
X134173809Y-130045238D01*
X134197619Y-130140476D01*
X134197619Y-130211904D01*
X134173809Y-130307142D01*
X134150000Y-130354761D01*
X134102380Y-130402380D01*
X134030952Y-130426190D01*
X133911904Y-130426190D01*
X134411904Y-130426190D02*
X134411904Y-129926190D01*
X134745238Y-129926190D02*
X134840476Y-129926190D01*
X134888095Y-129950000D01*
X134935714Y-129997619D01*
X134959523Y-130092857D01*
X134959523Y-130259523D01*
X134935714Y-130354761D01*
X134888095Y-130402380D01*
X134840476Y-130426190D01*
X134745238Y-130426190D01*
X134697619Y-130402380D01*
X134650000Y-130354761D01*
X134626190Y-130259523D01*
X134626190Y-130092857D01*
X134650000Y-129997619D01*
X134697619Y-129950000D01*
X134745238Y-129926190D01*
D10*
X126038095Y-111300000D02*
X125942857Y-111252380D01*
X125800000Y-111252380D01*
X125657142Y-111300000D01*
X125561904Y-111395238D01*
X125514285Y-111490476D01*
X125466666Y-111680952D01*
X125466666Y-111823809D01*
X125514285Y-112014285D01*
X125561904Y-112109523D01*
X125657142Y-112204761D01*
X125800000Y-112252380D01*
X125895238Y-112252380D01*
X126038095Y-112204761D01*
X126085714Y-112157142D01*
X126085714Y-111823809D01*
X125895238Y-111823809D01*
X126514285Y-112252380D02*
X126514285Y-111252380D01*
X127085714Y-112252380D01*
X127085714Y-111252380D01*
X127561904Y-112252380D02*
X127561904Y-111252380D01*
X127800000Y-111252380D01*
X127942857Y-111300000D01*
X128038095Y-111395238D01*
X128085714Y-111490476D01*
X128133333Y-111680952D01*
X128133333Y-111823809D01*
X128085714Y-112014285D01*
X128038095Y-112109523D01*
X127942857Y-112204761D01*
X127800000Y-112252380D01*
X127561904Y-112252380D01*
X125442857Y-103707142D02*
X125742857Y-104607142D01*
X126042857Y-103707142D01*
X126342857Y-104607142D02*
X126342857Y-103707142D01*
X126557142Y-103707142D01*
X126685714Y-103750000D01*
X126771428Y-103835714D01*
X126814285Y-103921428D01*
X126857142Y-104092857D01*
X126857142Y-104221428D01*
X126814285Y-104392857D01*
X126771428Y-104478571D01*
X126685714Y-104564285D01*
X126557142Y-104607142D01*
X126342857Y-104607142D01*
X127242857Y-104607142D02*
X127242857Y-103707142D01*
X127457142Y-103707142D01*
X127585714Y-103750000D01*
X127671428Y-103835714D01*
X127714285Y-103921428D01*
X127757142Y-104092857D01*
X127757142Y-104221428D01*
X127714285Y-104392857D01*
X127671428Y-104478571D01*
X127585714Y-104564285D01*
X127457142Y-104607142D01*
X127242857Y-104607142D01*
X129085714Y-104950000D02*
X129042857Y-104907142D01*
X128957142Y-104778571D01*
X128914285Y-104692857D01*
X128871428Y-104564285D01*
X128828571Y-104350000D01*
X128828571Y-104178571D01*
X128871428Y-103964285D01*
X128914285Y-103835714D01*
X128957142Y-103750000D01*
X129042857Y-103621428D01*
X129085714Y-103578571D01*
X129342857Y-103707142D02*
X129900000Y-103707142D01*
X129600000Y-104050000D01*
X129728571Y-104050000D01*
X129814285Y-104092857D01*
X129857142Y-104135714D01*
X129900000Y-104221428D01*
X129900000Y-104435714D01*
X129857142Y-104521428D01*
X129814285Y-104564285D01*
X129728571Y-104607142D01*
X129471428Y-104607142D01*
X129385714Y-104564285D01*
X129342857Y-104521428D01*
X130157142Y-103707142D02*
X130457142Y-104607142D01*
X130757142Y-103707142D01*
X130971428Y-104950000D02*
X131014285Y-104907142D01*
X131100000Y-104778571D01*
X131142857Y-104692857D01*
X131185714Y-104564285D01*
X131228571Y-104350000D01*
X131228571Y-104178571D01*
X131185714Y-103964285D01*
X131142857Y-103835714D01*
X131100000Y-103750000D01*
X131014285Y-103621428D01*
X130971428Y-103578571D01*
X125642857Y-106307142D02*
X125942857Y-107207142D01*
X126242857Y-106307142D01*
X126542857Y-107207142D02*
X126542857Y-106307142D01*
X126757142Y-106307142D01*
X126885714Y-106350000D01*
X126971428Y-106435714D01*
X127014285Y-106521428D01*
X127057142Y-106692857D01*
X127057142Y-106821428D01*
X127014285Y-106992857D01*
X126971428Y-107078571D01*
X126885714Y-107164285D01*
X126757142Y-107207142D01*
X126542857Y-107207142D01*
X127442857Y-107207142D02*
X127442857Y-106307142D01*
X127657142Y-106307142D01*
X127785714Y-106350000D01*
X127871428Y-106435714D01*
X127914285Y-106521428D01*
X127957142Y-106692857D01*
X127957142Y-106821428D01*
X127914285Y-106992857D01*
X127871428Y-107078571D01*
X127785714Y-107164285D01*
X127657142Y-107207142D01*
X127442857Y-107207142D01*
X129285714Y-107550000D02*
X129242857Y-107507142D01*
X129157142Y-107378571D01*
X129114285Y-107292857D01*
X129071428Y-107164285D01*
X129028571Y-106950000D01*
X129028571Y-106778571D01*
X129071428Y-106564285D01*
X129114285Y-106435714D01*
X129157142Y-106350000D01*
X129242857Y-106221428D01*
X129285714Y-106178571D01*
X129542857Y-106307142D02*
X130100000Y-106307142D01*
X129800000Y-106650000D01*
X129928571Y-106650000D01*
X130014285Y-106692857D01*
X130057142Y-106735714D01*
X130100000Y-106821428D01*
X130100000Y-107035714D01*
X130057142Y-107121428D01*
X130014285Y-107164285D01*
X129928571Y-107207142D01*
X129671428Y-107207142D01*
X129585714Y-107164285D01*
X129542857Y-107121428D01*
X130357142Y-106307142D02*
X130657142Y-107207142D01*
X130957142Y-106307142D01*
X131171428Y-107550000D02*
X131214285Y-107507142D01*
X131300000Y-107378571D01*
X131342857Y-107292857D01*
X131385714Y-107164285D01*
X131428571Y-106950000D01*
X131428571Y-106778571D01*
X131385714Y-106564285D01*
X131342857Y-106435714D01*
X131300000Y-106350000D01*
X131214285Y-106221428D01*
X131171428Y-106178571D01*
X126038095Y-108700000D02*
X125942857Y-108652380D01*
X125800000Y-108652380D01*
X125657142Y-108700000D01*
X125561904Y-108795238D01*
X125514285Y-108890476D01*
X125466666Y-109080952D01*
X125466666Y-109223809D01*
X125514285Y-109414285D01*
X125561904Y-109509523D01*
X125657142Y-109604761D01*
X125800000Y-109652380D01*
X125895238Y-109652380D01*
X126038095Y-109604761D01*
X126085714Y-109557142D01*
X126085714Y-109223809D01*
X125895238Y-109223809D01*
X126514285Y-109652380D02*
X126514285Y-108652380D01*
X127085714Y-109652380D01*
X127085714Y-108652380D01*
X127561904Y-109652380D02*
X127561904Y-108652380D01*
X127800000Y-108652380D01*
X127942857Y-108700000D01*
X128038095Y-108795238D01*
X128085714Y-108890476D01*
X128133333Y-109080952D01*
X128133333Y-109223809D01*
X128085714Y-109414285D01*
X128038095Y-109509523D01*
X127942857Y-109604761D01*
X127800000Y-109652380D01*
X127561904Y-109652380D01*
X125438095Y-115004761D02*
X125580952Y-115052380D01*
X125819047Y-115052380D01*
X125914285Y-115004761D01*
X125961904Y-114957142D01*
X126009523Y-114861904D01*
X126009523Y-114766666D01*
X125961904Y-114671428D01*
X125914285Y-114623809D01*
X125819047Y-114576190D01*
X125628571Y-114528571D01*
X125533333Y-114480952D01*
X125485714Y-114433333D01*
X125438095Y-114338095D01*
X125438095Y-114242857D01*
X125485714Y-114147619D01*
X125533333Y-114100000D01*
X125628571Y-114052380D01*
X125866666Y-114052380D01*
X126009523Y-114100000D01*
X126342857Y-114052380D02*
X126580952Y-115052380D01*
X126771428Y-114338095D01*
X126961904Y-115052380D01*
X127200000Y-114052380D01*
X127580952Y-115052380D02*
X127580952Y-114052380D01*
X127819047Y-114052380D01*
X127961904Y-114100000D01*
X128057142Y-114195238D01*
X128104761Y-114290476D01*
X128152380Y-114480952D01*
X128152380Y-114623809D01*
X128104761Y-114814285D01*
X128057142Y-114909523D01*
X127961904Y-115004761D01*
X127819047Y-115052380D01*
X127580952Y-115052380D01*
X129152380Y-114957142D02*
X129104761Y-115004761D01*
X128961904Y-115052380D01*
X128866666Y-115052380D01*
X128723809Y-115004761D01*
X128628571Y-114909523D01*
X128580952Y-114814285D01*
X128533333Y-114623809D01*
X128533333Y-114480952D01*
X128580952Y-114290476D01*
X128628571Y-114195238D01*
X128723809Y-114100000D01*
X128866666Y-114052380D01*
X128961904Y-114052380D01*
X129104761Y-114100000D01*
X129152380Y-114147619D01*
X130057142Y-115052380D02*
X129580952Y-115052380D01*
X129580952Y-114052380D01*
X130390476Y-115052380D02*
X130390476Y-114052380D01*
X130961904Y-115052380D02*
X130533333Y-114480952D01*
X130961904Y-114052380D02*
X130390476Y-114623809D01*
X125480952Y-117204761D02*
X125623809Y-117252380D01*
X125861904Y-117252380D01*
X125957142Y-117204761D01*
X126004761Y-117157142D01*
X126052380Y-117061904D01*
X126052380Y-116966666D01*
X126004761Y-116871428D01*
X125957142Y-116823809D01*
X125861904Y-116776190D01*
X125671428Y-116728571D01*
X125576190Y-116680952D01*
X125528571Y-116633333D01*
X125480952Y-116538095D01*
X125480952Y-116442857D01*
X125528571Y-116347619D01*
X125576190Y-116300000D01*
X125671428Y-116252380D01*
X125909523Y-116252380D01*
X126052380Y-116300000D01*
X126385714Y-116252380D02*
X126623809Y-117252380D01*
X126814285Y-116538095D01*
X127004761Y-117252380D01*
X127242857Y-116252380D01*
X127623809Y-117252380D02*
X127623809Y-116252380D01*
X127861904Y-116252380D01*
X128004761Y-116300000D01*
X128100000Y-116395238D01*
X128147619Y-116490476D01*
X128195238Y-116680952D01*
X128195238Y-116823809D01*
X128147619Y-117014285D01*
X128100000Y-117109523D01*
X128004761Y-117204761D01*
X127861904Y-117252380D01*
X127623809Y-117252380D01*
X128623809Y-117252380D02*
X128623809Y-116252380D01*
X129290476Y-116252380D02*
X129480952Y-116252380D01*
X129576190Y-116300000D01*
X129671428Y-116395238D01*
X129719047Y-116585714D01*
X129719047Y-116919047D01*
X129671428Y-117109523D01*
X129576190Y-117204761D01*
X129480952Y-117252380D01*
X129290476Y-117252380D01*
X129195238Y-117204761D01*
X129100000Y-117109523D01*
X129052380Y-116919047D01*
X129052380Y-116585714D01*
X129100000Y-116395238D01*
X129195238Y-116300000D01*
X129290476Y-116252380D01*
X112119047Y-135052380D02*
X112119047Y-134052380D01*
X112357142Y-134052380D01*
X112500000Y-134100000D01*
X112595238Y-134195238D01*
X112642857Y-134290476D01*
X112690476Y-134480952D01*
X112690476Y-134623809D01*
X112642857Y-134814285D01*
X112595238Y-134909523D01*
X112500000Y-135004761D01*
X112357142Y-135052380D01*
X112119047Y-135052380D01*
X113119047Y-134671428D02*
X113880952Y-134671428D01*
X112119047Y-132252380D02*
X112119047Y-131252380D01*
X112357142Y-131252380D01*
X112500000Y-131300000D01*
X112595238Y-131395238D01*
X112642857Y-131490476D01*
X112690476Y-131680952D01*
X112690476Y-131823809D01*
X112642857Y-132014285D01*
X112595238Y-132109523D01*
X112500000Y-132204761D01*
X112357142Y-132252380D01*
X112119047Y-132252380D01*
X113119047Y-131871428D02*
X113880952Y-131871428D01*
X113500000Y-132252380D02*
X113500000Y-131490476D01*
X111814285Y-128852380D02*
X112147619Y-129852380D01*
X112480952Y-128852380D01*
X113147619Y-129328571D02*
X113290476Y-129376190D01*
X113338095Y-129423809D01*
X113385714Y-129519047D01*
X113385714Y-129661904D01*
X113338095Y-129757142D01*
X113290476Y-129804761D01*
X113195238Y-129852380D01*
X112814285Y-129852380D01*
X112814285Y-128852380D01*
X113147619Y-128852380D01*
X113242857Y-128900000D01*
X113290476Y-128947619D01*
X113338095Y-129042857D01*
X113338095Y-129138095D01*
X113290476Y-129233333D01*
X113242857Y-129280952D01*
X113147619Y-129328571D01*
X112814285Y-129328571D01*
X113814285Y-128852380D02*
X113814285Y-129661904D01*
X113861904Y-129757142D01*
X113909523Y-129804761D01*
X114004761Y-129852380D01*
X114195238Y-129852380D01*
X114290476Y-129804761D01*
X114338095Y-129757142D01*
X114385714Y-129661904D01*
X114385714Y-128852380D01*
X114814285Y-129804761D02*
X114957142Y-129852380D01*
X115195238Y-129852380D01*
X115290476Y-129804761D01*
X115338095Y-129757142D01*
X115385714Y-129661904D01*
X115385714Y-129566666D01*
X115338095Y-129471428D01*
X115290476Y-129423809D01*
X115195238Y-129376190D01*
X115004761Y-129328571D01*
X114909523Y-129280952D01*
X114861904Y-129233333D01*
X114814285Y-129138095D01*
X114814285Y-129042857D01*
X114861904Y-128947619D01*
X114909523Y-128900000D01*
X115004761Y-128852380D01*
X115242857Y-128852380D01*
X115385714Y-128900000D01*
X116861904Y-130233333D02*
X116814285Y-130185714D01*
X116719047Y-130042857D01*
X116671428Y-129947619D01*
X116623809Y-129804761D01*
X116576190Y-129566666D01*
X116576190Y-129376190D01*
X116623809Y-129138095D01*
X116671428Y-128995238D01*
X116719047Y-128900000D01*
X116814285Y-128757142D01*
X116861904Y-128709523D01*
X117719047Y-128852380D02*
X117242857Y-128852380D01*
X117195238Y-129328571D01*
X117242857Y-129280952D01*
X117338095Y-129233333D01*
X117576190Y-129233333D01*
X117671428Y-129280952D01*
X117719047Y-129328571D01*
X117766666Y-129423809D01*
X117766666Y-129661904D01*
X117719047Y-129757142D01*
X117671428Y-129804761D01*
X117576190Y-129852380D01*
X117338095Y-129852380D01*
X117242857Y-129804761D01*
X117195238Y-129757142D01*
X118052380Y-128852380D02*
X118385714Y-129852380D01*
X118719047Y-128852380D01*
X118957142Y-130233333D02*
X119004761Y-130185714D01*
X119100000Y-130042857D01*
X119147619Y-129947619D01*
X119195238Y-129804761D01*
X119242857Y-129566666D01*
X119242857Y-129376190D01*
X119195238Y-129138095D01*
X119147619Y-128995238D01*
X119100000Y-128900000D01*
X119004761Y-128757142D01*
X118957142Y-128709523D01*
X132871428Y-102452380D02*
X132871428Y-101452380D01*
X133252380Y-101452380D01*
X133347619Y-101500000D01*
X133395238Y-101547619D01*
X133442857Y-101642857D01*
X133442857Y-101785714D01*
X133395238Y-101880952D01*
X133347619Y-101928571D01*
X133252380Y-101976190D01*
X132871428Y-101976190D01*
X134395238Y-102452380D02*
X133823809Y-102452380D01*
X134109523Y-102452380D02*
X134109523Y-101452380D01*
X134014285Y-101595238D01*
X133919047Y-101690476D01*
X133823809Y-101738095D01*
X134823809Y-102357142D02*
X134871428Y-102404761D01*
X134823809Y-102452380D01*
X134776190Y-102404761D01*
X134823809Y-102357142D01*
X134823809Y-102452380D01*
X135490476Y-101452380D02*
X135585714Y-101452380D01*
X135680952Y-101500000D01*
X135728571Y-101547619D01*
X135776190Y-101642857D01*
X135823809Y-101833333D01*
X135823809Y-102071428D01*
X135776190Y-102261904D01*
X135728571Y-102357142D01*
X135680952Y-102404761D01*
X135585714Y-102452380D01*
X135490476Y-102452380D01*
X135395238Y-102404761D01*
X135347619Y-102357142D01*
X135300000Y-102261904D01*
X135252380Y-102071428D01*
X135252380Y-101833333D01*
X135300000Y-101642857D01*
X135347619Y-101547619D01*
X135395238Y-101500000D01*
X135490476Y-101452380D01*
X136442857Y-101452380D02*
X136538095Y-101452380D01*
X136633333Y-101500000D01*
X136680952Y-101547619D01*
X136728571Y-101642857D01*
X136776190Y-101833333D01*
X136776190Y-102071428D01*
X136728571Y-102261904D01*
X136680952Y-102357142D01*
X136633333Y-102404761D01*
X136538095Y-102452380D01*
X136442857Y-102452380D01*
X136347619Y-102404761D01*
X136300000Y-102357142D01*
X136252380Y-102261904D01*
X136204761Y-102071428D01*
X136204761Y-101833333D01*
X136252380Y-101642857D01*
X136300000Y-101547619D01*
X136347619Y-101500000D01*
X136442857Y-101452380D01*
X111990476Y-127452380D02*
X111990476Y-126452380D01*
X112371428Y-126452380D01*
X112466666Y-126500000D01*
X112514285Y-126547619D01*
X112561904Y-126642857D01*
X112561904Y-126785714D01*
X112514285Y-126880952D01*
X112466666Y-126928571D01*
X112371428Y-126976190D01*
X111990476Y-126976190D01*
X113180952Y-126452380D02*
X113276190Y-126452380D01*
X113371428Y-126500000D01*
X113419047Y-126547619D01*
X113466666Y-126642857D01*
X113514285Y-126833333D01*
X113514285Y-127071428D01*
X113466666Y-127261904D01*
X113419047Y-127357142D01*
X113371428Y-127404761D01*
X113276190Y-127452380D01*
X113180952Y-127452380D01*
X113085714Y-127404761D01*
X113038095Y-127357142D01*
X112990476Y-127261904D01*
X112942857Y-127071428D01*
X112942857Y-126833333D01*
X112990476Y-126642857D01*
X113038095Y-126547619D01*
X113085714Y-126500000D01*
X113180952Y-126452380D01*
X113942857Y-127357142D02*
X113990476Y-127404761D01*
X113942857Y-127452380D01*
X113895238Y-127404761D01*
X113942857Y-127357142D01*
X113942857Y-127452380D01*
X114942857Y-127452380D02*
X114371428Y-127452380D01*
X114657142Y-127452380D02*
X114657142Y-126452380D01*
X114561904Y-126595238D01*
X114466666Y-126690476D01*
X114371428Y-126738095D01*
X115514285Y-126880952D02*
X115419047Y-126833333D01*
X115371428Y-126785714D01*
X115323809Y-126690476D01*
X115323809Y-126642857D01*
X115371428Y-126547619D01*
X115419047Y-126500000D01*
X115514285Y-126452380D01*
X115704761Y-126452380D01*
X115800000Y-126500000D01*
X115847619Y-126547619D01*
X115895238Y-126642857D01*
X115895238Y-126690476D01*
X115847619Y-126785714D01*
X115800000Y-126833333D01*
X115704761Y-126880952D01*
X115514285Y-126880952D01*
X115419047Y-126928571D01*
X115371428Y-126976190D01*
X115323809Y-127071428D01*
X115323809Y-127261904D01*
X115371428Y-127357142D01*
X115419047Y-127404761D01*
X115514285Y-127452380D01*
X115704761Y-127452380D01*
X115800000Y-127404761D01*
X115847619Y-127357142D01*
X115895238Y-127261904D01*
X115895238Y-127071428D01*
X115847619Y-126976190D01*
X115800000Y-126928571D01*
X115704761Y-126880952D01*
X117038095Y-126404761D02*
X116180952Y-127690476D01*
X117942857Y-127452380D02*
X117609523Y-126976190D01*
X117371428Y-127452380D02*
X117371428Y-126452380D01*
X117752380Y-126452380D01*
X117847619Y-126500000D01*
X117895238Y-126547619D01*
X117942857Y-126642857D01*
X117942857Y-126785714D01*
X117895238Y-126880952D01*
X117847619Y-126928571D01*
X117752380Y-126976190D01*
X117371428Y-126976190D01*
X118323809Y-127404761D02*
X118466666Y-127452380D01*
X118704761Y-127452380D01*
X118800000Y-127404761D01*
X118847619Y-127357142D01*
X118895238Y-127261904D01*
X118895238Y-127166666D01*
X118847619Y-127071428D01*
X118800000Y-127023809D01*
X118704761Y-126976190D01*
X118514285Y-126928571D01*
X118419047Y-126880952D01*
X118371428Y-126833333D01*
X118323809Y-126738095D01*
X118323809Y-126642857D01*
X118371428Y-126547619D01*
X118419047Y-126500000D01*
X118514285Y-126452380D01*
X118752380Y-126452380D01*
X118895238Y-126500000D01*
X119180952Y-126452380D02*
X119752380Y-126452380D01*
X119466666Y-127452380D02*
X119466666Y-126452380D01*
X111839920Y-114652664D02*
X111839920Y-113652664D01*
X112220872Y-113652664D01*
X112316111Y-113700284D01*
X112363730Y-113747903D01*
X112411349Y-113843141D01*
X112411349Y-113985998D01*
X112363730Y-114081236D01*
X112316111Y-114128855D01*
X112220872Y-114176474D01*
X111839920Y-114176474D01*
X113363730Y-114652664D02*
X112792301Y-114652664D01*
X113078015Y-114652664D02*
X113078015Y-113652664D01*
X112982777Y-113795522D01*
X112887539Y-113890760D01*
X112792301Y-113938379D01*
X113792301Y-114557426D02*
X113839920Y-114605045D01*
X113792301Y-114652664D01*
X113744682Y-114605045D01*
X113792301Y-114557426D01*
X113792301Y-114652664D01*
X114458968Y-113652664D02*
X114554206Y-113652664D01*
X114649444Y-113700284D01*
X114697063Y-113747903D01*
X114744682Y-113843141D01*
X114792301Y-114033617D01*
X114792301Y-114271712D01*
X114744682Y-114462188D01*
X114697063Y-114557426D01*
X114649444Y-114605045D01*
X114554206Y-114652664D01*
X114458968Y-114652664D01*
X114363730Y-114605045D01*
X114316111Y-114557426D01*
X114268492Y-114462188D01*
X114220872Y-114271712D01*
X114220872Y-114033617D01*
X114268492Y-113843141D01*
X114316111Y-113747903D01*
X114363730Y-113700284D01*
X114458968Y-113652664D01*
X115268492Y-114652664D02*
X115458968Y-114652664D01*
X115554206Y-114605045D01*
X115601825Y-114557426D01*
X115697063Y-114414569D01*
X115744682Y-114224093D01*
X115744682Y-113843141D01*
X115697063Y-113747903D01*
X115649444Y-113700284D01*
X115554206Y-113652664D01*
X115363730Y-113652664D01*
X115268492Y-113700284D01*
X115220872Y-113747903D01*
X115173253Y-113843141D01*
X115173253Y-114081236D01*
X115220872Y-114176474D01*
X115268492Y-114224093D01*
X115363730Y-114271712D01*
X115554206Y-114271712D01*
X115649444Y-114224093D01*
X115697063Y-114176474D01*
X115744682Y-114081236D01*
X111839920Y-122852664D02*
X111839920Y-121852664D01*
X112220872Y-121852664D01*
X112316111Y-121900284D01*
X112363730Y-121947903D01*
X112411349Y-122043141D01*
X112411349Y-122185998D01*
X112363730Y-122281236D01*
X112316111Y-122328855D01*
X112220872Y-122376474D01*
X111839920Y-122376474D01*
X113030396Y-121852664D02*
X113125634Y-121852664D01*
X113220872Y-121900284D01*
X113268492Y-121947903D01*
X113316111Y-122043141D01*
X113363730Y-122233617D01*
X113363730Y-122471712D01*
X113316111Y-122662188D01*
X113268492Y-122757426D01*
X113220872Y-122805045D01*
X113125634Y-122852664D01*
X113030396Y-122852664D01*
X112935158Y-122805045D01*
X112887539Y-122757426D01*
X112839920Y-122662188D01*
X112792301Y-122471712D01*
X112792301Y-122233617D01*
X112839920Y-122043141D01*
X112887539Y-121947903D01*
X112935158Y-121900284D01*
X113030396Y-121852664D01*
X113792301Y-122757426D02*
X113839920Y-122805045D01*
X113792301Y-122852664D01*
X113744682Y-122805045D01*
X113792301Y-122757426D01*
X113792301Y-122852664D01*
X114220872Y-121947903D02*
X114268492Y-121900284D01*
X114363730Y-121852664D01*
X114601825Y-121852664D01*
X114697063Y-121900284D01*
X114744682Y-121947903D01*
X114792301Y-122043141D01*
X114792301Y-122138379D01*
X114744682Y-122281236D01*
X114173253Y-122852664D01*
X114792301Y-122852664D01*
X115744682Y-122852664D02*
X115173253Y-122852664D01*
X115458968Y-122852664D02*
X115458968Y-121852664D01*
X115363730Y-121995522D01*
X115268492Y-122090760D01*
X115173253Y-122138379D01*
X111839920Y-120052664D02*
X111839920Y-119052664D01*
X112220872Y-119052664D01*
X112316111Y-119100284D01*
X112363730Y-119147903D01*
X112411349Y-119243141D01*
X112411349Y-119385998D01*
X112363730Y-119481236D01*
X112316111Y-119528855D01*
X112220872Y-119576474D01*
X111839920Y-119576474D01*
X113030396Y-119052664D02*
X113125634Y-119052664D01*
X113220872Y-119100284D01*
X113268492Y-119147903D01*
X113316111Y-119243141D01*
X113363730Y-119433617D01*
X113363730Y-119671712D01*
X113316111Y-119862188D01*
X113268492Y-119957426D01*
X113220872Y-120005045D01*
X113125634Y-120052664D01*
X113030396Y-120052664D01*
X112935158Y-120005045D01*
X112887539Y-119957426D01*
X112839920Y-119862188D01*
X112792301Y-119671712D01*
X112792301Y-119433617D01*
X112839920Y-119243141D01*
X112887539Y-119147903D01*
X112935158Y-119100284D01*
X113030396Y-119052664D01*
X113792301Y-119957426D02*
X113839920Y-120005045D01*
X113792301Y-120052664D01*
X113744682Y-120005045D01*
X113792301Y-119957426D01*
X113792301Y-120052664D01*
X114220872Y-119147903D02*
X114268492Y-119100284D01*
X114363730Y-119052664D01*
X114601825Y-119052664D01*
X114697063Y-119100284D01*
X114744682Y-119147903D01*
X114792301Y-119243141D01*
X114792301Y-119338379D01*
X114744682Y-119481236D01*
X114173253Y-120052664D01*
X114792301Y-120052664D01*
X115125634Y-119052664D02*
X115744682Y-119052664D01*
X115411349Y-119433617D01*
X115554206Y-119433617D01*
X115649444Y-119481236D01*
X115697063Y-119528855D01*
X115744682Y-119624093D01*
X115744682Y-119862188D01*
X115697063Y-119957426D01*
X115649444Y-120005045D01*
X115554206Y-120052664D01*
X115268492Y-120052664D01*
X115173253Y-120005045D01*
X115125634Y-119957426D01*
X111839920Y-125252664D02*
X111839920Y-124252664D01*
X112220872Y-124252664D01*
X112316111Y-124300284D01*
X112363730Y-124347903D01*
X112411349Y-124443141D01*
X112411349Y-124585998D01*
X112363730Y-124681236D01*
X112316111Y-124728855D01*
X112220872Y-124776474D01*
X111839920Y-124776474D01*
X113030396Y-124252664D02*
X113125634Y-124252664D01*
X113220872Y-124300284D01*
X113268492Y-124347903D01*
X113316111Y-124443141D01*
X113363730Y-124633617D01*
X113363730Y-124871712D01*
X113316111Y-125062188D01*
X113268492Y-125157426D01*
X113220872Y-125205045D01*
X113125634Y-125252664D01*
X113030396Y-125252664D01*
X112935158Y-125205045D01*
X112887539Y-125157426D01*
X112839920Y-125062188D01*
X112792301Y-124871712D01*
X112792301Y-124633617D01*
X112839920Y-124443141D01*
X112887539Y-124347903D01*
X112935158Y-124300284D01*
X113030396Y-124252664D01*
X113792301Y-125157426D02*
X113839920Y-125205045D01*
X113792301Y-125252664D01*
X113744682Y-125205045D01*
X113792301Y-125157426D01*
X113792301Y-125252664D01*
X114792301Y-125252664D02*
X114220872Y-125252664D01*
X114506587Y-125252664D02*
X114506587Y-124252664D01*
X114411349Y-124395522D01*
X114316111Y-124490760D01*
X114220872Y-124538379D01*
X115268492Y-125252664D02*
X115458968Y-125252664D01*
X115554206Y-125205045D01*
X115601825Y-125157426D01*
X115697063Y-125014569D01*
X115744682Y-124824093D01*
X115744682Y-124443141D01*
X115697063Y-124347903D01*
X115649444Y-124300284D01*
X115554206Y-124252664D01*
X115363730Y-124252664D01*
X115268492Y-124300284D01*
X115220872Y-124347903D01*
X115173253Y-124443141D01*
X115173253Y-124681236D01*
X115220872Y-124776474D01*
X115268492Y-124824093D01*
X115363730Y-124871712D01*
X115554206Y-124871712D01*
X115649444Y-124824093D01*
X115697063Y-124776474D01*
X115744682Y-124681236D01*
X111839920Y-117452664D02*
X111839920Y-116452664D01*
X112220872Y-116452664D01*
X112316111Y-116500284D01*
X112363730Y-116547903D01*
X112411349Y-116643141D01*
X112411349Y-116785998D01*
X112363730Y-116881236D01*
X112316111Y-116928855D01*
X112220872Y-116976474D01*
X111839920Y-116976474D01*
X113030396Y-116452664D02*
X113125634Y-116452664D01*
X113220872Y-116500284D01*
X113268492Y-116547903D01*
X113316111Y-116643141D01*
X113363730Y-116833617D01*
X113363730Y-117071712D01*
X113316111Y-117262188D01*
X113268492Y-117357426D01*
X113220872Y-117405045D01*
X113125634Y-117452664D01*
X113030396Y-117452664D01*
X112935158Y-117405045D01*
X112887539Y-117357426D01*
X112839920Y-117262188D01*
X112792301Y-117071712D01*
X112792301Y-116833617D01*
X112839920Y-116643141D01*
X112887539Y-116547903D01*
X112935158Y-116500284D01*
X113030396Y-116452664D01*
X113792301Y-117357426D02*
X113839920Y-117405045D01*
X113792301Y-117452664D01*
X113744682Y-117405045D01*
X113792301Y-117357426D01*
X113792301Y-117452664D01*
X114792301Y-117452664D02*
X114220872Y-117452664D01*
X114506587Y-117452664D02*
X114506587Y-116452664D01*
X114411349Y-116595522D01*
X114316111Y-116690760D01*
X114220872Y-116738379D01*
X115173253Y-116547903D02*
X115220872Y-116500284D01*
X115316111Y-116452664D01*
X115554206Y-116452664D01*
X115649444Y-116500284D01*
X115697063Y-116547903D01*
X115744682Y-116643141D01*
X115744682Y-116738379D01*
X115697063Y-116881236D01*
X115125634Y-117452664D01*
X115744682Y-117452664D01*
X111839920Y-112252664D02*
X111839920Y-111252664D01*
X112220872Y-111252664D01*
X112316111Y-111300284D01*
X112363730Y-111347903D01*
X112411349Y-111443141D01*
X112411349Y-111585998D01*
X112363730Y-111681236D01*
X112316111Y-111728855D01*
X112220872Y-111776474D01*
X111839920Y-111776474D01*
X113030396Y-111252664D02*
X113125634Y-111252664D01*
X113220872Y-111300284D01*
X113268492Y-111347903D01*
X113316111Y-111443141D01*
X113363730Y-111633617D01*
X113363730Y-111871712D01*
X113316111Y-112062188D01*
X113268492Y-112157426D01*
X113220872Y-112205045D01*
X113125634Y-112252664D01*
X113030396Y-112252664D01*
X112935158Y-112205045D01*
X112887539Y-112157426D01*
X112839920Y-112062188D01*
X112792301Y-111871712D01*
X112792301Y-111633617D01*
X112839920Y-111443141D01*
X112887539Y-111347903D01*
X112935158Y-111300284D01*
X113030396Y-111252664D01*
X113792301Y-112157426D02*
X113839920Y-112205045D01*
X113792301Y-112252664D01*
X113744682Y-112205045D01*
X113792301Y-112157426D01*
X113792301Y-112252664D01*
X114458968Y-111252664D02*
X114554206Y-111252664D01*
X114649444Y-111300284D01*
X114697063Y-111347903D01*
X114744682Y-111443141D01*
X114792301Y-111633617D01*
X114792301Y-111871712D01*
X114744682Y-112062188D01*
X114697063Y-112157426D01*
X114649444Y-112205045D01*
X114554206Y-112252664D01*
X114458968Y-112252664D01*
X114363730Y-112205045D01*
X114316111Y-112157426D01*
X114268492Y-112062188D01*
X114220872Y-111871712D01*
X114220872Y-111633617D01*
X114268492Y-111443141D01*
X114316111Y-111347903D01*
X114363730Y-111300284D01*
X114458968Y-111252664D01*
X115125634Y-111252664D02*
X115792301Y-111252664D01*
X115363730Y-112252664D01*
X132871428Y-125252380D02*
X132871428Y-124252380D01*
X133252380Y-124252380D01*
X133347619Y-124300000D01*
X133395238Y-124347619D01*
X133442857Y-124442857D01*
X133442857Y-124585714D01*
X133395238Y-124680952D01*
X133347619Y-124728571D01*
X133252380Y-124776190D01*
X132871428Y-124776190D01*
X134061904Y-124252380D02*
X134157142Y-124252380D01*
X134252380Y-124300000D01*
X134300000Y-124347619D01*
X134347619Y-124442857D01*
X134395238Y-124633333D01*
X134395238Y-124871428D01*
X134347619Y-125061904D01*
X134300000Y-125157142D01*
X134252380Y-125204761D01*
X134157142Y-125252380D01*
X134061904Y-125252380D01*
X133966666Y-125204761D01*
X133919047Y-125157142D01*
X133871428Y-125061904D01*
X133823809Y-124871428D01*
X133823809Y-124633333D01*
X133871428Y-124442857D01*
X133919047Y-124347619D01*
X133966666Y-124300000D01*
X134061904Y-124252380D01*
X134823809Y-125157142D02*
X134871428Y-125204761D01*
X134823809Y-125252380D01*
X134776190Y-125204761D01*
X134823809Y-125157142D01*
X134823809Y-125252380D01*
X135823809Y-125252380D02*
X135252380Y-125252380D01*
X135538095Y-125252380D02*
X135538095Y-124252380D01*
X135442857Y-124395238D01*
X135347619Y-124490476D01*
X135252380Y-124538095D01*
X136157142Y-124252380D02*
X136776190Y-124252380D01*
X136442857Y-124633333D01*
X136585714Y-124633333D01*
X136680952Y-124680952D01*
X136728571Y-124728571D01*
X136776190Y-124823809D01*
X136776190Y-125061904D01*
X136728571Y-125157142D01*
X136680952Y-125204761D01*
X136585714Y-125252380D01*
X136300000Y-125252380D01*
X136204761Y-125204761D01*
X136157142Y-125157142D01*
X132871428Y-122452380D02*
X132871428Y-121452380D01*
X133252380Y-121452380D01*
X133347619Y-121500000D01*
X133395238Y-121547619D01*
X133442857Y-121642857D01*
X133442857Y-121785714D01*
X133395238Y-121880952D01*
X133347619Y-121928571D01*
X133252380Y-121976190D01*
X132871428Y-121976190D01*
X134061904Y-121452380D02*
X134157142Y-121452380D01*
X134252380Y-121500000D01*
X134300000Y-121547619D01*
X134347619Y-121642857D01*
X134395238Y-121833333D01*
X134395238Y-122071428D01*
X134347619Y-122261904D01*
X134300000Y-122357142D01*
X134252380Y-122404761D01*
X134157142Y-122452380D01*
X134061904Y-122452380D01*
X133966666Y-122404761D01*
X133919047Y-122357142D01*
X133871428Y-122261904D01*
X133823809Y-122071428D01*
X133823809Y-121833333D01*
X133871428Y-121642857D01*
X133919047Y-121547619D01*
X133966666Y-121500000D01*
X134061904Y-121452380D01*
X134823809Y-122357142D02*
X134871428Y-122404761D01*
X134823809Y-122452380D01*
X134776190Y-122404761D01*
X134823809Y-122357142D01*
X134823809Y-122452380D01*
X135823809Y-122452380D02*
X135252380Y-122452380D01*
X135538095Y-122452380D02*
X135538095Y-121452380D01*
X135442857Y-121595238D01*
X135347619Y-121690476D01*
X135252380Y-121738095D01*
X136680952Y-121785714D02*
X136680952Y-122452380D01*
X136442857Y-121404761D02*
X136204761Y-122119047D01*
X136823809Y-122119047D01*
X132871428Y-127852380D02*
X132871428Y-126852380D01*
X133252380Y-126852380D01*
X133347619Y-126900000D01*
X133395238Y-126947619D01*
X133442857Y-127042857D01*
X133442857Y-127185714D01*
X133395238Y-127280952D01*
X133347619Y-127328571D01*
X133252380Y-127376190D01*
X132871428Y-127376190D01*
X134061904Y-126852380D02*
X134157142Y-126852380D01*
X134252380Y-126900000D01*
X134300000Y-126947619D01*
X134347619Y-127042857D01*
X134395238Y-127233333D01*
X134395238Y-127471428D01*
X134347619Y-127661904D01*
X134300000Y-127757142D01*
X134252380Y-127804761D01*
X134157142Y-127852380D01*
X134061904Y-127852380D01*
X133966666Y-127804761D01*
X133919047Y-127757142D01*
X133871428Y-127661904D01*
X133823809Y-127471428D01*
X133823809Y-127233333D01*
X133871428Y-127042857D01*
X133919047Y-126947619D01*
X133966666Y-126900000D01*
X134061904Y-126852380D01*
X134823809Y-127757142D02*
X134871428Y-127804761D01*
X134823809Y-127852380D01*
X134776190Y-127804761D01*
X134823809Y-127757142D01*
X134823809Y-127852380D01*
X135823809Y-127852380D02*
X135252380Y-127852380D01*
X135538095Y-127852380D02*
X135538095Y-126852380D01*
X135442857Y-126995238D01*
X135347619Y-127090476D01*
X135252380Y-127138095D01*
X136680952Y-126852380D02*
X136490476Y-126852380D01*
X136395238Y-126900000D01*
X136347619Y-126947619D01*
X136252380Y-127090476D01*
X136204761Y-127280952D01*
X136204761Y-127661904D01*
X136252380Y-127757142D01*
X136300000Y-127804761D01*
X136395238Y-127852380D01*
X136585714Y-127852380D01*
X136680952Y-127804761D01*
X136728571Y-127757142D01*
X136776190Y-127661904D01*
X136776190Y-127423809D01*
X136728571Y-127328571D01*
X136680952Y-127280952D01*
X136585714Y-127233333D01*
X136395238Y-127233333D01*
X136300000Y-127280952D01*
X136252380Y-127328571D01*
X136204761Y-127423809D01*
X132671428Y-119852380D02*
X132671428Y-118852380D01*
X133052380Y-118852380D01*
X133147619Y-118900000D01*
X133195238Y-118947619D01*
X133242857Y-119042857D01*
X133242857Y-119185714D01*
X133195238Y-119280952D01*
X133147619Y-119328571D01*
X133052380Y-119376190D01*
X132671428Y-119376190D01*
X133861904Y-118852380D02*
X133957142Y-118852380D01*
X134052380Y-118900000D01*
X134100000Y-118947619D01*
X134147619Y-119042857D01*
X134195238Y-119233333D01*
X134195238Y-119471428D01*
X134147619Y-119661904D01*
X134100000Y-119757142D01*
X134052380Y-119804761D01*
X133957142Y-119852380D01*
X133861904Y-119852380D01*
X133766666Y-119804761D01*
X133719047Y-119757142D01*
X133671428Y-119661904D01*
X133623809Y-119471428D01*
X133623809Y-119233333D01*
X133671428Y-119042857D01*
X133719047Y-118947619D01*
X133766666Y-118900000D01*
X133861904Y-118852380D01*
X134623809Y-119757142D02*
X134671428Y-119804761D01*
X134623809Y-119852380D01*
X134576190Y-119804761D01*
X134623809Y-119757142D01*
X134623809Y-119852380D01*
X135623809Y-119852380D02*
X135052380Y-119852380D01*
X135338095Y-119852380D02*
X135338095Y-118852380D01*
X135242857Y-118995238D01*
X135147619Y-119090476D01*
X135052380Y-119138095D01*
X136528571Y-118852380D02*
X136052380Y-118852380D01*
X136004761Y-119328571D01*
X136052380Y-119280952D01*
X136147619Y-119233333D01*
X136385714Y-119233333D01*
X136480952Y-119280952D01*
X136528571Y-119328571D01*
X136576190Y-119423809D01*
X136576190Y-119661904D01*
X136528571Y-119757142D01*
X136480952Y-119804761D01*
X136385714Y-119852380D01*
X136147619Y-119852380D01*
X136052380Y-119804761D01*
X136004761Y-119757142D01*
X132871428Y-115252380D02*
X132871428Y-114252380D01*
X133252380Y-114252380D01*
X133347619Y-114300000D01*
X133395238Y-114347619D01*
X133442857Y-114442857D01*
X133442857Y-114585714D01*
X133395238Y-114680952D01*
X133347619Y-114728571D01*
X133252380Y-114776190D01*
X132871428Y-114776190D01*
X134061904Y-114252380D02*
X134157142Y-114252380D01*
X134252380Y-114300000D01*
X134300000Y-114347619D01*
X134347619Y-114442857D01*
X134395238Y-114633333D01*
X134395238Y-114871428D01*
X134347619Y-115061904D01*
X134300000Y-115157142D01*
X134252380Y-115204761D01*
X134157142Y-115252380D01*
X134061904Y-115252380D01*
X133966666Y-115204761D01*
X133919047Y-115157142D01*
X133871428Y-115061904D01*
X133823809Y-114871428D01*
X133823809Y-114633333D01*
X133871428Y-114442857D01*
X133919047Y-114347619D01*
X133966666Y-114300000D01*
X134061904Y-114252380D01*
X134823809Y-115157142D02*
X134871428Y-115204761D01*
X134823809Y-115252380D01*
X134776190Y-115204761D01*
X134823809Y-115157142D01*
X134823809Y-115252380D01*
X135252380Y-114347619D02*
X135300000Y-114300000D01*
X135395238Y-114252380D01*
X135633333Y-114252380D01*
X135728571Y-114300000D01*
X135776190Y-114347619D01*
X135823809Y-114442857D01*
X135823809Y-114538095D01*
X135776190Y-114680952D01*
X135204761Y-115252380D01*
X135823809Y-115252380D01*
X136442857Y-114252380D02*
X136538095Y-114252380D01*
X136633333Y-114300000D01*
X136680952Y-114347619D01*
X136728571Y-114442857D01*
X136776190Y-114633333D01*
X136776190Y-114871428D01*
X136728571Y-115061904D01*
X136680952Y-115157142D01*
X136633333Y-115204761D01*
X136538095Y-115252380D01*
X136442857Y-115252380D01*
X136347619Y-115204761D01*
X136300000Y-115157142D01*
X136252380Y-115061904D01*
X136204761Y-114871428D01*
X136204761Y-114633333D01*
X136252380Y-114442857D01*
X136300000Y-114347619D01*
X136347619Y-114300000D01*
X136442857Y-114252380D01*
X132871428Y-112452380D02*
X132871428Y-111452380D01*
X133252380Y-111452380D01*
X133347619Y-111500000D01*
X133395238Y-111547619D01*
X133442857Y-111642857D01*
X133442857Y-111785714D01*
X133395238Y-111880952D01*
X133347619Y-111928571D01*
X133252380Y-111976190D01*
X132871428Y-111976190D01*
X134061904Y-111452380D02*
X134157142Y-111452380D01*
X134252380Y-111500000D01*
X134300000Y-111547619D01*
X134347619Y-111642857D01*
X134395238Y-111833333D01*
X134395238Y-112071428D01*
X134347619Y-112261904D01*
X134300000Y-112357142D01*
X134252380Y-112404761D01*
X134157142Y-112452380D01*
X134061904Y-112452380D01*
X133966666Y-112404761D01*
X133919047Y-112357142D01*
X133871428Y-112261904D01*
X133823809Y-112071428D01*
X133823809Y-111833333D01*
X133871428Y-111642857D01*
X133919047Y-111547619D01*
X133966666Y-111500000D01*
X134061904Y-111452380D01*
X134823809Y-112357142D02*
X134871428Y-112404761D01*
X134823809Y-112452380D01*
X134776190Y-112404761D01*
X134823809Y-112357142D01*
X134823809Y-112452380D01*
X135252380Y-111547619D02*
X135300000Y-111500000D01*
X135395238Y-111452380D01*
X135633333Y-111452380D01*
X135728571Y-111500000D01*
X135776190Y-111547619D01*
X135823809Y-111642857D01*
X135823809Y-111738095D01*
X135776190Y-111880952D01*
X135204761Y-112452380D01*
X135823809Y-112452380D01*
X136680952Y-111785714D02*
X136680952Y-112452380D01*
X136442857Y-111404761D02*
X136204761Y-112119047D01*
X136823809Y-112119047D01*
X132671428Y-117652380D02*
X132671428Y-116652380D01*
X133052380Y-116652380D01*
X133147619Y-116700000D01*
X133195238Y-116747619D01*
X133242857Y-116842857D01*
X133242857Y-116985714D01*
X133195238Y-117080952D01*
X133147619Y-117128571D01*
X133052380Y-117176190D01*
X132671428Y-117176190D01*
X133861904Y-116652380D02*
X133957142Y-116652380D01*
X134052380Y-116700000D01*
X134100000Y-116747619D01*
X134147619Y-116842857D01*
X134195238Y-117033333D01*
X134195238Y-117271428D01*
X134147619Y-117461904D01*
X134100000Y-117557142D01*
X134052380Y-117604761D01*
X133957142Y-117652380D01*
X133861904Y-117652380D01*
X133766666Y-117604761D01*
X133719047Y-117557142D01*
X133671428Y-117461904D01*
X133623809Y-117271428D01*
X133623809Y-117033333D01*
X133671428Y-116842857D01*
X133719047Y-116747619D01*
X133766666Y-116700000D01*
X133861904Y-116652380D01*
X134623809Y-117557142D02*
X134671428Y-117604761D01*
X134623809Y-117652380D01*
X134576190Y-117604761D01*
X134623809Y-117557142D01*
X134623809Y-117652380D01*
X135623809Y-117652380D02*
X135052380Y-117652380D01*
X135338095Y-117652380D02*
X135338095Y-116652380D01*
X135242857Y-116795238D01*
X135147619Y-116890476D01*
X135052380Y-116938095D01*
X135957142Y-116652380D02*
X136623809Y-116652380D01*
X136195238Y-117652380D01*
X132871428Y-107652380D02*
X132871428Y-106652380D01*
X133252380Y-106652380D01*
X133347619Y-106700000D01*
X133395238Y-106747619D01*
X133442857Y-106842857D01*
X133442857Y-106985714D01*
X133395238Y-107080952D01*
X133347619Y-107128571D01*
X133252380Y-107176190D01*
X132871428Y-107176190D01*
X134395238Y-107652380D02*
X133823809Y-107652380D01*
X134109523Y-107652380D02*
X134109523Y-106652380D01*
X134014285Y-106795238D01*
X133919047Y-106890476D01*
X133823809Y-106938095D01*
X134823809Y-107557142D02*
X134871428Y-107604761D01*
X134823809Y-107652380D01*
X134776190Y-107604761D01*
X134823809Y-107557142D01*
X134823809Y-107652380D01*
X135490476Y-106652380D02*
X135585714Y-106652380D01*
X135680952Y-106700000D01*
X135728571Y-106747619D01*
X135776190Y-106842857D01*
X135823809Y-107033333D01*
X135823809Y-107271428D01*
X135776190Y-107461904D01*
X135728571Y-107557142D01*
X135680952Y-107604761D01*
X135585714Y-107652380D01*
X135490476Y-107652380D01*
X135395238Y-107604761D01*
X135347619Y-107557142D01*
X135300000Y-107461904D01*
X135252380Y-107271428D01*
X135252380Y-107033333D01*
X135300000Y-106842857D01*
X135347619Y-106747619D01*
X135395238Y-106700000D01*
X135490476Y-106652380D01*
X136157142Y-106652380D02*
X136823809Y-106652380D01*
X136395238Y-107652380D01*
X132871428Y-110052380D02*
X132871428Y-109052380D01*
X133252380Y-109052380D01*
X133347619Y-109100000D01*
X133395238Y-109147619D01*
X133442857Y-109242857D01*
X133442857Y-109385714D01*
X133395238Y-109480952D01*
X133347619Y-109528571D01*
X133252380Y-109576190D01*
X132871428Y-109576190D01*
X134395238Y-110052380D02*
X133823809Y-110052380D01*
X134109523Y-110052380D02*
X134109523Y-109052380D01*
X134014285Y-109195238D01*
X133919047Y-109290476D01*
X133823809Y-109338095D01*
X134823809Y-109957142D02*
X134871428Y-110004761D01*
X134823809Y-110052380D01*
X134776190Y-110004761D01*
X134823809Y-109957142D01*
X134823809Y-110052380D01*
X135490476Y-109052380D02*
X135585714Y-109052380D01*
X135680952Y-109100000D01*
X135728571Y-109147619D01*
X135776190Y-109242857D01*
X135823809Y-109433333D01*
X135823809Y-109671428D01*
X135776190Y-109861904D01*
X135728571Y-109957142D01*
X135680952Y-110004761D01*
X135585714Y-110052380D01*
X135490476Y-110052380D01*
X135395238Y-110004761D01*
X135347619Y-109957142D01*
X135300000Y-109861904D01*
X135252380Y-109671428D01*
X135252380Y-109433333D01*
X135300000Y-109242857D01*
X135347619Y-109147619D01*
X135395238Y-109100000D01*
X135490476Y-109052380D01*
X136728571Y-109052380D02*
X136252380Y-109052380D01*
X136204761Y-109528571D01*
X136252380Y-109480952D01*
X136347619Y-109433333D01*
X136585714Y-109433333D01*
X136680952Y-109480952D01*
X136728571Y-109528571D01*
X136776190Y-109623809D01*
X136776190Y-109861904D01*
X136728571Y-109957142D01*
X136680952Y-110004761D01*
X136585714Y-110052380D01*
X136347619Y-110052380D01*
X136252380Y-110004761D01*
X136204761Y-109957142D01*
X132871428Y-105052380D02*
X132871428Y-104052380D01*
X133252380Y-104052380D01*
X133347619Y-104100000D01*
X133395238Y-104147619D01*
X133442857Y-104242857D01*
X133442857Y-104385714D01*
X133395238Y-104480952D01*
X133347619Y-104528571D01*
X133252380Y-104576190D01*
X132871428Y-104576190D01*
X134061904Y-104052380D02*
X134157142Y-104052380D01*
X134252380Y-104100000D01*
X134300000Y-104147619D01*
X134347619Y-104242857D01*
X134395238Y-104433333D01*
X134395238Y-104671428D01*
X134347619Y-104861904D01*
X134300000Y-104957142D01*
X134252380Y-105004761D01*
X134157142Y-105052380D01*
X134061904Y-105052380D01*
X133966666Y-105004761D01*
X133919047Y-104957142D01*
X133871428Y-104861904D01*
X133823809Y-104671428D01*
X133823809Y-104433333D01*
X133871428Y-104242857D01*
X133919047Y-104147619D01*
X133966666Y-104100000D01*
X134061904Y-104052380D01*
X134823809Y-104957142D02*
X134871428Y-105004761D01*
X134823809Y-105052380D01*
X134776190Y-105004761D01*
X134823809Y-104957142D01*
X134823809Y-105052380D01*
X135252380Y-104147619D02*
X135300000Y-104100000D01*
X135395238Y-104052380D01*
X135633333Y-104052380D01*
X135728571Y-104100000D01*
X135776190Y-104147619D01*
X135823809Y-104242857D01*
X135823809Y-104338095D01*
X135776190Y-104480952D01*
X135204761Y-105052380D01*
X135823809Y-105052380D01*
X136204761Y-104147619D02*
X136252380Y-104100000D01*
X136347619Y-104052380D01*
X136585714Y-104052380D01*
X136680952Y-104100000D01*
X136728571Y-104147619D01*
X136776190Y-104242857D01*
X136776190Y-104338095D01*
X136728571Y-104480952D01*
X136157142Y-105052380D01*
X136776190Y-105052380D01*
X132871428Y-100052380D02*
X132871428Y-99052380D01*
X133252380Y-99052380D01*
X133347619Y-99100000D01*
X133395238Y-99147619D01*
X133442857Y-99242857D01*
X133442857Y-99385714D01*
X133395238Y-99480952D01*
X133347619Y-99528571D01*
X133252380Y-99576190D01*
X132871428Y-99576190D01*
X134395238Y-100052380D02*
X133823809Y-100052380D01*
X134109523Y-100052380D02*
X134109523Y-99052380D01*
X134014285Y-99195238D01*
X133919047Y-99290476D01*
X133823809Y-99338095D01*
X134823809Y-99957142D02*
X134871428Y-100004761D01*
X134823809Y-100052380D01*
X134776190Y-100004761D01*
X134823809Y-99957142D01*
X134823809Y-100052380D01*
X135490476Y-99052380D02*
X135585714Y-99052380D01*
X135680952Y-99100000D01*
X135728571Y-99147619D01*
X135776190Y-99242857D01*
X135823809Y-99433333D01*
X135823809Y-99671428D01*
X135776190Y-99861904D01*
X135728571Y-99957142D01*
X135680952Y-100004761D01*
X135585714Y-100052380D01*
X135490476Y-100052380D01*
X135395238Y-100004761D01*
X135347619Y-99957142D01*
X135300000Y-99861904D01*
X135252380Y-99671428D01*
X135252380Y-99433333D01*
X135300000Y-99242857D01*
X135347619Y-99147619D01*
X135395238Y-99100000D01*
X135490476Y-99052380D01*
X136157142Y-99052380D02*
X136776190Y-99052380D01*
X136442857Y-99433333D01*
X136585714Y-99433333D01*
X136680952Y-99480952D01*
X136728571Y-99528571D01*
X136776190Y-99623809D01*
X136776190Y-99861904D01*
X136728571Y-99957142D01*
X136680952Y-100004761D01*
X136585714Y-100052380D01*
X136300000Y-100052380D01*
X136204761Y-100004761D01*
X136157142Y-99957142D01*
X132871428Y-94852380D02*
X132871428Y-93852380D01*
X133252380Y-93852380D01*
X133347619Y-93900000D01*
X133395238Y-93947619D01*
X133442857Y-94042857D01*
X133442857Y-94185714D01*
X133395238Y-94280952D01*
X133347619Y-94328571D01*
X133252380Y-94376190D01*
X132871428Y-94376190D01*
X134395238Y-94852380D02*
X133823809Y-94852380D01*
X134109523Y-94852380D02*
X134109523Y-93852380D01*
X134014285Y-93995238D01*
X133919047Y-94090476D01*
X133823809Y-94138095D01*
X134823809Y-94757142D02*
X134871428Y-94804761D01*
X134823809Y-94852380D01*
X134776190Y-94804761D01*
X134823809Y-94757142D01*
X134823809Y-94852380D01*
X135490476Y-93852380D02*
X135585714Y-93852380D01*
X135680952Y-93900000D01*
X135728571Y-93947619D01*
X135776190Y-94042857D01*
X135823809Y-94233333D01*
X135823809Y-94471428D01*
X135776190Y-94661904D01*
X135728571Y-94757142D01*
X135680952Y-94804761D01*
X135585714Y-94852380D01*
X135490476Y-94852380D01*
X135395238Y-94804761D01*
X135347619Y-94757142D01*
X135300000Y-94661904D01*
X135252380Y-94471428D01*
X135252380Y-94233333D01*
X135300000Y-94042857D01*
X135347619Y-93947619D01*
X135395238Y-93900000D01*
X135490476Y-93852380D01*
X136204761Y-93947619D02*
X136252380Y-93900000D01*
X136347619Y-93852380D01*
X136585714Y-93852380D01*
X136680952Y-93900000D01*
X136728571Y-93947619D01*
X136776190Y-94042857D01*
X136776190Y-94138095D01*
X136728571Y-94280952D01*
X136157142Y-94852380D01*
X136776190Y-94852380D01*
X132871428Y-97652380D02*
X132871428Y-96652380D01*
X133252380Y-96652380D01*
X133347619Y-96700000D01*
X133395238Y-96747619D01*
X133442857Y-96842857D01*
X133442857Y-96985714D01*
X133395238Y-97080952D01*
X133347619Y-97128571D01*
X133252380Y-97176190D01*
X132871428Y-97176190D01*
X134395238Y-97652380D02*
X133823809Y-97652380D01*
X134109523Y-97652380D02*
X134109523Y-96652380D01*
X134014285Y-96795238D01*
X133919047Y-96890476D01*
X133823809Y-96938095D01*
X134823809Y-97557142D02*
X134871428Y-97604761D01*
X134823809Y-97652380D01*
X134776190Y-97604761D01*
X134823809Y-97557142D01*
X134823809Y-97652380D01*
X135490476Y-96652380D02*
X135585714Y-96652380D01*
X135680952Y-96700000D01*
X135728571Y-96747619D01*
X135776190Y-96842857D01*
X135823809Y-97033333D01*
X135823809Y-97271428D01*
X135776190Y-97461904D01*
X135728571Y-97557142D01*
X135680952Y-97604761D01*
X135585714Y-97652380D01*
X135490476Y-97652380D01*
X135395238Y-97604761D01*
X135347619Y-97557142D01*
X135300000Y-97461904D01*
X135252380Y-97271428D01*
X135252380Y-97033333D01*
X135300000Y-96842857D01*
X135347619Y-96747619D01*
X135395238Y-96700000D01*
X135490476Y-96652380D01*
X136776190Y-97652380D02*
X136204761Y-97652380D01*
X136490476Y-97652380D02*
X136490476Y-96652380D01*
X136395238Y-96795238D01*
X136300000Y-96890476D01*
X136204761Y-96938095D01*
X132871428Y-92452380D02*
X132871428Y-91452380D01*
X133252380Y-91452380D01*
X133347619Y-91500000D01*
X133395238Y-91547619D01*
X133442857Y-91642857D01*
X133442857Y-91785714D01*
X133395238Y-91880952D01*
X133347619Y-91928571D01*
X133252380Y-91976190D01*
X132871428Y-91976190D01*
X134395238Y-92452380D02*
X133823809Y-92452380D01*
X134109523Y-92452380D02*
X134109523Y-91452380D01*
X134014285Y-91595238D01*
X133919047Y-91690476D01*
X133823809Y-91738095D01*
X134823809Y-92357142D02*
X134871428Y-92404761D01*
X134823809Y-92452380D01*
X134776190Y-92404761D01*
X134823809Y-92357142D01*
X134823809Y-92452380D01*
X135490476Y-91452380D02*
X135585714Y-91452380D01*
X135680952Y-91500000D01*
X135728571Y-91547619D01*
X135776190Y-91642857D01*
X135823809Y-91833333D01*
X135823809Y-92071428D01*
X135776190Y-92261904D01*
X135728571Y-92357142D01*
X135680952Y-92404761D01*
X135585714Y-92452380D01*
X135490476Y-92452380D01*
X135395238Y-92404761D01*
X135347619Y-92357142D01*
X135300000Y-92261904D01*
X135252380Y-92071428D01*
X135252380Y-91833333D01*
X135300000Y-91642857D01*
X135347619Y-91547619D01*
X135395238Y-91500000D01*
X135490476Y-91452380D01*
X136680952Y-91785714D02*
X136680952Y-92452380D01*
X136442857Y-91404761D02*
X136204761Y-92119047D01*
X136823809Y-92119047D01*
X132871428Y-89852380D02*
X132871428Y-88852380D01*
X133252380Y-88852380D01*
X133347619Y-88900000D01*
X133395238Y-88947619D01*
X133442857Y-89042857D01*
X133442857Y-89185714D01*
X133395238Y-89280952D01*
X133347619Y-89328571D01*
X133252380Y-89376190D01*
X132871428Y-89376190D01*
X134395238Y-89852380D02*
X133823809Y-89852380D01*
X134109523Y-89852380D02*
X134109523Y-88852380D01*
X134014285Y-88995238D01*
X133919047Y-89090476D01*
X133823809Y-89138095D01*
X134823809Y-89757142D02*
X134871428Y-89804761D01*
X134823809Y-89852380D01*
X134776190Y-89804761D01*
X134823809Y-89757142D01*
X134823809Y-89852380D01*
X135490476Y-88852380D02*
X135585714Y-88852380D01*
X135680952Y-88900000D01*
X135728571Y-88947619D01*
X135776190Y-89042857D01*
X135823809Y-89233333D01*
X135823809Y-89471428D01*
X135776190Y-89661904D01*
X135728571Y-89757142D01*
X135680952Y-89804761D01*
X135585714Y-89852380D01*
X135490476Y-89852380D01*
X135395238Y-89804761D01*
X135347619Y-89757142D01*
X135300000Y-89661904D01*
X135252380Y-89471428D01*
X135252380Y-89233333D01*
X135300000Y-89042857D01*
X135347619Y-88947619D01*
X135395238Y-88900000D01*
X135490476Y-88852380D01*
X136680952Y-88852380D02*
X136490476Y-88852380D01*
X136395238Y-88900000D01*
X136347619Y-88947619D01*
X136252380Y-89090476D01*
X136204761Y-89280952D01*
X136204761Y-89661904D01*
X136252380Y-89757142D01*
X136300000Y-89804761D01*
X136395238Y-89852380D01*
X136585714Y-89852380D01*
X136680952Y-89804761D01*
X136728571Y-89757142D01*
X136776190Y-89661904D01*
X136776190Y-89423809D01*
X136728571Y-89328571D01*
X136680952Y-89280952D01*
X136585714Y-89233333D01*
X136395238Y-89233333D01*
X136300000Y-89280952D01*
X136252380Y-89328571D01*
X136204761Y-89423809D01*
X132871428Y-87252380D02*
X132871428Y-86252380D01*
X133252380Y-86252380D01*
X133347619Y-86300000D01*
X133395238Y-86347619D01*
X133442857Y-86442857D01*
X133442857Y-86585714D01*
X133395238Y-86680952D01*
X133347619Y-86728571D01*
X133252380Y-86776190D01*
X132871428Y-86776190D01*
X134061904Y-86252380D02*
X134157142Y-86252380D01*
X134252380Y-86300000D01*
X134300000Y-86347619D01*
X134347619Y-86442857D01*
X134395238Y-86633333D01*
X134395238Y-86871428D01*
X134347619Y-87061904D01*
X134300000Y-87157142D01*
X134252380Y-87204761D01*
X134157142Y-87252380D01*
X134061904Y-87252380D01*
X133966666Y-87204761D01*
X133919047Y-87157142D01*
X133871428Y-87061904D01*
X133823809Y-86871428D01*
X133823809Y-86633333D01*
X133871428Y-86442857D01*
X133919047Y-86347619D01*
X133966666Y-86300000D01*
X134061904Y-86252380D01*
X134823809Y-87157142D02*
X134871428Y-87204761D01*
X134823809Y-87252380D01*
X134776190Y-87204761D01*
X134823809Y-87157142D01*
X134823809Y-87252380D01*
X135490476Y-86252380D02*
X135585714Y-86252380D01*
X135680952Y-86300000D01*
X135728571Y-86347619D01*
X135776190Y-86442857D01*
X135823809Y-86633333D01*
X135823809Y-86871428D01*
X135776190Y-87061904D01*
X135728571Y-87157142D01*
X135680952Y-87204761D01*
X135585714Y-87252380D01*
X135490476Y-87252380D01*
X135395238Y-87204761D01*
X135347619Y-87157142D01*
X135300000Y-87061904D01*
X135252380Y-86871428D01*
X135252380Y-86633333D01*
X135300000Y-86442857D01*
X135347619Y-86347619D01*
X135395238Y-86300000D01*
X135490476Y-86252380D01*
X136300000Y-87252380D02*
X136490476Y-87252380D01*
X136585714Y-87204761D01*
X136633333Y-87157142D01*
X136728571Y-87014285D01*
X136776190Y-86823809D01*
X136776190Y-86442857D01*
X136728571Y-86347619D01*
X136680952Y-86300000D01*
X136585714Y-86252380D01*
X136395238Y-86252380D01*
X136300000Y-86300000D01*
X136252380Y-86347619D01*
X136204761Y-86442857D01*
X136204761Y-86680952D01*
X136252380Y-86776190D01*
X136300000Y-86823809D01*
X136395238Y-86871428D01*
X136585714Y-86871428D01*
X136680952Y-86823809D01*
X136728571Y-86776190D01*
X136776190Y-86680952D01*
X132871428Y-84652380D02*
X132871428Y-83652380D01*
X133252380Y-83652380D01*
X133347619Y-83700000D01*
X133395238Y-83747619D01*
X133442857Y-83842857D01*
X133442857Y-83985714D01*
X133395238Y-84080952D01*
X133347619Y-84128571D01*
X133252380Y-84176190D01*
X132871428Y-84176190D01*
X134061904Y-83652380D02*
X134157142Y-83652380D01*
X134252380Y-83700000D01*
X134300000Y-83747619D01*
X134347619Y-83842857D01*
X134395238Y-84033333D01*
X134395238Y-84271428D01*
X134347619Y-84461904D01*
X134300000Y-84557142D01*
X134252380Y-84604761D01*
X134157142Y-84652380D01*
X134061904Y-84652380D01*
X133966666Y-84604761D01*
X133919047Y-84557142D01*
X133871428Y-84461904D01*
X133823809Y-84271428D01*
X133823809Y-84033333D01*
X133871428Y-83842857D01*
X133919047Y-83747619D01*
X133966666Y-83700000D01*
X134061904Y-83652380D01*
X134823809Y-84557142D02*
X134871428Y-84604761D01*
X134823809Y-84652380D01*
X134776190Y-84604761D01*
X134823809Y-84557142D01*
X134823809Y-84652380D01*
X135823809Y-84652380D02*
X135252380Y-84652380D01*
X135538095Y-84652380D02*
X135538095Y-83652380D01*
X135442857Y-83795238D01*
X135347619Y-83890476D01*
X135252380Y-83938095D01*
X136442857Y-83652380D02*
X136538095Y-83652380D01*
X136633333Y-83700000D01*
X136680952Y-83747619D01*
X136728571Y-83842857D01*
X136776190Y-84033333D01*
X136776190Y-84271428D01*
X136728571Y-84461904D01*
X136680952Y-84557142D01*
X136633333Y-84604761D01*
X136538095Y-84652380D01*
X136442857Y-84652380D01*
X136347619Y-84604761D01*
X136300000Y-84557142D01*
X136252380Y-84461904D01*
X136204761Y-84271428D01*
X136204761Y-84033333D01*
X136252380Y-83842857D01*
X136300000Y-83747619D01*
X136347619Y-83700000D01*
X136442857Y-83652380D01*
X100271428Y-137852380D02*
X100271428Y-136852380D01*
X100652380Y-136852380D01*
X100747619Y-136900000D01*
X100795238Y-136947619D01*
X100842857Y-137042857D01*
X100842857Y-137185714D01*
X100795238Y-137280952D01*
X100747619Y-137328571D01*
X100652380Y-137376190D01*
X100271428Y-137376190D01*
X101461904Y-136852380D02*
X101557142Y-136852380D01*
X101652380Y-136900000D01*
X101700000Y-136947619D01*
X101747619Y-137042857D01*
X101795238Y-137233333D01*
X101795238Y-137471428D01*
X101747619Y-137661904D01*
X101700000Y-137757142D01*
X101652380Y-137804761D01*
X101557142Y-137852380D01*
X101461904Y-137852380D01*
X101366666Y-137804761D01*
X101319047Y-137757142D01*
X101271428Y-137661904D01*
X101223809Y-137471428D01*
X101223809Y-137233333D01*
X101271428Y-137042857D01*
X101319047Y-136947619D01*
X101366666Y-136900000D01*
X101461904Y-136852380D01*
X102223809Y-137757142D02*
X102271428Y-137804761D01*
X102223809Y-137852380D01*
X102176190Y-137804761D01*
X102223809Y-137757142D01*
X102223809Y-137852380D01*
X102652380Y-136947619D02*
X102700000Y-136900000D01*
X102795238Y-136852380D01*
X103033333Y-136852380D01*
X103128571Y-136900000D01*
X103176190Y-136947619D01*
X103223809Y-137042857D01*
X103223809Y-137138095D01*
X103176190Y-137280952D01*
X102604761Y-137852380D01*
X103223809Y-137852380D01*
X104080952Y-136852380D02*
X103890476Y-136852380D01*
X103795238Y-136900000D01*
X103747619Y-136947619D01*
X103652380Y-137090476D01*
X103604761Y-137280952D01*
X103604761Y-137661904D01*
X103652380Y-137757142D01*
X103700000Y-137804761D01*
X103795238Y-137852380D01*
X103985714Y-137852380D01*
X104080952Y-137804761D01*
X104128571Y-137757142D01*
X104176190Y-137661904D01*
X104176190Y-137423809D01*
X104128571Y-137328571D01*
X104080952Y-137280952D01*
X103985714Y-137233333D01*
X103795238Y-137233333D01*
X103700000Y-137280952D01*
X103652380Y-137328571D01*
X103604761Y-137423809D01*
X100271428Y-135252380D02*
X100271428Y-134252380D01*
X100652380Y-134252380D01*
X100747619Y-134300000D01*
X100795238Y-134347619D01*
X100842857Y-134442857D01*
X100842857Y-134585714D01*
X100795238Y-134680952D01*
X100747619Y-134728571D01*
X100652380Y-134776190D01*
X100271428Y-134776190D01*
X101461904Y-134252380D02*
X101557142Y-134252380D01*
X101652380Y-134300000D01*
X101700000Y-134347619D01*
X101747619Y-134442857D01*
X101795238Y-134633333D01*
X101795238Y-134871428D01*
X101747619Y-135061904D01*
X101700000Y-135157142D01*
X101652380Y-135204761D01*
X101557142Y-135252380D01*
X101461904Y-135252380D01*
X101366666Y-135204761D01*
X101319047Y-135157142D01*
X101271428Y-135061904D01*
X101223809Y-134871428D01*
X101223809Y-134633333D01*
X101271428Y-134442857D01*
X101319047Y-134347619D01*
X101366666Y-134300000D01*
X101461904Y-134252380D01*
X102223809Y-135157142D02*
X102271428Y-135204761D01*
X102223809Y-135252380D01*
X102176190Y-135204761D01*
X102223809Y-135157142D01*
X102223809Y-135252380D01*
X102890476Y-134252380D02*
X102985714Y-134252380D01*
X103080952Y-134300000D01*
X103128571Y-134347619D01*
X103176190Y-134442857D01*
X103223809Y-134633333D01*
X103223809Y-134871428D01*
X103176190Y-135061904D01*
X103128571Y-135157142D01*
X103080952Y-135204761D01*
X102985714Y-135252380D01*
X102890476Y-135252380D01*
X102795238Y-135204761D01*
X102747619Y-135157142D01*
X102700000Y-135061904D01*
X102652380Y-134871428D01*
X102652380Y-134633333D01*
X102700000Y-134442857D01*
X102747619Y-134347619D01*
X102795238Y-134300000D01*
X102890476Y-134252380D01*
X104080952Y-134252380D02*
X103890476Y-134252380D01*
X103795238Y-134300000D01*
X103747619Y-134347619D01*
X103652380Y-134490476D01*
X103604761Y-134680952D01*
X103604761Y-135061904D01*
X103652380Y-135157142D01*
X103700000Y-135204761D01*
X103795238Y-135252380D01*
X103985714Y-135252380D01*
X104080952Y-135204761D01*
X104128571Y-135157142D01*
X104176190Y-135061904D01*
X104176190Y-134823809D01*
X104128571Y-134728571D01*
X104080952Y-134680952D01*
X103985714Y-134633333D01*
X103795238Y-134633333D01*
X103700000Y-134680952D01*
X103652380Y-134728571D01*
X103604761Y-134823809D01*
X100271428Y-132852380D02*
X100271428Y-131852380D01*
X100652380Y-131852380D01*
X100747619Y-131900000D01*
X100795238Y-131947619D01*
X100842857Y-132042857D01*
X100842857Y-132185714D01*
X100795238Y-132280952D01*
X100747619Y-132328571D01*
X100652380Y-132376190D01*
X100271428Y-132376190D01*
X101461904Y-131852380D02*
X101557142Y-131852380D01*
X101652380Y-131900000D01*
X101700000Y-131947619D01*
X101747619Y-132042857D01*
X101795238Y-132233333D01*
X101795238Y-132471428D01*
X101747619Y-132661904D01*
X101700000Y-132757142D01*
X101652380Y-132804761D01*
X101557142Y-132852380D01*
X101461904Y-132852380D01*
X101366666Y-132804761D01*
X101319047Y-132757142D01*
X101271428Y-132661904D01*
X101223809Y-132471428D01*
X101223809Y-132233333D01*
X101271428Y-132042857D01*
X101319047Y-131947619D01*
X101366666Y-131900000D01*
X101461904Y-131852380D01*
X102223809Y-132757142D02*
X102271428Y-132804761D01*
X102223809Y-132852380D01*
X102176190Y-132804761D01*
X102223809Y-132757142D01*
X102223809Y-132852380D01*
X102890476Y-131852380D02*
X102985714Y-131852380D01*
X103080952Y-131900000D01*
X103128571Y-131947619D01*
X103176190Y-132042857D01*
X103223809Y-132233333D01*
X103223809Y-132471428D01*
X103176190Y-132661904D01*
X103128571Y-132757142D01*
X103080952Y-132804761D01*
X102985714Y-132852380D01*
X102890476Y-132852380D01*
X102795238Y-132804761D01*
X102747619Y-132757142D01*
X102700000Y-132661904D01*
X102652380Y-132471428D01*
X102652380Y-132233333D01*
X102700000Y-132042857D01*
X102747619Y-131947619D01*
X102795238Y-131900000D01*
X102890476Y-131852380D01*
X103795238Y-132280952D02*
X103700000Y-132233333D01*
X103652380Y-132185714D01*
X103604761Y-132090476D01*
X103604761Y-132042857D01*
X103652380Y-131947619D01*
X103700000Y-131900000D01*
X103795238Y-131852380D01*
X103985714Y-131852380D01*
X104080952Y-131900000D01*
X104128571Y-131947619D01*
X104176190Y-132042857D01*
X104176190Y-132090476D01*
X104128571Y-132185714D01*
X104080952Y-132233333D01*
X103985714Y-132280952D01*
X103795238Y-132280952D01*
X103700000Y-132328571D01*
X103652380Y-132376190D01*
X103604761Y-132471428D01*
X103604761Y-132661904D01*
X103652380Y-132757142D01*
X103700000Y-132804761D01*
X103795238Y-132852380D01*
X103985714Y-132852380D01*
X104080952Y-132804761D01*
X104128571Y-132757142D01*
X104176190Y-132661904D01*
X104176190Y-132471428D01*
X104128571Y-132376190D01*
X104080952Y-132328571D01*
X103985714Y-132280952D01*
X100271428Y-130252380D02*
X100271428Y-129252380D01*
X100652380Y-129252380D01*
X100747619Y-129300000D01*
X100795238Y-129347619D01*
X100842857Y-129442857D01*
X100842857Y-129585714D01*
X100795238Y-129680952D01*
X100747619Y-129728571D01*
X100652380Y-129776190D01*
X100271428Y-129776190D01*
X101461904Y-129252380D02*
X101557142Y-129252380D01*
X101652380Y-129300000D01*
X101700000Y-129347619D01*
X101747619Y-129442857D01*
X101795238Y-129633333D01*
X101795238Y-129871428D01*
X101747619Y-130061904D01*
X101700000Y-130157142D01*
X101652380Y-130204761D01*
X101557142Y-130252380D01*
X101461904Y-130252380D01*
X101366666Y-130204761D01*
X101319047Y-130157142D01*
X101271428Y-130061904D01*
X101223809Y-129871428D01*
X101223809Y-129633333D01*
X101271428Y-129442857D01*
X101319047Y-129347619D01*
X101366666Y-129300000D01*
X101461904Y-129252380D01*
X102223809Y-130157142D02*
X102271428Y-130204761D01*
X102223809Y-130252380D01*
X102176190Y-130204761D01*
X102223809Y-130157142D01*
X102223809Y-130252380D01*
X102652380Y-129347619D02*
X102700000Y-129300000D01*
X102795238Y-129252380D01*
X103033333Y-129252380D01*
X103128571Y-129300000D01*
X103176190Y-129347619D01*
X103223809Y-129442857D01*
X103223809Y-129538095D01*
X103176190Y-129680952D01*
X102604761Y-130252380D01*
X103223809Y-130252380D01*
X103557142Y-129252380D02*
X104223809Y-129252380D01*
X103795238Y-130252380D01*
X100271428Y-127652380D02*
X100271428Y-126652380D01*
X100652380Y-126652380D01*
X100747619Y-126700000D01*
X100795238Y-126747619D01*
X100842857Y-126842857D01*
X100842857Y-126985714D01*
X100795238Y-127080952D01*
X100747619Y-127128571D01*
X100652380Y-127176190D01*
X100271428Y-127176190D01*
X101795238Y-127652380D02*
X101223809Y-127652380D01*
X101509523Y-127652380D02*
X101509523Y-126652380D01*
X101414285Y-126795238D01*
X101319047Y-126890476D01*
X101223809Y-126938095D01*
X102223809Y-127557142D02*
X102271428Y-127604761D01*
X102223809Y-127652380D01*
X102176190Y-127604761D01*
X102223809Y-127557142D01*
X102223809Y-127652380D01*
X102890476Y-126652380D02*
X102985714Y-126652380D01*
X103080952Y-126700000D01*
X103128571Y-126747619D01*
X103176190Y-126842857D01*
X103223809Y-127033333D01*
X103223809Y-127271428D01*
X103176190Y-127461904D01*
X103128571Y-127557142D01*
X103080952Y-127604761D01*
X102985714Y-127652380D01*
X102890476Y-127652380D01*
X102795238Y-127604761D01*
X102747619Y-127557142D01*
X102700000Y-127461904D01*
X102652380Y-127271428D01*
X102652380Y-127033333D01*
X102700000Y-126842857D01*
X102747619Y-126747619D01*
X102795238Y-126700000D01*
X102890476Y-126652380D01*
X103795238Y-127080952D02*
X103700000Y-127033333D01*
X103652380Y-126985714D01*
X103604761Y-126890476D01*
X103604761Y-126842857D01*
X103652380Y-126747619D01*
X103700000Y-126700000D01*
X103795238Y-126652380D01*
X103985714Y-126652380D01*
X104080952Y-126700000D01*
X104128571Y-126747619D01*
X104176190Y-126842857D01*
X104176190Y-126890476D01*
X104128571Y-126985714D01*
X104080952Y-127033333D01*
X103985714Y-127080952D01*
X103795238Y-127080952D01*
X103700000Y-127128571D01*
X103652380Y-127176190D01*
X103604761Y-127271428D01*
X103604761Y-127461904D01*
X103652380Y-127557142D01*
X103700000Y-127604761D01*
X103795238Y-127652380D01*
X103985714Y-127652380D01*
X104080952Y-127604761D01*
X104128571Y-127557142D01*
X104176190Y-127461904D01*
X104176190Y-127271428D01*
X104128571Y-127176190D01*
X104080952Y-127128571D01*
X103985714Y-127080952D01*
X100271428Y-125252380D02*
X100271428Y-124252380D01*
X100652380Y-124252380D01*
X100747619Y-124300000D01*
X100795238Y-124347619D01*
X100842857Y-124442857D01*
X100842857Y-124585714D01*
X100795238Y-124680952D01*
X100747619Y-124728571D01*
X100652380Y-124776190D01*
X100271428Y-124776190D01*
X101461904Y-124252380D02*
X101557142Y-124252380D01*
X101652380Y-124300000D01*
X101700000Y-124347619D01*
X101747619Y-124442857D01*
X101795238Y-124633333D01*
X101795238Y-124871428D01*
X101747619Y-125061904D01*
X101700000Y-125157142D01*
X101652380Y-125204761D01*
X101557142Y-125252380D01*
X101461904Y-125252380D01*
X101366666Y-125204761D01*
X101319047Y-125157142D01*
X101271428Y-125061904D01*
X101223809Y-124871428D01*
X101223809Y-124633333D01*
X101271428Y-124442857D01*
X101319047Y-124347619D01*
X101366666Y-124300000D01*
X101461904Y-124252380D01*
X102223809Y-125157142D02*
X102271428Y-125204761D01*
X102223809Y-125252380D01*
X102176190Y-125204761D01*
X102223809Y-125157142D01*
X102223809Y-125252380D01*
X103223809Y-125252380D02*
X102652380Y-125252380D01*
X102938095Y-125252380D02*
X102938095Y-124252380D01*
X102842857Y-124395238D01*
X102747619Y-124490476D01*
X102652380Y-124538095D01*
X104176190Y-125252380D02*
X103604761Y-125252380D01*
X103890476Y-125252380D02*
X103890476Y-124252380D01*
X103795238Y-124395238D01*
X103700000Y-124490476D01*
X103604761Y-124538095D01*
X100271428Y-122652380D02*
X100271428Y-121652380D01*
X100652380Y-121652380D01*
X100747619Y-121700000D01*
X100795238Y-121747619D01*
X100842857Y-121842857D01*
X100842857Y-121985714D01*
X100795238Y-122080952D01*
X100747619Y-122128571D01*
X100652380Y-122176190D01*
X100271428Y-122176190D01*
X101461904Y-121652380D02*
X101557142Y-121652380D01*
X101652380Y-121700000D01*
X101700000Y-121747619D01*
X101747619Y-121842857D01*
X101795238Y-122033333D01*
X101795238Y-122271428D01*
X101747619Y-122461904D01*
X101700000Y-122557142D01*
X101652380Y-122604761D01*
X101557142Y-122652380D01*
X101461904Y-122652380D01*
X101366666Y-122604761D01*
X101319047Y-122557142D01*
X101271428Y-122461904D01*
X101223809Y-122271428D01*
X101223809Y-122033333D01*
X101271428Y-121842857D01*
X101319047Y-121747619D01*
X101366666Y-121700000D01*
X101461904Y-121652380D01*
X102223809Y-122557142D02*
X102271428Y-122604761D01*
X102223809Y-122652380D01*
X102176190Y-122604761D01*
X102223809Y-122557142D01*
X102223809Y-122652380D01*
X102652380Y-121747619D02*
X102700000Y-121700000D01*
X102795238Y-121652380D01*
X103033333Y-121652380D01*
X103128571Y-121700000D01*
X103176190Y-121747619D01*
X103223809Y-121842857D01*
X103223809Y-121938095D01*
X103176190Y-122080952D01*
X102604761Y-122652380D01*
X103223809Y-122652380D01*
X104128571Y-121652380D02*
X103652380Y-121652380D01*
X103604761Y-122128571D01*
X103652380Y-122080952D01*
X103747619Y-122033333D01*
X103985714Y-122033333D01*
X104080952Y-122080952D01*
X104128571Y-122128571D01*
X104176190Y-122223809D01*
X104176190Y-122461904D01*
X104128571Y-122557142D01*
X104080952Y-122604761D01*
X103985714Y-122652380D01*
X103747619Y-122652380D01*
X103652380Y-122604761D01*
X103604761Y-122557142D01*
X100271428Y-120052380D02*
X100271428Y-119052380D01*
X100652380Y-119052380D01*
X100747619Y-119100000D01*
X100795238Y-119147619D01*
X100842857Y-119242857D01*
X100842857Y-119385714D01*
X100795238Y-119480952D01*
X100747619Y-119528571D01*
X100652380Y-119576190D01*
X100271428Y-119576190D01*
X101795238Y-120052380D02*
X101223809Y-120052380D01*
X101509523Y-120052380D02*
X101509523Y-119052380D01*
X101414285Y-119195238D01*
X101319047Y-119290476D01*
X101223809Y-119338095D01*
X102223809Y-119957142D02*
X102271428Y-120004761D01*
X102223809Y-120052380D01*
X102176190Y-120004761D01*
X102223809Y-119957142D01*
X102223809Y-120052380D01*
X103223809Y-120052380D02*
X102652380Y-120052380D01*
X102938095Y-120052380D02*
X102938095Y-119052380D01*
X102842857Y-119195238D01*
X102747619Y-119290476D01*
X102652380Y-119338095D01*
X103604761Y-119147619D02*
X103652380Y-119100000D01*
X103747619Y-119052380D01*
X103985714Y-119052380D01*
X104080952Y-119100000D01*
X104128571Y-119147619D01*
X104176190Y-119242857D01*
X104176190Y-119338095D01*
X104128571Y-119480952D01*
X103557142Y-120052380D01*
X104176190Y-120052380D01*
X100271428Y-117652380D02*
X100271428Y-116652380D01*
X100652380Y-116652380D01*
X100747619Y-116700000D01*
X100795238Y-116747619D01*
X100842857Y-116842857D01*
X100842857Y-116985714D01*
X100795238Y-117080952D01*
X100747619Y-117128571D01*
X100652380Y-117176190D01*
X100271428Y-117176190D01*
X101795238Y-117652380D02*
X101223809Y-117652380D01*
X101509523Y-117652380D02*
X101509523Y-116652380D01*
X101414285Y-116795238D01*
X101319047Y-116890476D01*
X101223809Y-116938095D01*
X102223809Y-117557142D02*
X102271428Y-117604761D01*
X102223809Y-117652380D01*
X102176190Y-117604761D01*
X102223809Y-117557142D01*
X102223809Y-117652380D01*
X103223809Y-117652380D02*
X102652380Y-117652380D01*
X102938095Y-117652380D02*
X102938095Y-116652380D01*
X102842857Y-116795238D01*
X102747619Y-116890476D01*
X102652380Y-116938095D01*
X104080952Y-116985714D02*
X104080952Y-117652380D01*
X103842857Y-116604761D02*
X103604761Y-117319047D01*
X104223809Y-117319047D01*
X100271428Y-115052380D02*
X100271428Y-114052380D01*
X100652380Y-114052380D01*
X100747619Y-114100000D01*
X100795238Y-114147619D01*
X100842857Y-114242857D01*
X100842857Y-114385714D01*
X100795238Y-114480952D01*
X100747619Y-114528571D01*
X100652380Y-114576190D01*
X100271428Y-114576190D01*
X101461904Y-114052380D02*
X101557142Y-114052380D01*
X101652380Y-114100000D01*
X101700000Y-114147619D01*
X101747619Y-114242857D01*
X101795238Y-114433333D01*
X101795238Y-114671428D01*
X101747619Y-114861904D01*
X101700000Y-114957142D01*
X101652380Y-115004761D01*
X101557142Y-115052380D01*
X101461904Y-115052380D01*
X101366666Y-115004761D01*
X101319047Y-114957142D01*
X101271428Y-114861904D01*
X101223809Y-114671428D01*
X101223809Y-114433333D01*
X101271428Y-114242857D01*
X101319047Y-114147619D01*
X101366666Y-114100000D01*
X101461904Y-114052380D01*
X102223809Y-114957142D02*
X102271428Y-115004761D01*
X102223809Y-115052380D01*
X102176190Y-115004761D01*
X102223809Y-114957142D01*
X102223809Y-115052380D01*
X102890476Y-114052380D02*
X102985714Y-114052380D01*
X103080952Y-114100000D01*
X103128571Y-114147619D01*
X103176190Y-114242857D01*
X103223809Y-114433333D01*
X103223809Y-114671428D01*
X103176190Y-114861904D01*
X103128571Y-114957142D01*
X103080952Y-115004761D01*
X102985714Y-115052380D01*
X102890476Y-115052380D01*
X102795238Y-115004761D01*
X102747619Y-114957142D01*
X102700000Y-114861904D01*
X102652380Y-114671428D01*
X102652380Y-114433333D01*
X102700000Y-114242857D01*
X102747619Y-114147619D01*
X102795238Y-114100000D01*
X102890476Y-114052380D01*
X104128571Y-114052380D02*
X103652380Y-114052380D01*
X103604761Y-114528571D01*
X103652380Y-114480952D01*
X103747619Y-114433333D01*
X103985714Y-114433333D01*
X104080952Y-114480952D01*
X104128571Y-114528571D01*
X104176190Y-114623809D01*
X104176190Y-114861904D01*
X104128571Y-114957142D01*
X104080952Y-115004761D01*
X103985714Y-115052380D01*
X103747619Y-115052380D01*
X103652380Y-115004761D01*
X103604761Y-114957142D01*
X100271428Y-112627380D02*
X100271428Y-111627380D01*
X100652380Y-111627380D01*
X100747619Y-111675000D01*
X100795238Y-111722619D01*
X100842857Y-111817857D01*
X100842857Y-111960714D01*
X100795238Y-112055952D01*
X100747619Y-112103571D01*
X100652380Y-112151190D01*
X100271428Y-112151190D01*
X101461904Y-111627380D02*
X101557142Y-111627380D01*
X101652380Y-111675000D01*
X101700000Y-111722619D01*
X101747619Y-111817857D01*
X101795238Y-112008333D01*
X101795238Y-112246428D01*
X101747619Y-112436904D01*
X101700000Y-112532142D01*
X101652380Y-112579761D01*
X101557142Y-112627380D01*
X101461904Y-112627380D01*
X101366666Y-112579761D01*
X101319047Y-112532142D01*
X101271428Y-112436904D01*
X101223809Y-112246428D01*
X101223809Y-112008333D01*
X101271428Y-111817857D01*
X101319047Y-111722619D01*
X101366666Y-111675000D01*
X101461904Y-111627380D01*
X102223809Y-112532142D02*
X102271428Y-112579761D01*
X102223809Y-112627380D01*
X102176190Y-112579761D01*
X102223809Y-112532142D01*
X102223809Y-112627380D01*
X102890476Y-111627380D02*
X102985714Y-111627380D01*
X103080952Y-111675000D01*
X103128571Y-111722619D01*
X103176190Y-111817857D01*
X103223809Y-112008333D01*
X103223809Y-112246428D01*
X103176190Y-112436904D01*
X103128571Y-112532142D01*
X103080952Y-112579761D01*
X102985714Y-112627380D01*
X102890476Y-112627380D01*
X102795238Y-112579761D01*
X102747619Y-112532142D01*
X102700000Y-112436904D01*
X102652380Y-112246428D01*
X102652380Y-112008333D01*
X102700000Y-111817857D01*
X102747619Y-111722619D01*
X102795238Y-111675000D01*
X102890476Y-111627380D01*
X104080952Y-111960714D02*
X104080952Y-112627380D01*
X103842857Y-111579761D02*
X103604761Y-112294047D01*
X104223809Y-112294047D01*
X100271428Y-110027380D02*
X100271428Y-109027380D01*
X100652380Y-109027380D01*
X100747619Y-109075000D01*
X100795238Y-109122619D01*
X100842857Y-109217857D01*
X100842857Y-109360714D01*
X100795238Y-109455952D01*
X100747619Y-109503571D01*
X100652380Y-109551190D01*
X100271428Y-109551190D01*
X101461904Y-109027380D02*
X101557142Y-109027380D01*
X101652380Y-109075000D01*
X101700000Y-109122619D01*
X101747619Y-109217857D01*
X101795238Y-109408333D01*
X101795238Y-109646428D01*
X101747619Y-109836904D01*
X101700000Y-109932142D01*
X101652380Y-109979761D01*
X101557142Y-110027380D01*
X101461904Y-110027380D01*
X101366666Y-109979761D01*
X101319047Y-109932142D01*
X101271428Y-109836904D01*
X101223809Y-109646428D01*
X101223809Y-109408333D01*
X101271428Y-109217857D01*
X101319047Y-109122619D01*
X101366666Y-109075000D01*
X101461904Y-109027380D01*
X102223809Y-109932142D02*
X102271428Y-109979761D01*
X102223809Y-110027380D01*
X102176190Y-109979761D01*
X102223809Y-109932142D01*
X102223809Y-110027380D01*
X102604761Y-109027380D02*
X103223809Y-109027380D01*
X102890476Y-109408333D01*
X103033333Y-109408333D01*
X103128571Y-109455952D01*
X103176190Y-109503571D01*
X103223809Y-109598809D01*
X103223809Y-109836904D01*
X103176190Y-109932142D01*
X103128571Y-109979761D01*
X103033333Y-110027380D01*
X102747619Y-110027380D01*
X102652380Y-109979761D01*
X102604761Y-109932142D01*
X104176190Y-110027380D02*
X103604761Y-110027380D01*
X103890476Y-110027380D02*
X103890476Y-109027380D01*
X103795238Y-109170238D01*
X103700000Y-109265476D01*
X103604761Y-109313095D01*
X100271428Y-107427380D02*
X100271428Y-106427380D01*
X100652380Y-106427380D01*
X100747619Y-106475000D01*
X100795238Y-106522619D01*
X100842857Y-106617857D01*
X100842857Y-106760714D01*
X100795238Y-106855952D01*
X100747619Y-106903571D01*
X100652380Y-106951190D01*
X100271428Y-106951190D01*
X101461904Y-106427380D02*
X101557142Y-106427380D01*
X101652380Y-106475000D01*
X101700000Y-106522619D01*
X101747619Y-106617857D01*
X101795238Y-106808333D01*
X101795238Y-107046428D01*
X101747619Y-107236904D01*
X101700000Y-107332142D01*
X101652380Y-107379761D01*
X101557142Y-107427380D01*
X101461904Y-107427380D01*
X101366666Y-107379761D01*
X101319047Y-107332142D01*
X101271428Y-107236904D01*
X101223809Y-107046428D01*
X101223809Y-106808333D01*
X101271428Y-106617857D01*
X101319047Y-106522619D01*
X101366666Y-106475000D01*
X101461904Y-106427380D01*
X102223809Y-107332142D02*
X102271428Y-107379761D01*
X102223809Y-107427380D01*
X102176190Y-107379761D01*
X102223809Y-107332142D01*
X102223809Y-107427380D01*
X102604761Y-106427380D02*
X103223809Y-106427380D01*
X102890476Y-106808333D01*
X103033333Y-106808333D01*
X103128571Y-106855952D01*
X103176190Y-106903571D01*
X103223809Y-106998809D01*
X103223809Y-107236904D01*
X103176190Y-107332142D01*
X103128571Y-107379761D01*
X103033333Y-107427380D01*
X102747619Y-107427380D01*
X102652380Y-107379761D01*
X102604761Y-107332142D01*
X103842857Y-106427380D02*
X103938095Y-106427380D01*
X104033333Y-106475000D01*
X104080952Y-106522619D01*
X104128571Y-106617857D01*
X104176190Y-106808333D01*
X104176190Y-107046428D01*
X104128571Y-107236904D01*
X104080952Y-107332142D01*
X104033333Y-107379761D01*
X103938095Y-107427380D01*
X103842857Y-107427380D01*
X103747619Y-107379761D01*
X103700000Y-107332142D01*
X103652380Y-107236904D01*
X103604761Y-107046428D01*
X103604761Y-106808333D01*
X103652380Y-106617857D01*
X103700000Y-106522619D01*
X103747619Y-106475000D01*
X103842857Y-106427380D01*
X100271428Y-104852380D02*
X100271428Y-103852380D01*
X100652380Y-103852380D01*
X100747619Y-103900000D01*
X100795238Y-103947619D01*
X100842857Y-104042857D01*
X100842857Y-104185714D01*
X100795238Y-104280952D01*
X100747619Y-104328571D01*
X100652380Y-104376190D01*
X100271428Y-104376190D01*
X101461904Y-103852380D02*
X101557142Y-103852380D01*
X101652380Y-103900000D01*
X101700000Y-103947619D01*
X101747619Y-104042857D01*
X101795238Y-104233333D01*
X101795238Y-104471428D01*
X101747619Y-104661904D01*
X101700000Y-104757142D01*
X101652380Y-104804761D01*
X101557142Y-104852380D01*
X101461904Y-104852380D01*
X101366666Y-104804761D01*
X101319047Y-104757142D01*
X101271428Y-104661904D01*
X101223809Y-104471428D01*
X101223809Y-104233333D01*
X101271428Y-104042857D01*
X101319047Y-103947619D01*
X101366666Y-103900000D01*
X101461904Y-103852380D01*
X102223809Y-104757142D02*
X102271428Y-104804761D01*
X102223809Y-104852380D01*
X102176190Y-104804761D01*
X102223809Y-104757142D01*
X102223809Y-104852380D01*
X102652380Y-103947619D02*
X102700000Y-103900000D01*
X102795238Y-103852380D01*
X103033333Y-103852380D01*
X103128571Y-103900000D01*
X103176190Y-103947619D01*
X103223809Y-104042857D01*
X103223809Y-104138095D01*
X103176190Y-104280952D01*
X102604761Y-104852380D01*
X103223809Y-104852380D01*
X103700000Y-104852380D02*
X103890476Y-104852380D01*
X103985714Y-104804761D01*
X104033333Y-104757142D01*
X104128571Y-104614285D01*
X104176190Y-104423809D01*
X104176190Y-104042857D01*
X104128571Y-103947619D01*
X104080952Y-103900000D01*
X103985714Y-103852380D01*
X103795238Y-103852380D01*
X103700000Y-103900000D01*
X103652380Y-103947619D01*
X103604761Y-104042857D01*
X103604761Y-104280952D01*
X103652380Y-104376190D01*
X103700000Y-104423809D01*
X103795238Y-104471428D01*
X103985714Y-104471428D01*
X104080952Y-104423809D01*
X104128571Y-104376190D01*
X104176190Y-104280952D01*
X100271428Y-102427380D02*
X100271428Y-101427380D01*
X100652380Y-101427380D01*
X100747619Y-101475000D01*
X100795238Y-101522619D01*
X100842857Y-101617857D01*
X100842857Y-101760714D01*
X100795238Y-101855952D01*
X100747619Y-101903571D01*
X100652380Y-101951190D01*
X100271428Y-101951190D01*
X101461904Y-101427380D02*
X101557142Y-101427380D01*
X101652380Y-101475000D01*
X101700000Y-101522619D01*
X101747619Y-101617857D01*
X101795238Y-101808333D01*
X101795238Y-102046428D01*
X101747619Y-102236904D01*
X101700000Y-102332142D01*
X101652380Y-102379761D01*
X101557142Y-102427380D01*
X101461904Y-102427380D01*
X101366666Y-102379761D01*
X101319047Y-102332142D01*
X101271428Y-102236904D01*
X101223809Y-102046428D01*
X101223809Y-101808333D01*
X101271428Y-101617857D01*
X101319047Y-101522619D01*
X101366666Y-101475000D01*
X101461904Y-101427380D01*
X102223809Y-102332142D02*
X102271428Y-102379761D01*
X102223809Y-102427380D01*
X102176190Y-102379761D01*
X102223809Y-102332142D01*
X102223809Y-102427380D01*
X102652380Y-101522619D02*
X102700000Y-101475000D01*
X102795238Y-101427380D01*
X103033333Y-101427380D01*
X103128571Y-101475000D01*
X103176190Y-101522619D01*
X103223809Y-101617857D01*
X103223809Y-101713095D01*
X103176190Y-101855952D01*
X102604761Y-102427380D01*
X103223809Y-102427380D01*
X103795238Y-101855952D02*
X103700000Y-101808333D01*
X103652380Y-101760714D01*
X103604761Y-101665476D01*
X103604761Y-101617857D01*
X103652380Y-101522619D01*
X103700000Y-101475000D01*
X103795238Y-101427380D01*
X103985714Y-101427380D01*
X104080952Y-101475000D01*
X104128571Y-101522619D01*
X104176190Y-101617857D01*
X104176190Y-101665476D01*
X104128571Y-101760714D01*
X104080952Y-101808333D01*
X103985714Y-101855952D01*
X103795238Y-101855952D01*
X103700000Y-101903571D01*
X103652380Y-101951190D01*
X103604761Y-102046428D01*
X103604761Y-102236904D01*
X103652380Y-102332142D01*
X103700000Y-102379761D01*
X103795238Y-102427380D01*
X103985714Y-102427380D01*
X104080952Y-102379761D01*
X104128571Y-102332142D01*
X104176190Y-102236904D01*
X104176190Y-102046428D01*
X104128571Y-101951190D01*
X104080952Y-101903571D01*
X103985714Y-101855952D01*
X100271428Y-99827380D02*
X100271428Y-98827380D01*
X100652380Y-98827380D01*
X100747619Y-98875000D01*
X100795238Y-98922619D01*
X100842857Y-99017857D01*
X100842857Y-99160714D01*
X100795238Y-99255952D01*
X100747619Y-99303571D01*
X100652380Y-99351190D01*
X100271428Y-99351190D01*
X101461904Y-98827380D02*
X101557142Y-98827380D01*
X101652380Y-98875000D01*
X101700000Y-98922619D01*
X101747619Y-99017857D01*
X101795238Y-99208333D01*
X101795238Y-99446428D01*
X101747619Y-99636904D01*
X101700000Y-99732142D01*
X101652380Y-99779761D01*
X101557142Y-99827380D01*
X101461904Y-99827380D01*
X101366666Y-99779761D01*
X101319047Y-99732142D01*
X101271428Y-99636904D01*
X101223809Y-99446428D01*
X101223809Y-99208333D01*
X101271428Y-99017857D01*
X101319047Y-98922619D01*
X101366666Y-98875000D01*
X101461904Y-98827380D01*
X102223809Y-99732142D02*
X102271428Y-99779761D01*
X102223809Y-99827380D01*
X102176190Y-99779761D01*
X102223809Y-99732142D01*
X102223809Y-99827380D01*
X102890476Y-98827380D02*
X102985714Y-98827380D01*
X103080952Y-98875000D01*
X103128571Y-98922619D01*
X103176190Y-99017857D01*
X103223809Y-99208333D01*
X103223809Y-99446428D01*
X103176190Y-99636904D01*
X103128571Y-99732142D01*
X103080952Y-99779761D01*
X102985714Y-99827380D01*
X102890476Y-99827380D01*
X102795238Y-99779761D01*
X102747619Y-99732142D01*
X102700000Y-99636904D01*
X102652380Y-99446428D01*
X102652380Y-99208333D01*
X102700000Y-99017857D01*
X102747619Y-98922619D01*
X102795238Y-98875000D01*
X102890476Y-98827380D01*
X103604761Y-98922619D02*
X103652380Y-98875000D01*
X103747619Y-98827380D01*
X103985714Y-98827380D01*
X104080952Y-98875000D01*
X104128571Y-98922619D01*
X104176190Y-99017857D01*
X104176190Y-99113095D01*
X104128571Y-99255952D01*
X103557142Y-99827380D01*
X104176190Y-99827380D01*
X100271428Y-97227380D02*
X100271428Y-96227380D01*
X100652380Y-96227380D01*
X100747619Y-96275000D01*
X100795238Y-96322619D01*
X100842857Y-96417857D01*
X100842857Y-96560714D01*
X100795238Y-96655952D01*
X100747619Y-96703571D01*
X100652380Y-96751190D01*
X100271428Y-96751190D01*
X101461904Y-96227380D02*
X101557142Y-96227380D01*
X101652380Y-96275000D01*
X101700000Y-96322619D01*
X101747619Y-96417857D01*
X101795238Y-96608333D01*
X101795238Y-96846428D01*
X101747619Y-97036904D01*
X101700000Y-97132142D01*
X101652380Y-97179761D01*
X101557142Y-97227380D01*
X101461904Y-97227380D01*
X101366666Y-97179761D01*
X101319047Y-97132142D01*
X101271428Y-97036904D01*
X101223809Y-96846428D01*
X101223809Y-96608333D01*
X101271428Y-96417857D01*
X101319047Y-96322619D01*
X101366666Y-96275000D01*
X101461904Y-96227380D01*
X102223809Y-97132142D02*
X102271428Y-97179761D01*
X102223809Y-97227380D01*
X102176190Y-97179761D01*
X102223809Y-97132142D01*
X102223809Y-97227380D01*
X102890476Y-96227380D02*
X102985714Y-96227380D01*
X103080952Y-96275000D01*
X103128571Y-96322619D01*
X103176190Y-96417857D01*
X103223809Y-96608333D01*
X103223809Y-96846428D01*
X103176190Y-97036904D01*
X103128571Y-97132142D01*
X103080952Y-97179761D01*
X102985714Y-97227380D01*
X102890476Y-97227380D01*
X102795238Y-97179761D01*
X102747619Y-97132142D01*
X102700000Y-97036904D01*
X102652380Y-96846428D01*
X102652380Y-96608333D01*
X102700000Y-96417857D01*
X102747619Y-96322619D01*
X102795238Y-96275000D01*
X102890476Y-96227380D01*
X103557142Y-96227380D02*
X104176190Y-96227380D01*
X103842857Y-96608333D01*
X103985714Y-96608333D01*
X104080952Y-96655952D01*
X104128571Y-96703571D01*
X104176190Y-96798809D01*
X104176190Y-97036904D01*
X104128571Y-97132142D01*
X104080952Y-97179761D01*
X103985714Y-97227380D01*
X103700000Y-97227380D01*
X103604761Y-97179761D01*
X103557142Y-97132142D01*
X100271428Y-94827380D02*
X100271428Y-93827380D01*
X100652380Y-93827380D01*
X100747619Y-93875000D01*
X100795238Y-93922619D01*
X100842857Y-94017857D01*
X100842857Y-94160714D01*
X100795238Y-94255952D01*
X100747619Y-94303571D01*
X100652380Y-94351190D01*
X100271428Y-94351190D01*
X101795238Y-94827380D02*
X101223809Y-94827380D01*
X101509523Y-94827380D02*
X101509523Y-93827380D01*
X101414285Y-93970238D01*
X101319047Y-94065476D01*
X101223809Y-94113095D01*
X102223809Y-94732142D02*
X102271428Y-94779761D01*
X102223809Y-94827380D01*
X102176190Y-94779761D01*
X102223809Y-94732142D01*
X102223809Y-94827380D01*
X103223809Y-94827380D02*
X102652380Y-94827380D01*
X102938095Y-94827380D02*
X102938095Y-93827380D01*
X102842857Y-93970238D01*
X102747619Y-94065476D01*
X102652380Y-94113095D01*
X104128571Y-93827380D02*
X103652380Y-93827380D01*
X103604761Y-94303571D01*
X103652380Y-94255952D01*
X103747619Y-94208333D01*
X103985714Y-94208333D01*
X104080952Y-94255952D01*
X104128571Y-94303571D01*
X104176190Y-94398809D01*
X104176190Y-94636904D01*
X104128571Y-94732142D01*
X104080952Y-94779761D01*
X103985714Y-94827380D01*
X103747619Y-94827380D01*
X103652380Y-94779761D01*
X103604761Y-94732142D01*
X100271428Y-92227380D02*
X100271428Y-91227380D01*
X100652380Y-91227380D01*
X100747619Y-91275000D01*
X100795238Y-91322619D01*
X100842857Y-91417857D01*
X100842857Y-91560714D01*
X100795238Y-91655952D01*
X100747619Y-91703571D01*
X100652380Y-91751190D01*
X100271428Y-91751190D01*
X101795238Y-92227380D02*
X101223809Y-92227380D01*
X101509523Y-92227380D02*
X101509523Y-91227380D01*
X101414285Y-91370238D01*
X101319047Y-91465476D01*
X101223809Y-91513095D01*
X102223809Y-92132142D02*
X102271428Y-92179761D01*
X102223809Y-92227380D01*
X102176190Y-92179761D01*
X102223809Y-92132142D01*
X102223809Y-92227380D01*
X103223809Y-92227380D02*
X102652380Y-92227380D01*
X102938095Y-92227380D02*
X102938095Y-91227380D01*
X102842857Y-91370238D01*
X102747619Y-91465476D01*
X102652380Y-91513095D01*
X103557142Y-91227380D02*
X104176190Y-91227380D01*
X103842857Y-91608333D01*
X103985714Y-91608333D01*
X104080952Y-91655952D01*
X104128571Y-91703571D01*
X104176190Y-91798809D01*
X104176190Y-92036904D01*
X104128571Y-92132142D01*
X104080952Y-92179761D01*
X103985714Y-92227380D01*
X103700000Y-92227380D01*
X103604761Y-92179761D01*
X103557142Y-92132142D01*
X100271428Y-89627380D02*
X100271428Y-88627380D01*
X100652380Y-88627380D01*
X100747619Y-88675000D01*
X100795238Y-88722619D01*
X100842857Y-88817857D01*
X100842857Y-88960714D01*
X100795238Y-89055952D01*
X100747619Y-89103571D01*
X100652380Y-89151190D01*
X100271428Y-89151190D01*
X101795238Y-89627380D02*
X101223809Y-89627380D01*
X101509523Y-89627380D02*
X101509523Y-88627380D01*
X101414285Y-88770238D01*
X101319047Y-88865476D01*
X101223809Y-88913095D01*
X102223809Y-89532142D02*
X102271428Y-89579761D01*
X102223809Y-89627380D01*
X102176190Y-89579761D01*
X102223809Y-89532142D01*
X102223809Y-89627380D01*
X103223809Y-89627380D02*
X102652380Y-89627380D01*
X102938095Y-89627380D02*
X102938095Y-88627380D01*
X102842857Y-88770238D01*
X102747619Y-88865476D01*
X102652380Y-88913095D01*
X104176190Y-89627380D02*
X103604761Y-89627380D01*
X103890476Y-89627380D02*
X103890476Y-88627380D01*
X103795238Y-88770238D01*
X103700000Y-88865476D01*
X103604761Y-88913095D01*
X100271428Y-87052380D02*
X100271428Y-86052380D01*
X100652380Y-86052380D01*
X100747619Y-86100000D01*
X100795238Y-86147619D01*
X100842857Y-86242857D01*
X100842857Y-86385714D01*
X100795238Y-86480952D01*
X100747619Y-86528571D01*
X100652380Y-86576190D01*
X100271428Y-86576190D01*
X101795238Y-87052380D02*
X101223809Y-87052380D01*
X101509523Y-87052380D02*
X101509523Y-86052380D01*
X101414285Y-86195238D01*
X101319047Y-86290476D01*
X101223809Y-86338095D01*
X102223809Y-86957142D02*
X102271428Y-87004761D01*
X102223809Y-87052380D01*
X102176190Y-87004761D01*
X102223809Y-86957142D01*
X102223809Y-87052380D01*
X103223809Y-87052380D02*
X102652380Y-87052380D01*
X102938095Y-87052380D02*
X102938095Y-86052380D01*
X102842857Y-86195238D01*
X102747619Y-86290476D01*
X102652380Y-86338095D01*
X103842857Y-86052380D02*
X103938095Y-86052380D01*
X104033333Y-86100000D01*
X104080952Y-86147619D01*
X104128571Y-86242857D01*
X104176190Y-86433333D01*
X104176190Y-86671428D01*
X104128571Y-86861904D01*
X104080952Y-86957142D01*
X104033333Y-87004761D01*
X103938095Y-87052380D01*
X103842857Y-87052380D01*
X103747619Y-87004761D01*
X103700000Y-86957142D01*
X103652380Y-86861904D01*
X103604761Y-86671428D01*
X103604761Y-86433333D01*
X103652380Y-86242857D01*
X103700000Y-86147619D01*
X103747619Y-86100000D01*
X103842857Y-86052380D01*
X100838095Y-83500000D02*
X100742857Y-83452380D01*
X100600000Y-83452380D01*
X100457142Y-83500000D01*
X100361904Y-83595238D01*
X100314285Y-83690476D01*
X100266666Y-83880952D01*
X100266666Y-84023809D01*
X100314285Y-84214285D01*
X100361904Y-84309523D01*
X100457142Y-84404761D01*
X100600000Y-84452380D01*
X100695238Y-84452380D01*
X100838095Y-84404761D01*
X100885714Y-84357142D01*
X100885714Y-84023809D01*
X100695238Y-84023809D01*
X101314285Y-84452380D02*
X101314285Y-83452380D01*
X101885714Y-84452380D01*
X101885714Y-83452380D01*
X102361904Y-84452380D02*
X102361904Y-83452380D01*
X102600000Y-83452380D01*
X102742857Y-83500000D01*
X102838095Y-83595238D01*
X102885714Y-83690476D01*
X102933333Y-83880952D01*
X102933333Y-84023809D01*
X102885714Y-84214285D01*
X102838095Y-84309523D01*
X102742857Y-84404761D01*
X102600000Y-84452380D01*
X102361904Y-84452380D01*
X116876190Y-102452380D02*
X117209523Y-103452380D01*
X117542857Y-102452380D01*
X118400000Y-103452380D02*
X117828571Y-103452380D01*
X118114285Y-103452380D02*
X118114285Y-102452380D01*
X118019047Y-102595238D01*
X117923809Y-102690476D01*
X117828571Y-102738095D01*
X118828571Y-103357142D02*
X118876190Y-103404761D01*
X118828571Y-103452380D01*
X118780952Y-103404761D01*
X118828571Y-103357142D01*
X118828571Y-103452380D01*
X119828571Y-103452380D02*
X119257142Y-103452380D01*
X119542857Y-103452380D02*
X119542857Y-102452380D01*
X119447619Y-102595238D01*
X119352380Y-102690476D01*
X119257142Y-102738095D01*
D12*
G04 #@! TO.C,J4*
X125735000Y-129265000D02*
X129265000Y-129265000D01*
X125735000Y-135735000D02*
X129265000Y-135735000D01*
X124410000Y-129330000D02*
X125735000Y-129330000D01*
X125735000Y-129265000D02*
X125735000Y-129330000D01*
X129265000Y-129265000D02*
X129265000Y-129330000D01*
X125735000Y-135670000D02*
X125735000Y-135735000D01*
X129265000Y-135670000D02*
X129265000Y-135735000D01*
D13*
G04 #@! TO.C,C2*
X108965000Y-101901500D02*
G75*
G03X108965000Y-101901500I-127000J0D01*
G01*
X108838000Y-103044500D02*
X108838000Y-102028500D01*
X108838000Y-102028500D02*
X110362000Y-102028500D01*
X110362000Y-102028500D02*
X110362000Y-103044500D01*
X110362000Y-104060500D02*
X110362000Y-105076500D01*
X110362000Y-105076500D02*
X108838000Y-105076500D01*
X108838000Y-105076500D02*
X108838000Y-104060500D01*
D12*
G04 #@! TO.C,J2*
X140330000Y-82890000D02*
X137670000Y-82890000D01*
X140330000Y-126130000D02*
X140330000Y-82890000D01*
X137670000Y-126130000D02*
X137670000Y-82890000D01*
X140330000Y-126130000D02*
X137670000Y-126130000D01*
X140330000Y-127400000D02*
X140330000Y-128730000D01*
X140330000Y-128730000D02*
X139000000Y-128730000D01*
D10*
G04 #@! TO.C,U1*
X125000000Y-97500000D02*
X125000000Y-96600000D01*
X124300000Y-97500000D02*
X125000000Y-97500000D01*
X111500000Y-97500000D02*
X112200000Y-97500000D01*
X111500000Y-96600000D02*
X111500000Y-97500000D01*
X111500000Y-96600000D02*
X110000000Y-96600000D01*
X111500000Y-82200000D02*
X110000000Y-82200000D01*
X125000000Y-82200000D02*
X126500000Y-82200000D01*
X125000000Y-96600000D02*
X126500000Y-96600000D01*
X112200000Y-97500000D02*
X112200000Y-99000000D01*
X124300000Y-97500000D02*
X124300000Y-99000000D01*
X111500000Y-82200000D02*
X125000000Y-82200000D01*
D12*
G04 #@! TO.C,J1*
X96870000Y-138870000D02*
X99530000Y-138870000D01*
X96870000Y-85470000D02*
X96870000Y-138870000D01*
X99530000Y-85470000D02*
X99530000Y-138870000D01*
X96870000Y-85470000D02*
X99530000Y-85470000D01*
X96870000Y-84200000D02*
X96870000Y-82870000D01*
X96870000Y-82870000D02*
X98200000Y-82870000D01*
G04 #@! TO.C,J3*
X108470000Y-135790000D02*
X111130000Y-135790000D01*
X108470000Y-112870000D02*
X108470000Y-135790000D01*
X111130000Y-112870000D02*
X111130000Y-135790000D01*
X108470000Y-112870000D02*
X111130000Y-112870000D01*
X108470000Y-111600000D02*
X108470000Y-110270000D01*
X108470000Y-110270000D02*
X109800000Y-110270000D01*
G04 #@! TO.C,J5*
X124730000Y-102930000D02*
X122070000Y-102930000D01*
X124730000Y-115690000D02*
X124730000Y-102930000D01*
X122070000Y-115690000D02*
X122070000Y-102930000D01*
X124730000Y-115690000D02*
X122070000Y-115690000D01*
X124730000Y-116960000D02*
X124730000Y-118290000D01*
X124730000Y-118290000D02*
X123400000Y-118290000D01*
G04 #@! TO.C,J4*
D10*
X127166666Y-136552380D02*
X127166666Y-137266666D01*
X127119047Y-137409523D01*
X127023809Y-137504761D01*
X126880952Y-137552380D01*
X126785714Y-137552380D01*
X128071428Y-136885714D02*
X128071428Y-137552380D01*
X127833333Y-136504761D02*
X127595238Y-137219047D01*
X128214285Y-137219047D01*
G04 #@! TO.C,C2*
X109450000Y-101473928D02*
X109407142Y-101516785D01*
X109278571Y-101559642D01*
X109192857Y-101559642D01*
X109064285Y-101516785D01*
X108978571Y-101431071D01*
X108935714Y-101345357D01*
X108892857Y-101173928D01*
X108892857Y-101045357D01*
X108935714Y-100873928D01*
X108978571Y-100788214D01*
X109064285Y-100702500D01*
X109192857Y-100659642D01*
X109278571Y-100659642D01*
X109407142Y-100702500D01*
X109450000Y-100745357D01*
X109792857Y-100745357D02*
X109835714Y-100702500D01*
X109921428Y-100659642D01*
X110135714Y-100659642D01*
X110221428Y-100702500D01*
X110264285Y-100745357D01*
X110307142Y-100831071D01*
X110307142Y-100916785D01*
X110264285Y-101045357D01*
X109750000Y-101559642D01*
X110307142Y-101559642D01*
G04 #@! TO.C,J2*
X138666666Y-129852380D02*
X138666666Y-130566666D01*
X138619047Y-130709523D01*
X138523809Y-130804761D01*
X138380952Y-130852380D01*
X138285714Y-130852380D01*
X139095238Y-129947619D02*
X139142857Y-129900000D01*
X139238095Y-129852380D01*
X139476190Y-129852380D01*
X139571428Y-129900000D01*
X139619047Y-129947619D01*
X139666666Y-130042857D01*
X139666666Y-130138095D01*
X139619047Y-130280952D01*
X139047619Y-130852380D01*
X139666666Y-130852380D01*
G04 #@! TO.C,U1*
X125738095Y-97552380D02*
X125738095Y-98361904D01*
X125785714Y-98457142D01*
X125833333Y-98504761D01*
X125928571Y-98552380D01*
X126119047Y-98552380D01*
X126214285Y-98504761D01*
X126261904Y-98457142D01*
X126309523Y-98361904D01*
X126309523Y-97552380D01*
X127309523Y-98552380D02*
X126738095Y-98552380D01*
X127023809Y-98552380D02*
X127023809Y-97552380D01*
X126928571Y-97695238D01*
X126833333Y-97790476D01*
X126738095Y-97838095D01*
X111661904Y-101252380D02*
X111661904Y-100252380D01*
X111661904Y-100728571D02*
X112233333Y-100728571D01*
X112233333Y-101252380D02*
X112233333Y-100252380D01*
X112852380Y-101252380D02*
X112757142Y-101204761D01*
X112709523Y-101157142D01*
X112661904Y-101061904D01*
X112661904Y-100776190D01*
X112709523Y-100680952D01*
X112757142Y-100633333D01*
X112852380Y-100585714D01*
X112995238Y-100585714D01*
X113090476Y-100633333D01*
X113138095Y-100680952D01*
X113185714Y-100776190D01*
X113185714Y-101061904D01*
X113138095Y-101157142D01*
X113090476Y-101204761D01*
X112995238Y-101252380D01*
X112852380Y-101252380D01*
X113757142Y-101252380D02*
X113661904Y-101204761D01*
X113614285Y-101109523D01*
X113614285Y-100252380D01*
X114042857Y-100585714D02*
X114280952Y-101252380D01*
X114519047Y-100585714D02*
X114280952Y-101252380D01*
X114185714Y-101490476D01*
X114138095Y-101538095D01*
X114042857Y-101585714D01*
X114900000Y-101252380D02*
X114900000Y-100252380D01*
X115566666Y-100252380D02*
X115757142Y-100252380D01*
X115852380Y-100300000D01*
X115947619Y-100395238D01*
X115995238Y-100585714D01*
X115995238Y-100919047D01*
X115947619Y-101109523D01*
X115852380Y-101204761D01*
X115757142Y-101252380D01*
X115566666Y-101252380D01*
X115471428Y-101204761D01*
X115376190Y-101109523D01*
X115328571Y-100919047D01*
X115328571Y-100585714D01*
X115376190Y-100395238D01*
X115471428Y-100300000D01*
X115566666Y-100252380D01*
X116280952Y-100252380D02*
X116852380Y-100252380D01*
X116566666Y-101252380D02*
X116566666Y-100252380D01*
X116947619Y-101347619D02*
X117709523Y-101347619D01*
X117947619Y-101252380D02*
X117947619Y-100252380D01*
X118519047Y-101252380D01*
X118519047Y-100252380D01*
X119566666Y-101252380D02*
X119233333Y-100776190D01*
X118995238Y-101252380D02*
X118995238Y-100252380D01*
X119376190Y-100252380D01*
X119471428Y-100300000D01*
X119519047Y-100347619D01*
X119566666Y-100442857D01*
X119566666Y-100585714D01*
X119519047Y-100680952D01*
X119471428Y-100728571D01*
X119376190Y-100776190D01*
X118995238Y-100776190D01*
X120328571Y-100728571D02*
X119995238Y-100728571D01*
X119995238Y-101252380D02*
X119995238Y-100252380D01*
X120471428Y-100252380D01*
X121328571Y-100252380D02*
X120852380Y-100252380D01*
X120804761Y-100728571D01*
X120852380Y-100680952D01*
X120947619Y-100633333D01*
X121185714Y-100633333D01*
X121280952Y-100680952D01*
X121328571Y-100728571D01*
X121376190Y-100823809D01*
X121376190Y-101061904D01*
X121328571Y-101157142D01*
X121280952Y-101204761D01*
X121185714Y-101252380D01*
X120947619Y-101252380D01*
X120852380Y-101204761D01*
X120804761Y-101157142D01*
X121757142Y-100347619D02*
X121804761Y-100300000D01*
X121900000Y-100252380D01*
X122138095Y-100252380D01*
X122233333Y-100300000D01*
X122280952Y-100347619D01*
X122328571Y-100442857D01*
X122328571Y-100538095D01*
X122280952Y-100680952D01*
X121709523Y-101252380D01*
X122328571Y-101252380D01*
X122900000Y-100680952D02*
X122804761Y-100633333D01*
X122757142Y-100585714D01*
X122709523Y-100490476D01*
X122709523Y-100442857D01*
X122757142Y-100347619D01*
X122804761Y-100300000D01*
X122900000Y-100252380D01*
X123090476Y-100252380D01*
X123185714Y-100300000D01*
X123233333Y-100347619D01*
X123280952Y-100442857D01*
X123280952Y-100490476D01*
X123233333Y-100585714D01*
X123185714Y-100633333D01*
X123090476Y-100680952D01*
X122900000Y-100680952D01*
X122804761Y-100728571D01*
X122757142Y-100776190D01*
X122709523Y-100871428D01*
X122709523Y-101061904D01*
X122757142Y-101157142D01*
X122804761Y-101204761D01*
X122900000Y-101252380D01*
X123090476Y-101252380D01*
X123185714Y-101204761D01*
X123233333Y-101157142D01*
X123280952Y-101061904D01*
X123280952Y-100871428D01*
X123233333Y-100776190D01*
X123185714Y-100728571D01*
X123090476Y-100680952D01*
X124138095Y-100585714D02*
X124138095Y-101252380D01*
X123900000Y-100204761D02*
X123661904Y-100919047D01*
X124280952Y-100919047D01*
X124852380Y-100252380D02*
X124947619Y-100252380D01*
X125042857Y-100300000D01*
X125090476Y-100347619D01*
X125138095Y-100442857D01*
X125185714Y-100633333D01*
X125185714Y-100871428D01*
X125138095Y-101061904D01*
X125090476Y-101157142D01*
X125042857Y-101204761D01*
X124947619Y-101252380D01*
X124852380Y-101252380D01*
X124757142Y-101204761D01*
X124709523Y-101157142D01*
X124661904Y-101061904D01*
X124614285Y-100871428D01*
X124614285Y-100633333D01*
X124661904Y-100442857D01*
X124709523Y-100347619D01*
X124757142Y-100300000D01*
X124852380Y-100252380D01*
G04 #@! TO.C,J1*
X97866666Y-139852380D02*
X97866666Y-140566666D01*
X97819047Y-140709523D01*
X97723809Y-140804761D01*
X97580952Y-140852380D01*
X97485714Y-140852380D01*
X98866666Y-140852380D02*
X98295238Y-140852380D01*
X98580952Y-140852380D02*
X98580952Y-139852380D01*
X98485714Y-139995238D01*
X98390476Y-140090476D01*
X98295238Y-140138095D01*
G04 #@! TO.C,J3*
X109466666Y-136652380D02*
X109466666Y-137366666D01*
X109419047Y-137509523D01*
X109323809Y-137604761D01*
X109180952Y-137652380D01*
X109085714Y-137652380D01*
X109847619Y-136652380D02*
X110466666Y-136652380D01*
X110133333Y-137033333D01*
X110276190Y-137033333D01*
X110371428Y-137080952D01*
X110419047Y-137128571D01*
X110466666Y-137223809D01*
X110466666Y-137461904D01*
X110419047Y-137557142D01*
X110371428Y-137604761D01*
X110276190Y-137652380D01*
X109990476Y-137652380D01*
X109895238Y-137604761D01*
X109847619Y-137557142D01*
G04 #@! TO.C,J5*
X123066666Y-119252380D02*
X123066666Y-119966666D01*
X123019047Y-120109523D01*
X122923809Y-120204761D01*
X122780952Y-120252380D01*
X122685714Y-120252380D01*
X124019047Y-119252380D02*
X123542857Y-119252380D01*
X123495238Y-119728571D01*
X123542857Y-119680952D01*
X123638095Y-119633333D01*
X123876190Y-119633333D01*
X123971428Y-119680952D01*
X124019047Y-119728571D01*
X124066666Y-119823809D01*
X124066666Y-120061904D01*
X124019047Y-120157142D01*
X123971428Y-120204761D01*
X123876190Y-120252380D01*
X123638095Y-120252380D01*
X123542857Y-120204761D01*
X123495238Y-120157142D01*
G04 #@! TD*
M02*
