G04 #@! TF.GenerationSoftware,KiCad,Pcbnew,(5.0.0-3-g5ebb6b6)*
G04 #@! TF.CreationDate,2019-02-03T17:20:29+01:00*
G04 #@! TF.ProjectId,HolyIoT-NRF52840-Breakout,486F6C79496F542D4E52463532383430,1.0*
G04 #@! TF.SameCoordinates,Original*
G04 #@! TF.FileFunction,Copper,L2,Bot,Signal*
G04 #@! TF.FilePolarity,Positive*
%FSLAX46Y46*%
G04 Gerber Fmt 4.6, Leading zero omitted, Abs format (unit mm)*
G04 Created by KiCad (PCBNEW (5.0.0-3-g5ebb6b6)) date 2019 February 03, Sunday 17:20:29*
%MOMM*%
%LPD*%
G01*
G04 APERTURE LIST*
G04 #@! TA.AperFunction,ComponentPad*
%ADD10R,1.700000X1.700000*%
G04 #@! TD*
G04 #@! TA.AperFunction,ComponentPad*
%ADD11O,1.700000X1.700000*%
G04 #@! TD*
G04 #@! TA.AperFunction,ViaPad*
%ADD12C,0.600000*%
G04 #@! TD*
G04 #@! TA.AperFunction,Conductor*
%ADD13C,0.200000*%
G04 #@! TD*
G04 APERTURE END LIST*
D10*
G04 #@! TO.P,J2,1*
G04 #@! TO.N,Net-(J2-Pad1)*
X139000000Y-127400000D03*
D11*
G04 #@! TO.P,J2,2*
G04 #@! TO.N,Net-(J2-Pad2)*
X139000000Y-124860000D03*
G04 #@! TO.P,J2,3*
G04 #@! TO.N,Net-(J2-Pad3)*
X139000000Y-122320000D03*
G04 #@! TO.P,J2,4*
G04 #@! TO.N,Net-(J2-Pad4)*
X139000000Y-119780000D03*
G04 #@! TO.P,J2,5*
G04 #@! TO.N,Net-(J2-Pad5)*
X139000000Y-117240000D03*
G04 #@! TO.P,J2,6*
G04 #@! TO.N,Net-(J2-Pad6)*
X139000000Y-114700000D03*
G04 #@! TO.P,J2,7*
G04 #@! TO.N,Net-(J2-Pad7)*
X139000000Y-112160000D03*
G04 #@! TO.P,J2,8*
G04 #@! TO.N,Net-(J2-Pad8)*
X139000000Y-109620000D03*
G04 #@! TO.P,J2,9*
G04 #@! TO.N,Net-(J2-Pad9)*
X139000000Y-107080000D03*
G04 #@! TO.P,J2,10*
G04 #@! TO.N,Net-(J2-Pad10)*
X139000000Y-104540000D03*
G04 #@! TO.P,J2,11*
G04 #@! TO.N,Net-(J2-Pad11)*
X139000000Y-102000000D03*
G04 #@! TO.P,J2,12*
G04 #@! TO.N,Net-(J2-Pad12)*
X139000000Y-99460000D03*
G04 #@! TO.P,J2,13*
G04 #@! TO.N,Net-(J2-Pad13)*
X139000000Y-96920000D03*
G04 #@! TO.P,J2,14*
G04 #@! TO.N,Net-(J2-Pad14)*
X139000000Y-94380000D03*
G04 #@! TO.P,J2,15*
G04 #@! TO.N,Net-(J2-Pad15)*
X139000000Y-91840000D03*
G04 #@! TO.P,J2,16*
G04 #@! TO.N,Net-(J2-Pad16)*
X139000000Y-89300000D03*
G04 #@! TO.P,J2,17*
G04 #@! TO.N,Net-(J2-Pad17)*
X139000000Y-86760000D03*
G04 #@! TO.P,J2,18*
G04 #@! TO.N,Net-(J2-Pad18)*
X139000000Y-84220000D03*
G04 #@! TD*
D10*
G04 #@! TO.P,J1,1*
G04 #@! TO.N,GND*
X98200000Y-84200000D03*
D11*
G04 #@! TO.P,J1,2*
G04 #@! TO.N,Net-(J1-Pad2)*
X98200000Y-86740000D03*
G04 #@! TO.P,J1,3*
G04 #@! TO.N,Net-(J1-Pad3)*
X98200000Y-89280000D03*
G04 #@! TO.P,J1,4*
G04 #@! TO.N,Net-(J1-Pad4)*
X98200000Y-91820000D03*
G04 #@! TO.P,J1,5*
G04 #@! TO.N,Net-(J1-Pad5)*
X98200000Y-94360000D03*
G04 #@! TO.P,J1,6*
G04 #@! TO.N,Net-(J1-Pad6)*
X98200000Y-96900000D03*
G04 #@! TO.P,J1,7*
G04 #@! TO.N,Net-(J1-Pad7)*
X98200000Y-99440000D03*
G04 #@! TO.P,J1,8*
G04 #@! TO.N,Net-(J1-Pad8)*
X98200000Y-101980000D03*
G04 #@! TO.P,J1,9*
G04 #@! TO.N,Net-(J1-Pad9)*
X98200000Y-104520000D03*
G04 #@! TO.P,J1,10*
G04 #@! TO.N,Net-(J1-Pad10)*
X98200000Y-107060000D03*
G04 #@! TO.P,J1,11*
G04 #@! TO.N,Net-(J1-Pad11)*
X98200000Y-109600000D03*
G04 #@! TO.P,J1,12*
G04 #@! TO.N,Net-(J1-Pad12)*
X98200000Y-112140000D03*
G04 #@! TO.P,J1,13*
G04 #@! TO.N,Net-(J1-Pad13)*
X98200000Y-114680000D03*
G04 #@! TO.P,J1,14*
G04 #@! TO.N,Net-(J1-Pad14)*
X98200000Y-117220000D03*
G04 #@! TO.P,J1,15*
G04 #@! TO.N,Net-(J1-Pad15)*
X98200000Y-119760000D03*
G04 #@! TO.P,J1,16*
G04 #@! TO.N,Net-(J1-Pad16)*
X98200000Y-122300000D03*
G04 #@! TO.P,J1,17*
G04 #@! TO.N,Net-(J1-Pad17)*
X98200000Y-124840000D03*
G04 #@! TO.P,J1,18*
G04 #@! TO.N,Net-(J1-Pad18)*
X98200000Y-127380000D03*
G04 #@! TO.P,J1,19*
G04 #@! TO.N,Net-(J1-Pad19)*
X98200000Y-129920000D03*
G04 #@! TO.P,J1,20*
G04 #@! TO.N,Net-(J1-Pad20)*
X98200000Y-132460000D03*
G04 #@! TO.P,J1,21*
G04 #@! TO.N,Net-(J1-Pad21)*
X98200000Y-135000000D03*
G04 #@! TO.P,J1,22*
G04 #@! TO.N,Net-(J1-Pad22)*
X98200000Y-137540000D03*
G04 #@! TD*
D10*
G04 #@! TO.P,J3,1*
G04 #@! TO.N,Net-(J3-Pad1)*
X109800000Y-111600000D03*
D11*
G04 #@! TO.P,J3,2*
G04 #@! TO.N,Net-(J3-Pad2)*
X109800000Y-114140000D03*
G04 #@! TO.P,J3,3*
G04 #@! TO.N,Net-(J3-Pad3)*
X109800000Y-116680000D03*
G04 #@! TO.P,J3,4*
G04 #@! TO.N,Net-(J3-Pad4)*
X109800000Y-119220000D03*
G04 #@! TO.P,J3,5*
G04 #@! TO.N,Net-(J3-Pad5)*
X109800000Y-121760000D03*
G04 #@! TO.P,J3,6*
G04 #@! TO.N,Net-(J3-Pad6)*
X109800000Y-124300000D03*
G04 #@! TO.P,J3,7*
G04 #@! TO.N,Net-(J3-Pad7)*
X109800000Y-126840000D03*
G04 #@! TO.P,J3,8*
G04 #@! TO.N,Net-(J3-Pad8)*
X109800000Y-129380000D03*
G04 #@! TO.P,J3,9*
G04 #@! TO.N,Net-(J3-Pad9)*
X109800000Y-131920000D03*
G04 #@! TO.P,J3,10*
G04 #@! TO.N,Net-(J3-Pad10)*
X109800000Y-134460000D03*
G04 #@! TD*
D10*
G04 #@! TO.P,J5,1*
G04 #@! TO.N,SWDIO*
X123400000Y-116960000D03*
D11*
G04 #@! TO.P,J5,2*
G04 #@! TO.N,SWDCLK*
X123400000Y-114420000D03*
G04 #@! TO.P,J5,3*
G04 #@! TO.N,GND*
X123400000Y-111880000D03*
G04 #@! TO.P,J5,4*
X123400000Y-109340000D03*
G04 #@! TO.P,J5,5*
G04 #@! TO.N,V_NRF*
X123400000Y-106800000D03*
G04 #@! TO.P,J5,6*
X123400000Y-104260000D03*
G04 #@! TD*
D12*
G04 #@! TO.N,Net-(J2-Pad2)*
X122600000Y-92600000D03*
X131200000Y-119400000D03*
G04 #@! TO.N,Net-(J2-Pad3)*
X122599998Y-91600000D03*
X130000000Y-116500000D03*
G04 #@! TO.N,Net-(J2-Pad4)*
X122600000Y-90400000D03*
G04 #@! TO.N,Net-(J2-Pad5)*
X122599998Y-89400000D03*
G04 #@! TO.N,Net-(J2-Pad6)*
X122600000Y-88200000D03*
G04 #@! TO.N,Net-(J2-Pad7)*
X122599998Y-87200000D03*
G04 #@! TO.N,Net-(J2-Pad8)*
X122600000Y-86000000D03*
G04 #@! TO.N,Net-(J2-Pad9)*
X122600000Y-85000000D03*
G04 #@! TO.N,GND*
X110600000Y-98400000D03*
X113800000Y-95600000D03*
X131000000Y-83000000D03*
X130200000Y-83000000D03*
X129400000Y-83000000D03*
X128600000Y-83000000D03*
X127800000Y-83000000D03*
X127000000Y-83000000D03*
X131800000Y-83000000D03*
X132600000Y-83000000D03*
X133400000Y-83000000D03*
X134200000Y-83000000D03*
X135000000Y-83000000D03*
X135800000Y-83000000D03*
X136600000Y-83000000D03*
X100800000Y-83000000D03*
X102400000Y-83000000D03*
X104000000Y-83000000D03*
X105600000Y-83000000D03*
X106400000Y-83000000D03*
X107200000Y-83000000D03*
X108000000Y-83000000D03*
X108800000Y-83000000D03*
X109600000Y-83000000D03*
X104800000Y-83000000D03*
X103200000Y-83000000D03*
X101600000Y-83000000D03*
G04 #@! TO.N,Net-(J2-Pad11)*
X131000000Y-93800000D03*
X128600000Y-93800000D03*
G04 #@! TO.N,Net-(J2-Pad10)*
X131000000Y-95000000D03*
X128600000Y-95000006D03*
G04 #@! TO.N,Net-(J2-Pad12)*
X128600000Y-92800000D03*
X131100000Y-92800000D03*
G04 #@! TO.N,Net-(J2-Pad14)*
X128599996Y-90600000D03*
X131100000Y-90600000D03*
G04 #@! TO.N,Net-(J1-Pad22)*
X113800000Y-93800000D03*
G04 #@! TO.N,Net-(J1-Pad21)*
X114000000Y-92600000D03*
G04 #@! TO.N,Net-(J1-Pad20)*
X113799999Y-91500012D03*
G04 #@! TO.N,Net-(J1-Pad19)*
X113799998Y-90400000D03*
G04 #@! TO.N,Net-(J1-Pad18)*
X113800000Y-89400000D03*
X103600000Y-110800000D03*
G04 #@! TO.N,Net-(J1-Pad17)*
X113800000Y-88200000D03*
X102800000Y-111600000D03*
G04 #@! TO.N,Net-(J1-Pad16)*
X113800000Y-87200000D03*
X102000000Y-115000000D03*
G04 #@! TO.N,Net-(J1-Pad15)*
X113800000Y-86200000D03*
X101200000Y-114400000D03*
G04 #@! TO.N,Net-(J1-Pad14)*
X113799998Y-85000000D03*
X100400000Y-113800016D03*
G04 #@! TO.N,SWDCLK*
X129600000Y-98000000D03*
X129600000Y-100600000D03*
G04 #@! TO.N,SWDIO*
X130400000Y-97000000D03*
X128600000Y-115200000D03*
X130400000Y-100000000D03*
X127155018Y-116644982D03*
G04 #@! TO.N,V_NRF*
X111600000Y-102600000D03*
X120799994Y-102600000D03*
G04 #@! TO.N,Net-(J2-Pad1)*
X122600000Y-93800000D03*
G04 #@! TO.N,Net-(J2-Pad13)*
X131100000Y-91600000D03*
X128600000Y-91600000D03*
G04 #@! TD*
D13*
G04 #@! TO.N,Net-(J2-Pad2)*
X131200000Y-118975736D02*
X131200000Y-119400000D01*
X131200000Y-106700000D02*
X131200000Y-118975736D01*
X119600000Y-95100000D02*
X131200000Y-106700000D01*
X119600000Y-93600000D02*
X119600000Y-95100000D01*
X122600000Y-92600000D02*
X120600000Y-92600000D01*
X120600000Y-92600000D02*
X119600000Y-93600000D01*
G04 #@! TO.N,Net-(J2-Pad3)*
X130000000Y-107200000D02*
X130000000Y-116075736D01*
X118600000Y-93000000D02*
X118600000Y-95800000D01*
X118600000Y-95800000D02*
X130000000Y-107200000D01*
X120000000Y-91600000D02*
X118600000Y-93000000D01*
X130000000Y-116075736D02*
X130000000Y-116500000D01*
X122599998Y-91600000D02*
X120000000Y-91600000D01*
G04 #@! TO.N,Net-(J2-Pad4)*
X136780000Y-119780000D02*
X139000000Y-119780000D01*
X133100000Y-116100000D02*
X136780000Y-119780000D01*
X133100000Y-90300000D02*
X133100000Y-116100000D01*
X132600000Y-89800000D02*
X133100000Y-90300000D01*
X122600000Y-90400000D02*
X123200000Y-89800000D01*
X123200000Y-89800000D02*
X132600000Y-89800000D01*
G04 #@! TO.N,Net-(J2-Pad5)*
X136840000Y-117240000D02*
X139000000Y-117240000D01*
X133900000Y-114300000D02*
X136840000Y-117240000D01*
X133900000Y-89700000D02*
X133900000Y-114300000D01*
X133200000Y-89000000D02*
X133900000Y-89700000D01*
X122599998Y-89400000D02*
X122999998Y-89000000D01*
X122999998Y-89000000D02*
X133200000Y-89000000D01*
G04 #@! TO.N,Net-(J2-Pad6)*
X137000000Y-114700000D02*
X139000000Y-114700000D01*
X134600000Y-112300000D02*
X137000000Y-114700000D01*
X134600000Y-89200000D02*
X134600000Y-112300000D01*
X122600000Y-88200000D02*
X133600000Y-88200000D01*
X133600000Y-88200000D02*
X134600000Y-89200000D01*
G04 #@! TO.N,Net-(J2-Pad7)*
X136960000Y-112160000D02*
X139000000Y-112160000D01*
X135200000Y-110400000D02*
X136960000Y-112160000D01*
X135200000Y-87600000D02*
X135200000Y-110400000D01*
X122599998Y-87200000D02*
X134800000Y-87200000D01*
X134800000Y-87200000D02*
X135200000Y-87600000D01*
G04 #@! TO.N,Net-(J2-Pad8)*
X137020000Y-109620000D02*
X139000000Y-109620000D01*
X135800000Y-108400000D02*
X137020000Y-109620000D01*
X135800000Y-86800000D02*
X135800000Y-108400000D01*
X122600000Y-86000000D02*
X135000000Y-86000000D01*
X135000000Y-86000000D02*
X135800000Y-86800000D01*
G04 #@! TO.N,Net-(J2-Pad9)*
X137080000Y-107080000D02*
X139000000Y-107080000D01*
X136400000Y-106400000D02*
X137080000Y-107080000D01*
X136400000Y-85892878D02*
X136400000Y-106400000D01*
X122600000Y-85000000D02*
X135507122Y-85000000D01*
X135507122Y-85000000D02*
X136400000Y-85892878D01*
G04 #@! TO.N,Net-(J2-Pad11)*
X129024264Y-93800000D02*
X128600000Y-93800000D01*
X129024264Y-93800000D02*
X131000000Y-93800000D01*
G04 #@! TO.N,Net-(J2-Pad10)*
X129024264Y-95000006D02*
X130999994Y-95000006D01*
X130999994Y-95000006D02*
X131000000Y-95000000D01*
X129024264Y-95000006D02*
X128600000Y-95000006D01*
G04 #@! TO.N,Net-(J2-Pad12)*
X128600000Y-92800000D02*
X129024264Y-92800000D01*
X129024264Y-92800000D02*
X131100000Y-92800000D01*
G04 #@! TO.N,Net-(J2-Pad14)*
X129024260Y-90600000D02*
X128599996Y-90600000D01*
X129024260Y-90600000D02*
X131100000Y-90600000D01*
G04 #@! TO.N,Net-(J1-Pad22)*
X101460000Y-137540000D02*
X98200000Y-137540000D01*
X109800000Y-93800000D02*
X106800000Y-96800000D01*
X113800000Y-93800000D02*
X109800000Y-93800000D01*
X106800000Y-96800000D02*
X106800000Y-116000000D01*
X106800000Y-116000000D02*
X103200000Y-119600000D01*
X103200000Y-119600000D02*
X103200000Y-135800000D01*
X103200000Y-135800000D02*
X101460000Y-137540000D01*
G04 #@! TO.N,Net-(J1-Pad21)*
X101400000Y-135000000D02*
X98200000Y-135000000D01*
X109400000Y-92600000D02*
X106000000Y-96000000D01*
X114000000Y-92600000D02*
X109400000Y-92600000D01*
X106000000Y-96000000D02*
X106000000Y-115400000D01*
X106000000Y-115400000D02*
X102200000Y-119200000D01*
X102200000Y-119200000D02*
X102200000Y-134200000D01*
X102200000Y-134200000D02*
X101400000Y-135000000D01*
G04 #@! TO.N,Net-(J1-Pad20)*
X108899988Y-91500012D02*
X105200000Y-95200000D01*
X113799999Y-91500012D02*
X108899988Y-91500012D01*
X105200000Y-95200000D02*
X105200000Y-114800000D01*
X105200000Y-114800000D02*
X101400000Y-118600000D01*
X100940000Y-132460000D02*
X98200000Y-132460000D01*
X101400000Y-118600000D02*
X101400000Y-132000000D01*
X101400000Y-132000000D02*
X100940000Y-132460000D01*
G04 #@! TO.N,Net-(J1-Pad19)*
X100080000Y-129920000D02*
X98200000Y-129920000D01*
X108000000Y-90400000D02*
X104400000Y-94000000D01*
X113799998Y-90400000D02*
X108000000Y-90400000D01*
X104400000Y-94000000D02*
X104400000Y-114400000D01*
X104400000Y-114400000D02*
X100400000Y-118400000D01*
X100400000Y-118400000D02*
X100400000Y-129600000D01*
X100400000Y-129600000D02*
X100080000Y-129920000D01*
G04 #@! TO.N,Net-(J1-Pad18)*
X113375736Y-89400000D02*
X113800000Y-89400000D01*
X106800000Y-89400000D02*
X113375736Y-89400000D01*
X103600000Y-110800000D02*
X103600000Y-92600000D01*
X103600000Y-92600000D02*
X106800000Y-89400000D01*
G04 #@! TO.N,Net-(J1-Pad17)*
X113375736Y-88200000D02*
X113800000Y-88200000D01*
X105600000Y-88200000D02*
X113375736Y-88200000D01*
X102800000Y-111600000D02*
X102800000Y-91000000D01*
X102800000Y-91000000D02*
X105600000Y-88200000D01*
G04 #@! TO.N,Net-(J1-Pad16)*
X102000000Y-89600000D02*
X102000000Y-114575736D01*
X102000000Y-114575736D02*
X102000000Y-115000000D01*
X104400000Y-87200000D02*
X102000000Y-89600000D01*
X113800000Y-87200000D02*
X104400000Y-87200000D01*
G04 #@! TO.N,Net-(J1-Pad15)*
X101200000Y-113975736D02*
X101200000Y-114400000D01*
X113800000Y-86200000D02*
X103000000Y-86200000D01*
X103000000Y-86200000D02*
X101200000Y-88000000D01*
X101200000Y-88000000D02*
X101200000Y-113975736D01*
G04 #@! TO.N,Net-(J1-Pad14)*
X102200000Y-85000000D02*
X100400000Y-86800000D01*
X100400000Y-86800000D02*
X100400000Y-113375752D01*
X100400000Y-114700000D02*
X100400000Y-113800016D01*
X113799998Y-85000000D02*
X102200000Y-85000000D01*
X100400000Y-113375752D02*
X100400000Y-113800016D01*
G04 #@! TO.N,SWDCLK*
X129600000Y-98000000D02*
X129600000Y-100600000D01*
G04 #@! TO.N,SWDIO*
X130400000Y-97000000D02*
X130400000Y-100000000D01*
X128600000Y-115200000D02*
X127155018Y-116644982D01*
G04 #@! TO.N,V_NRF*
X111600000Y-102600000D02*
X120799994Y-102600000D01*
G04 #@! TO.N,Net-(J2-Pad1)*
X137550000Y-127400000D02*
X139000000Y-127400000D01*
X120800000Y-93800000D02*
X120600000Y-94000000D01*
X122600000Y-93800000D02*
X120800000Y-93800000D01*
X120600000Y-94000000D02*
X120600000Y-94400000D01*
X120600000Y-94400000D02*
X132200000Y-106000000D01*
X132200000Y-106000000D02*
X132200000Y-122050000D01*
X132200000Y-122050000D02*
X137550000Y-127400000D01*
G04 #@! TO.N,Net-(J2-Pad13)*
X129024264Y-91600000D02*
X128600000Y-91600000D01*
X129024264Y-91600000D02*
X131100000Y-91600000D01*
G04 #@! TD*
G04 #@! TO.N,GND*
G36*
X140425000Y-141425000D02*
X96575000Y-141425000D01*
X96575000Y-84506000D01*
X96742000Y-84506000D01*
X96742000Y-85109883D01*
X96765365Y-85227347D01*
X96811197Y-85337996D01*
X96877735Y-85437577D01*
X96962422Y-85522264D01*
X97062004Y-85588803D01*
X97172653Y-85634635D01*
X97290117Y-85658000D01*
X97390403Y-85658000D01*
X97240787Y-85780787D01*
X97072085Y-85986351D01*
X96946728Y-86220878D01*
X96869533Y-86475354D01*
X96843468Y-86740000D01*
X96869533Y-87004646D01*
X96946728Y-87259122D01*
X97072085Y-87493649D01*
X97240787Y-87699213D01*
X97446351Y-87867915D01*
X97680878Y-87993272D01*
X97736022Y-88010000D01*
X97680878Y-88026728D01*
X97446351Y-88152085D01*
X97240787Y-88320787D01*
X97072085Y-88526351D01*
X96946728Y-88760878D01*
X96869533Y-89015354D01*
X96843468Y-89280000D01*
X96869533Y-89544646D01*
X96946728Y-89799122D01*
X97072085Y-90033649D01*
X97240787Y-90239213D01*
X97446351Y-90407915D01*
X97680878Y-90533272D01*
X97736022Y-90550000D01*
X97680878Y-90566728D01*
X97446351Y-90692085D01*
X97240787Y-90860787D01*
X97072085Y-91066351D01*
X96946728Y-91300878D01*
X96869533Y-91555354D01*
X96843468Y-91820000D01*
X96869533Y-92084646D01*
X96946728Y-92339122D01*
X97072085Y-92573649D01*
X97240787Y-92779213D01*
X97446351Y-92947915D01*
X97680878Y-93073272D01*
X97736022Y-93090000D01*
X97680878Y-93106728D01*
X97446351Y-93232085D01*
X97240787Y-93400787D01*
X97072085Y-93606351D01*
X96946728Y-93840878D01*
X96869533Y-94095354D01*
X96843468Y-94360000D01*
X96869533Y-94624646D01*
X96946728Y-94879122D01*
X97072085Y-95113649D01*
X97240787Y-95319213D01*
X97446351Y-95487915D01*
X97680878Y-95613272D01*
X97736022Y-95630000D01*
X97680878Y-95646728D01*
X97446351Y-95772085D01*
X97240787Y-95940787D01*
X97072085Y-96146351D01*
X96946728Y-96380878D01*
X96869533Y-96635354D01*
X96843468Y-96900000D01*
X96869533Y-97164646D01*
X96946728Y-97419122D01*
X97072085Y-97653649D01*
X97240787Y-97859213D01*
X97446351Y-98027915D01*
X97680878Y-98153272D01*
X97736022Y-98170000D01*
X97680878Y-98186728D01*
X97446351Y-98312085D01*
X97240787Y-98480787D01*
X97072085Y-98686351D01*
X96946728Y-98920878D01*
X96869533Y-99175354D01*
X96843468Y-99440000D01*
X96869533Y-99704646D01*
X96946728Y-99959122D01*
X97072085Y-100193649D01*
X97240787Y-100399213D01*
X97446351Y-100567915D01*
X97680878Y-100693272D01*
X97736022Y-100710000D01*
X97680878Y-100726728D01*
X97446351Y-100852085D01*
X97240787Y-101020787D01*
X97072085Y-101226351D01*
X96946728Y-101460878D01*
X96869533Y-101715354D01*
X96843468Y-101980000D01*
X96869533Y-102244646D01*
X96946728Y-102499122D01*
X97072085Y-102733649D01*
X97240787Y-102939213D01*
X97446351Y-103107915D01*
X97680878Y-103233272D01*
X97736022Y-103250000D01*
X97680878Y-103266728D01*
X97446351Y-103392085D01*
X97240787Y-103560787D01*
X97072085Y-103766351D01*
X96946728Y-104000878D01*
X96869533Y-104255354D01*
X96843468Y-104520000D01*
X96869533Y-104784646D01*
X96946728Y-105039122D01*
X97072085Y-105273649D01*
X97240787Y-105479213D01*
X97446351Y-105647915D01*
X97680878Y-105773272D01*
X97736022Y-105790000D01*
X97680878Y-105806728D01*
X97446351Y-105932085D01*
X97240787Y-106100787D01*
X97072085Y-106306351D01*
X96946728Y-106540878D01*
X96869533Y-106795354D01*
X96843468Y-107060000D01*
X96869533Y-107324646D01*
X96946728Y-107579122D01*
X97072085Y-107813649D01*
X97240787Y-108019213D01*
X97446351Y-108187915D01*
X97680878Y-108313272D01*
X97736022Y-108330000D01*
X97680878Y-108346728D01*
X97446351Y-108472085D01*
X97240787Y-108640787D01*
X97072085Y-108846351D01*
X96946728Y-109080878D01*
X96869533Y-109335354D01*
X96843468Y-109600000D01*
X96869533Y-109864646D01*
X96946728Y-110119122D01*
X97072085Y-110353649D01*
X97240787Y-110559213D01*
X97446351Y-110727915D01*
X97680878Y-110853272D01*
X97736022Y-110870000D01*
X97680878Y-110886728D01*
X97446351Y-111012085D01*
X97240787Y-111180787D01*
X97072085Y-111386351D01*
X96946728Y-111620878D01*
X96869533Y-111875354D01*
X96843468Y-112140000D01*
X96869533Y-112404646D01*
X96946728Y-112659122D01*
X97072085Y-112893649D01*
X97240787Y-113099213D01*
X97446351Y-113267915D01*
X97680878Y-113393272D01*
X97736022Y-113410000D01*
X97680878Y-113426728D01*
X97446351Y-113552085D01*
X97240787Y-113720787D01*
X97072085Y-113926351D01*
X96946728Y-114160878D01*
X96869533Y-114415354D01*
X96843468Y-114680000D01*
X96869533Y-114944646D01*
X96946728Y-115199122D01*
X97072085Y-115433649D01*
X97240787Y-115639213D01*
X97446351Y-115807915D01*
X97680878Y-115933272D01*
X97736022Y-115950000D01*
X97680878Y-115966728D01*
X97446351Y-116092085D01*
X97240787Y-116260787D01*
X97072085Y-116466351D01*
X96946728Y-116700878D01*
X96869533Y-116955354D01*
X96843468Y-117220000D01*
X96869533Y-117484646D01*
X96946728Y-117739122D01*
X97072085Y-117973649D01*
X97240787Y-118179213D01*
X97446351Y-118347915D01*
X97680878Y-118473272D01*
X97736022Y-118490000D01*
X97680878Y-118506728D01*
X97446351Y-118632085D01*
X97240787Y-118800787D01*
X97072085Y-119006351D01*
X96946728Y-119240878D01*
X96869533Y-119495354D01*
X96843468Y-119760000D01*
X96869533Y-120024646D01*
X96946728Y-120279122D01*
X97072085Y-120513649D01*
X97240787Y-120719213D01*
X97446351Y-120887915D01*
X97680878Y-121013272D01*
X97736022Y-121030000D01*
X97680878Y-121046728D01*
X97446351Y-121172085D01*
X97240787Y-121340787D01*
X97072085Y-121546351D01*
X96946728Y-121780878D01*
X96869533Y-122035354D01*
X96843468Y-122300000D01*
X96869533Y-122564646D01*
X96946728Y-122819122D01*
X97072085Y-123053649D01*
X97240787Y-123259213D01*
X97446351Y-123427915D01*
X97680878Y-123553272D01*
X97736022Y-123570000D01*
X97680878Y-123586728D01*
X97446351Y-123712085D01*
X97240787Y-123880787D01*
X97072085Y-124086351D01*
X96946728Y-124320878D01*
X96869533Y-124575354D01*
X96843468Y-124840000D01*
X96869533Y-125104646D01*
X96946728Y-125359122D01*
X97072085Y-125593649D01*
X97240787Y-125799213D01*
X97446351Y-125967915D01*
X97680878Y-126093272D01*
X97736022Y-126110000D01*
X97680878Y-126126728D01*
X97446351Y-126252085D01*
X97240787Y-126420787D01*
X97072085Y-126626351D01*
X96946728Y-126860878D01*
X96869533Y-127115354D01*
X96843468Y-127380000D01*
X96869533Y-127644646D01*
X96946728Y-127899122D01*
X97072085Y-128133649D01*
X97240787Y-128339213D01*
X97446351Y-128507915D01*
X97680878Y-128633272D01*
X97736022Y-128650000D01*
X97680878Y-128666728D01*
X97446351Y-128792085D01*
X97240787Y-128960787D01*
X97072085Y-129166351D01*
X96946728Y-129400878D01*
X96869533Y-129655354D01*
X96843468Y-129920000D01*
X96869533Y-130184646D01*
X96946728Y-130439122D01*
X97072085Y-130673649D01*
X97240787Y-130879213D01*
X97446351Y-131047915D01*
X97680878Y-131173272D01*
X97736022Y-131190000D01*
X97680878Y-131206728D01*
X97446351Y-131332085D01*
X97240787Y-131500787D01*
X97072085Y-131706351D01*
X96946728Y-131940878D01*
X96869533Y-132195354D01*
X96843468Y-132460000D01*
X96869533Y-132724646D01*
X96946728Y-132979122D01*
X97072085Y-133213649D01*
X97240787Y-133419213D01*
X97446351Y-133587915D01*
X97680878Y-133713272D01*
X97736022Y-133730000D01*
X97680878Y-133746728D01*
X97446351Y-133872085D01*
X97240787Y-134040787D01*
X97072085Y-134246351D01*
X96946728Y-134480878D01*
X96869533Y-134735354D01*
X96843468Y-135000000D01*
X96869533Y-135264646D01*
X96946728Y-135519122D01*
X97072085Y-135753649D01*
X97240787Y-135959213D01*
X97446351Y-136127915D01*
X97680878Y-136253272D01*
X97736022Y-136270000D01*
X97680878Y-136286728D01*
X97446351Y-136412085D01*
X97240787Y-136580787D01*
X97072085Y-136786351D01*
X96946728Y-137020878D01*
X96869533Y-137275354D01*
X96843468Y-137540000D01*
X96869533Y-137804646D01*
X96946728Y-138059122D01*
X97072085Y-138293649D01*
X97240787Y-138499213D01*
X97446351Y-138667915D01*
X97680878Y-138793272D01*
X97935354Y-138870467D01*
X98133679Y-138890000D01*
X98266321Y-138890000D01*
X98464646Y-138870467D01*
X98719122Y-138793272D01*
X98953649Y-138667915D01*
X99159213Y-138499213D01*
X99327915Y-138293649D01*
X99410042Y-138140000D01*
X101430526Y-138140000D01*
X101460000Y-138142903D01*
X101489474Y-138140000D01*
X101577621Y-138131318D01*
X101690721Y-138097010D01*
X101794955Y-138041296D01*
X101886317Y-137966317D01*
X101905113Y-137943414D01*
X103603419Y-136245109D01*
X103626317Y-136226317D01*
X103701296Y-136134955D01*
X103757010Y-136030721D01*
X103791319Y-135917621D01*
X103802903Y-135800000D01*
X103800000Y-135770524D01*
X103800000Y-119848527D01*
X107203419Y-116445109D01*
X107226317Y-116426317D01*
X107301296Y-116334955D01*
X107338132Y-116266040D01*
X107357010Y-116230722D01*
X107391318Y-116117621D01*
X107402903Y-116000000D01*
X107400000Y-115970526D01*
X107400000Y-114140000D01*
X108443468Y-114140000D01*
X108469533Y-114404646D01*
X108546728Y-114659122D01*
X108672085Y-114893649D01*
X108840787Y-115099213D01*
X109046351Y-115267915D01*
X109280878Y-115393272D01*
X109336022Y-115410000D01*
X109280878Y-115426728D01*
X109046351Y-115552085D01*
X108840787Y-115720787D01*
X108672085Y-115926351D01*
X108546728Y-116160878D01*
X108469533Y-116415354D01*
X108443468Y-116680000D01*
X108469533Y-116944646D01*
X108546728Y-117199122D01*
X108672085Y-117433649D01*
X108840787Y-117639213D01*
X109046351Y-117807915D01*
X109280878Y-117933272D01*
X109336022Y-117950000D01*
X109280878Y-117966728D01*
X109046351Y-118092085D01*
X108840787Y-118260787D01*
X108672085Y-118466351D01*
X108546728Y-118700878D01*
X108469533Y-118955354D01*
X108443468Y-119220000D01*
X108469533Y-119484646D01*
X108546728Y-119739122D01*
X108672085Y-119973649D01*
X108840787Y-120179213D01*
X109046351Y-120347915D01*
X109280878Y-120473272D01*
X109336022Y-120490000D01*
X109280878Y-120506728D01*
X109046351Y-120632085D01*
X108840787Y-120800787D01*
X108672085Y-121006351D01*
X108546728Y-121240878D01*
X108469533Y-121495354D01*
X108443468Y-121760000D01*
X108469533Y-122024646D01*
X108546728Y-122279122D01*
X108672085Y-122513649D01*
X108840787Y-122719213D01*
X109046351Y-122887915D01*
X109280878Y-123013272D01*
X109336022Y-123030000D01*
X109280878Y-123046728D01*
X109046351Y-123172085D01*
X108840787Y-123340787D01*
X108672085Y-123546351D01*
X108546728Y-123780878D01*
X108469533Y-124035354D01*
X108443468Y-124300000D01*
X108469533Y-124564646D01*
X108546728Y-124819122D01*
X108672085Y-125053649D01*
X108840787Y-125259213D01*
X109046351Y-125427915D01*
X109280878Y-125553272D01*
X109336022Y-125570000D01*
X109280878Y-125586728D01*
X109046351Y-125712085D01*
X108840787Y-125880787D01*
X108672085Y-126086351D01*
X108546728Y-126320878D01*
X108469533Y-126575354D01*
X108443468Y-126840000D01*
X108469533Y-127104646D01*
X108546728Y-127359122D01*
X108672085Y-127593649D01*
X108840787Y-127799213D01*
X109046351Y-127967915D01*
X109280878Y-128093272D01*
X109336022Y-128110000D01*
X109280878Y-128126728D01*
X109046351Y-128252085D01*
X108840787Y-128420787D01*
X108672085Y-128626351D01*
X108546728Y-128860878D01*
X108469533Y-129115354D01*
X108443468Y-129380000D01*
X108469533Y-129644646D01*
X108546728Y-129899122D01*
X108672085Y-130133649D01*
X108840787Y-130339213D01*
X109046351Y-130507915D01*
X109280878Y-130633272D01*
X109336022Y-130650000D01*
X109280878Y-130666728D01*
X109046351Y-130792085D01*
X108840787Y-130960787D01*
X108672085Y-131166351D01*
X108546728Y-131400878D01*
X108469533Y-131655354D01*
X108443468Y-131920000D01*
X108469533Y-132184646D01*
X108546728Y-132439122D01*
X108672085Y-132673649D01*
X108840787Y-132879213D01*
X109046351Y-133047915D01*
X109280878Y-133173272D01*
X109336022Y-133190000D01*
X109280878Y-133206728D01*
X109046351Y-133332085D01*
X108840787Y-133500787D01*
X108672085Y-133706351D01*
X108546728Y-133940878D01*
X108469533Y-134195354D01*
X108443468Y-134460000D01*
X108469533Y-134724646D01*
X108546728Y-134979122D01*
X108672085Y-135213649D01*
X108840787Y-135419213D01*
X109046351Y-135587915D01*
X109280878Y-135713272D01*
X109535354Y-135790467D01*
X109733679Y-135810000D01*
X109866321Y-135810000D01*
X110064646Y-135790467D01*
X110319122Y-135713272D01*
X110553649Y-135587915D01*
X110759213Y-135419213D01*
X110927915Y-135213649D01*
X111053272Y-134979122D01*
X111130467Y-134724646D01*
X111156532Y-134460000D01*
X111130467Y-134195354D01*
X111053272Y-133940878D01*
X110927915Y-133706351D01*
X110759213Y-133500787D01*
X110553649Y-133332085D01*
X110319122Y-133206728D01*
X110263978Y-133190000D01*
X110319122Y-133173272D01*
X110553649Y-133047915D01*
X110759213Y-132879213D01*
X110927915Y-132673649D01*
X111053272Y-132439122D01*
X111130467Y-132184646D01*
X111156532Y-131920000D01*
X111130467Y-131655354D01*
X111053272Y-131400878D01*
X110927915Y-131166351D01*
X110759213Y-130960787D01*
X110553649Y-130792085D01*
X110319122Y-130666728D01*
X110263978Y-130650000D01*
X110319122Y-130633272D01*
X110553649Y-130507915D01*
X110759213Y-130339213D01*
X110927915Y-130133649D01*
X111053272Y-129899122D01*
X111130467Y-129644646D01*
X111156532Y-129380000D01*
X111130467Y-129115354D01*
X111053272Y-128860878D01*
X110927915Y-128626351D01*
X110759213Y-128420787D01*
X110553649Y-128252085D01*
X110319122Y-128126728D01*
X110263978Y-128110000D01*
X110319122Y-128093272D01*
X110553649Y-127967915D01*
X110759213Y-127799213D01*
X110927915Y-127593649D01*
X111053272Y-127359122D01*
X111130467Y-127104646D01*
X111156532Y-126840000D01*
X111130467Y-126575354D01*
X111053272Y-126320878D01*
X110927915Y-126086351D01*
X110759213Y-125880787D01*
X110553649Y-125712085D01*
X110319122Y-125586728D01*
X110263978Y-125570000D01*
X110319122Y-125553272D01*
X110553649Y-125427915D01*
X110759213Y-125259213D01*
X110927915Y-125053649D01*
X111053272Y-124819122D01*
X111130467Y-124564646D01*
X111156532Y-124300000D01*
X111130467Y-124035354D01*
X111053272Y-123780878D01*
X110927915Y-123546351D01*
X110759213Y-123340787D01*
X110553649Y-123172085D01*
X110319122Y-123046728D01*
X110263978Y-123030000D01*
X110319122Y-123013272D01*
X110553649Y-122887915D01*
X110759213Y-122719213D01*
X110927915Y-122513649D01*
X111053272Y-122279122D01*
X111130467Y-122024646D01*
X111156532Y-121760000D01*
X111130467Y-121495354D01*
X111053272Y-121240878D01*
X110927915Y-121006351D01*
X110759213Y-120800787D01*
X110553649Y-120632085D01*
X110319122Y-120506728D01*
X110263978Y-120490000D01*
X110319122Y-120473272D01*
X110553649Y-120347915D01*
X110759213Y-120179213D01*
X110927915Y-119973649D01*
X111053272Y-119739122D01*
X111130467Y-119484646D01*
X111156532Y-119220000D01*
X111130467Y-118955354D01*
X111053272Y-118700878D01*
X110927915Y-118466351D01*
X110759213Y-118260787D01*
X110553649Y-118092085D01*
X110319122Y-117966728D01*
X110263978Y-117950000D01*
X110319122Y-117933272D01*
X110553649Y-117807915D01*
X110759213Y-117639213D01*
X110927915Y-117433649D01*
X111053272Y-117199122D01*
X111130467Y-116944646D01*
X111156532Y-116680000D01*
X111130467Y-116415354D01*
X111053272Y-116160878D01*
X110927915Y-115926351D01*
X110759213Y-115720787D01*
X110553649Y-115552085D01*
X110319122Y-115426728D01*
X110263978Y-115410000D01*
X110319122Y-115393272D01*
X110553649Y-115267915D01*
X110759213Y-115099213D01*
X110927915Y-114893649D01*
X111053272Y-114659122D01*
X111130467Y-114404646D01*
X111156532Y-114140000D01*
X111130467Y-113875354D01*
X111053272Y-113620878D01*
X110927915Y-113386351D01*
X110759213Y-113180787D01*
X110553649Y-113012085D01*
X110442022Y-112952419D01*
X110650000Y-112952419D01*
X110748017Y-112942765D01*
X110842267Y-112914175D01*
X110929129Y-112867746D01*
X111005264Y-112805264D01*
X111067746Y-112729129D01*
X111114175Y-112642267D01*
X111142765Y-112548017D01*
X111152419Y-112450000D01*
X111152419Y-112258910D01*
X121992097Y-112258910D01*
X122018854Y-112347139D01*
X122136527Y-112607611D01*
X122302754Y-112840122D01*
X122511148Y-113035736D01*
X122753700Y-113186935D01*
X122806072Y-113206712D01*
X122646351Y-113292085D01*
X122440787Y-113460787D01*
X122272085Y-113666351D01*
X122146728Y-113900878D01*
X122069533Y-114155354D01*
X122043468Y-114420000D01*
X122069533Y-114684646D01*
X122146728Y-114939122D01*
X122272085Y-115173649D01*
X122440787Y-115379213D01*
X122646351Y-115547915D01*
X122757978Y-115607581D01*
X122550000Y-115607581D01*
X122451983Y-115617235D01*
X122357733Y-115645825D01*
X122270871Y-115692254D01*
X122194736Y-115754736D01*
X122132254Y-115830871D01*
X122085825Y-115917733D01*
X122057235Y-116011983D01*
X122047581Y-116110000D01*
X122047581Y-117810000D01*
X122057235Y-117908017D01*
X122085825Y-118002267D01*
X122132254Y-118089129D01*
X122194736Y-118165264D01*
X122270871Y-118227746D01*
X122357733Y-118274175D01*
X122451983Y-118302765D01*
X122550000Y-118312419D01*
X124250000Y-118312419D01*
X124348017Y-118302765D01*
X124442267Y-118274175D01*
X124529129Y-118227746D01*
X124605264Y-118165264D01*
X124667746Y-118089129D01*
X124714175Y-118002267D01*
X124742765Y-117908017D01*
X124752419Y-117810000D01*
X124752419Y-116566189D01*
X126355018Y-116566189D01*
X126355018Y-116723775D01*
X126385761Y-116878333D01*
X126446067Y-117023924D01*
X126533617Y-117154952D01*
X126645048Y-117266383D01*
X126776076Y-117353933D01*
X126921667Y-117414239D01*
X127076225Y-117444982D01*
X127233811Y-117444982D01*
X127388369Y-117414239D01*
X127533960Y-117353933D01*
X127664988Y-117266383D01*
X127776419Y-117154952D01*
X127863969Y-117023924D01*
X127924275Y-116878333D01*
X127955018Y-116723775D01*
X127955018Y-116693509D01*
X128648528Y-116000000D01*
X128678793Y-116000000D01*
X128833351Y-115969257D01*
X128978942Y-115908951D01*
X129109970Y-115821401D01*
X129221401Y-115709970D01*
X129308951Y-115578942D01*
X129369257Y-115433351D01*
X129400000Y-115278793D01*
X129400000Y-115121207D01*
X129369257Y-114966649D01*
X129308951Y-114821058D01*
X129221401Y-114690030D01*
X129109970Y-114578599D01*
X128978942Y-114491049D01*
X128833351Y-114430743D01*
X128678793Y-114400000D01*
X128521207Y-114400000D01*
X128366649Y-114430743D01*
X128221058Y-114491049D01*
X128090030Y-114578599D01*
X127978599Y-114690030D01*
X127891049Y-114821058D01*
X127830743Y-114966649D01*
X127800000Y-115121207D01*
X127800000Y-115151472D01*
X127106491Y-115844982D01*
X127076225Y-115844982D01*
X126921667Y-115875725D01*
X126776076Y-115936031D01*
X126645048Y-116023581D01*
X126533617Y-116135012D01*
X126446067Y-116266040D01*
X126385761Y-116411631D01*
X126355018Y-116566189D01*
X124752419Y-116566189D01*
X124752419Y-116110000D01*
X124742765Y-116011983D01*
X124714175Y-115917733D01*
X124667746Y-115830871D01*
X124605264Y-115754736D01*
X124529129Y-115692254D01*
X124442267Y-115645825D01*
X124348017Y-115617235D01*
X124250000Y-115607581D01*
X124042022Y-115607581D01*
X124153649Y-115547915D01*
X124359213Y-115379213D01*
X124527915Y-115173649D01*
X124653272Y-114939122D01*
X124730467Y-114684646D01*
X124756532Y-114420000D01*
X124730467Y-114155354D01*
X124653272Y-113900878D01*
X124527915Y-113666351D01*
X124359213Y-113460787D01*
X124153649Y-113292085D01*
X123993928Y-113206712D01*
X124046300Y-113186935D01*
X124288852Y-113035736D01*
X124497246Y-112840122D01*
X124663473Y-112607611D01*
X124781146Y-112347139D01*
X124807903Y-112258910D01*
X124696889Y-112034000D01*
X123554000Y-112034000D01*
X123554000Y-112054000D01*
X123246000Y-112054000D01*
X123246000Y-112034000D01*
X122103111Y-112034000D01*
X121992097Y-112258910D01*
X111152419Y-112258910D01*
X111152419Y-110750000D01*
X111142765Y-110651983D01*
X111114175Y-110557733D01*
X111067746Y-110470871D01*
X111005264Y-110394736D01*
X110929129Y-110332254D01*
X110842267Y-110285825D01*
X110748017Y-110257235D01*
X110650000Y-110247581D01*
X108950000Y-110247581D01*
X108851983Y-110257235D01*
X108757733Y-110285825D01*
X108670871Y-110332254D01*
X108594736Y-110394736D01*
X108532254Y-110470871D01*
X108485825Y-110557733D01*
X108457235Y-110651983D01*
X108447581Y-110750000D01*
X108447581Y-112450000D01*
X108457235Y-112548017D01*
X108485825Y-112642267D01*
X108532254Y-112729129D01*
X108594736Y-112805264D01*
X108670871Y-112867746D01*
X108757733Y-112914175D01*
X108851983Y-112942765D01*
X108950000Y-112952419D01*
X109157978Y-112952419D01*
X109046351Y-113012085D01*
X108840787Y-113180787D01*
X108672085Y-113386351D01*
X108546728Y-113620878D01*
X108469533Y-113875354D01*
X108443468Y-114140000D01*
X107400000Y-114140000D01*
X107400000Y-109718910D01*
X121992097Y-109718910D01*
X122018854Y-109807139D01*
X122136527Y-110067611D01*
X122302754Y-110300122D01*
X122511148Y-110495736D01*
X122694449Y-110610000D01*
X122511148Y-110724264D01*
X122302754Y-110919878D01*
X122136527Y-111152389D01*
X122018854Y-111412861D01*
X121992097Y-111501090D01*
X122103111Y-111726000D01*
X123246000Y-111726000D01*
X123246000Y-109494000D01*
X123554000Y-109494000D01*
X123554000Y-111726000D01*
X124696889Y-111726000D01*
X124807903Y-111501090D01*
X124781146Y-111412861D01*
X124663473Y-111152389D01*
X124497246Y-110919878D01*
X124288852Y-110724264D01*
X124105551Y-110610000D01*
X124288852Y-110495736D01*
X124497246Y-110300122D01*
X124663473Y-110067611D01*
X124781146Y-109807139D01*
X124807903Y-109718910D01*
X124696889Y-109494000D01*
X123554000Y-109494000D01*
X123246000Y-109494000D01*
X122103111Y-109494000D01*
X121992097Y-109718910D01*
X107400000Y-109718910D01*
X107400000Y-108961090D01*
X121992097Y-108961090D01*
X122103111Y-109186000D01*
X123246000Y-109186000D01*
X123246000Y-109166000D01*
X123554000Y-109166000D01*
X123554000Y-109186000D01*
X124696889Y-109186000D01*
X124807903Y-108961090D01*
X124781146Y-108872861D01*
X124663473Y-108612389D01*
X124497246Y-108379878D01*
X124288852Y-108184264D01*
X124046300Y-108033065D01*
X123993928Y-108013288D01*
X124153649Y-107927915D01*
X124359213Y-107759213D01*
X124527915Y-107553649D01*
X124653272Y-107319122D01*
X124730467Y-107064646D01*
X124756532Y-106800000D01*
X124730467Y-106535354D01*
X124653272Y-106280878D01*
X124527915Y-106046351D01*
X124359213Y-105840787D01*
X124153649Y-105672085D01*
X123919122Y-105546728D01*
X123863978Y-105530000D01*
X123919122Y-105513272D01*
X124153649Y-105387915D01*
X124359213Y-105219213D01*
X124527915Y-105013649D01*
X124653272Y-104779122D01*
X124730467Y-104524646D01*
X124756532Y-104260000D01*
X124730467Y-103995354D01*
X124653272Y-103740878D01*
X124527915Y-103506351D01*
X124359213Y-103300787D01*
X124153649Y-103132085D01*
X123919122Y-103006728D01*
X123664646Y-102929533D01*
X123466321Y-102910000D01*
X123333679Y-102910000D01*
X123135354Y-102929533D01*
X122880878Y-103006728D01*
X122646351Y-103132085D01*
X122440787Y-103300787D01*
X122272085Y-103506351D01*
X122146728Y-103740878D01*
X122069533Y-103995354D01*
X122043468Y-104260000D01*
X122069533Y-104524646D01*
X122146728Y-104779122D01*
X122272085Y-105013649D01*
X122440787Y-105219213D01*
X122646351Y-105387915D01*
X122880878Y-105513272D01*
X122936022Y-105530000D01*
X122880878Y-105546728D01*
X122646351Y-105672085D01*
X122440787Y-105840787D01*
X122272085Y-106046351D01*
X122146728Y-106280878D01*
X122069533Y-106535354D01*
X122043468Y-106800000D01*
X122069533Y-107064646D01*
X122146728Y-107319122D01*
X122272085Y-107553649D01*
X122440787Y-107759213D01*
X122646351Y-107927915D01*
X122806072Y-108013288D01*
X122753700Y-108033065D01*
X122511148Y-108184264D01*
X122302754Y-108379878D01*
X122136527Y-108612389D01*
X122018854Y-108872861D01*
X121992097Y-108961090D01*
X107400000Y-108961090D01*
X107400000Y-102521207D01*
X110800000Y-102521207D01*
X110800000Y-102678793D01*
X110830743Y-102833351D01*
X110891049Y-102978942D01*
X110978599Y-103109970D01*
X111090030Y-103221401D01*
X111221058Y-103308951D01*
X111366649Y-103369257D01*
X111521207Y-103400000D01*
X111678793Y-103400000D01*
X111833351Y-103369257D01*
X111978942Y-103308951D01*
X112109970Y-103221401D01*
X112131371Y-103200000D01*
X120268623Y-103200000D01*
X120290024Y-103221401D01*
X120421052Y-103308951D01*
X120566643Y-103369257D01*
X120721201Y-103400000D01*
X120878787Y-103400000D01*
X121033345Y-103369257D01*
X121178936Y-103308951D01*
X121309964Y-103221401D01*
X121421395Y-103109970D01*
X121508945Y-102978942D01*
X121569251Y-102833351D01*
X121599994Y-102678793D01*
X121599994Y-102521207D01*
X121569251Y-102366649D01*
X121508945Y-102221058D01*
X121421395Y-102090030D01*
X121309964Y-101978599D01*
X121178936Y-101891049D01*
X121033345Y-101830743D01*
X120878787Y-101800000D01*
X120721201Y-101800000D01*
X120566643Y-101830743D01*
X120421052Y-101891049D01*
X120290024Y-101978599D01*
X120268623Y-102000000D01*
X112131371Y-102000000D01*
X112109970Y-101978599D01*
X111978942Y-101891049D01*
X111833351Y-101830743D01*
X111678793Y-101800000D01*
X111521207Y-101800000D01*
X111366649Y-101830743D01*
X111221058Y-101891049D01*
X111090030Y-101978599D01*
X110978599Y-102090030D01*
X110891049Y-102221058D01*
X110830743Y-102366649D01*
X110800000Y-102521207D01*
X107400000Y-102521207D01*
X107400000Y-97048527D01*
X110048528Y-94400000D01*
X113268629Y-94400000D01*
X113290030Y-94421401D01*
X113421058Y-94508951D01*
X113566649Y-94569257D01*
X113721207Y-94600000D01*
X113878793Y-94600000D01*
X114033351Y-94569257D01*
X114178942Y-94508951D01*
X114309970Y-94421401D01*
X114421401Y-94309970D01*
X114508951Y-94178942D01*
X114569257Y-94033351D01*
X114600000Y-93878793D01*
X114600000Y-93721207D01*
X114569257Y-93566649D01*
X114508951Y-93421058D01*
X114421401Y-93290030D01*
X114415737Y-93284366D01*
X114509970Y-93221401D01*
X114621401Y-93109970D01*
X114694880Y-93000000D01*
X117997097Y-93000000D01*
X118000000Y-93029474D01*
X118000001Y-95770517D01*
X117997097Y-95800000D01*
X118008682Y-95917620D01*
X118033672Y-96000000D01*
X118042991Y-96030721D01*
X118098705Y-96134955D01*
X118173684Y-96226317D01*
X118196582Y-96245109D01*
X129400000Y-107448528D01*
X129400001Y-115968628D01*
X129378599Y-115990030D01*
X129291049Y-116121058D01*
X129230743Y-116266649D01*
X129200000Y-116421207D01*
X129200000Y-116578793D01*
X129230743Y-116733351D01*
X129291049Y-116878942D01*
X129378599Y-117009970D01*
X129490030Y-117121401D01*
X129621058Y-117208951D01*
X129766649Y-117269257D01*
X129921207Y-117300000D01*
X130078793Y-117300000D01*
X130233351Y-117269257D01*
X130378942Y-117208951D01*
X130509970Y-117121401D01*
X130600001Y-117031370D01*
X130600001Y-118868628D01*
X130578599Y-118890030D01*
X130491049Y-119021058D01*
X130430743Y-119166649D01*
X130400000Y-119321207D01*
X130400000Y-119478793D01*
X130430743Y-119633351D01*
X130491049Y-119778942D01*
X130578599Y-119909970D01*
X130690030Y-120021401D01*
X130821058Y-120108951D01*
X130966649Y-120169257D01*
X131121207Y-120200000D01*
X131278793Y-120200000D01*
X131433351Y-120169257D01*
X131578942Y-120108951D01*
X131600001Y-120094880D01*
X131600001Y-122020516D01*
X131597097Y-122050000D01*
X131608682Y-122167620D01*
X131642506Y-122279122D01*
X131642991Y-122280721D01*
X131698705Y-122384955D01*
X131773684Y-122476317D01*
X131796582Y-122495109D01*
X137104891Y-127803419D01*
X137123683Y-127826317D01*
X137215045Y-127901296D01*
X137319279Y-127957010D01*
X137432379Y-127991319D01*
X137550000Y-128002903D01*
X137579476Y-128000000D01*
X137647581Y-128000000D01*
X137647581Y-128250000D01*
X137657235Y-128348017D01*
X137685825Y-128442267D01*
X137732254Y-128529129D01*
X137794736Y-128605264D01*
X137870871Y-128667746D01*
X137957733Y-128714175D01*
X138051983Y-128742765D01*
X138150000Y-128752419D01*
X139850000Y-128752419D01*
X139948017Y-128742765D01*
X140042267Y-128714175D01*
X140129129Y-128667746D01*
X140205264Y-128605264D01*
X140267746Y-128529129D01*
X140314175Y-128442267D01*
X140342765Y-128348017D01*
X140352419Y-128250000D01*
X140352419Y-126550000D01*
X140342765Y-126451983D01*
X140314175Y-126357733D01*
X140267746Y-126270871D01*
X140205264Y-126194736D01*
X140129129Y-126132254D01*
X140042267Y-126085825D01*
X139948017Y-126057235D01*
X139850000Y-126047581D01*
X139642022Y-126047581D01*
X139753649Y-125987915D01*
X139959213Y-125819213D01*
X140127915Y-125613649D01*
X140253272Y-125379122D01*
X140330467Y-125124646D01*
X140356532Y-124860000D01*
X140330467Y-124595354D01*
X140253272Y-124340878D01*
X140127915Y-124106351D01*
X139959213Y-123900787D01*
X139753649Y-123732085D01*
X139519122Y-123606728D01*
X139463978Y-123590000D01*
X139519122Y-123573272D01*
X139753649Y-123447915D01*
X139959213Y-123279213D01*
X140127915Y-123073649D01*
X140253272Y-122839122D01*
X140330467Y-122584646D01*
X140356532Y-122320000D01*
X140330467Y-122055354D01*
X140253272Y-121800878D01*
X140127915Y-121566351D01*
X139959213Y-121360787D01*
X139753649Y-121192085D01*
X139519122Y-121066728D01*
X139463978Y-121050000D01*
X139519122Y-121033272D01*
X139753649Y-120907915D01*
X139959213Y-120739213D01*
X140127915Y-120533649D01*
X140253272Y-120299122D01*
X140330467Y-120044646D01*
X140356532Y-119780000D01*
X140330467Y-119515354D01*
X140253272Y-119260878D01*
X140127915Y-119026351D01*
X139959213Y-118820787D01*
X139753649Y-118652085D01*
X139519122Y-118526728D01*
X139463978Y-118510000D01*
X139519122Y-118493272D01*
X139753649Y-118367915D01*
X139959213Y-118199213D01*
X140127915Y-117993649D01*
X140253272Y-117759122D01*
X140330467Y-117504646D01*
X140356532Y-117240000D01*
X140330467Y-116975354D01*
X140253272Y-116720878D01*
X140127915Y-116486351D01*
X139959213Y-116280787D01*
X139753649Y-116112085D01*
X139519122Y-115986728D01*
X139463978Y-115970000D01*
X139519122Y-115953272D01*
X139753649Y-115827915D01*
X139959213Y-115659213D01*
X140127915Y-115453649D01*
X140253272Y-115219122D01*
X140330467Y-114964646D01*
X140356532Y-114700000D01*
X140330467Y-114435354D01*
X140253272Y-114180878D01*
X140127915Y-113946351D01*
X139959213Y-113740787D01*
X139753649Y-113572085D01*
X139519122Y-113446728D01*
X139463978Y-113430000D01*
X139519122Y-113413272D01*
X139753649Y-113287915D01*
X139959213Y-113119213D01*
X140127915Y-112913649D01*
X140253272Y-112679122D01*
X140330467Y-112424646D01*
X140356532Y-112160000D01*
X140330467Y-111895354D01*
X140253272Y-111640878D01*
X140127915Y-111406351D01*
X139959213Y-111200787D01*
X139753649Y-111032085D01*
X139519122Y-110906728D01*
X139463978Y-110890000D01*
X139519122Y-110873272D01*
X139753649Y-110747915D01*
X139959213Y-110579213D01*
X140127915Y-110373649D01*
X140253272Y-110139122D01*
X140330467Y-109884646D01*
X140356532Y-109620000D01*
X140330467Y-109355354D01*
X140253272Y-109100878D01*
X140127915Y-108866351D01*
X139959213Y-108660787D01*
X139753649Y-108492085D01*
X139519122Y-108366728D01*
X139463978Y-108350000D01*
X139519122Y-108333272D01*
X139753649Y-108207915D01*
X139959213Y-108039213D01*
X140127915Y-107833649D01*
X140253272Y-107599122D01*
X140330467Y-107344646D01*
X140356532Y-107080000D01*
X140330467Y-106815354D01*
X140253272Y-106560878D01*
X140127915Y-106326351D01*
X139959213Y-106120787D01*
X139753649Y-105952085D01*
X139519122Y-105826728D01*
X139463978Y-105810000D01*
X139519122Y-105793272D01*
X139753649Y-105667915D01*
X139959213Y-105499213D01*
X140127915Y-105293649D01*
X140253272Y-105059122D01*
X140330467Y-104804646D01*
X140356532Y-104540000D01*
X140330467Y-104275354D01*
X140253272Y-104020878D01*
X140127915Y-103786351D01*
X139959213Y-103580787D01*
X139753649Y-103412085D01*
X139519122Y-103286728D01*
X139463978Y-103270000D01*
X139519122Y-103253272D01*
X139753649Y-103127915D01*
X139959213Y-102959213D01*
X140127915Y-102753649D01*
X140253272Y-102519122D01*
X140330467Y-102264646D01*
X140356532Y-102000000D01*
X140330467Y-101735354D01*
X140253272Y-101480878D01*
X140127915Y-101246351D01*
X139959213Y-101040787D01*
X139753649Y-100872085D01*
X139519122Y-100746728D01*
X139463978Y-100730000D01*
X139519122Y-100713272D01*
X139753649Y-100587915D01*
X139959213Y-100419213D01*
X140127915Y-100213649D01*
X140253272Y-99979122D01*
X140330467Y-99724646D01*
X140356532Y-99460000D01*
X140330467Y-99195354D01*
X140253272Y-98940878D01*
X140127915Y-98706351D01*
X139959213Y-98500787D01*
X139753649Y-98332085D01*
X139519122Y-98206728D01*
X139463978Y-98190000D01*
X139519122Y-98173272D01*
X139753649Y-98047915D01*
X139959213Y-97879213D01*
X140127915Y-97673649D01*
X140253272Y-97439122D01*
X140330467Y-97184646D01*
X140356532Y-96920000D01*
X140330467Y-96655354D01*
X140253272Y-96400878D01*
X140127915Y-96166351D01*
X139959213Y-95960787D01*
X139753649Y-95792085D01*
X139519122Y-95666728D01*
X139463978Y-95650000D01*
X139519122Y-95633272D01*
X139753649Y-95507915D01*
X139959213Y-95339213D01*
X140127915Y-95133649D01*
X140253272Y-94899122D01*
X140330467Y-94644646D01*
X140356532Y-94380000D01*
X140330467Y-94115354D01*
X140253272Y-93860878D01*
X140127915Y-93626351D01*
X139959213Y-93420787D01*
X139753649Y-93252085D01*
X139519122Y-93126728D01*
X139463978Y-93110000D01*
X139519122Y-93093272D01*
X139753649Y-92967915D01*
X139959213Y-92799213D01*
X140127915Y-92593649D01*
X140253272Y-92359122D01*
X140330467Y-92104646D01*
X140356532Y-91840000D01*
X140330467Y-91575354D01*
X140253272Y-91320878D01*
X140127915Y-91086351D01*
X139959213Y-90880787D01*
X139753649Y-90712085D01*
X139519122Y-90586728D01*
X139463978Y-90570000D01*
X139519122Y-90553272D01*
X139753649Y-90427915D01*
X139959213Y-90259213D01*
X140127915Y-90053649D01*
X140253272Y-89819122D01*
X140330467Y-89564646D01*
X140356532Y-89300000D01*
X140330467Y-89035354D01*
X140253272Y-88780878D01*
X140127915Y-88546351D01*
X139959213Y-88340787D01*
X139753649Y-88172085D01*
X139519122Y-88046728D01*
X139463978Y-88030000D01*
X139519122Y-88013272D01*
X139753649Y-87887915D01*
X139959213Y-87719213D01*
X140127915Y-87513649D01*
X140253272Y-87279122D01*
X140330467Y-87024646D01*
X140356532Y-86760000D01*
X140330467Y-86495354D01*
X140253272Y-86240878D01*
X140127915Y-86006351D01*
X139959213Y-85800787D01*
X139753649Y-85632085D01*
X139519122Y-85506728D01*
X139463978Y-85490000D01*
X139519122Y-85473272D01*
X139753649Y-85347915D01*
X139959213Y-85179213D01*
X140127915Y-84973649D01*
X140253272Y-84739122D01*
X140330467Y-84484646D01*
X140356532Y-84220000D01*
X140330467Y-83955354D01*
X140253272Y-83700878D01*
X140127915Y-83466351D01*
X139959213Y-83260787D01*
X139753649Y-83092085D01*
X139519122Y-82966728D01*
X139264646Y-82889533D01*
X139066321Y-82870000D01*
X138933679Y-82870000D01*
X138735354Y-82889533D01*
X138480878Y-82966728D01*
X138246351Y-83092085D01*
X138040787Y-83260787D01*
X137872085Y-83466351D01*
X137746728Y-83700878D01*
X137669533Y-83955354D01*
X137643468Y-84220000D01*
X137669533Y-84484646D01*
X137746728Y-84739122D01*
X137872085Y-84973649D01*
X138040787Y-85179213D01*
X138246351Y-85347915D01*
X138480878Y-85473272D01*
X138536022Y-85490000D01*
X138480878Y-85506728D01*
X138246351Y-85632085D01*
X138040787Y-85800787D01*
X137872085Y-86006351D01*
X137746728Y-86240878D01*
X137669533Y-86495354D01*
X137643468Y-86760000D01*
X137669533Y-87024646D01*
X137746728Y-87279122D01*
X137872085Y-87513649D01*
X138040787Y-87719213D01*
X138246351Y-87887915D01*
X138480878Y-88013272D01*
X138536022Y-88030000D01*
X138480878Y-88046728D01*
X138246351Y-88172085D01*
X138040787Y-88340787D01*
X137872085Y-88546351D01*
X137746728Y-88780878D01*
X137669533Y-89035354D01*
X137643468Y-89300000D01*
X137669533Y-89564646D01*
X137746728Y-89819122D01*
X137872085Y-90053649D01*
X138040787Y-90259213D01*
X138246351Y-90427915D01*
X138480878Y-90553272D01*
X138536022Y-90570000D01*
X138480878Y-90586728D01*
X138246351Y-90712085D01*
X138040787Y-90880787D01*
X137872085Y-91086351D01*
X137746728Y-91320878D01*
X137669533Y-91575354D01*
X137643468Y-91840000D01*
X137669533Y-92104646D01*
X137746728Y-92359122D01*
X137872085Y-92593649D01*
X138040787Y-92799213D01*
X138246351Y-92967915D01*
X138480878Y-93093272D01*
X138536022Y-93110000D01*
X138480878Y-93126728D01*
X138246351Y-93252085D01*
X138040787Y-93420787D01*
X137872085Y-93626351D01*
X137746728Y-93860878D01*
X137669533Y-94115354D01*
X137643468Y-94380000D01*
X137669533Y-94644646D01*
X137746728Y-94899122D01*
X137872085Y-95133649D01*
X138040787Y-95339213D01*
X138246351Y-95507915D01*
X138480878Y-95633272D01*
X138536022Y-95650000D01*
X138480878Y-95666728D01*
X138246351Y-95792085D01*
X138040787Y-95960787D01*
X137872085Y-96166351D01*
X137746728Y-96400878D01*
X137669533Y-96655354D01*
X137643468Y-96920000D01*
X137669533Y-97184646D01*
X137746728Y-97439122D01*
X137872085Y-97673649D01*
X138040787Y-97879213D01*
X138246351Y-98047915D01*
X138480878Y-98173272D01*
X138536022Y-98190000D01*
X138480878Y-98206728D01*
X138246351Y-98332085D01*
X138040787Y-98500787D01*
X137872085Y-98706351D01*
X137746728Y-98940878D01*
X137669533Y-99195354D01*
X137643468Y-99460000D01*
X137669533Y-99724646D01*
X137746728Y-99979122D01*
X137872085Y-100213649D01*
X138040787Y-100419213D01*
X138246351Y-100587915D01*
X138480878Y-100713272D01*
X138536022Y-100730000D01*
X138480878Y-100746728D01*
X138246351Y-100872085D01*
X138040787Y-101040787D01*
X137872085Y-101246351D01*
X137746728Y-101480878D01*
X137669533Y-101735354D01*
X137643468Y-102000000D01*
X137669533Y-102264646D01*
X137746728Y-102519122D01*
X137872085Y-102753649D01*
X138040787Y-102959213D01*
X138246351Y-103127915D01*
X138480878Y-103253272D01*
X138536022Y-103270000D01*
X138480878Y-103286728D01*
X138246351Y-103412085D01*
X138040787Y-103580787D01*
X137872085Y-103786351D01*
X137746728Y-104020878D01*
X137669533Y-104275354D01*
X137643468Y-104540000D01*
X137669533Y-104804646D01*
X137746728Y-105059122D01*
X137872085Y-105293649D01*
X138040787Y-105499213D01*
X138246351Y-105667915D01*
X138480878Y-105793272D01*
X138536022Y-105810000D01*
X138480878Y-105826728D01*
X138246351Y-105952085D01*
X138040787Y-106120787D01*
X137872085Y-106326351D01*
X137789958Y-106480000D01*
X137328528Y-106480000D01*
X137000000Y-106151473D01*
X137000000Y-85922351D01*
X137002903Y-85892877D01*
X136991318Y-85775257D01*
X136985141Y-85754895D01*
X136957010Y-85662157D01*
X136901296Y-85557923D01*
X136826317Y-85466561D01*
X136803420Y-85447770D01*
X135952235Y-84596586D01*
X135933439Y-84573683D01*
X135842077Y-84498704D01*
X135737843Y-84442990D01*
X135624743Y-84408682D01*
X135536596Y-84400000D01*
X135507122Y-84397097D01*
X135477648Y-84400000D01*
X123131371Y-84400000D01*
X123109970Y-84378599D01*
X122978942Y-84291049D01*
X122833351Y-84230743D01*
X122678793Y-84200000D01*
X122521207Y-84200000D01*
X122366649Y-84230743D01*
X122221058Y-84291049D01*
X122090030Y-84378599D01*
X121978599Y-84490030D01*
X121891049Y-84621058D01*
X121830743Y-84766649D01*
X121800000Y-84921207D01*
X121800000Y-85078793D01*
X121830743Y-85233351D01*
X121891049Y-85378942D01*
X121971937Y-85500000D01*
X121891049Y-85621058D01*
X121830743Y-85766649D01*
X121800000Y-85921207D01*
X121800000Y-86078793D01*
X121830743Y-86233351D01*
X121891049Y-86378942D01*
X121978599Y-86509970D01*
X122068628Y-86599999D01*
X121978597Y-86690030D01*
X121891047Y-86821058D01*
X121830741Y-86966649D01*
X121799998Y-87121207D01*
X121799998Y-87278793D01*
X121830741Y-87433351D01*
X121891047Y-87578942D01*
X121971936Y-87700001D01*
X121891049Y-87821058D01*
X121830743Y-87966649D01*
X121800000Y-88121207D01*
X121800000Y-88278793D01*
X121830743Y-88433351D01*
X121891049Y-88578942D01*
X121978599Y-88709970D01*
X122068628Y-88799999D01*
X121978597Y-88890030D01*
X121891047Y-89021058D01*
X121830741Y-89166649D01*
X121799998Y-89321207D01*
X121799998Y-89478793D01*
X121830741Y-89633351D01*
X121891047Y-89778942D01*
X121971936Y-89900001D01*
X121891049Y-90021058D01*
X121830743Y-90166649D01*
X121800000Y-90321207D01*
X121800000Y-90478793D01*
X121830743Y-90633351D01*
X121891049Y-90778942D01*
X121978599Y-90909970D01*
X122068628Y-90999999D01*
X122068627Y-91000000D01*
X120029474Y-91000000D01*
X120000000Y-90997097D01*
X119970526Y-91000000D01*
X119882379Y-91008682D01*
X119769279Y-91042990D01*
X119665045Y-91098704D01*
X119573683Y-91173683D01*
X119554891Y-91196581D01*
X118196586Y-92554887D01*
X118173683Y-92573683D01*
X118098704Y-92665046D01*
X118042990Y-92769280D01*
X118024352Y-92830722D01*
X118008682Y-92882380D01*
X117997097Y-93000000D01*
X114694880Y-93000000D01*
X114708951Y-92978942D01*
X114769257Y-92833351D01*
X114800000Y-92678793D01*
X114800000Y-92521207D01*
X114769257Y-92366649D01*
X114708951Y-92221058D01*
X114621401Y-92090030D01*
X114509970Y-91978599D01*
X114463235Y-91947372D01*
X114508950Y-91878954D01*
X114569256Y-91733363D01*
X114599999Y-91578805D01*
X114599999Y-91421219D01*
X114569256Y-91266661D01*
X114508950Y-91121070D01*
X114421400Y-90990042D01*
X114381364Y-90950006D01*
X114421399Y-90909970D01*
X114508949Y-90778942D01*
X114569255Y-90633351D01*
X114599998Y-90478793D01*
X114599998Y-90321207D01*
X114569255Y-90166649D01*
X114508949Y-90021058D01*
X114428062Y-89900001D01*
X114508951Y-89778942D01*
X114569257Y-89633351D01*
X114600000Y-89478793D01*
X114600000Y-89321207D01*
X114569257Y-89166649D01*
X114508951Y-89021058D01*
X114421401Y-88890030D01*
X114331371Y-88800000D01*
X114421401Y-88709970D01*
X114508951Y-88578942D01*
X114569257Y-88433351D01*
X114600000Y-88278793D01*
X114600000Y-88121207D01*
X114569257Y-87966649D01*
X114508951Y-87821058D01*
X114428063Y-87700000D01*
X114508951Y-87578942D01*
X114569257Y-87433351D01*
X114600000Y-87278793D01*
X114600000Y-87121207D01*
X114569257Y-86966649D01*
X114508951Y-86821058D01*
X114428063Y-86700000D01*
X114508951Y-86578942D01*
X114569257Y-86433351D01*
X114600000Y-86278793D01*
X114600000Y-86121207D01*
X114569257Y-85966649D01*
X114508951Y-85821058D01*
X114421401Y-85690030D01*
X114331370Y-85599999D01*
X114421399Y-85509970D01*
X114508949Y-85378942D01*
X114569255Y-85233351D01*
X114599998Y-85078793D01*
X114599998Y-84921207D01*
X114569255Y-84766649D01*
X114508949Y-84621058D01*
X114421399Y-84490030D01*
X114309968Y-84378599D01*
X114178940Y-84291049D01*
X114033349Y-84230743D01*
X113878791Y-84200000D01*
X113721205Y-84200000D01*
X113566647Y-84230743D01*
X113421056Y-84291049D01*
X113290028Y-84378599D01*
X113268627Y-84400000D01*
X102229465Y-84400000D01*
X102199999Y-84397098D01*
X102170533Y-84400000D01*
X102170526Y-84400000D01*
X102093640Y-84407573D01*
X102082378Y-84408682D01*
X102048070Y-84419089D01*
X101969279Y-84442990D01*
X101865045Y-84498704D01*
X101773683Y-84573683D01*
X101754896Y-84596575D01*
X99996586Y-86354887D01*
X99973683Y-86373683D01*
X99898704Y-86465046D01*
X99842990Y-86569280D01*
X99808682Y-86682379D01*
X99808682Y-86682380D01*
X99797097Y-86800000D01*
X99800000Y-86829474D01*
X99800001Y-113268644D01*
X99778599Y-113290046D01*
X99691049Y-113421074D01*
X99630743Y-113566665D01*
X99600000Y-113721223D01*
X99600000Y-113878809D01*
X99630743Y-114033367D01*
X99691049Y-114178958D01*
X99778599Y-114309986D01*
X99800000Y-114331387D01*
X99800000Y-114729473D01*
X99808682Y-114817620D01*
X99842990Y-114930720D01*
X99898704Y-115034954D01*
X99973683Y-115126317D01*
X100065045Y-115201296D01*
X100169279Y-115257010D01*
X100282379Y-115291318D01*
X100400000Y-115302903D01*
X100517620Y-115291318D01*
X100630720Y-115257010D01*
X100734954Y-115201296D01*
X100826317Y-115126317D01*
X100835619Y-115114982D01*
X100966649Y-115169257D01*
X101121207Y-115200000D01*
X101224109Y-115200000D01*
X101230743Y-115233351D01*
X101291049Y-115378942D01*
X101378599Y-115509970D01*
X101490030Y-115621401D01*
X101621058Y-115708951D01*
X101766649Y-115769257D01*
X101921207Y-115800000D01*
X102078793Y-115800000D01*
X102169519Y-115781954D01*
X99996586Y-117954887D01*
X99973683Y-117973683D01*
X99898704Y-118065046D01*
X99842990Y-118169280D01*
X99813940Y-118265046D01*
X99808682Y-118282380D01*
X99797097Y-118400000D01*
X99800000Y-118429474D01*
X99800001Y-129320000D01*
X99410042Y-129320000D01*
X99327915Y-129166351D01*
X99159213Y-128960787D01*
X98953649Y-128792085D01*
X98719122Y-128666728D01*
X98663978Y-128650000D01*
X98719122Y-128633272D01*
X98953649Y-128507915D01*
X99159213Y-128339213D01*
X99327915Y-128133649D01*
X99453272Y-127899122D01*
X99530467Y-127644646D01*
X99556532Y-127380000D01*
X99530467Y-127115354D01*
X99453272Y-126860878D01*
X99327915Y-126626351D01*
X99159213Y-126420787D01*
X98953649Y-126252085D01*
X98719122Y-126126728D01*
X98663978Y-126110000D01*
X98719122Y-126093272D01*
X98953649Y-125967915D01*
X99159213Y-125799213D01*
X99327915Y-125593649D01*
X99453272Y-125359122D01*
X99530467Y-125104646D01*
X99556532Y-124840000D01*
X99530467Y-124575354D01*
X99453272Y-124320878D01*
X99327915Y-124086351D01*
X99159213Y-123880787D01*
X98953649Y-123712085D01*
X98719122Y-123586728D01*
X98663978Y-123570000D01*
X98719122Y-123553272D01*
X98953649Y-123427915D01*
X99159213Y-123259213D01*
X99327915Y-123053649D01*
X99453272Y-122819122D01*
X99530467Y-122564646D01*
X99556532Y-122300000D01*
X99530467Y-122035354D01*
X99453272Y-121780878D01*
X99327915Y-121546351D01*
X99159213Y-121340787D01*
X98953649Y-121172085D01*
X98719122Y-121046728D01*
X98663978Y-121030000D01*
X98719122Y-121013272D01*
X98953649Y-120887915D01*
X99159213Y-120719213D01*
X99327915Y-120513649D01*
X99453272Y-120279122D01*
X99530467Y-120024646D01*
X99556532Y-119760000D01*
X99530467Y-119495354D01*
X99453272Y-119240878D01*
X99327915Y-119006351D01*
X99159213Y-118800787D01*
X98953649Y-118632085D01*
X98719122Y-118506728D01*
X98663978Y-118490000D01*
X98719122Y-118473272D01*
X98953649Y-118347915D01*
X99159213Y-118179213D01*
X99327915Y-117973649D01*
X99453272Y-117739122D01*
X99530467Y-117484646D01*
X99556532Y-117220000D01*
X99530467Y-116955354D01*
X99453272Y-116700878D01*
X99327915Y-116466351D01*
X99159213Y-116260787D01*
X98953649Y-116092085D01*
X98719122Y-115966728D01*
X98663978Y-115950000D01*
X98719122Y-115933272D01*
X98953649Y-115807915D01*
X99159213Y-115639213D01*
X99327915Y-115433649D01*
X99453272Y-115199122D01*
X99530467Y-114944646D01*
X99556532Y-114680000D01*
X99530467Y-114415354D01*
X99453272Y-114160878D01*
X99327915Y-113926351D01*
X99159213Y-113720787D01*
X98953649Y-113552085D01*
X98719122Y-113426728D01*
X98663978Y-113410000D01*
X98719122Y-113393272D01*
X98953649Y-113267915D01*
X99159213Y-113099213D01*
X99327915Y-112893649D01*
X99453272Y-112659122D01*
X99530467Y-112404646D01*
X99556532Y-112140000D01*
X99530467Y-111875354D01*
X99453272Y-111620878D01*
X99327915Y-111386351D01*
X99159213Y-111180787D01*
X98953649Y-111012085D01*
X98719122Y-110886728D01*
X98663978Y-110870000D01*
X98719122Y-110853272D01*
X98953649Y-110727915D01*
X99159213Y-110559213D01*
X99327915Y-110353649D01*
X99453272Y-110119122D01*
X99530467Y-109864646D01*
X99556532Y-109600000D01*
X99530467Y-109335354D01*
X99453272Y-109080878D01*
X99327915Y-108846351D01*
X99159213Y-108640787D01*
X98953649Y-108472085D01*
X98719122Y-108346728D01*
X98663978Y-108330000D01*
X98719122Y-108313272D01*
X98953649Y-108187915D01*
X99159213Y-108019213D01*
X99327915Y-107813649D01*
X99453272Y-107579122D01*
X99530467Y-107324646D01*
X99556532Y-107060000D01*
X99530467Y-106795354D01*
X99453272Y-106540878D01*
X99327915Y-106306351D01*
X99159213Y-106100787D01*
X98953649Y-105932085D01*
X98719122Y-105806728D01*
X98663978Y-105790000D01*
X98719122Y-105773272D01*
X98953649Y-105647915D01*
X99159213Y-105479213D01*
X99327915Y-105273649D01*
X99453272Y-105039122D01*
X99530467Y-104784646D01*
X99556532Y-104520000D01*
X99530467Y-104255354D01*
X99453272Y-104000878D01*
X99327915Y-103766351D01*
X99159213Y-103560787D01*
X98953649Y-103392085D01*
X98719122Y-103266728D01*
X98663978Y-103250000D01*
X98719122Y-103233272D01*
X98953649Y-103107915D01*
X99159213Y-102939213D01*
X99327915Y-102733649D01*
X99453272Y-102499122D01*
X99530467Y-102244646D01*
X99556532Y-101980000D01*
X99530467Y-101715354D01*
X99453272Y-101460878D01*
X99327915Y-101226351D01*
X99159213Y-101020787D01*
X98953649Y-100852085D01*
X98719122Y-100726728D01*
X98663978Y-100710000D01*
X98719122Y-100693272D01*
X98953649Y-100567915D01*
X99159213Y-100399213D01*
X99327915Y-100193649D01*
X99453272Y-99959122D01*
X99530467Y-99704646D01*
X99556532Y-99440000D01*
X99530467Y-99175354D01*
X99453272Y-98920878D01*
X99327915Y-98686351D01*
X99159213Y-98480787D01*
X98953649Y-98312085D01*
X98719122Y-98186728D01*
X98663978Y-98170000D01*
X98719122Y-98153272D01*
X98953649Y-98027915D01*
X99159213Y-97859213D01*
X99327915Y-97653649D01*
X99453272Y-97419122D01*
X99530467Y-97164646D01*
X99556532Y-96900000D01*
X99530467Y-96635354D01*
X99453272Y-96380878D01*
X99327915Y-96146351D01*
X99159213Y-95940787D01*
X98953649Y-95772085D01*
X98719122Y-95646728D01*
X98663978Y-95630000D01*
X98719122Y-95613272D01*
X98953649Y-95487915D01*
X99159213Y-95319213D01*
X99327915Y-95113649D01*
X99453272Y-94879122D01*
X99530467Y-94624646D01*
X99556532Y-94360000D01*
X99530467Y-94095354D01*
X99453272Y-93840878D01*
X99327915Y-93606351D01*
X99159213Y-93400787D01*
X98953649Y-93232085D01*
X98719122Y-93106728D01*
X98663978Y-93090000D01*
X98719122Y-93073272D01*
X98953649Y-92947915D01*
X99159213Y-92779213D01*
X99327915Y-92573649D01*
X99453272Y-92339122D01*
X99530467Y-92084646D01*
X99556532Y-91820000D01*
X99530467Y-91555354D01*
X99453272Y-91300878D01*
X99327915Y-91066351D01*
X99159213Y-90860787D01*
X98953649Y-90692085D01*
X98719122Y-90566728D01*
X98663978Y-90550000D01*
X98719122Y-90533272D01*
X98953649Y-90407915D01*
X99159213Y-90239213D01*
X99327915Y-90033649D01*
X99453272Y-89799122D01*
X99530467Y-89544646D01*
X99556532Y-89280000D01*
X99530467Y-89015354D01*
X99453272Y-88760878D01*
X99327915Y-88526351D01*
X99159213Y-88320787D01*
X98953649Y-88152085D01*
X98719122Y-88026728D01*
X98663978Y-88010000D01*
X98719122Y-87993272D01*
X98953649Y-87867915D01*
X99159213Y-87699213D01*
X99327915Y-87493649D01*
X99453272Y-87259122D01*
X99530467Y-87004646D01*
X99556532Y-86740000D01*
X99530467Y-86475354D01*
X99453272Y-86220878D01*
X99327915Y-85986351D01*
X99159213Y-85780787D01*
X99009597Y-85658000D01*
X99109883Y-85658000D01*
X99227347Y-85634635D01*
X99337996Y-85588803D01*
X99437578Y-85522264D01*
X99522265Y-85437577D01*
X99588803Y-85337996D01*
X99634635Y-85227347D01*
X99658000Y-85109883D01*
X99658000Y-84506000D01*
X99506000Y-84354000D01*
X98354000Y-84354000D01*
X98354000Y-84374000D01*
X98046000Y-84374000D01*
X98046000Y-84354000D01*
X96894000Y-84354000D01*
X96742000Y-84506000D01*
X96575000Y-84506000D01*
X96575000Y-83290117D01*
X96742000Y-83290117D01*
X96742000Y-83894000D01*
X96894000Y-84046000D01*
X98046000Y-84046000D01*
X98046000Y-82894000D01*
X98354000Y-82894000D01*
X98354000Y-84046000D01*
X99506000Y-84046000D01*
X99658000Y-83894000D01*
X99658000Y-83290117D01*
X99634635Y-83172653D01*
X99588803Y-83062004D01*
X99522265Y-82962423D01*
X99437578Y-82877736D01*
X99337996Y-82811197D01*
X99227347Y-82765365D01*
X99109883Y-82742000D01*
X98506000Y-82742000D01*
X98354000Y-82894000D01*
X98046000Y-82894000D01*
X97894000Y-82742000D01*
X97290117Y-82742000D01*
X97172653Y-82765365D01*
X97062004Y-82811197D01*
X96962422Y-82877736D01*
X96877735Y-82962423D01*
X96811197Y-83062004D01*
X96765365Y-83172653D01*
X96742000Y-83290117D01*
X96575000Y-83290117D01*
X96575000Y-82575000D01*
X140425001Y-82575000D01*
X140425000Y-141425000D01*
X140425000Y-141425000D01*
G37*
X140425000Y-141425000D02*
X96575000Y-141425000D01*
X96575000Y-84506000D01*
X96742000Y-84506000D01*
X96742000Y-85109883D01*
X96765365Y-85227347D01*
X96811197Y-85337996D01*
X96877735Y-85437577D01*
X96962422Y-85522264D01*
X97062004Y-85588803D01*
X97172653Y-85634635D01*
X97290117Y-85658000D01*
X97390403Y-85658000D01*
X97240787Y-85780787D01*
X97072085Y-85986351D01*
X96946728Y-86220878D01*
X96869533Y-86475354D01*
X96843468Y-86740000D01*
X96869533Y-87004646D01*
X96946728Y-87259122D01*
X97072085Y-87493649D01*
X97240787Y-87699213D01*
X97446351Y-87867915D01*
X97680878Y-87993272D01*
X97736022Y-88010000D01*
X97680878Y-88026728D01*
X97446351Y-88152085D01*
X97240787Y-88320787D01*
X97072085Y-88526351D01*
X96946728Y-88760878D01*
X96869533Y-89015354D01*
X96843468Y-89280000D01*
X96869533Y-89544646D01*
X96946728Y-89799122D01*
X97072085Y-90033649D01*
X97240787Y-90239213D01*
X97446351Y-90407915D01*
X97680878Y-90533272D01*
X97736022Y-90550000D01*
X97680878Y-90566728D01*
X97446351Y-90692085D01*
X97240787Y-90860787D01*
X97072085Y-91066351D01*
X96946728Y-91300878D01*
X96869533Y-91555354D01*
X96843468Y-91820000D01*
X96869533Y-92084646D01*
X96946728Y-92339122D01*
X97072085Y-92573649D01*
X97240787Y-92779213D01*
X97446351Y-92947915D01*
X97680878Y-93073272D01*
X97736022Y-93090000D01*
X97680878Y-93106728D01*
X97446351Y-93232085D01*
X97240787Y-93400787D01*
X97072085Y-93606351D01*
X96946728Y-93840878D01*
X96869533Y-94095354D01*
X96843468Y-94360000D01*
X96869533Y-94624646D01*
X96946728Y-94879122D01*
X97072085Y-95113649D01*
X97240787Y-95319213D01*
X97446351Y-95487915D01*
X97680878Y-95613272D01*
X97736022Y-95630000D01*
X97680878Y-95646728D01*
X97446351Y-95772085D01*
X97240787Y-95940787D01*
X97072085Y-96146351D01*
X96946728Y-96380878D01*
X96869533Y-96635354D01*
X96843468Y-96900000D01*
X96869533Y-97164646D01*
X96946728Y-97419122D01*
X97072085Y-97653649D01*
X97240787Y-97859213D01*
X97446351Y-98027915D01*
X97680878Y-98153272D01*
X97736022Y-98170000D01*
X97680878Y-98186728D01*
X97446351Y-98312085D01*
X97240787Y-98480787D01*
X97072085Y-98686351D01*
X96946728Y-98920878D01*
X96869533Y-99175354D01*
X96843468Y-99440000D01*
X96869533Y-99704646D01*
X96946728Y-99959122D01*
X97072085Y-100193649D01*
X97240787Y-100399213D01*
X97446351Y-100567915D01*
X97680878Y-100693272D01*
X97736022Y-100710000D01*
X97680878Y-100726728D01*
X97446351Y-100852085D01*
X97240787Y-101020787D01*
X97072085Y-101226351D01*
X96946728Y-101460878D01*
X96869533Y-101715354D01*
X96843468Y-101980000D01*
X96869533Y-102244646D01*
X96946728Y-102499122D01*
X97072085Y-102733649D01*
X97240787Y-102939213D01*
X97446351Y-103107915D01*
X97680878Y-103233272D01*
X97736022Y-103250000D01*
X97680878Y-103266728D01*
X97446351Y-103392085D01*
X97240787Y-103560787D01*
X97072085Y-103766351D01*
X96946728Y-104000878D01*
X96869533Y-104255354D01*
X96843468Y-104520000D01*
X96869533Y-104784646D01*
X96946728Y-105039122D01*
X97072085Y-105273649D01*
X97240787Y-105479213D01*
X97446351Y-105647915D01*
X97680878Y-105773272D01*
X97736022Y-105790000D01*
X97680878Y-105806728D01*
X97446351Y-105932085D01*
X97240787Y-106100787D01*
X97072085Y-106306351D01*
X96946728Y-106540878D01*
X96869533Y-106795354D01*
X96843468Y-107060000D01*
X96869533Y-107324646D01*
X96946728Y-107579122D01*
X97072085Y-107813649D01*
X97240787Y-108019213D01*
X97446351Y-108187915D01*
X97680878Y-108313272D01*
X97736022Y-108330000D01*
X97680878Y-108346728D01*
X97446351Y-108472085D01*
X97240787Y-108640787D01*
X97072085Y-108846351D01*
X96946728Y-109080878D01*
X96869533Y-109335354D01*
X96843468Y-109600000D01*
X96869533Y-109864646D01*
X96946728Y-110119122D01*
X97072085Y-110353649D01*
X97240787Y-110559213D01*
X97446351Y-110727915D01*
X97680878Y-110853272D01*
X97736022Y-110870000D01*
X97680878Y-110886728D01*
X97446351Y-111012085D01*
X97240787Y-111180787D01*
X97072085Y-111386351D01*
X96946728Y-111620878D01*
X96869533Y-111875354D01*
X96843468Y-112140000D01*
X96869533Y-112404646D01*
X96946728Y-112659122D01*
X97072085Y-112893649D01*
X97240787Y-113099213D01*
X97446351Y-113267915D01*
X97680878Y-113393272D01*
X97736022Y-113410000D01*
X97680878Y-113426728D01*
X97446351Y-113552085D01*
X97240787Y-113720787D01*
X97072085Y-113926351D01*
X96946728Y-114160878D01*
X96869533Y-114415354D01*
X96843468Y-114680000D01*
X96869533Y-114944646D01*
X96946728Y-115199122D01*
X97072085Y-115433649D01*
X97240787Y-115639213D01*
X97446351Y-115807915D01*
X97680878Y-115933272D01*
X97736022Y-115950000D01*
X97680878Y-115966728D01*
X97446351Y-116092085D01*
X97240787Y-116260787D01*
X97072085Y-116466351D01*
X96946728Y-116700878D01*
X96869533Y-116955354D01*
X96843468Y-117220000D01*
X96869533Y-117484646D01*
X96946728Y-117739122D01*
X97072085Y-117973649D01*
X97240787Y-118179213D01*
X97446351Y-118347915D01*
X97680878Y-118473272D01*
X97736022Y-118490000D01*
X97680878Y-118506728D01*
X97446351Y-118632085D01*
X97240787Y-118800787D01*
X97072085Y-119006351D01*
X96946728Y-119240878D01*
X96869533Y-119495354D01*
X96843468Y-119760000D01*
X96869533Y-120024646D01*
X96946728Y-120279122D01*
X97072085Y-120513649D01*
X97240787Y-120719213D01*
X97446351Y-120887915D01*
X97680878Y-121013272D01*
X97736022Y-121030000D01*
X97680878Y-121046728D01*
X97446351Y-121172085D01*
X97240787Y-121340787D01*
X97072085Y-121546351D01*
X96946728Y-121780878D01*
X96869533Y-122035354D01*
X96843468Y-122300000D01*
X96869533Y-122564646D01*
X96946728Y-122819122D01*
X97072085Y-123053649D01*
X97240787Y-123259213D01*
X97446351Y-123427915D01*
X97680878Y-123553272D01*
X97736022Y-123570000D01*
X97680878Y-123586728D01*
X97446351Y-123712085D01*
X97240787Y-123880787D01*
X97072085Y-124086351D01*
X96946728Y-124320878D01*
X96869533Y-124575354D01*
X96843468Y-124840000D01*
X96869533Y-125104646D01*
X96946728Y-125359122D01*
X97072085Y-125593649D01*
X97240787Y-125799213D01*
X97446351Y-125967915D01*
X97680878Y-126093272D01*
X97736022Y-126110000D01*
X97680878Y-126126728D01*
X97446351Y-126252085D01*
X97240787Y-126420787D01*
X97072085Y-126626351D01*
X96946728Y-126860878D01*
X96869533Y-127115354D01*
X96843468Y-127380000D01*
X96869533Y-127644646D01*
X96946728Y-127899122D01*
X97072085Y-128133649D01*
X97240787Y-128339213D01*
X97446351Y-128507915D01*
X97680878Y-128633272D01*
X97736022Y-128650000D01*
X97680878Y-128666728D01*
X97446351Y-128792085D01*
X97240787Y-128960787D01*
X97072085Y-129166351D01*
X96946728Y-129400878D01*
X96869533Y-129655354D01*
X96843468Y-129920000D01*
X96869533Y-130184646D01*
X96946728Y-130439122D01*
X97072085Y-130673649D01*
X97240787Y-130879213D01*
X97446351Y-131047915D01*
X97680878Y-131173272D01*
X97736022Y-131190000D01*
X97680878Y-131206728D01*
X97446351Y-131332085D01*
X97240787Y-131500787D01*
X97072085Y-131706351D01*
X96946728Y-131940878D01*
X96869533Y-132195354D01*
X96843468Y-132460000D01*
X96869533Y-132724646D01*
X96946728Y-132979122D01*
X97072085Y-133213649D01*
X97240787Y-133419213D01*
X97446351Y-133587915D01*
X97680878Y-133713272D01*
X97736022Y-133730000D01*
X97680878Y-133746728D01*
X97446351Y-133872085D01*
X97240787Y-134040787D01*
X97072085Y-134246351D01*
X96946728Y-134480878D01*
X96869533Y-134735354D01*
X96843468Y-135000000D01*
X96869533Y-135264646D01*
X96946728Y-135519122D01*
X97072085Y-135753649D01*
X97240787Y-135959213D01*
X97446351Y-136127915D01*
X97680878Y-136253272D01*
X97736022Y-136270000D01*
X97680878Y-136286728D01*
X97446351Y-136412085D01*
X97240787Y-136580787D01*
X97072085Y-136786351D01*
X96946728Y-137020878D01*
X96869533Y-137275354D01*
X96843468Y-137540000D01*
X96869533Y-137804646D01*
X96946728Y-138059122D01*
X97072085Y-138293649D01*
X97240787Y-138499213D01*
X97446351Y-138667915D01*
X97680878Y-138793272D01*
X97935354Y-138870467D01*
X98133679Y-138890000D01*
X98266321Y-138890000D01*
X98464646Y-138870467D01*
X98719122Y-138793272D01*
X98953649Y-138667915D01*
X99159213Y-138499213D01*
X99327915Y-138293649D01*
X99410042Y-138140000D01*
X101430526Y-138140000D01*
X101460000Y-138142903D01*
X101489474Y-138140000D01*
X101577621Y-138131318D01*
X101690721Y-138097010D01*
X101794955Y-138041296D01*
X101886317Y-137966317D01*
X101905113Y-137943414D01*
X103603419Y-136245109D01*
X103626317Y-136226317D01*
X103701296Y-136134955D01*
X103757010Y-136030721D01*
X103791319Y-135917621D01*
X103802903Y-135800000D01*
X103800000Y-135770524D01*
X103800000Y-119848527D01*
X107203419Y-116445109D01*
X107226317Y-116426317D01*
X107301296Y-116334955D01*
X107338132Y-116266040D01*
X107357010Y-116230722D01*
X107391318Y-116117621D01*
X107402903Y-116000000D01*
X107400000Y-115970526D01*
X107400000Y-114140000D01*
X108443468Y-114140000D01*
X108469533Y-114404646D01*
X108546728Y-114659122D01*
X108672085Y-114893649D01*
X108840787Y-115099213D01*
X109046351Y-115267915D01*
X109280878Y-115393272D01*
X109336022Y-115410000D01*
X109280878Y-115426728D01*
X109046351Y-115552085D01*
X108840787Y-115720787D01*
X108672085Y-115926351D01*
X108546728Y-116160878D01*
X108469533Y-116415354D01*
X108443468Y-116680000D01*
X108469533Y-116944646D01*
X108546728Y-117199122D01*
X108672085Y-117433649D01*
X108840787Y-117639213D01*
X109046351Y-117807915D01*
X109280878Y-117933272D01*
X109336022Y-117950000D01*
X109280878Y-117966728D01*
X109046351Y-118092085D01*
X108840787Y-118260787D01*
X108672085Y-118466351D01*
X108546728Y-118700878D01*
X108469533Y-118955354D01*
X108443468Y-119220000D01*
X108469533Y-119484646D01*
X108546728Y-119739122D01*
X108672085Y-119973649D01*
X108840787Y-120179213D01*
X109046351Y-120347915D01*
X109280878Y-120473272D01*
X109336022Y-120490000D01*
X109280878Y-120506728D01*
X109046351Y-120632085D01*
X108840787Y-120800787D01*
X108672085Y-121006351D01*
X108546728Y-121240878D01*
X108469533Y-121495354D01*
X108443468Y-121760000D01*
X108469533Y-122024646D01*
X108546728Y-122279122D01*
X108672085Y-122513649D01*
X108840787Y-122719213D01*
X109046351Y-122887915D01*
X109280878Y-123013272D01*
X109336022Y-123030000D01*
X109280878Y-123046728D01*
X109046351Y-123172085D01*
X108840787Y-123340787D01*
X108672085Y-123546351D01*
X108546728Y-123780878D01*
X108469533Y-124035354D01*
X108443468Y-124300000D01*
X108469533Y-124564646D01*
X108546728Y-124819122D01*
X108672085Y-125053649D01*
X108840787Y-125259213D01*
X109046351Y-125427915D01*
X109280878Y-125553272D01*
X109336022Y-125570000D01*
X109280878Y-125586728D01*
X109046351Y-125712085D01*
X108840787Y-125880787D01*
X108672085Y-126086351D01*
X108546728Y-126320878D01*
X108469533Y-126575354D01*
X108443468Y-126840000D01*
X108469533Y-127104646D01*
X108546728Y-127359122D01*
X108672085Y-127593649D01*
X108840787Y-127799213D01*
X109046351Y-127967915D01*
X109280878Y-128093272D01*
X109336022Y-128110000D01*
X109280878Y-128126728D01*
X109046351Y-128252085D01*
X108840787Y-128420787D01*
X108672085Y-128626351D01*
X108546728Y-128860878D01*
X108469533Y-129115354D01*
X108443468Y-129380000D01*
X108469533Y-129644646D01*
X108546728Y-129899122D01*
X108672085Y-130133649D01*
X108840787Y-130339213D01*
X109046351Y-130507915D01*
X109280878Y-130633272D01*
X109336022Y-130650000D01*
X109280878Y-130666728D01*
X109046351Y-130792085D01*
X108840787Y-130960787D01*
X108672085Y-131166351D01*
X108546728Y-131400878D01*
X108469533Y-131655354D01*
X108443468Y-131920000D01*
X108469533Y-132184646D01*
X108546728Y-132439122D01*
X108672085Y-132673649D01*
X108840787Y-132879213D01*
X109046351Y-133047915D01*
X109280878Y-133173272D01*
X109336022Y-133190000D01*
X109280878Y-133206728D01*
X109046351Y-133332085D01*
X108840787Y-133500787D01*
X108672085Y-133706351D01*
X108546728Y-133940878D01*
X108469533Y-134195354D01*
X108443468Y-134460000D01*
X108469533Y-134724646D01*
X108546728Y-134979122D01*
X108672085Y-135213649D01*
X108840787Y-135419213D01*
X109046351Y-135587915D01*
X109280878Y-135713272D01*
X109535354Y-135790467D01*
X109733679Y-135810000D01*
X109866321Y-135810000D01*
X110064646Y-135790467D01*
X110319122Y-135713272D01*
X110553649Y-135587915D01*
X110759213Y-135419213D01*
X110927915Y-135213649D01*
X111053272Y-134979122D01*
X111130467Y-134724646D01*
X111156532Y-134460000D01*
X111130467Y-134195354D01*
X111053272Y-133940878D01*
X110927915Y-133706351D01*
X110759213Y-133500787D01*
X110553649Y-133332085D01*
X110319122Y-133206728D01*
X110263978Y-133190000D01*
X110319122Y-133173272D01*
X110553649Y-133047915D01*
X110759213Y-132879213D01*
X110927915Y-132673649D01*
X111053272Y-132439122D01*
X111130467Y-132184646D01*
X111156532Y-131920000D01*
X111130467Y-131655354D01*
X111053272Y-131400878D01*
X110927915Y-131166351D01*
X110759213Y-130960787D01*
X110553649Y-130792085D01*
X110319122Y-130666728D01*
X110263978Y-130650000D01*
X110319122Y-130633272D01*
X110553649Y-130507915D01*
X110759213Y-130339213D01*
X110927915Y-130133649D01*
X111053272Y-129899122D01*
X111130467Y-129644646D01*
X111156532Y-129380000D01*
X111130467Y-129115354D01*
X111053272Y-128860878D01*
X110927915Y-128626351D01*
X110759213Y-128420787D01*
X110553649Y-128252085D01*
X110319122Y-128126728D01*
X110263978Y-128110000D01*
X110319122Y-128093272D01*
X110553649Y-127967915D01*
X110759213Y-127799213D01*
X110927915Y-127593649D01*
X111053272Y-127359122D01*
X111130467Y-127104646D01*
X111156532Y-126840000D01*
X111130467Y-126575354D01*
X111053272Y-126320878D01*
X110927915Y-126086351D01*
X110759213Y-125880787D01*
X110553649Y-125712085D01*
X110319122Y-125586728D01*
X110263978Y-125570000D01*
X110319122Y-125553272D01*
X110553649Y-125427915D01*
X110759213Y-125259213D01*
X110927915Y-125053649D01*
X111053272Y-124819122D01*
X111130467Y-124564646D01*
X111156532Y-124300000D01*
X111130467Y-124035354D01*
X111053272Y-123780878D01*
X110927915Y-123546351D01*
X110759213Y-123340787D01*
X110553649Y-123172085D01*
X110319122Y-123046728D01*
X110263978Y-123030000D01*
X110319122Y-123013272D01*
X110553649Y-122887915D01*
X110759213Y-122719213D01*
X110927915Y-122513649D01*
X111053272Y-122279122D01*
X111130467Y-122024646D01*
X111156532Y-121760000D01*
X111130467Y-121495354D01*
X111053272Y-121240878D01*
X110927915Y-121006351D01*
X110759213Y-120800787D01*
X110553649Y-120632085D01*
X110319122Y-120506728D01*
X110263978Y-120490000D01*
X110319122Y-120473272D01*
X110553649Y-120347915D01*
X110759213Y-120179213D01*
X110927915Y-119973649D01*
X111053272Y-119739122D01*
X111130467Y-119484646D01*
X111156532Y-119220000D01*
X111130467Y-118955354D01*
X111053272Y-118700878D01*
X110927915Y-118466351D01*
X110759213Y-118260787D01*
X110553649Y-118092085D01*
X110319122Y-117966728D01*
X110263978Y-117950000D01*
X110319122Y-117933272D01*
X110553649Y-117807915D01*
X110759213Y-117639213D01*
X110927915Y-117433649D01*
X111053272Y-117199122D01*
X111130467Y-116944646D01*
X111156532Y-116680000D01*
X111130467Y-116415354D01*
X111053272Y-116160878D01*
X110927915Y-115926351D01*
X110759213Y-115720787D01*
X110553649Y-115552085D01*
X110319122Y-115426728D01*
X110263978Y-115410000D01*
X110319122Y-115393272D01*
X110553649Y-115267915D01*
X110759213Y-115099213D01*
X110927915Y-114893649D01*
X111053272Y-114659122D01*
X111130467Y-114404646D01*
X111156532Y-114140000D01*
X111130467Y-113875354D01*
X111053272Y-113620878D01*
X110927915Y-113386351D01*
X110759213Y-113180787D01*
X110553649Y-113012085D01*
X110442022Y-112952419D01*
X110650000Y-112952419D01*
X110748017Y-112942765D01*
X110842267Y-112914175D01*
X110929129Y-112867746D01*
X111005264Y-112805264D01*
X111067746Y-112729129D01*
X111114175Y-112642267D01*
X111142765Y-112548017D01*
X111152419Y-112450000D01*
X111152419Y-112258910D01*
X121992097Y-112258910D01*
X122018854Y-112347139D01*
X122136527Y-112607611D01*
X122302754Y-112840122D01*
X122511148Y-113035736D01*
X122753700Y-113186935D01*
X122806072Y-113206712D01*
X122646351Y-113292085D01*
X122440787Y-113460787D01*
X122272085Y-113666351D01*
X122146728Y-113900878D01*
X122069533Y-114155354D01*
X122043468Y-114420000D01*
X122069533Y-114684646D01*
X122146728Y-114939122D01*
X122272085Y-115173649D01*
X122440787Y-115379213D01*
X122646351Y-115547915D01*
X122757978Y-115607581D01*
X122550000Y-115607581D01*
X122451983Y-115617235D01*
X122357733Y-115645825D01*
X122270871Y-115692254D01*
X122194736Y-115754736D01*
X122132254Y-115830871D01*
X122085825Y-115917733D01*
X122057235Y-116011983D01*
X122047581Y-116110000D01*
X122047581Y-117810000D01*
X122057235Y-117908017D01*
X122085825Y-118002267D01*
X122132254Y-118089129D01*
X122194736Y-118165264D01*
X122270871Y-118227746D01*
X122357733Y-118274175D01*
X122451983Y-118302765D01*
X122550000Y-118312419D01*
X124250000Y-118312419D01*
X124348017Y-118302765D01*
X124442267Y-118274175D01*
X124529129Y-118227746D01*
X124605264Y-118165264D01*
X124667746Y-118089129D01*
X124714175Y-118002267D01*
X124742765Y-117908017D01*
X124752419Y-117810000D01*
X124752419Y-116566189D01*
X126355018Y-116566189D01*
X126355018Y-116723775D01*
X126385761Y-116878333D01*
X126446067Y-117023924D01*
X126533617Y-117154952D01*
X126645048Y-117266383D01*
X126776076Y-117353933D01*
X126921667Y-117414239D01*
X127076225Y-117444982D01*
X127233811Y-117444982D01*
X127388369Y-117414239D01*
X127533960Y-117353933D01*
X127664988Y-117266383D01*
X127776419Y-117154952D01*
X127863969Y-117023924D01*
X127924275Y-116878333D01*
X127955018Y-116723775D01*
X127955018Y-116693509D01*
X128648528Y-116000000D01*
X128678793Y-116000000D01*
X128833351Y-115969257D01*
X128978942Y-115908951D01*
X129109970Y-115821401D01*
X129221401Y-115709970D01*
X129308951Y-115578942D01*
X129369257Y-115433351D01*
X129400000Y-115278793D01*
X129400000Y-115121207D01*
X129369257Y-114966649D01*
X129308951Y-114821058D01*
X129221401Y-114690030D01*
X129109970Y-114578599D01*
X128978942Y-114491049D01*
X128833351Y-114430743D01*
X128678793Y-114400000D01*
X128521207Y-114400000D01*
X128366649Y-114430743D01*
X128221058Y-114491049D01*
X128090030Y-114578599D01*
X127978599Y-114690030D01*
X127891049Y-114821058D01*
X127830743Y-114966649D01*
X127800000Y-115121207D01*
X127800000Y-115151472D01*
X127106491Y-115844982D01*
X127076225Y-115844982D01*
X126921667Y-115875725D01*
X126776076Y-115936031D01*
X126645048Y-116023581D01*
X126533617Y-116135012D01*
X126446067Y-116266040D01*
X126385761Y-116411631D01*
X126355018Y-116566189D01*
X124752419Y-116566189D01*
X124752419Y-116110000D01*
X124742765Y-116011983D01*
X124714175Y-115917733D01*
X124667746Y-115830871D01*
X124605264Y-115754736D01*
X124529129Y-115692254D01*
X124442267Y-115645825D01*
X124348017Y-115617235D01*
X124250000Y-115607581D01*
X124042022Y-115607581D01*
X124153649Y-115547915D01*
X124359213Y-115379213D01*
X124527915Y-115173649D01*
X124653272Y-114939122D01*
X124730467Y-114684646D01*
X124756532Y-114420000D01*
X124730467Y-114155354D01*
X124653272Y-113900878D01*
X124527915Y-113666351D01*
X124359213Y-113460787D01*
X124153649Y-113292085D01*
X123993928Y-113206712D01*
X124046300Y-113186935D01*
X124288852Y-113035736D01*
X124497246Y-112840122D01*
X124663473Y-112607611D01*
X124781146Y-112347139D01*
X124807903Y-112258910D01*
X124696889Y-112034000D01*
X123554000Y-112034000D01*
X123554000Y-112054000D01*
X123246000Y-112054000D01*
X123246000Y-112034000D01*
X122103111Y-112034000D01*
X121992097Y-112258910D01*
X111152419Y-112258910D01*
X111152419Y-110750000D01*
X111142765Y-110651983D01*
X111114175Y-110557733D01*
X111067746Y-110470871D01*
X111005264Y-110394736D01*
X110929129Y-110332254D01*
X110842267Y-110285825D01*
X110748017Y-110257235D01*
X110650000Y-110247581D01*
X108950000Y-110247581D01*
X108851983Y-110257235D01*
X108757733Y-110285825D01*
X108670871Y-110332254D01*
X108594736Y-110394736D01*
X108532254Y-110470871D01*
X108485825Y-110557733D01*
X108457235Y-110651983D01*
X108447581Y-110750000D01*
X108447581Y-112450000D01*
X108457235Y-112548017D01*
X108485825Y-112642267D01*
X108532254Y-112729129D01*
X108594736Y-112805264D01*
X108670871Y-112867746D01*
X108757733Y-112914175D01*
X108851983Y-112942765D01*
X108950000Y-112952419D01*
X109157978Y-112952419D01*
X109046351Y-113012085D01*
X108840787Y-113180787D01*
X108672085Y-113386351D01*
X108546728Y-113620878D01*
X108469533Y-113875354D01*
X108443468Y-114140000D01*
X107400000Y-114140000D01*
X107400000Y-109718910D01*
X121992097Y-109718910D01*
X122018854Y-109807139D01*
X122136527Y-110067611D01*
X122302754Y-110300122D01*
X122511148Y-110495736D01*
X122694449Y-110610000D01*
X122511148Y-110724264D01*
X122302754Y-110919878D01*
X122136527Y-111152389D01*
X122018854Y-111412861D01*
X121992097Y-111501090D01*
X122103111Y-111726000D01*
X123246000Y-111726000D01*
X123246000Y-109494000D01*
X123554000Y-109494000D01*
X123554000Y-111726000D01*
X124696889Y-111726000D01*
X124807903Y-111501090D01*
X124781146Y-111412861D01*
X124663473Y-111152389D01*
X124497246Y-110919878D01*
X124288852Y-110724264D01*
X124105551Y-110610000D01*
X124288852Y-110495736D01*
X124497246Y-110300122D01*
X124663473Y-110067611D01*
X124781146Y-109807139D01*
X124807903Y-109718910D01*
X124696889Y-109494000D01*
X123554000Y-109494000D01*
X123246000Y-109494000D01*
X122103111Y-109494000D01*
X121992097Y-109718910D01*
X107400000Y-109718910D01*
X107400000Y-108961090D01*
X121992097Y-108961090D01*
X122103111Y-109186000D01*
X123246000Y-109186000D01*
X123246000Y-109166000D01*
X123554000Y-109166000D01*
X123554000Y-109186000D01*
X124696889Y-109186000D01*
X124807903Y-108961090D01*
X124781146Y-108872861D01*
X124663473Y-108612389D01*
X124497246Y-108379878D01*
X124288852Y-108184264D01*
X124046300Y-108033065D01*
X123993928Y-108013288D01*
X124153649Y-107927915D01*
X124359213Y-107759213D01*
X124527915Y-107553649D01*
X124653272Y-107319122D01*
X124730467Y-107064646D01*
X124756532Y-106800000D01*
X124730467Y-106535354D01*
X124653272Y-106280878D01*
X124527915Y-106046351D01*
X124359213Y-105840787D01*
X124153649Y-105672085D01*
X123919122Y-105546728D01*
X123863978Y-105530000D01*
X123919122Y-105513272D01*
X124153649Y-105387915D01*
X124359213Y-105219213D01*
X124527915Y-105013649D01*
X124653272Y-104779122D01*
X124730467Y-104524646D01*
X124756532Y-104260000D01*
X124730467Y-103995354D01*
X124653272Y-103740878D01*
X124527915Y-103506351D01*
X124359213Y-103300787D01*
X124153649Y-103132085D01*
X123919122Y-103006728D01*
X123664646Y-102929533D01*
X123466321Y-102910000D01*
X123333679Y-102910000D01*
X123135354Y-102929533D01*
X122880878Y-103006728D01*
X122646351Y-103132085D01*
X122440787Y-103300787D01*
X122272085Y-103506351D01*
X122146728Y-103740878D01*
X122069533Y-103995354D01*
X122043468Y-104260000D01*
X122069533Y-104524646D01*
X122146728Y-104779122D01*
X122272085Y-105013649D01*
X122440787Y-105219213D01*
X122646351Y-105387915D01*
X122880878Y-105513272D01*
X122936022Y-105530000D01*
X122880878Y-105546728D01*
X122646351Y-105672085D01*
X122440787Y-105840787D01*
X122272085Y-106046351D01*
X122146728Y-106280878D01*
X122069533Y-106535354D01*
X122043468Y-106800000D01*
X122069533Y-107064646D01*
X122146728Y-107319122D01*
X122272085Y-107553649D01*
X122440787Y-107759213D01*
X122646351Y-107927915D01*
X122806072Y-108013288D01*
X122753700Y-108033065D01*
X122511148Y-108184264D01*
X122302754Y-108379878D01*
X122136527Y-108612389D01*
X122018854Y-108872861D01*
X121992097Y-108961090D01*
X107400000Y-108961090D01*
X107400000Y-102521207D01*
X110800000Y-102521207D01*
X110800000Y-102678793D01*
X110830743Y-102833351D01*
X110891049Y-102978942D01*
X110978599Y-103109970D01*
X111090030Y-103221401D01*
X111221058Y-103308951D01*
X111366649Y-103369257D01*
X111521207Y-103400000D01*
X111678793Y-103400000D01*
X111833351Y-103369257D01*
X111978942Y-103308951D01*
X112109970Y-103221401D01*
X112131371Y-103200000D01*
X120268623Y-103200000D01*
X120290024Y-103221401D01*
X120421052Y-103308951D01*
X120566643Y-103369257D01*
X120721201Y-103400000D01*
X120878787Y-103400000D01*
X121033345Y-103369257D01*
X121178936Y-103308951D01*
X121309964Y-103221401D01*
X121421395Y-103109970D01*
X121508945Y-102978942D01*
X121569251Y-102833351D01*
X121599994Y-102678793D01*
X121599994Y-102521207D01*
X121569251Y-102366649D01*
X121508945Y-102221058D01*
X121421395Y-102090030D01*
X121309964Y-101978599D01*
X121178936Y-101891049D01*
X121033345Y-101830743D01*
X120878787Y-101800000D01*
X120721201Y-101800000D01*
X120566643Y-101830743D01*
X120421052Y-101891049D01*
X120290024Y-101978599D01*
X120268623Y-102000000D01*
X112131371Y-102000000D01*
X112109970Y-101978599D01*
X111978942Y-101891049D01*
X111833351Y-101830743D01*
X111678793Y-101800000D01*
X111521207Y-101800000D01*
X111366649Y-101830743D01*
X111221058Y-101891049D01*
X111090030Y-101978599D01*
X110978599Y-102090030D01*
X110891049Y-102221058D01*
X110830743Y-102366649D01*
X110800000Y-102521207D01*
X107400000Y-102521207D01*
X107400000Y-97048527D01*
X110048528Y-94400000D01*
X113268629Y-94400000D01*
X113290030Y-94421401D01*
X113421058Y-94508951D01*
X113566649Y-94569257D01*
X113721207Y-94600000D01*
X113878793Y-94600000D01*
X114033351Y-94569257D01*
X114178942Y-94508951D01*
X114309970Y-94421401D01*
X114421401Y-94309970D01*
X114508951Y-94178942D01*
X114569257Y-94033351D01*
X114600000Y-93878793D01*
X114600000Y-93721207D01*
X114569257Y-93566649D01*
X114508951Y-93421058D01*
X114421401Y-93290030D01*
X114415737Y-93284366D01*
X114509970Y-93221401D01*
X114621401Y-93109970D01*
X114694880Y-93000000D01*
X117997097Y-93000000D01*
X118000000Y-93029474D01*
X118000001Y-95770517D01*
X117997097Y-95800000D01*
X118008682Y-95917620D01*
X118033672Y-96000000D01*
X118042991Y-96030721D01*
X118098705Y-96134955D01*
X118173684Y-96226317D01*
X118196582Y-96245109D01*
X129400000Y-107448528D01*
X129400001Y-115968628D01*
X129378599Y-115990030D01*
X129291049Y-116121058D01*
X129230743Y-116266649D01*
X129200000Y-116421207D01*
X129200000Y-116578793D01*
X129230743Y-116733351D01*
X129291049Y-116878942D01*
X129378599Y-117009970D01*
X129490030Y-117121401D01*
X129621058Y-117208951D01*
X129766649Y-117269257D01*
X129921207Y-117300000D01*
X130078793Y-117300000D01*
X130233351Y-117269257D01*
X130378942Y-117208951D01*
X130509970Y-117121401D01*
X130600001Y-117031370D01*
X130600001Y-118868628D01*
X130578599Y-118890030D01*
X130491049Y-119021058D01*
X130430743Y-119166649D01*
X130400000Y-119321207D01*
X130400000Y-119478793D01*
X130430743Y-119633351D01*
X130491049Y-119778942D01*
X130578599Y-119909970D01*
X130690030Y-120021401D01*
X130821058Y-120108951D01*
X130966649Y-120169257D01*
X131121207Y-120200000D01*
X131278793Y-120200000D01*
X131433351Y-120169257D01*
X131578942Y-120108951D01*
X131600001Y-120094880D01*
X131600001Y-122020516D01*
X131597097Y-122050000D01*
X131608682Y-122167620D01*
X131642506Y-122279122D01*
X131642991Y-122280721D01*
X131698705Y-122384955D01*
X131773684Y-122476317D01*
X131796582Y-122495109D01*
X137104891Y-127803419D01*
X137123683Y-127826317D01*
X137215045Y-127901296D01*
X137319279Y-127957010D01*
X137432379Y-127991319D01*
X137550000Y-128002903D01*
X137579476Y-128000000D01*
X137647581Y-128000000D01*
X137647581Y-128250000D01*
X137657235Y-128348017D01*
X137685825Y-128442267D01*
X137732254Y-128529129D01*
X137794736Y-128605264D01*
X137870871Y-128667746D01*
X137957733Y-128714175D01*
X138051983Y-128742765D01*
X138150000Y-128752419D01*
X139850000Y-128752419D01*
X139948017Y-128742765D01*
X140042267Y-128714175D01*
X140129129Y-128667746D01*
X140205264Y-128605264D01*
X140267746Y-128529129D01*
X140314175Y-128442267D01*
X140342765Y-128348017D01*
X140352419Y-128250000D01*
X140352419Y-126550000D01*
X140342765Y-126451983D01*
X140314175Y-126357733D01*
X140267746Y-126270871D01*
X140205264Y-126194736D01*
X140129129Y-126132254D01*
X140042267Y-126085825D01*
X139948017Y-126057235D01*
X139850000Y-126047581D01*
X139642022Y-126047581D01*
X139753649Y-125987915D01*
X139959213Y-125819213D01*
X140127915Y-125613649D01*
X140253272Y-125379122D01*
X140330467Y-125124646D01*
X140356532Y-124860000D01*
X140330467Y-124595354D01*
X140253272Y-124340878D01*
X140127915Y-124106351D01*
X139959213Y-123900787D01*
X139753649Y-123732085D01*
X139519122Y-123606728D01*
X139463978Y-123590000D01*
X139519122Y-123573272D01*
X139753649Y-123447915D01*
X139959213Y-123279213D01*
X140127915Y-123073649D01*
X140253272Y-122839122D01*
X140330467Y-122584646D01*
X140356532Y-122320000D01*
X140330467Y-122055354D01*
X140253272Y-121800878D01*
X140127915Y-121566351D01*
X139959213Y-121360787D01*
X139753649Y-121192085D01*
X139519122Y-121066728D01*
X139463978Y-121050000D01*
X139519122Y-121033272D01*
X139753649Y-120907915D01*
X139959213Y-120739213D01*
X140127915Y-120533649D01*
X140253272Y-120299122D01*
X140330467Y-120044646D01*
X140356532Y-119780000D01*
X140330467Y-119515354D01*
X140253272Y-119260878D01*
X140127915Y-119026351D01*
X139959213Y-118820787D01*
X139753649Y-118652085D01*
X139519122Y-118526728D01*
X139463978Y-118510000D01*
X139519122Y-118493272D01*
X139753649Y-118367915D01*
X139959213Y-118199213D01*
X140127915Y-117993649D01*
X140253272Y-117759122D01*
X140330467Y-117504646D01*
X140356532Y-117240000D01*
X140330467Y-116975354D01*
X140253272Y-116720878D01*
X140127915Y-116486351D01*
X139959213Y-116280787D01*
X139753649Y-116112085D01*
X139519122Y-115986728D01*
X139463978Y-115970000D01*
X139519122Y-115953272D01*
X139753649Y-115827915D01*
X139959213Y-115659213D01*
X140127915Y-115453649D01*
X140253272Y-115219122D01*
X140330467Y-114964646D01*
X140356532Y-114700000D01*
X140330467Y-114435354D01*
X140253272Y-114180878D01*
X140127915Y-113946351D01*
X139959213Y-113740787D01*
X139753649Y-113572085D01*
X139519122Y-113446728D01*
X139463978Y-113430000D01*
X139519122Y-113413272D01*
X139753649Y-113287915D01*
X139959213Y-113119213D01*
X140127915Y-112913649D01*
X140253272Y-112679122D01*
X140330467Y-112424646D01*
X140356532Y-112160000D01*
X140330467Y-111895354D01*
X140253272Y-111640878D01*
X140127915Y-111406351D01*
X139959213Y-111200787D01*
X139753649Y-111032085D01*
X139519122Y-110906728D01*
X139463978Y-110890000D01*
X139519122Y-110873272D01*
X139753649Y-110747915D01*
X139959213Y-110579213D01*
X140127915Y-110373649D01*
X140253272Y-110139122D01*
X140330467Y-109884646D01*
X140356532Y-109620000D01*
X140330467Y-109355354D01*
X140253272Y-109100878D01*
X140127915Y-108866351D01*
X139959213Y-108660787D01*
X139753649Y-108492085D01*
X139519122Y-108366728D01*
X139463978Y-108350000D01*
X139519122Y-108333272D01*
X139753649Y-108207915D01*
X139959213Y-108039213D01*
X140127915Y-107833649D01*
X140253272Y-107599122D01*
X140330467Y-107344646D01*
X140356532Y-107080000D01*
X140330467Y-106815354D01*
X140253272Y-106560878D01*
X140127915Y-106326351D01*
X139959213Y-106120787D01*
X139753649Y-105952085D01*
X139519122Y-105826728D01*
X139463978Y-105810000D01*
X139519122Y-105793272D01*
X139753649Y-105667915D01*
X139959213Y-105499213D01*
X140127915Y-105293649D01*
X140253272Y-105059122D01*
X140330467Y-104804646D01*
X140356532Y-104540000D01*
X140330467Y-104275354D01*
X140253272Y-104020878D01*
X140127915Y-103786351D01*
X139959213Y-103580787D01*
X139753649Y-103412085D01*
X139519122Y-103286728D01*
X139463978Y-103270000D01*
X139519122Y-103253272D01*
X139753649Y-103127915D01*
X139959213Y-102959213D01*
X140127915Y-102753649D01*
X140253272Y-102519122D01*
X140330467Y-102264646D01*
X140356532Y-102000000D01*
X140330467Y-101735354D01*
X140253272Y-101480878D01*
X140127915Y-101246351D01*
X139959213Y-101040787D01*
X139753649Y-100872085D01*
X139519122Y-100746728D01*
X139463978Y-100730000D01*
X139519122Y-100713272D01*
X139753649Y-100587915D01*
X139959213Y-100419213D01*
X140127915Y-100213649D01*
X140253272Y-99979122D01*
X140330467Y-99724646D01*
X140356532Y-99460000D01*
X140330467Y-99195354D01*
X140253272Y-98940878D01*
X140127915Y-98706351D01*
X139959213Y-98500787D01*
X139753649Y-98332085D01*
X139519122Y-98206728D01*
X139463978Y-98190000D01*
X139519122Y-98173272D01*
X139753649Y-98047915D01*
X139959213Y-97879213D01*
X140127915Y-97673649D01*
X140253272Y-97439122D01*
X140330467Y-97184646D01*
X140356532Y-96920000D01*
X140330467Y-96655354D01*
X140253272Y-96400878D01*
X140127915Y-96166351D01*
X139959213Y-95960787D01*
X139753649Y-95792085D01*
X139519122Y-95666728D01*
X139463978Y-95650000D01*
X139519122Y-95633272D01*
X139753649Y-95507915D01*
X139959213Y-95339213D01*
X140127915Y-95133649D01*
X140253272Y-94899122D01*
X140330467Y-94644646D01*
X140356532Y-94380000D01*
X140330467Y-94115354D01*
X140253272Y-93860878D01*
X140127915Y-93626351D01*
X139959213Y-93420787D01*
X139753649Y-93252085D01*
X139519122Y-93126728D01*
X139463978Y-93110000D01*
X139519122Y-93093272D01*
X139753649Y-92967915D01*
X139959213Y-92799213D01*
X140127915Y-92593649D01*
X140253272Y-92359122D01*
X140330467Y-92104646D01*
X140356532Y-91840000D01*
X140330467Y-91575354D01*
X140253272Y-91320878D01*
X140127915Y-91086351D01*
X139959213Y-90880787D01*
X139753649Y-90712085D01*
X139519122Y-90586728D01*
X139463978Y-90570000D01*
X139519122Y-90553272D01*
X139753649Y-90427915D01*
X139959213Y-90259213D01*
X140127915Y-90053649D01*
X140253272Y-89819122D01*
X140330467Y-89564646D01*
X140356532Y-89300000D01*
X140330467Y-89035354D01*
X140253272Y-88780878D01*
X140127915Y-88546351D01*
X139959213Y-88340787D01*
X139753649Y-88172085D01*
X139519122Y-88046728D01*
X139463978Y-88030000D01*
X139519122Y-88013272D01*
X139753649Y-87887915D01*
X139959213Y-87719213D01*
X140127915Y-87513649D01*
X140253272Y-87279122D01*
X140330467Y-87024646D01*
X140356532Y-86760000D01*
X140330467Y-86495354D01*
X140253272Y-86240878D01*
X140127915Y-86006351D01*
X139959213Y-85800787D01*
X139753649Y-85632085D01*
X139519122Y-85506728D01*
X139463978Y-85490000D01*
X139519122Y-85473272D01*
X139753649Y-85347915D01*
X139959213Y-85179213D01*
X140127915Y-84973649D01*
X140253272Y-84739122D01*
X140330467Y-84484646D01*
X140356532Y-84220000D01*
X140330467Y-83955354D01*
X140253272Y-83700878D01*
X140127915Y-83466351D01*
X139959213Y-83260787D01*
X139753649Y-83092085D01*
X139519122Y-82966728D01*
X139264646Y-82889533D01*
X139066321Y-82870000D01*
X138933679Y-82870000D01*
X138735354Y-82889533D01*
X138480878Y-82966728D01*
X138246351Y-83092085D01*
X138040787Y-83260787D01*
X137872085Y-83466351D01*
X137746728Y-83700878D01*
X137669533Y-83955354D01*
X137643468Y-84220000D01*
X137669533Y-84484646D01*
X137746728Y-84739122D01*
X137872085Y-84973649D01*
X138040787Y-85179213D01*
X138246351Y-85347915D01*
X138480878Y-85473272D01*
X138536022Y-85490000D01*
X138480878Y-85506728D01*
X138246351Y-85632085D01*
X138040787Y-85800787D01*
X137872085Y-86006351D01*
X137746728Y-86240878D01*
X137669533Y-86495354D01*
X137643468Y-86760000D01*
X137669533Y-87024646D01*
X137746728Y-87279122D01*
X137872085Y-87513649D01*
X138040787Y-87719213D01*
X138246351Y-87887915D01*
X138480878Y-88013272D01*
X138536022Y-88030000D01*
X138480878Y-88046728D01*
X138246351Y-88172085D01*
X138040787Y-88340787D01*
X137872085Y-88546351D01*
X137746728Y-88780878D01*
X137669533Y-89035354D01*
X137643468Y-89300000D01*
X137669533Y-89564646D01*
X137746728Y-89819122D01*
X137872085Y-90053649D01*
X138040787Y-90259213D01*
X138246351Y-90427915D01*
X138480878Y-90553272D01*
X138536022Y-90570000D01*
X138480878Y-90586728D01*
X138246351Y-90712085D01*
X138040787Y-90880787D01*
X137872085Y-91086351D01*
X137746728Y-91320878D01*
X137669533Y-91575354D01*
X137643468Y-91840000D01*
X137669533Y-92104646D01*
X137746728Y-92359122D01*
X137872085Y-92593649D01*
X138040787Y-92799213D01*
X138246351Y-92967915D01*
X138480878Y-93093272D01*
X138536022Y-93110000D01*
X138480878Y-93126728D01*
X138246351Y-93252085D01*
X138040787Y-93420787D01*
X137872085Y-93626351D01*
X137746728Y-93860878D01*
X137669533Y-94115354D01*
X137643468Y-94380000D01*
X137669533Y-94644646D01*
X137746728Y-94899122D01*
X137872085Y-95133649D01*
X138040787Y-95339213D01*
X138246351Y-95507915D01*
X138480878Y-95633272D01*
X138536022Y-95650000D01*
X138480878Y-95666728D01*
X138246351Y-95792085D01*
X138040787Y-95960787D01*
X137872085Y-96166351D01*
X137746728Y-96400878D01*
X137669533Y-96655354D01*
X137643468Y-96920000D01*
X137669533Y-97184646D01*
X137746728Y-97439122D01*
X137872085Y-97673649D01*
X138040787Y-97879213D01*
X138246351Y-98047915D01*
X138480878Y-98173272D01*
X138536022Y-98190000D01*
X138480878Y-98206728D01*
X138246351Y-98332085D01*
X138040787Y-98500787D01*
X137872085Y-98706351D01*
X137746728Y-98940878D01*
X137669533Y-99195354D01*
X137643468Y-99460000D01*
X137669533Y-99724646D01*
X137746728Y-99979122D01*
X137872085Y-100213649D01*
X138040787Y-100419213D01*
X138246351Y-100587915D01*
X138480878Y-100713272D01*
X138536022Y-100730000D01*
X138480878Y-100746728D01*
X138246351Y-100872085D01*
X138040787Y-101040787D01*
X137872085Y-101246351D01*
X137746728Y-101480878D01*
X137669533Y-101735354D01*
X137643468Y-102000000D01*
X137669533Y-102264646D01*
X137746728Y-102519122D01*
X137872085Y-102753649D01*
X138040787Y-102959213D01*
X138246351Y-103127915D01*
X138480878Y-103253272D01*
X138536022Y-103270000D01*
X138480878Y-103286728D01*
X138246351Y-103412085D01*
X138040787Y-103580787D01*
X137872085Y-103786351D01*
X137746728Y-104020878D01*
X137669533Y-104275354D01*
X137643468Y-104540000D01*
X137669533Y-104804646D01*
X137746728Y-105059122D01*
X137872085Y-105293649D01*
X138040787Y-105499213D01*
X138246351Y-105667915D01*
X138480878Y-105793272D01*
X138536022Y-105810000D01*
X138480878Y-105826728D01*
X138246351Y-105952085D01*
X138040787Y-106120787D01*
X137872085Y-106326351D01*
X137789958Y-106480000D01*
X137328528Y-106480000D01*
X137000000Y-106151473D01*
X137000000Y-85922351D01*
X137002903Y-85892877D01*
X136991318Y-85775257D01*
X136985141Y-85754895D01*
X136957010Y-85662157D01*
X136901296Y-85557923D01*
X136826317Y-85466561D01*
X136803420Y-85447770D01*
X135952235Y-84596586D01*
X135933439Y-84573683D01*
X135842077Y-84498704D01*
X135737843Y-84442990D01*
X135624743Y-84408682D01*
X135536596Y-84400000D01*
X135507122Y-84397097D01*
X135477648Y-84400000D01*
X123131371Y-84400000D01*
X123109970Y-84378599D01*
X122978942Y-84291049D01*
X122833351Y-84230743D01*
X122678793Y-84200000D01*
X122521207Y-84200000D01*
X122366649Y-84230743D01*
X122221058Y-84291049D01*
X122090030Y-84378599D01*
X121978599Y-84490030D01*
X121891049Y-84621058D01*
X121830743Y-84766649D01*
X121800000Y-84921207D01*
X121800000Y-85078793D01*
X121830743Y-85233351D01*
X121891049Y-85378942D01*
X121971937Y-85500000D01*
X121891049Y-85621058D01*
X121830743Y-85766649D01*
X121800000Y-85921207D01*
X121800000Y-86078793D01*
X121830743Y-86233351D01*
X121891049Y-86378942D01*
X121978599Y-86509970D01*
X122068628Y-86599999D01*
X121978597Y-86690030D01*
X121891047Y-86821058D01*
X121830741Y-86966649D01*
X121799998Y-87121207D01*
X121799998Y-87278793D01*
X121830741Y-87433351D01*
X121891047Y-87578942D01*
X121971936Y-87700001D01*
X121891049Y-87821058D01*
X121830743Y-87966649D01*
X121800000Y-88121207D01*
X121800000Y-88278793D01*
X121830743Y-88433351D01*
X121891049Y-88578942D01*
X121978599Y-88709970D01*
X122068628Y-88799999D01*
X121978597Y-88890030D01*
X121891047Y-89021058D01*
X121830741Y-89166649D01*
X121799998Y-89321207D01*
X121799998Y-89478793D01*
X121830741Y-89633351D01*
X121891047Y-89778942D01*
X121971936Y-89900001D01*
X121891049Y-90021058D01*
X121830743Y-90166649D01*
X121800000Y-90321207D01*
X121800000Y-90478793D01*
X121830743Y-90633351D01*
X121891049Y-90778942D01*
X121978599Y-90909970D01*
X122068628Y-90999999D01*
X122068627Y-91000000D01*
X120029474Y-91000000D01*
X120000000Y-90997097D01*
X119970526Y-91000000D01*
X119882379Y-91008682D01*
X119769279Y-91042990D01*
X119665045Y-91098704D01*
X119573683Y-91173683D01*
X119554891Y-91196581D01*
X118196586Y-92554887D01*
X118173683Y-92573683D01*
X118098704Y-92665046D01*
X118042990Y-92769280D01*
X118024352Y-92830722D01*
X118008682Y-92882380D01*
X117997097Y-93000000D01*
X114694880Y-93000000D01*
X114708951Y-92978942D01*
X114769257Y-92833351D01*
X114800000Y-92678793D01*
X114800000Y-92521207D01*
X114769257Y-92366649D01*
X114708951Y-92221058D01*
X114621401Y-92090030D01*
X114509970Y-91978599D01*
X114463235Y-91947372D01*
X114508950Y-91878954D01*
X114569256Y-91733363D01*
X114599999Y-91578805D01*
X114599999Y-91421219D01*
X114569256Y-91266661D01*
X114508950Y-91121070D01*
X114421400Y-90990042D01*
X114381364Y-90950006D01*
X114421399Y-90909970D01*
X114508949Y-90778942D01*
X114569255Y-90633351D01*
X114599998Y-90478793D01*
X114599998Y-90321207D01*
X114569255Y-90166649D01*
X114508949Y-90021058D01*
X114428062Y-89900001D01*
X114508951Y-89778942D01*
X114569257Y-89633351D01*
X114600000Y-89478793D01*
X114600000Y-89321207D01*
X114569257Y-89166649D01*
X114508951Y-89021058D01*
X114421401Y-88890030D01*
X114331371Y-88800000D01*
X114421401Y-88709970D01*
X114508951Y-88578942D01*
X114569257Y-88433351D01*
X114600000Y-88278793D01*
X114600000Y-88121207D01*
X114569257Y-87966649D01*
X114508951Y-87821058D01*
X114428063Y-87700000D01*
X114508951Y-87578942D01*
X114569257Y-87433351D01*
X114600000Y-87278793D01*
X114600000Y-87121207D01*
X114569257Y-86966649D01*
X114508951Y-86821058D01*
X114428063Y-86700000D01*
X114508951Y-86578942D01*
X114569257Y-86433351D01*
X114600000Y-86278793D01*
X114600000Y-86121207D01*
X114569257Y-85966649D01*
X114508951Y-85821058D01*
X114421401Y-85690030D01*
X114331370Y-85599999D01*
X114421399Y-85509970D01*
X114508949Y-85378942D01*
X114569255Y-85233351D01*
X114599998Y-85078793D01*
X114599998Y-84921207D01*
X114569255Y-84766649D01*
X114508949Y-84621058D01*
X114421399Y-84490030D01*
X114309968Y-84378599D01*
X114178940Y-84291049D01*
X114033349Y-84230743D01*
X113878791Y-84200000D01*
X113721205Y-84200000D01*
X113566647Y-84230743D01*
X113421056Y-84291049D01*
X113290028Y-84378599D01*
X113268627Y-84400000D01*
X102229465Y-84400000D01*
X102199999Y-84397098D01*
X102170533Y-84400000D01*
X102170526Y-84400000D01*
X102093640Y-84407573D01*
X102082378Y-84408682D01*
X102048070Y-84419089D01*
X101969279Y-84442990D01*
X101865045Y-84498704D01*
X101773683Y-84573683D01*
X101754896Y-84596575D01*
X99996586Y-86354887D01*
X99973683Y-86373683D01*
X99898704Y-86465046D01*
X99842990Y-86569280D01*
X99808682Y-86682379D01*
X99808682Y-86682380D01*
X99797097Y-86800000D01*
X99800000Y-86829474D01*
X99800001Y-113268644D01*
X99778599Y-113290046D01*
X99691049Y-113421074D01*
X99630743Y-113566665D01*
X99600000Y-113721223D01*
X99600000Y-113878809D01*
X99630743Y-114033367D01*
X99691049Y-114178958D01*
X99778599Y-114309986D01*
X99800000Y-114331387D01*
X99800000Y-114729473D01*
X99808682Y-114817620D01*
X99842990Y-114930720D01*
X99898704Y-115034954D01*
X99973683Y-115126317D01*
X100065045Y-115201296D01*
X100169279Y-115257010D01*
X100282379Y-115291318D01*
X100400000Y-115302903D01*
X100517620Y-115291318D01*
X100630720Y-115257010D01*
X100734954Y-115201296D01*
X100826317Y-115126317D01*
X100835619Y-115114982D01*
X100966649Y-115169257D01*
X101121207Y-115200000D01*
X101224109Y-115200000D01*
X101230743Y-115233351D01*
X101291049Y-115378942D01*
X101378599Y-115509970D01*
X101490030Y-115621401D01*
X101621058Y-115708951D01*
X101766649Y-115769257D01*
X101921207Y-115800000D01*
X102078793Y-115800000D01*
X102169519Y-115781954D01*
X99996586Y-117954887D01*
X99973683Y-117973683D01*
X99898704Y-118065046D01*
X99842990Y-118169280D01*
X99813940Y-118265046D01*
X99808682Y-118282380D01*
X99797097Y-118400000D01*
X99800000Y-118429474D01*
X99800001Y-129320000D01*
X99410042Y-129320000D01*
X99327915Y-129166351D01*
X99159213Y-128960787D01*
X98953649Y-128792085D01*
X98719122Y-128666728D01*
X98663978Y-128650000D01*
X98719122Y-128633272D01*
X98953649Y-128507915D01*
X99159213Y-128339213D01*
X99327915Y-128133649D01*
X99453272Y-127899122D01*
X99530467Y-127644646D01*
X99556532Y-127380000D01*
X99530467Y-127115354D01*
X99453272Y-126860878D01*
X99327915Y-126626351D01*
X99159213Y-126420787D01*
X98953649Y-126252085D01*
X98719122Y-126126728D01*
X98663978Y-126110000D01*
X98719122Y-126093272D01*
X98953649Y-125967915D01*
X99159213Y-125799213D01*
X99327915Y-125593649D01*
X99453272Y-125359122D01*
X99530467Y-125104646D01*
X99556532Y-124840000D01*
X99530467Y-124575354D01*
X99453272Y-124320878D01*
X99327915Y-124086351D01*
X99159213Y-123880787D01*
X98953649Y-123712085D01*
X98719122Y-123586728D01*
X98663978Y-123570000D01*
X98719122Y-123553272D01*
X98953649Y-123427915D01*
X99159213Y-123259213D01*
X99327915Y-123053649D01*
X99453272Y-122819122D01*
X99530467Y-122564646D01*
X99556532Y-122300000D01*
X99530467Y-122035354D01*
X99453272Y-121780878D01*
X99327915Y-121546351D01*
X99159213Y-121340787D01*
X98953649Y-121172085D01*
X98719122Y-121046728D01*
X98663978Y-121030000D01*
X98719122Y-121013272D01*
X98953649Y-120887915D01*
X99159213Y-120719213D01*
X99327915Y-120513649D01*
X99453272Y-120279122D01*
X99530467Y-120024646D01*
X99556532Y-119760000D01*
X99530467Y-119495354D01*
X99453272Y-119240878D01*
X99327915Y-119006351D01*
X99159213Y-118800787D01*
X98953649Y-118632085D01*
X98719122Y-118506728D01*
X98663978Y-118490000D01*
X98719122Y-118473272D01*
X98953649Y-118347915D01*
X99159213Y-118179213D01*
X99327915Y-117973649D01*
X99453272Y-117739122D01*
X99530467Y-117484646D01*
X99556532Y-117220000D01*
X99530467Y-116955354D01*
X99453272Y-116700878D01*
X99327915Y-116466351D01*
X99159213Y-116260787D01*
X98953649Y-116092085D01*
X98719122Y-115966728D01*
X98663978Y-115950000D01*
X98719122Y-115933272D01*
X98953649Y-115807915D01*
X99159213Y-115639213D01*
X99327915Y-115433649D01*
X99453272Y-115199122D01*
X99530467Y-114944646D01*
X99556532Y-114680000D01*
X99530467Y-114415354D01*
X99453272Y-114160878D01*
X99327915Y-113926351D01*
X99159213Y-113720787D01*
X98953649Y-113552085D01*
X98719122Y-113426728D01*
X98663978Y-113410000D01*
X98719122Y-113393272D01*
X98953649Y-113267915D01*
X99159213Y-113099213D01*
X99327915Y-112893649D01*
X99453272Y-112659122D01*
X99530467Y-112404646D01*
X99556532Y-112140000D01*
X99530467Y-111875354D01*
X99453272Y-111620878D01*
X99327915Y-111386351D01*
X99159213Y-111180787D01*
X98953649Y-111012085D01*
X98719122Y-110886728D01*
X98663978Y-110870000D01*
X98719122Y-110853272D01*
X98953649Y-110727915D01*
X99159213Y-110559213D01*
X99327915Y-110353649D01*
X99453272Y-110119122D01*
X99530467Y-109864646D01*
X99556532Y-109600000D01*
X99530467Y-109335354D01*
X99453272Y-109080878D01*
X99327915Y-108846351D01*
X99159213Y-108640787D01*
X98953649Y-108472085D01*
X98719122Y-108346728D01*
X98663978Y-108330000D01*
X98719122Y-108313272D01*
X98953649Y-108187915D01*
X99159213Y-108019213D01*
X99327915Y-107813649D01*
X99453272Y-107579122D01*
X99530467Y-107324646D01*
X99556532Y-107060000D01*
X99530467Y-106795354D01*
X99453272Y-106540878D01*
X99327915Y-106306351D01*
X99159213Y-106100787D01*
X98953649Y-105932085D01*
X98719122Y-105806728D01*
X98663978Y-105790000D01*
X98719122Y-105773272D01*
X98953649Y-105647915D01*
X99159213Y-105479213D01*
X99327915Y-105273649D01*
X99453272Y-105039122D01*
X99530467Y-104784646D01*
X99556532Y-104520000D01*
X99530467Y-104255354D01*
X99453272Y-104000878D01*
X99327915Y-103766351D01*
X99159213Y-103560787D01*
X98953649Y-103392085D01*
X98719122Y-103266728D01*
X98663978Y-103250000D01*
X98719122Y-103233272D01*
X98953649Y-103107915D01*
X99159213Y-102939213D01*
X99327915Y-102733649D01*
X99453272Y-102499122D01*
X99530467Y-102244646D01*
X99556532Y-101980000D01*
X99530467Y-101715354D01*
X99453272Y-101460878D01*
X99327915Y-101226351D01*
X99159213Y-101020787D01*
X98953649Y-100852085D01*
X98719122Y-100726728D01*
X98663978Y-100710000D01*
X98719122Y-100693272D01*
X98953649Y-100567915D01*
X99159213Y-100399213D01*
X99327915Y-100193649D01*
X99453272Y-99959122D01*
X99530467Y-99704646D01*
X99556532Y-99440000D01*
X99530467Y-99175354D01*
X99453272Y-98920878D01*
X99327915Y-98686351D01*
X99159213Y-98480787D01*
X98953649Y-98312085D01*
X98719122Y-98186728D01*
X98663978Y-98170000D01*
X98719122Y-98153272D01*
X98953649Y-98027915D01*
X99159213Y-97859213D01*
X99327915Y-97653649D01*
X99453272Y-97419122D01*
X99530467Y-97164646D01*
X99556532Y-96900000D01*
X99530467Y-96635354D01*
X99453272Y-96380878D01*
X99327915Y-96146351D01*
X99159213Y-95940787D01*
X98953649Y-95772085D01*
X98719122Y-95646728D01*
X98663978Y-95630000D01*
X98719122Y-95613272D01*
X98953649Y-95487915D01*
X99159213Y-95319213D01*
X99327915Y-95113649D01*
X99453272Y-94879122D01*
X99530467Y-94624646D01*
X99556532Y-94360000D01*
X99530467Y-94095354D01*
X99453272Y-93840878D01*
X99327915Y-93606351D01*
X99159213Y-93400787D01*
X98953649Y-93232085D01*
X98719122Y-93106728D01*
X98663978Y-93090000D01*
X98719122Y-93073272D01*
X98953649Y-92947915D01*
X99159213Y-92779213D01*
X99327915Y-92573649D01*
X99453272Y-92339122D01*
X99530467Y-92084646D01*
X99556532Y-91820000D01*
X99530467Y-91555354D01*
X99453272Y-91300878D01*
X99327915Y-91066351D01*
X99159213Y-90860787D01*
X98953649Y-90692085D01*
X98719122Y-90566728D01*
X98663978Y-90550000D01*
X98719122Y-90533272D01*
X98953649Y-90407915D01*
X99159213Y-90239213D01*
X99327915Y-90033649D01*
X99453272Y-89799122D01*
X99530467Y-89544646D01*
X99556532Y-89280000D01*
X99530467Y-89015354D01*
X99453272Y-88760878D01*
X99327915Y-88526351D01*
X99159213Y-88320787D01*
X98953649Y-88152085D01*
X98719122Y-88026728D01*
X98663978Y-88010000D01*
X98719122Y-87993272D01*
X98953649Y-87867915D01*
X99159213Y-87699213D01*
X99327915Y-87493649D01*
X99453272Y-87259122D01*
X99530467Y-87004646D01*
X99556532Y-86740000D01*
X99530467Y-86475354D01*
X99453272Y-86220878D01*
X99327915Y-85986351D01*
X99159213Y-85780787D01*
X99009597Y-85658000D01*
X99109883Y-85658000D01*
X99227347Y-85634635D01*
X99337996Y-85588803D01*
X99437578Y-85522264D01*
X99522265Y-85437577D01*
X99588803Y-85337996D01*
X99634635Y-85227347D01*
X99658000Y-85109883D01*
X99658000Y-84506000D01*
X99506000Y-84354000D01*
X98354000Y-84354000D01*
X98354000Y-84374000D01*
X98046000Y-84374000D01*
X98046000Y-84354000D01*
X96894000Y-84354000D01*
X96742000Y-84506000D01*
X96575000Y-84506000D01*
X96575000Y-83290117D01*
X96742000Y-83290117D01*
X96742000Y-83894000D01*
X96894000Y-84046000D01*
X98046000Y-84046000D01*
X98046000Y-82894000D01*
X98354000Y-82894000D01*
X98354000Y-84046000D01*
X99506000Y-84046000D01*
X99658000Y-83894000D01*
X99658000Y-83290117D01*
X99634635Y-83172653D01*
X99588803Y-83062004D01*
X99522265Y-82962423D01*
X99437578Y-82877736D01*
X99337996Y-82811197D01*
X99227347Y-82765365D01*
X99109883Y-82742000D01*
X98506000Y-82742000D01*
X98354000Y-82894000D01*
X98046000Y-82894000D01*
X97894000Y-82742000D01*
X97290117Y-82742000D01*
X97172653Y-82765365D01*
X97062004Y-82811197D01*
X96962422Y-82877736D01*
X96877735Y-82962423D01*
X96811197Y-83062004D01*
X96765365Y-83172653D01*
X96742000Y-83290117D01*
X96575000Y-83290117D01*
X96575000Y-82575000D01*
X140425001Y-82575000D01*
X140425000Y-141425000D01*
G04 #@! TD*
M02*
