G04 #@! TF.GenerationSoftware,KiCad,Pcbnew,(5.0.0-3-g5ebb6b6)*
G04 #@! TF.CreationDate,2019-02-03T17:20:29+01:00*
G04 #@! TF.ProjectId,HolyIoT-NRF52840-Breakout,486F6C79496F542D4E52463532383430,1.0*
G04 #@! TF.SameCoordinates,Original*
G04 #@! TF.FileFunction,Other,User*
%FSLAX46Y46*%
G04 Gerber Fmt 4.6, Leading zero omitted, Abs format (unit mm)*
G04 Created by KiCad (PCBNEW (5.0.0-3-g5ebb6b6)) date 2019 February 03, Sunday 17:20:29*
%MOMM*%
%LPD*%
G01*
G04 APERTURE LIST*
%ADD10C,0.050000*%
G04 APERTURE END LIST*
D10*
G04 #@! TO.C,J4*
X123200000Y-128800000D02*
X123200000Y-136200000D01*
X123200000Y-136200000D02*
X131800000Y-136200000D01*
X131800000Y-136200000D02*
X131800000Y-128800000D01*
X131800000Y-128800000D02*
X123200000Y-128800000D01*
G04 #@! TO.C,J2*
X140800000Y-129200000D02*
X140800000Y-82450000D01*
X140800000Y-82450000D02*
X137200000Y-82450000D01*
X137200000Y-82450000D02*
X137200000Y-129200000D01*
X137200000Y-129200000D02*
X140800000Y-129200000D01*
G04 #@! TO.C,J1*
X96400000Y-82400000D02*
X96400000Y-139350000D01*
X96400000Y-139350000D02*
X100000000Y-139350000D01*
X100000000Y-139350000D02*
X100000000Y-82400000D01*
X100000000Y-82400000D02*
X96400000Y-82400000D01*
G04 #@! TO.C,J3*
X108000000Y-109800000D02*
X108000000Y-136250000D01*
X108000000Y-136250000D02*
X111600000Y-136250000D01*
X111600000Y-136250000D02*
X111600000Y-109800000D01*
X111600000Y-109800000D02*
X108000000Y-109800000D01*
G04 #@! TO.C,J5*
X125200000Y-118760000D02*
X125200000Y-102460000D01*
X125200000Y-102460000D02*
X121600000Y-102460000D01*
X121600000Y-102460000D02*
X121600000Y-118760000D01*
X121600000Y-118760000D02*
X125200000Y-118760000D01*
G04 #@! TD*
M02*
