G04 #@! TF.GenerationSoftware,KiCad,Pcbnew,(5.0.0-3-g5ebb6b6)*
G04 #@! TF.CreationDate,2019-02-03T17:20:29+01:00*
G04 #@! TF.ProjectId,HolyIoT-NRF52840-Breakout,486F6C79496F542D4E52463532383430,1.0*
G04 #@! TF.SameCoordinates,Original*
G04 #@! TF.FileFunction,Soldermask,Top*
G04 #@! TF.FilePolarity,Negative*
%FSLAX46Y46*%
G04 Gerber Fmt 4.6, Leading zero omitted, Abs format (unit mm)*
G04 Created by KiCad (PCBNEW (5.0.0-3-g5ebb6b6)) date 2019 February 03, Sunday 17:20:29*
%MOMM*%
%LPD*%
G01*
G04 APERTURE LIST*
%ADD10R,2.800000X1.140000*%
%ADD11R,1.797000X1.289000*%
%ADD12R,2.100000X2.100000*%
%ADD13O,2.100000X2.100000*%
%ADD14R,1.000000X1.200000*%
%ADD15R,1.200000X1.000000*%
%ADD16C,1.000000*%
G04 APERTURE END LIST*
D10*
G04 #@! TO.C,J4*
X125550000Y-129960000D03*
X129450000Y-129960000D03*
X125550000Y-131230000D03*
X129450000Y-131230000D03*
X125550000Y-132500000D03*
X129450000Y-132500000D03*
X125550000Y-133770000D03*
X129450000Y-133770000D03*
X125550000Y-135040000D03*
X129450000Y-135040000D03*
G04 #@! TD*
D11*
G04 #@! TO.C,C2*
X109600000Y-102600000D03*
X109600000Y-104505000D03*
G04 #@! TD*
D12*
G04 #@! TO.C,J2*
X139000000Y-127400000D03*
D13*
X139000000Y-124860000D03*
X139000000Y-122320000D03*
X139000000Y-119780000D03*
X139000000Y-117240000D03*
X139000000Y-114700000D03*
X139000000Y-112160000D03*
X139000000Y-109620000D03*
X139000000Y-107080000D03*
X139000000Y-104540000D03*
X139000000Y-102000000D03*
X139000000Y-99460000D03*
X139000000Y-96920000D03*
X139000000Y-94380000D03*
X139000000Y-91840000D03*
X139000000Y-89300000D03*
X139000000Y-86760000D03*
X139000000Y-84220000D03*
G04 #@! TD*
D14*
G04 #@! TO.C,U1*
X121550000Y-97500000D03*
X123750000Y-97500000D03*
X122650000Y-97500000D03*
X120450000Y-97500000D03*
X112750000Y-97500000D03*
X119350000Y-97500000D03*
X118250000Y-97500000D03*
X117150000Y-97500000D03*
X116050000Y-97500000D03*
X114950000Y-97500000D03*
X113850000Y-97500000D03*
D15*
X125000000Y-91600000D03*
X125000000Y-93800000D03*
X125000000Y-92700000D03*
X125000000Y-90500000D03*
X125000000Y-96000000D03*
X125000000Y-94900000D03*
X125000000Y-82800000D03*
X125000000Y-89400000D03*
X125000000Y-88300000D03*
X125000000Y-87200000D03*
X125000000Y-86100000D03*
X125000000Y-85000000D03*
X125000000Y-83900000D03*
X111500000Y-96000000D03*
X111500000Y-94900000D03*
X111500000Y-93800000D03*
X111500000Y-92700000D03*
X111500000Y-91600000D03*
X111500000Y-90500000D03*
X122600000Y-89400000D03*
X122600000Y-87200000D03*
X122600000Y-86100000D03*
X122600000Y-91600000D03*
X122600000Y-92700000D03*
X122600000Y-93800000D03*
X122600000Y-90500000D03*
X122600000Y-85000000D03*
X122600000Y-88300000D03*
X113900000Y-93800000D03*
X113900000Y-92700000D03*
X113900000Y-91600000D03*
X113900000Y-90500000D03*
X113900000Y-89400000D03*
X113900000Y-88300000D03*
X113900000Y-87200000D03*
X113900000Y-86100000D03*
X113900000Y-85000000D03*
X111500000Y-89400000D03*
X111500000Y-88300000D03*
X111500000Y-87200000D03*
X111500000Y-86100000D03*
X111500000Y-85000000D03*
X111500000Y-83900000D03*
X111500000Y-82800000D03*
G04 #@! TD*
D12*
G04 #@! TO.C,J1*
X98200000Y-84200000D03*
D13*
X98200000Y-86740000D03*
X98200000Y-89280000D03*
X98200000Y-91820000D03*
X98200000Y-94360000D03*
X98200000Y-96900000D03*
X98200000Y-99440000D03*
X98200000Y-101980000D03*
X98200000Y-104520000D03*
X98200000Y-107060000D03*
X98200000Y-109600000D03*
X98200000Y-112140000D03*
X98200000Y-114680000D03*
X98200000Y-117220000D03*
X98200000Y-119760000D03*
X98200000Y-122300000D03*
X98200000Y-124840000D03*
X98200000Y-127380000D03*
X98200000Y-129920000D03*
X98200000Y-132460000D03*
X98200000Y-135000000D03*
X98200000Y-137540000D03*
G04 #@! TD*
D12*
G04 #@! TO.C,J3*
X109800000Y-111600000D03*
D13*
X109800000Y-114140000D03*
X109800000Y-116680000D03*
X109800000Y-119220000D03*
X109800000Y-121760000D03*
X109800000Y-124300000D03*
X109800000Y-126840000D03*
X109800000Y-129380000D03*
X109800000Y-131920000D03*
X109800000Y-134460000D03*
G04 #@! TD*
D12*
G04 #@! TO.C,J5*
X123400000Y-116960000D03*
D13*
X123400000Y-114420000D03*
X123400000Y-111880000D03*
X123400000Y-109340000D03*
X123400000Y-106800000D03*
X123400000Y-104260000D03*
G04 #@! TD*
D16*
X122600000Y-92600000D03*
X131200000Y-119400000D03*
X122599998Y-91600000D03*
X130000000Y-116500000D03*
X122600000Y-90400000D03*
X122599998Y-89400000D03*
X122600000Y-88200000D03*
X122599998Y-87200000D03*
X122600000Y-86000000D03*
X122600000Y-85000000D03*
X110600000Y-98400000D03*
X113800000Y-95600000D03*
X131000000Y-83000000D03*
X130200000Y-83000000D03*
X129400000Y-83000000D03*
X128600000Y-83000000D03*
X127800000Y-83000000D03*
X127000000Y-83000000D03*
X131800000Y-83000000D03*
X132600000Y-83000000D03*
X133400000Y-83000000D03*
X134200000Y-83000000D03*
X135000000Y-83000000D03*
X135800000Y-83000000D03*
X136600000Y-83000000D03*
X100800000Y-83000000D03*
X102400000Y-83000000D03*
X104000000Y-83000000D03*
X105600000Y-83000000D03*
X106400000Y-83000000D03*
X107200000Y-83000000D03*
X108000000Y-83000000D03*
X108800000Y-83000000D03*
X109600000Y-83000000D03*
X104800000Y-83000000D03*
X103200000Y-83000000D03*
X101600000Y-83000000D03*
X131000000Y-93800000D03*
X128600000Y-93800000D03*
X131000000Y-95000000D03*
X128600000Y-95000006D03*
X128600000Y-92800000D03*
X131100000Y-92800000D03*
X128599996Y-90600000D03*
X131100000Y-90600000D03*
X113800000Y-93800000D03*
X114000000Y-92600000D03*
X113799999Y-91500012D03*
X113799998Y-90400000D03*
X113800000Y-89400000D03*
X103600000Y-110800000D03*
X113800000Y-88200000D03*
X102800000Y-111600000D03*
X113800000Y-87200000D03*
X102000000Y-115000000D03*
X113800000Y-86200000D03*
X101200000Y-114400000D03*
X113799998Y-85000000D03*
X100400000Y-113800016D03*
X129600000Y-98000000D03*
X129600000Y-100600000D03*
X130400000Y-97000000D03*
X128600000Y-115200000D03*
X130400000Y-100000000D03*
X127155018Y-116644982D03*
X111600000Y-102600000D03*
X120799994Y-102600000D03*
X122600000Y-93800000D03*
X131100000Y-91600000D03*
X128600000Y-91600000D03*
M02*
