G04 #@! TF.GenerationSoftware,KiCad,Pcbnew,(5.0.0-3-g5ebb6b6)*
G04 #@! TF.CreationDate,2019-02-03T17:20:29+01:00*
G04 #@! TF.ProjectId,HolyIoT-NRF52840-Breakout,486F6C79496F542D4E52463532383430,1.0*
G04 #@! TF.SameCoordinates,Original*
G04 #@! TF.FileFunction,Other,Fab,Top*
%FSLAX46Y46*%
G04 Gerber Fmt 4.6, Leading zero omitted, Abs format (unit mm)*
G04 Created by KiCad (PCBNEW (5.0.0-3-g5ebb6b6)) date 2019 February 03, Sunday 17:20:29*
%MOMM*%
%LPD*%
G01*
G04 APERTURE LIST*
%ADD10C,0.100000*%
%ADD11C,0.150000*%
G04 APERTURE END LIST*
D10*
G04 #@! TO.C,J4*
X129205000Y-135675000D02*
X125795000Y-135675000D01*
X126230000Y-129325000D02*
X129205000Y-129325000D01*
X125795000Y-135675000D02*
X125795000Y-129760000D01*
X125795000Y-129760000D02*
X126230000Y-129325000D01*
X129205000Y-129325000D02*
X129205000Y-135675000D01*
X125795000Y-129760000D02*
X124750000Y-129760000D01*
X124750000Y-129760000D02*
X124750000Y-130160000D01*
X124750000Y-130160000D02*
X125795000Y-130160000D01*
X129205000Y-129760000D02*
X130250000Y-129760000D01*
X130250000Y-129760000D02*
X130250000Y-130160000D01*
X130250000Y-130160000D02*
X129205000Y-130160000D01*
X125795000Y-131030000D02*
X124750000Y-131030000D01*
X124750000Y-131030000D02*
X124750000Y-131430000D01*
X124750000Y-131430000D02*
X125795000Y-131430000D01*
X129205000Y-131030000D02*
X130250000Y-131030000D01*
X130250000Y-131030000D02*
X130250000Y-131430000D01*
X130250000Y-131430000D02*
X129205000Y-131430000D01*
X125795000Y-132300000D02*
X124750000Y-132300000D01*
X124750000Y-132300000D02*
X124750000Y-132700000D01*
X124750000Y-132700000D02*
X125795000Y-132700000D01*
X129205000Y-132300000D02*
X130250000Y-132300000D01*
X130250000Y-132300000D02*
X130250000Y-132700000D01*
X130250000Y-132700000D02*
X129205000Y-132700000D01*
X125795000Y-133570000D02*
X124750000Y-133570000D01*
X124750000Y-133570000D02*
X124750000Y-133970000D01*
X124750000Y-133970000D02*
X125795000Y-133970000D01*
X129205000Y-133570000D02*
X130250000Y-133570000D01*
X130250000Y-133570000D02*
X130250000Y-133970000D01*
X130250000Y-133970000D02*
X129205000Y-133970000D01*
X125795000Y-134840000D02*
X124750000Y-134840000D01*
X124750000Y-134840000D02*
X124750000Y-135240000D01*
X124750000Y-135240000D02*
X125795000Y-135240000D01*
X129205000Y-134840000D02*
X130250000Y-134840000D01*
X130250000Y-134840000D02*
X130250000Y-135240000D01*
X130250000Y-135240000D02*
X129205000Y-135240000D01*
G04 #@! TO.C,J2*
X139635000Y-128670000D02*
X137730000Y-128670000D01*
X137730000Y-128670000D02*
X137730000Y-82950000D01*
X137730000Y-82950000D02*
X140270000Y-82950000D01*
X140270000Y-82950000D02*
X140270000Y-128035000D01*
X140270000Y-128035000D02*
X139635000Y-128670000D01*
D11*
G04 #@! TO.C,U1*
X125000000Y-79500000D02*
X125000000Y-82200000D01*
X111500000Y-79500000D02*
X111500000Y-82200000D01*
X111500000Y-79500000D02*
X125000000Y-79500000D01*
D10*
G04 #@! TO.C,J1*
X97565000Y-82930000D02*
X99470000Y-82930000D01*
X99470000Y-82930000D02*
X99470000Y-138810000D01*
X99470000Y-138810000D02*
X96930000Y-138810000D01*
X96930000Y-138810000D02*
X96930000Y-83565000D01*
X96930000Y-83565000D02*
X97565000Y-82930000D01*
G04 #@! TO.C,J3*
X109165000Y-110330000D02*
X111070000Y-110330000D01*
X111070000Y-110330000D02*
X111070000Y-135730000D01*
X111070000Y-135730000D02*
X108530000Y-135730000D01*
X108530000Y-135730000D02*
X108530000Y-110965000D01*
X108530000Y-110965000D02*
X109165000Y-110330000D01*
G04 #@! TO.C,J5*
X124035000Y-118230000D02*
X122130000Y-118230000D01*
X122130000Y-118230000D02*
X122130000Y-102990000D01*
X122130000Y-102990000D02*
X124670000Y-102990000D01*
X124670000Y-102990000D02*
X124670000Y-117595000D01*
X124670000Y-117595000D02*
X124035000Y-118230000D01*
G04 #@! TD*
G04 #@! TO.C,J2*
D11*
X138452380Y-106143333D02*
X139166666Y-106143333D01*
X139309523Y-106190952D01*
X139404761Y-106286190D01*
X139452380Y-106429047D01*
X139452380Y-106524285D01*
X138547619Y-105714761D02*
X138500000Y-105667142D01*
X138452380Y-105571904D01*
X138452380Y-105333809D01*
X138500000Y-105238571D01*
X138547619Y-105190952D01*
X138642857Y-105143333D01*
X138738095Y-105143333D01*
X138880952Y-105190952D01*
X139452380Y-105762380D01*
X139452380Y-105143333D01*
G04 #@! TO.C,U1*
X113238095Y-80766666D02*
X113714285Y-80766666D01*
X113142857Y-81052380D02*
X113476190Y-80052380D01*
X113809523Y-81052380D01*
X114142857Y-80385714D02*
X114142857Y-81052380D01*
X114142857Y-80480952D02*
X114190476Y-80433333D01*
X114285714Y-80385714D01*
X114428571Y-80385714D01*
X114523809Y-80433333D01*
X114571428Y-80528571D01*
X114571428Y-81052380D01*
X114904761Y-80385714D02*
X115285714Y-80385714D01*
X115047619Y-80052380D02*
X115047619Y-80909523D01*
X115095238Y-81004761D01*
X115190476Y-81052380D01*
X115285714Y-81052380D01*
X116000000Y-81004761D02*
X115904761Y-81052380D01*
X115714285Y-81052380D01*
X115619047Y-81004761D01*
X115571428Y-80909523D01*
X115571428Y-80528571D01*
X115619047Y-80433333D01*
X115714285Y-80385714D01*
X115904761Y-80385714D01*
X116000000Y-80433333D01*
X116047619Y-80528571D01*
X116047619Y-80623809D01*
X115571428Y-80719047D01*
X116476190Y-80385714D02*
X116476190Y-81052380D01*
X116476190Y-80480952D02*
X116523809Y-80433333D01*
X116619047Y-80385714D01*
X116761904Y-80385714D01*
X116857142Y-80433333D01*
X116904761Y-80528571D01*
X116904761Y-81052380D01*
X117380952Y-80385714D02*
X117380952Y-81052380D01*
X117380952Y-80480952D02*
X117428571Y-80433333D01*
X117523809Y-80385714D01*
X117666666Y-80385714D01*
X117761904Y-80433333D01*
X117809523Y-80528571D01*
X117809523Y-81052380D01*
X118714285Y-81052380D02*
X118714285Y-80528571D01*
X118666666Y-80433333D01*
X118571428Y-80385714D01*
X118380952Y-80385714D01*
X118285714Y-80433333D01*
X118714285Y-81004761D02*
X118619047Y-81052380D01*
X118380952Y-81052380D01*
X118285714Y-81004761D01*
X118238095Y-80909523D01*
X118238095Y-80814285D01*
X118285714Y-80719047D01*
X118380952Y-80671428D01*
X118619047Y-80671428D01*
X118714285Y-80623809D01*
X119904761Y-80766666D02*
X120380952Y-80766666D01*
X119809523Y-81052380D02*
X120142857Y-80052380D01*
X120476190Y-81052380D01*
X120809523Y-81052380D02*
X120809523Y-80385714D01*
X120809523Y-80576190D02*
X120857142Y-80480952D01*
X120904761Y-80433333D01*
X121000000Y-80385714D01*
X121095238Y-80385714D01*
X121809523Y-81004761D02*
X121714285Y-81052380D01*
X121523809Y-81052380D01*
X121428571Y-81004761D01*
X121380952Y-80909523D01*
X121380952Y-80528571D01*
X121428571Y-80433333D01*
X121523809Y-80385714D01*
X121714285Y-80385714D01*
X121809523Y-80433333D01*
X121857142Y-80528571D01*
X121857142Y-80623809D01*
X121380952Y-80719047D01*
X122714285Y-81052380D02*
X122714285Y-80528571D01*
X122666666Y-80433333D01*
X122571428Y-80385714D01*
X122380952Y-80385714D01*
X122285714Y-80433333D01*
X122714285Y-81004761D02*
X122619047Y-81052380D01*
X122380952Y-81052380D01*
X122285714Y-81004761D01*
X122238095Y-80909523D01*
X122238095Y-80814285D01*
X122285714Y-80719047D01*
X122380952Y-80671428D01*
X122619047Y-80671428D01*
X122714285Y-80623809D01*
G04 #@! TO.C,J1*
X97652380Y-111203333D02*
X98366666Y-111203333D01*
X98509523Y-111250952D01*
X98604761Y-111346190D01*
X98652380Y-111489047D01*
X98652380Y-111584285D01*
X98652380Y-110203333D02*
X98652380Y-110774761D01*
X98652380Y-110489047D02*
X97652380Y-110489047D01*
X97795238Y-110584285D01*
X97890476Y-110679523D01*
X97938095Y-110774761D01*
G04 #@! TO.C,J3*
X109252380Y-123363333D02*
X109966666Y-123363333D01*
X110109523Y-123410952D01*
X110204761Y-123506190D01*
X110252380Y-123649047D01*
X110252380Y-123744285D01*
X109252380Y-122982380D02*
X109252380Y-122363333D01*
X109633333Y-122696666D01*
X109633333Y-122553809D01*
X109680952Y-122458571D01*
X109728571Y-122410952D01*
X109823809Y-122363333D01*
X110061904Y-122363333D01*
X110157142Y-122410952D01*
X110204761Y-122458571D01*
X110252380Y-122553809D01*
X110252380Y-122839523D01*
X110204761Y-122934761D01*
X110157142Y-122982380D01*
G04 #@! TO.C,J5*
X122852380Y-110943333D02*
X123566666Y-110943333D01*
X123709523Y-110990952D01*
X123804761Y-111086190D01*
X123852380Y-111229047D01*
X123852380Y-111324285D01*
X122852380Y-109990952D02*
X122852380Y-110467142D01*
X123328571Y-110514761D01*
X123280952Y-110467142D01*
X123233333Y-110371904D01*
X123233333Y-110133809D01*
X123280952Y-110038571D01*
X123328571Y-109990952D01*
X123423809Y-109943333D01*
X123661904Y-109943333D01*
X123757142Y-109990952D01*
X123804761Y-110038571D01*
X123852380Y-110133809D01*
X123852380Y-110371904D01*
X123804761Y-110467142D01*
X123757142Y-110514761D01*
G04 #@! TD*
M02*
