G04 #@! TF.GenerationSoftware,KiCad,Pcbnew,(5.0.0)*
G04 #@! TF.CreationDate,2018-09-13T11:25:45+02:00*
G04 #@! TF.ProjectId,HolyIoT-NRF52840-Breakout,486F6C79496F542D4E52463532383430,1.0*
G04 #@! TF.SameCoordinates,Original*
G04 #@! TF.FileFunction,Other,User*
%FSLAX46Y46*%
G04 Gerber Fmt 4.6, Leading zero omitted, Abs format (unit mm)*
G04 Created by KiCad (PCBNEW (5.0.0)) date 09/13/18 11:25:45*
%MOMM*%
%LPD*%
G01*
G04 APERTURE LIST*
%ADD10C,0.050000*%
G04 APERTURE END LIST*
D10*
G04 #@! TO.C,J2*
X140800000Y-129200000D02*
X140800000Y-82450000D01*
X140800000Y-82450000D02*
X137200000Y-82450000D01*
X137200000Y-82450000D02*
X137200000Y-129200000D01*
X137200000Y-129200000D02*
X140800000Y-129200000D01*
G04 #@! TO.C,J4*
X121300000Y-105900000D02*
X121300000Y-113300000D01*
X121300000Y-113300000D02*
X129900000Y-113300000D01*
X129900000Y-113300000D02*
X129900000Y-105900000D01*
X129900000Y-105900000D02*
X121300000Y-105900000D01*
G04 #@! TO.C,J1*
X96400000Y-82400000D02*
X96400000Y-139350000D01*
X96400000Y-139350000D02*
X100000000Y-139350000D01*
X100000000Y-139350000D02*
X100000000Y-82400000D01*
X100000000Y-82400000D02*
X96400000Y-82400000D01*
G04 #@! TO.C,P1*
X131000000Y-136200000D02*
X140200000Y-136200000D01*
X140200000Y-136200000D02*
X140200000Y-143050000D01*
X140200000Y-143050000D02*
X131000000Y-143050000D01*
X131000000Y-143050000D02*
X131000000Y-136200000D01*
G04 #@! TO.C,J3*
X108000000Y-109800000D02*
X108000000Y-128650000D01*
X108000000Y-128650000D02*
X111600000Y-128650000D01*
X111600000Y-128650000D02*
X111600000Y-109800000D01*
X111600000Y-109800000D02*
X108000000Y-109800000D01*
G04 #@! TD*
M02*
