%FSLAX45Y45*%
G04 Gerber Fmt 4.5, Leading zero omitted, Abs format (unit mm)*
G04 Created by KiCad (PCBNEW (5.0.0-3-g5ebb6b6)) date 2019 February 03, Sunday 17:20:38*
%MOMM*%
%LPD*%
G01*
G04 APERTURE LIST*
%ADD10C,0.150000*%
%ADD11C,0.200000*%
%ADD12C,0.300000*%
G04 APERTURE END LIST*
D10*
X14100000Y-14200000D02*
X9600000Y-14200000D01*
X14100000Y-14150000D02*
X14100000Y-14200000D01*
X14100000Y-14150000D02*
X14100000Y-8200000D01*
X9600000Y-14100000D02*
X9600000Y-14200000D01*
X9600000Y-8200000D02*
X9600000Y-14100000D01*
X14100000Y-8200000D02*
X9600000Y-8200000D01*
D11*
X10025000Y-11365002D02*
X10055000Y-11395002D01*
X10055000Y-11365002D02*
X10025000Y-11395002D01*
X10065000Y-8285000D02*
X10095000Y-8315000D01*
X10095000Y-8285000D02*
X10065000Y-8315000D01*
X10105000Y-11425000D02*
X10135000Y-11455000D01*
X10135000Y-11425000D02*
X10105000Y-11455000D01*
X10145000Y-8285000D02*
X10175000Y-8315000D01*
X10175000Y-8285000D02*
X10145000Y-8315000D01*
X10185000Y-11485000D02*
X10215000Y-11515000D01*
X10215000Y-11485000D02*
X10185000Y-11515000D01*
X10225000Y-8285000D02*
X10255000Y-8315000D01*
X10255000Y-8285000D02*
X10225000Y-8315000D01*
X10265000Y-11145000D02*
X10295000Y-11175000D01*
X10295000Y-11145000D02*
X10265000Y-11175000D01*
X10305000Y-8285000D02*
X10335000Y-8315000D01*
X10335000Y-8285000D02*
X10305000Y-8315000D01*
X10345000Y-11065000D02*
X10375000Y-11095000D01*
X10375000Y-11065000D02*
X10345000Y-11095000D01*
X10385000Y-8285000D02*
X10415000Y-8315000D01*
X10415000Y-8285000D02*
X10385000Y-8315000D01*
X10465000Y-8285000D02*
X10495000Y-8315000D01*
X10495000Y-8285000D02*
X10465000Y-8315000D01*
X10545000Y-8285000D02*
X10575000Y-8315000D01*
X10575000Y-8285000D02*
X10545000Y-8315000D01*
X10625000Y-8285000D02*
X10655000Y-8315000D01*
X10655000Y-8285000D02*
X10625000Y-8315000D01*
X10705000Y-8285000D02*
X10735000Y-8315000D01*
X10735000Y-8285000D02*
X10705000Y-8315000D01*
X10785000Y-8285000D02*
X10815000Y-8315000D01*
X10815000Y-8285000D02*
X10785000Y-8315000D01*
X10865000Y-8285000D02*
X10895000Y-8315000D01*
X10895000Y-8285000D02*
X10865000Y-8315000D01*
X10945000Y-8285000D02*
X10975000Y-8315000D01*
X10975000Y-8285000D02*
X10945000Y-8315000D01*
X11045000Y-9825000D02*
X11075000Y-9855000D01*
X11075000Y-9825000D02*
X11045000Y-9855000D01*
X11145000Y-10245000D02*
X11175000Y-10275000D01*
X11175000Y-10245000D02*
X11145000Y-10275000D01*
X11365000Y-8485000D02*
X11395000Y-8515000D01*
X11395000Y-8485000D02*
X11365000Y-8515000D01*
X11365000Y-9025000D02*
X11395000Y-9055000D01*
X11395000Y-9025000D02*
X11365000Y-9055000D01*
X11365000Y-9135001D02*
X11395000Y-9165001D01*
X11395000Y-9135001D02*
X11365000Y-9165001D01*
X11365000Y-8605000D02*
X11395000Y-8635000D01*
X11395000Y-8605000D02*
X11365000Y-8635000D01*
X11365000Y-8705000D02*
X11395000Y-8735000D01*
X11395000Y-8705000D02*
X11365000Y-8735000D01*
X11365000Y-8805000D02*
X11395000Y-8835000D01*
X11395000Y-8805000D02*
X11365000Y-8835000D01*
X11365000Y-8925000D02*
X11395000Y-8955000D01*
X11395000Y-8925000D02*
X11365000Y-8955000D01*
X11365000Y-9365000D02*
X11395000Y-9395000D01*
X11395000Y-9365000D02*
X11365000Y-9395000D01*
X11365000Y-9545000D02*
X11395000Y-9575000D01*
X11395000Y-9545000D02*
X11365000Y-9575000D01*
X11385000Y-9245000D02*
X11415000Y-9275000D01*
X11415000Y-9245000D02*
X11385000Y-9275000D01*
X12064999Y-10245000D02*
X12094999Y-10275000D01*
X12094999Y-10245000D02*
X12064999Y-10275000D01*
X12245000Y-8705000D02*
X12275000Y-8735000D01*
X12275000Y-8705000D02*
X12245000Y-8735000D01*
X12245000Y-8925000D02*
X12275000Y-8955000D01*
X12275000Y-8925000D02*
X12245000Y-8955000D01*
X12245000Y-9145000D02*
X12275000Y-9175000D01*
X12275000Y-9145000D02*
X12245000Y-9175000D01*
X12245000Y-8485000D02*
X12275000Y-8515000D01*
X12275000Y-8485000D02*
X12245000Y-8515000D01*
X12245000Y-8585000D02*
X12275000Y-8615000D01*
X12275000Y-8585000D02*
X12245000Y-8615000D01*
X12245000Y-8805000D02*
X12275000Y-8835000D01*
X12275000Y-8805000D02*
X12245000Y-8835000D01*
X12245000Y-9025000D02*
X12275000Y-9055000D01*
X12275000Y-9025000D02*
X12245000Y-9055000D01*
X12245000Y-9245000D02*
X12275000Y-9275000D01*
X12275000Y-9245000D02*
X12245000Y-9275000D01*
X12245000Y-9365000D02*
X12275000Y-9395000D01*
X12275000Y-9365000D02*
X12245000Y-9395000D01*
X12685000Y-8285000D02*
X12715000Y-8315000D01*
X12715000Y-8285000D02*
X12685000Y-8315000D01*
X12700502Y-11649498D02*
X12730502Y-11679498D01*
X12730502Y-11649498D02*
X12700502Y-11679498D01*
X12765000Y-8285000D02*
X12795000Y-8315000D01*
X12795000Y-8285000D02*
X12765000Y-8315000D01*
X12845000Y-9045000D02*
X12875000Y-9075000D01*
X12875000Y-9045000D02*
X12845000Y-9075000D01*
X12845000Y-8285000D02*
X12875000Y-8315000D01*
X12875000Y-8285000D02*
X12845000Y-8315000D01*
X12845000Y-9145000D02*
X12875000Y-9175000D01*
X12875000Y-9145000D02*
X12845000Y-9175000D01*
X12845000Y-9265000D02*
X12875000Y-9295000D01*
X12875000Y-9265000D02*
X12845000Y-9295000D01*
X12845000Y-9365000D02*
X12875000Y-9395000D01*
X12875000Y-9365000D02*
X12845000Y-9395000D01*
X12845000Y-9485001D02*
X12875000Y-9515001D01*
X12875000Y-9485001D02*
X12845000Y-9515001D01*
X12845000Y-11505000D02*
X12875000Y-11535000D01*
X12875000Y-11505000D02*
X12845000Y-11535000D01*
X12925000Y-8285000D02*
X12955000Y-8315000D01*
X12955000Y-8285000D02*
X12925000Y-8315000D01*
X12945000Y-9785000D02*
X12975000Y-9815000D01*
X12975000Y-9785000D02*
X12945000Y-9815000D01*
X12945000Y-10045000D02*
X12975000Y-10075000D01*
X12975000Y-10045000D02*
X12945000Y-10075000D01*
X12985000Y-11635000D02*
X13015000Y-11665000D01*
X13015000Y-11635000D02*
X12985000Y-11665000D01*
X13005000Y-8285000D02*
X13035000Y-8315000D01*
X13035000Y-8285000D02*
X13005000Y-8315000D01*
X13025000Y-9685000D02*
X13055000Y-9715000D01*
X13055000Y-9685000D02*
X13025000Y-9715000D01*
X13025000Y-9985000D02*
X13055000Y-10015000D01*
X13055000Y-9985000D02*
X13025000Y-10015000D01*
X13085000Y-8285000D02*
X13115000Y-8315000D01*
X13115000Y-8285000D02*
X13085000Y-8315000D01*
X13085000Y-9365000D02*
X13115000Y-9395000D01*
X13115000Y-9365000D02*
X13085000Y-9395000D01*
X13085000Y-9485000D02*
X13115000Y-9515000D01*
X13115000Y-9485000D02*
X13085000Y-9515000D01*
X13095000Y-9045000D02*
X13125000Y-9075000D01*
X13125000Y-9045000D02*
X13095000Y-9075000D01*
X13095000Y-9145000D02*
X13125000Y-9175000D01*
X13125000Y-9145000D02*
X13095000Y-9175000D01*
X13095000Y-9265000D02*
X13125000Y-9295000D01*
X13125000Y-9265000D02*
X13095000Y-9295000D01*
X13105000Y-11925000D02*
X13135000Y-11955000D01*
X13135000Y-11925000D02*
X13105000Y-11955000D01*
X13165000Y-8285000D02*
X13195000Y-8315000D01*
X13195000Y-8285000D02*
X13165000Y-8315000D01*
X13245000Y-8285000D02*
X13275000Y-8315000D01*
X13275000Y-8285000D02*
X13245000Y-8315000D01*
X13325000Y-8285000D02*
X13355000Y-8315000D01*
X13355000Y-8285000D02*
X13325000Y-8315000D01*
X13405000Y-8285000D02*
X13435000Y-8315000D01*
X13435000Y-8285000D02*
X13405000Y-8315000D01*
X13485000Y-8285000D02*
X13515000Y-8315000D01*
X13515000Y-8285000D02*
X13485000Y-8315000D01*
X13565000Y-8285000D02*
X13595000Y-8315000D01*
X13595000Y-8285000D02*
X13565000Y-8315000D01*
X13645000Y-8285000D02*
X13675000Y-8315000D01*
X13675000Y-8285000D02*
X13645000Y-8315000D01*
X11030000Y-11160000D02*
G75*
G03X11030000Y-11160000I-50000J0D01*
G01*
X11030000Y-11414000D02*
G75*
G03X11030000Y-11414000I-50000J0D01*
G01*
X11030000Y-11668000D02*
G75*
G03X11030000Y-11668000I-50000J0D01*
G01*
X11030000Y-11922000D02*
G75*
G03X11030000Y-11922000I-50000J0D01*
G01*
X11030000Y-12176000D02*
G75*
G03X11030000Y-12176000I-50000J0D01*
G01*
X11030000Y-12430000D02*
G75*
G03X11030000Y-12430000I-50000J0D01*
G01*
X11030000Y-12684000D02*
G75*
G03X11030000Y-12684000I-50000J0D01*
G01*
X11030000Y-12938000D02*
G75*
G03X11030000Y-12938000I-50000J0D01*
G01*
X11030000Y-13192000D02*
G75*
G03X11030000Y-13192000I-50000J0D01*
G01*
X11030000Y-13446000D02*
G75*
G03X11030000Y-13446000I-50000J0D01*
G01*
X13950000Y-8422000D02*
G75*
G03X13950000Y-8422000I-50000J0D01*
G01*
X13950000Y-8676000D02*
G75*
G03X13950000Y-8676000I-50000J0D01*
G01*
X13950000Y-8930000D02*
G75*
G03X13950000Y-8930000I-50000J0D01*
G01*
X13950000Y-9184000D02*
G75*
G03X13950000Y-9184000I-50000J0D01*
G01*
X13950000Y-9438000D02*
G75*
G03X13950000Y-9438000I-50000J0D01*
G01*
X13950000Y-9692000D02*
G75*
G03X13950000Y-9692000I-50000J0D01*
G01*
X13950000Y-9946000D02*
G75*
G03X13950000Y-9946000I-50000J0D01*
G01*
X13950000Y-10200000D02*
G75*
G03X13950000Y-10200000I-50000J0D01*
G01*
X13950000Y-10454000D02*
G75*
G03X13950000Y-10454000I-50000J0D01*
G01*
X13950000Y-10708000D02*
G75*
G03X13950000Y-10708000I-50000J0D01*
G01*
X13950000Y-10962000D02*
G75*
G03X13950000Y-10962000I-50000J0D01*
G01*
X13950000Y-11216000D02*
G75*
G03X13950000Y-11216000I-50000J0D01*
G01*
X13950000Y-11470000D02*
G75*
G03X13950000Y-11470000I-50000J0D01*
G01*
X13950000Y-11724000D02*
G75*
G03X13950000Y-11724000I-50000J0D01*
G01*
X13950000Y-11978000D02*
G75*
G03X13950000Y-11978000I-50000J0D01*
G01*
X13950000Y-12232000D02*
G75*
G03X13950000Y-12232000I-50000J0D01*
G01*
X13950000Y-12486000D02*
G75*
G03X13950000Y-12486000I-50000J0D01*
G01*
X13950000Y-12740000D02*
G75*
G03X13950000Y-12740000I-50000J0D01*
G01*
X12390000Y-10426000D02*
G75*
G03X12390000Y-10426000I-50000J0D01*
G01*
X12390000Y-10680000D02*
G75*
G03X12390000Y-10680000I-50000J0D01*
G01*
X12390000Y-10934000D02*
G75*
G03X12390000Y-10934000I-50000J0D01*
G01*
X12390000Y-11188000D02*
G75*
G03X12390000Y-11188000I-50000J0D01*
G01*
X12390000Y-11442000D02*
G75*
G03X12390000Y-11442000I-50000J0D01*
G01*
X12390000Y-11696000D02*
G75*
G03X12390000Y-11696000I-50000J0D01*
G01*
X9870000Y-8420000D02*
G75*
G03X9870000Y-8420000I-50000J0D01*
G01*
X9870000Y-8674000D02*
G75*
G03X9870000Y-8674000I-50000J0D01*
G01*
X9870000Y-8928000D02*
G75*
G03X9870000Y-8928000I-50000J0D01*
G01*
X9870000Y-9182000D02*
G75*
G03X9870000Y-9182000I-50000J0D01*
G01*
X9870000Y-9436000D02*
G75*
G03X9870000Y-9436000I-50000J0D01*
G01*
X9870000Y-9690000D02*
G75*
G03X9870000Y-9690000I-50000J0D01*
G01*
X9870000Y-9944000D02*
G75*
G03X9870000Y-9944000I-50000J0D01*
G01*
X9870000Y-10198000D02*
G75*
G03X9870000Y-10198000I-50000J0D01*
G01*
X9870000Y-10452000D02*
G75*
G03X9870000Y-10452000I-50000J0D01*
G01*
X9870000Y-10706000D02*
G75*
G03X9870000Y-10706000I-50000J0D01*
G01*
X9870000Y-10960000D02*
G75*
G03X9870000Y-10960000I-50000J0D01*
G01*
X9870000Y-11214000D02*
G75*
G03X9870000Y-11214000I-50000J0D01*
G01*
X9870000Y-11468000D02*
G75*
G03X9870000Y-11468000I-50000J0D01*
G01*
X9870000Y-11722000D02*
G75*
G03X9870000Y-11722000I-50000J0D01*
G01*
X9870000Y-11976000D02*
G75*
G03X9870000Y-11976000I-50000J0D01*
G01*
X9870000Y-12230000D02*
G75*
G03X9870000Y-12230000I-50000J0D01*
G01*
X9870000Y-12484000D02*
G75*
G03X9870000Y-12484000I-50000J0D01*
G01*
X9870000Y-12738000D02*
G75*
G03X9870000Y-12738000I-50000J0D01*
G01*
X9870000Y-12992000D02*
G75*
G03X9870000Y-12992000I-50000J0D01*
G01*
X9870000Y-13246000D02*
G75*
G03X9870000Y-13246000I-50000J0D01*
G01*
X9870000Y-13500000D02*
G75*
G03X9870000Y-13500000I-50000J0D01*
G01*
X9870000Y-13754000D02*
G75*
G03X9870000Y-13754000I-50000J0D01*
G01*
D12*
X9878928Y-14673214D02*
X9878928Y-14373214D01*
X9950357Y-14373214D01*
X9993214Y-14387500D01*
X10021786Y-14416071D01*
X10036071Y-14444643D01*
X10050357Y-14501786D01*
X10050357Y-14544643D01*
X10036071Y-14601786D01*
X10021786Y-14630357D01*
X9993214Y-14658929D01*
X9950357Y-14673214D01*
X9878928Y-14673214D01*
X10178928Y-14673214D02*
X10178928Y-14473214D01*
X10178928Y-14530357D02*
X10193214Y-14501786D01*
X10207500Y-14487500D01*
X10236071Y-14473214D01*
X10264643Y-14473214D01*
X10364643Y-14673214D02*
X10364643Y-14473214D01*
X10364643Y-14373214D02*
X10350357Y-14387500D01*
X10364643Y-14401786D01*
X10378928Y-14387500D01*
X10364643Y-14373214D01*
X10364643Y-14401786D01*
X10550357Y-14673214D02*
X10521786Y-14658929D01*
X10507500Y-14630357D01*
X10507500Y-14373214D01*
X10707500Y-14673214D02*
X10678928Y-14658929D01*
X10664643Y-14630357D01*
X10664643Y-14373214D01*
X11050357Y-14673214D02*
X11050357Y-14373214D01*
X11150357Y-14587500D01*
X11250357Y-14373214D01*
X11250357Y-14673214D01*
X11521786Y-14673214D02*
X11521786Y-14516071D01*
X11507500Y-14487500D01*
X11478928Y-14473214D01*
X11421786Y-14473214D01*
X11393214Y-14487500D01*
X11521786Y-14658929D02*
X11493214Y-14673214D01*
X11421786Y-14673214D01*
X11393214Y-14658929D01*
X11378928Y-14630357D01*
X11378928Y-14601786D01*
X11393214Y-14573214D01*
X11421786Y-14558929D01*
X11493214Y-14558929D01*
X11521786Y-14544643D01*
X11664643Y-14473214D02*
X11664643Y-14773214D01*
X11664643Y-14487500D02*
X11693214Y-14473214D01*
X11750357Y-14473214D01*
X11778928Y-14487500D01*
X11793214Y-14501786D01*
X11807500Y-14530357D01*
X11807500Y-14616071D01*
X11793214Y-14644643D01*
X11778928Y-14658929D01*
X11750357Y-14673214D01*
X11693214Y-14673214D01*
X11664643Y-14658929D01*
X11936071Y-14644643D02*
X11950357Y-14658929D01*
X11936071Y-14673214D01*
X11921786Y-14658929D01*
X11936071Y-14644643D01*
X11936071Y-14673214D01*
X11936071Y-14487500D02*
X11950357Y-14501786D01*
X11936071Y-14516071D01*
X11921786Y-14501786D01*
X11936071Y-14487500D01*
X11936071Y-14516071D01*
X9562500Y-15152500D02*
X9592500Y-15182500D01*
X9592500Y-15152500D02*
X9562500Y-15182500D01*
X9936071Y-15003214D02*
X9964643Y-15003214D01*
X9993214Y-15017500D01*
X10007500Y-15031786D01*
X10021786Y-15060357D01*
X10036071Y-15117500D01*
X10036071Y-15188929D01*
X10021786Y-15246071D01*
X10007500Y-15274643D01*
X9993214Y-15288929D01*
X9964643Y-15303214D01*
X9936071Y-15303214D01*
X9907500Y-15288929D01*
X9893214Y-15274643D01*
X9878928Y-15246071D01*
X9864643Y-15188929D01*
X9864643Y-15117500D01*
X9878928Y-15060357D01*
X9893214Y-15031786D01*
X9907500Y-15017500D01*
X9936071Y-15003214D01*
X10164643Y-15274643D02*
X10178928Y-15288929D01*
X10164643Y-15303214D01*
X10150357Y-15288929D01*
X10164643Y-15274643D01*
X10164643Y-15303214D01*
X10278928Y-15003214D02*
X10464643Y-15003214D01*
X10364643Y-15117500D01*
X10407500Y-15117500D01*
X10436071Y-15131786D01*
X10450357Y-15146071D01*
X10464643Y-15174643D01*
X10464643Y-15246071D01*
X10450357Y-15274643D01*
X10436071Y-15288929D01*
X10407500Y-15303214D01*
X10321786Y-15303214D01*
X10293214Y-15288929D01*
X10278928Y-15274643D01*
X10650357Y-15003214D02*
X10678928Y-15003214D01*
X10707500Y-15017500D01*
X10721786Y-15031786D01*
X10736071Y-15060357D01*
X10750357Y-15117500D01*
X10750357Y-15188929D01*
X10736071Y-15246071D01*
X10721786Y-15274643D01*
X10707500Y-15288929D01*
X10678928Y-15303214D01*
X10650357Y-15303214D01*
X10621786Y-15288929D01*
X10607500Y-15274643D01*
X10593214Y-15246071D01*
X10578928Y-15188929D01*
X10578928Y-15117500D01*
X10593214Y-15060357D01*
X10607500Y-15031786D01*
X10621786Y-15017500D01*
X10650357Y-15003214D01*
X10878928Y-15303214D02*
X10878928Y-15103214D01*
X10878928Y-15131786D02*
X10893214Y-15117500D01*
X10921786Y-15103214D01*
X10964643Y-15103214D01*
X10993214Y-15117500D01*
X11007500Y-15146071D01*
X11007500Y-15303214D01*
X11007500Y-15146071D02*
X11021786Y-15117500D01*
X11050357Y-15103214D01*
X11093214Y-15103214D01*
X11121786Y-15117500D01*
X11136071Y-15146071D01*
X11136071Y-15303214D01*
X11278928Y-15303214D02*
X11278928Y-15103214D01*
X11278928Y-15131786D02*
X11293214Y-15117500D01*
X11321786Y-15103214D01*
X11364643Y-15103214D01*
X11393214Y-15117500D01*
X11407500Y-15146071D01*
X11407500Y-15303214D01*
X11407500Y-15146071D02*
X11421786Y-15117500D01*
X11450357Y-15103214D01*
X11493214Y-15103214D01*
X11521786Y-15117500D01*
X11536071Y-15146071D01*
X11536071Y-15303214D01*
X12121786Y-14988929D02*
X11864643Y-15374643D01*
X12507500Y-15003214D02*
X12536071Y-15003214D01*
X12564643Y-15017500D01*
X12578928Y-15031786D01*
X12593214Y-15060357D01*
X12607500Y-15117500D01*
X12607500Y-15188929D01*
X12593214Y-15246071D01*
X12578928Y-15274643D01*
X12564643Y-15288929D01*
X12536071Y-15303214D01*
X12507500Y-15303214D01*
X12478928Y-15288929D01*
X12464643Y-15274643D01*
X12450357Y-15246071D01*
X12436071Y-15188929D01*
X12436071Y-15117500D01*
X12450357Y-15060357D01*
X12464643Y-15031786D01*
X12478928Y-15017500D01*
X12507500Y-15003214D01*
X12736071Y-15274643D02*
X12750357Y-15288929D01*
X12736071Y-15303214D01*
X12721786Y-15288929D01*
X12736071Y-15274643D01*
X12736071Y-15303214D01*
X12936071Y-15003214D02*
X12964643Y-15003214D01*
X12993214Y-15017500D01*
X13007500Y-15031786D01*
X13021786Y-15060357D01*
X13036071Y-15117500D01*
X13036071Y-15188929D01*
X13021786Y-15246071D01*
X13007500Y-15274643D01*
X12993214Y-15288929D01*
X12964643Y-15303214D01*
X12936071Y-15303214D01*
X12907500Y-15288929D01*
X12893214Y-15274643D01*
X12878928Y-15246071D01*
X12864643Y-15188929D01*
X12864643Y-15117500D01*
X12878928Y-15060357D01*
X12893214Y-15031786D01*
X12907500Y-15017500D01*
X12936071Y-15003214D01*
X13321786Y-15303214D02*
X13150357Y-15303214D01*
X13236071Y-15303214D02*
X13236071Y-15003214D01*
X13207500Y-15046071D01*
X13178928Y-15074643D01*
X13150357Y-15088929D01*
X13436071Y-15031786D02*
X13450357Y-15017500D01*
X13478928Y-15003214D01*
X13550357Y-15003214D01*
X13578928Y-15017500D01*
X13593214Y-15031786D01*
X13607500Y-15060357D01*
X13607500Y-15088929D01*
X13593214Y-15131786D01*
X13421786Y-15303214D01*
X13607500Y-15303214D01*
X13721786Y-15003214D02*
X13721786Y-15060357D01*
X13836071Y-15003214D02*
X13836071Y-15060357D01*
X14278928Y-15417500D02*
X14264643Y-15403214D01*
X14236071Y-15360357D01*
X14221786Y-15331786D01*
X14207500Y-15288929D01*
X14193214Y-15217500D01*
X14193214Y-15160357D01*
X14207500Y-15088929D01*
X14221786Y-15046071D01*
X14236071Y-15017500D01*
X14264643Y-14974643D01*
X14278928Y-14960357D01*
X14364643Y-15003214D02*
X14564643Y-15003214D01*
X14436071Y-15303214D01*
X14736071Y-15003214D02*
X14764643Y-15003214D01*
X14793214Y-15017500D01*
X14807500Y-15031786D01*
X14821786Y-15060357D01*
X14836071Y-15117500D01*
X14836071Y-15188929D01*
X14821786Y-15246071D01*
X14807500Y-15274643D01*
X14793214Y-15288929D01*
X14764643Y-15303214D01*
X14736071Y-15303214D01*
X14707500Y-15288929D01*
X14693214Y-15274643D01*
X14678928Y-15246071D01*
X14664643Y-15188929D01*
X14664643Y-15117500D01*
X14678928Y-15060357D01*
X14693214Y-15031786D01*
X14707500Y-15017500D01*
X14736071Y-15003214D01*
X15193214Y-15303214D02*
X15193214Y-15003214D01*
X15321786Y-15303214D02*
X15321786Y-15146071D01*
X15307500Y-15117500D01*
X15278928Y-15103214D01*
X15236071Y-15103214D01*
X15207500Y-15117500D01*
X15193214Y-15131786D01*
X15507500Y-15303214D02*
X15478928Y-15288929D01*
X15464643Y-15274643D01*
X15450357Y-15246071D01*
X15450357Y-15160357D01*
X15464643Y-15131786D01*
X15478928Y-15117500D01*
X15507500Y-15103214D01*
X15550357Y-15103214D01*
X15578928Y-15117500D01*
X15593214Y-15131786D01*
X15607500Y-15160357D01*
X15607500Y-15246071D01*
X15593214Y-15274643D01*
X15578928Y-15288929D01*
X15550357Y-15303214D01*
X15507500Y-15303214D01*
X15778928Y-15303214D02*
X15750357Y-15288929D01*
X15736071Y-15260357D01*
X15736071Y-15003214D01*
X16007500Y-15288929D02*
X15978928Y-15303214D01*
X15921786Y-15303214D01*
X15893214Y-15288929D01*
X15878928Y-15260357D01*
X15878928Y-15146071D01*
X15893214Y-15117500D01*
X15921786Y-15103214D01*
X15978928Y-15103214D01*
X16007500Y-15117500D01*
X16021786Y-15146071D01*
X16021786Y-15174643D01*
X15878928Y-15203214D01*
X16136071Y-15288929D02*
X16164643Y-15303214D01*
X16221786Y-15303214D01*
X16250357Y-15288929D01*
X16264643Y-15260357D01*
X16264643Y-15246071D01*
X16250357Y-15217500D01*
X16221786Y-15203214D01*
X16178928Y-15203214D01*
X16150357Y-15188929D01*
X16136071Y-15160357D01*
X16136071Y-15146071D01*
X16150357Y-15117500D01*
X16178928Y-15103214D01*
X16221786Y-15103214D01*
X16250357Y-15117500D01*
X16364643Y-15417500D02*
X16378928Y-15403214D01*
X16407500Y-15360357D01*
X16421786Y-15331786D01*
X16436071Y-15288929D01*
X16450357Y-15217500D01*
X16450357Y-15160357D01*
X16436071Y-15088929D01*
X16421786Y-15046071D01*
X16407500Y-15017500D01*
X16378928Y-14974643D01*
X16364643Y-14960357D01*
X9592500Y-15563500D02*
G75*
G03X9592500Y-15563500I-50000J0D01*
G01*
X10036071Y-15699214D02*
X9864643Y-15699214D01*
X9950357Y-15699214D02*
X9950357Y-15399214D01*
X9921786Y-15442071D01*
X9893214Y-15470643D01*
X9864643Y-15484929D01*
X10164643Y-15670643D02*
X10178928Y-15684929D01*
X10164643Y-15699214D01*
X10150357Y-15684929D01*
X10164643Y-15670643D01*
X10164643Y-15699214D01*
X10364643Y-15399214D02*
X10393214Y-15399214D01*
X10421786Y-15413500D01*
X10436071Y-15427786D01*
X10450357Y-15456357D01*
X10464643Y-15513500D01*
X10464643Y-15584929D01*
X10450357Y-15642071D01*
X10436071Y-15670643D01*
X10421786Y-15684929D01*
X10393214Y-15699214D01*
X10364643Y-15699214D01*
X10336071Y-15684929D01*
X10321786Y-15670643D01*
X10307500Y-15642071D01*
X10293214Y-15584929D01*
X10293214Y-15513500D01*
X10307500Y-15456357D01*
X10321786Y-15427786D01*
X10336071Y-15413500D01*
X10364643Y-15399214D01*
X10650357Y-15399214D02*
X10678928Y-15399214D01*
X10707500Y-15413500D01*
X10721786Y-15427786D01*
X10736071Y-15456357D01*
X10750357Y-15513500D01*
X10750357Y-15584929D01*
X10736071Y-15642071D01*
X10721786Y-15670643D01*
X10707500Y-15684929D01*
X10678928Y-15699214D01*
X10650357Y-15699214D01*
X10621786Y-15684929D01*
X10607500Y-15670643D01*
X10593214Y-15642071D01*
X10578928Y-15584929D01*
X10578928Y-15513500D01*
X10593214Y-15456357D01*
X10607500Y-15427786D01*
X10621786Y-15413500D01*
X10650357Y-15399214D01*
X10878928Y-15699214D02*
X10878928Y-15499214D01*
X10878928Y-15527786D02*
X10893214Y-15513500D01*
X10921786Y-15499214D01*
X10964643Y-15499214D01*
X10993214Y-15513500D01*
X11007500Y-15542071D01*
X11007500Y-15699214D01*
X11007500Y-15542071D02*
X11021786Y-15513500D01*
X11050357Y-15499214D01*
X11093214Y-15499214D01*
X11121786Y-15513500D01*
X11136071Y-15542071D01*
X11136071Y-15699214D01*
X11278928Y-15699214D02*
X11278928Y-15499214D01*
X11278928Y-15527786D02*
X11293214Y-15513500D01*
X11321786Y-15499214D01*
X11364643Y-15499214D01*
X11393214Y-15513500D01*
X11407500Y-15542071D01*
X11407500Y-15699214D01*
X11407500Y-15542071D02*
X11421786Y-15513500D01*
X11450357Y-15499214D01*
X11493214Y-15499214D01*
X11521786Y-15513500D01*
X11536071Y-15542071D01*
X11536071Y-15699214D01*
X12121786Y-15384929D02*
X11864643Y-15770643D01*
X12507500Y-15399214D02*
X12536071Y-15399214D01*
X12564643Y-15413500D01*
X12578928Y-15427786D01*
X12593214Y-15456357D01*
X12607500Y-15513500D01*
X12607500Y-15584929D01*
X12593214Y-15642071D01*
X12578928Y-15670643D01*
X12564643Y-15684929D01*
X12536071Y-15699214D01*
X12507500Y-15699214D01*
X12478928Y-15684929D01*
X12464643Y-15670643D01*
X12450357Y-15642071D01*
X12436071Y-15584929D01*
X12436071Y-15513500D01*
X12450357Y-15456357D01*
X12464643Y-15427786D01*
X12478928Y-15413500D01*
X12507500Y-15399214D01*
X12736071Y-15670643D02*
X12750357Y-15684929D01*
X12736071Y-15699214D01*
X12721786Y-15684929D01*
X12736071Y-15670643D01*
X12736071Y-15699214D01*
X12936071Y-15399214D02*
X12964643Y-15399214D01*
X12993214Y-15413500D01*
X13007500Y-15427786D01*
X13021786Y-15456357D01*
X13036071Y-15513500D01*
X13036071Y-15584929D01*
X13021786Y-15642071D01*
X13007500Y-15670643D01*
X12993214Y-15684929D01*
X12964643Y-15699214D01*
X12936071Y-15699214D01*
X12907500Y-15684929D01*
X12893214Y-15670643D01*
X12878928Y-15642071D01*
X12864643Y-15584929D01*
X12864643Y-15513500D01*
X12878928Y-15456357D01*
X12893214Y-15427786D01*
X12907500Y-15413500D01*
X12936071Y-15399214D01*
X13136071Y-15399214D02*
X13321786Y-15399214D01*
X13221786Y-15513500D01*
X13264643Y-15513500D01*
X13293214Y-15527786D01*
X13307500Y-15542071D01*
X13321786Y-15570643D01*
X13321786Y-15642071D01*
X13307500Y-15670643D01*
X13293214Y-15684929D01*
X13264643Y-15699214D01*
X13178928Y-15699214D01*
X13150357Y-15684929D01*
X13136071Y-15670643D01*
X13464643Y-15699214D02*
X13521786Y-15699214D01*
X13550357Y-15684929D01*
X13564643Y-15670643D01*
X13593214Y-15627786D01*
X13607500Y-15570643D01*
X13607500Y-15456357D01*
X13593214Y-15427786D01*
X13578928Y-15413500D01*
X13550357Y-15399214D01*
X13493214Y-15399214D01*
X13464643Y-15413500D01*
X13450357Y-15427786D01*
X13436071Y-15456357D01*
X13436071Y-15527786D01*
X13450357Y-15556357D01*
X13464643Y-15570643D01*
X13493214Y-15584929D01*
X13550357Y-15584929D01*
X13578928Y-15570643D01*
X13593214Y-15556357D01*
X13607500Y-15527786D01*
X13721786Y-15399214D02*
X13721786Y-15456357D01*
X13836071Y-15399214D02*
X13836071Y-15456357D01*
X14278928Y-15813500D02*
X14264643Y-15799214D01*
X14236071Y-15756357D01*
X14221786Y-15727786D01*
X14207500Y-15684929D01*
X14193214Y-15613500D01*
X14193214Y-15556357D01*
X14207500Y-15484929D01*
X14221786Y-15442071D01*
X14236071Y-15413500D01*
X14264643Y-15370643D01*
X14278928Y-15356357D01*
X14536071Y-15399214D02*
X14393214Y-15399214D01*
X14378928Y-15542071D01*
X14393214Y-15527786D01*
X14421786Y-15513500D01*
X14493214Y-15513500D01*
X14521786Y-15527786D01*
X14536071Y-15542071D01*
X14550357Y-15570643D01*
X14550357Y-15642071D01*
X14536071Y-15670643D01*
X14521786Y-15684929D01*
X14493214Y-15699214D01*
X14421786Y-15699214D01*
X14393214Y-15684929D01*
X14378928Y-15670643D01*
X14807500Y-15399214D02*
X14750357Y-15399214D01*
X14721786Y-15413500D01*
X14707500Y-15427786D01*
X14678928Y-15470643D01*
X14664643Y-15527786D01*
X14664643Y-15642071D01*
X14678928Y-15670643D01*
X14693214Y-15684929D01*
X14721786Y-15699214D01*
X14778928Y-15699214D01*
X14807500Y-15684929D01*
X14821786Y-15670643D01*
X14836071Y-15642071D01*
X14836071Y-15570643D01*
X14821786Y-15542071D01*
X14807500Y-15527786D01*
X14778928Y-15513500D01*
X14721786Y-15513500D01*
X14693214Y-15527786D01*
X14678928Y-15542071D01*
X14664643Y-15570643D01*
X15193214Y-15699214D02*
X15193214Y-15399214D01*
X15321786Y-15699214D02*
X15321786Y-15542071D01*
X15307500Y-15513500D01*
X15278928Y-15499214D01*
X15236071Y-15499214D01*
X15207500Y-15513500D01*
X15193214Y-15527786D01*
X15507500Y-15699214D02*
X15478928Y-15684929D01*
X15464643Y-15670643D01*
X15450357Y-15642071D01*
X15450357Y-15556357D01*
X15464643Y-15527786D01*
X15478928Y-15513500D01*
X15507500Y-15499214D01*
X15550357Y-15499214D01*
X15578928Y-15513500D01*
X15593214Y-15527786D01*
X15607500Y-15556357D01*
X15607500Y-15642071D01*
X15593214Y-15670643D01*
X15578928Y-15684929D01*
X15550357Y-15699214D01*
X15507500Y-15699214D01*
X15778928Y-15699214D02*
X15750357Y-15684929D01*
X15736071Y-15656357D01*
X15736071Y-15399214D01*
X16007500Y-15684929D02*
X15978928Y-15699214D01*
X15921786Y-15699214D01*
X15893214Y-15684929D01*
X15878928Y-15656357D01*
X15878928Y-15542071D01*
X15893214Y-15513500D01*
X15921786Y-15499214D01*
X15978928Y-15499214D01*
X16007500Y-15513500D01*
X16021786Y-15542071D01*
X16021786Y-15570643D01*
X15878928Y-15599214D01*
X16136071Y-15684929D02*
X16164643Y-15699214D01*
X16221786Y-15699214D01*
X16250357Y-15684929D01*
X16264643Y-15656357D01*
X16264643Y-15642071D01*
X16250357Y-15613500D01*
X16221786Y-15599214D01*
X16178928Y-15599214D01*
X16150357Y-15584929D01*
X16136071Y-15556357D01*
X16136071Y-15542071D01*
X16150357Y-15513500D01*
X16178928Y-15499214D01*
X16221786Y-15499214D01*
X16250357Y-15513500D01*
X16364643Y-15813500D02*
X16378928Y-15799214D01*
X16407500Y-15756357D01*
X16421786Y-15727786D01*
X16436071Y-15684929D01*
X16450357Y-15613500D01*
X16450357Y-15556357D01*
X16436071Y-15484929D01*
X16421786Y-15442071D01*
X16407500Y-15413500D01*
X16378928Y-15370643D01*
X16364643Y-15356357D01*
M02*
