G04 #@! TF.GenerationSoftware,KiCad,Pcbnew,(5.0.0-3-g5ebb6b6)*
G04 #@! TF.CreationDate,2019-02-03T17:20:29+01:00*
G04 #@! TF.ProjectId,HolyIoT-NRF52840-Breakout,486F6C79496F542D4E52463532383430,1.0*
G04 #@! TF.SameCoordinates,Original*
G04 #@! TF.FileFunction,Legend,Bot*
G04 #@! TF.FilePolarity,Positive*
%FSLAX46Y46*%
G04 Gerber Fmt 4.6, Leading zero omitted, Abs format (unit mm)*
G04 Created by KiCad (PCBNEW (5.0.0-3-g5ebb6b6)) date 2019 February 03, Sunday 17:20:29*
%MOMM*%
%LPD*%
G01*
G04 APERTURE LIST*
%ADD10C,0.150000*%
G04 APERTURE END LIST*
D10*
X128214285Y-139285714D02*
X128023809Y-139952380D01*
X127833333Y-139476190D01*
X127642857Y-139952380D01*
X127452380Y-139285714D01*
X127166666Y-139285714D02*
X126976190Y-139952380D01*
X126785714Y-139476190D01*
X126595238Y-139952380D01*
X126404761Y-139285714D01*
X126119047Y-139285714D02*
X125928571Y-139952380D01*
X125738095Y-139476190D01*
X125547619Y-139952380D01*
X125357142Y-139285714D01*
X124976190Y-139857142D02*
X124928571Y-139904761D01*
X124976190Y-139952380D01*
X125023809Y-139904761D01*
X124976190Y-139857142D01*
X124976190Y-139952380D01*
X124071428Y-139952380D02*
X124071428Y-139428571D01*
X124119047Y-139333333D01*
X124214285Y-139285714D01*
X124404761Y-139285714D01*
X124500000Y-139333333D01*
X124071428Y-139904761D02*
X124166666Y-139952380D01*
X124404761Y-139952380D01*
X124500000Y-139904761D01*
X124547619Y-139809523D01*
X124547619Y-139714285D01*
X124500000Y-139619047D01*
X124404761Y-139571428D01*
X124166666Y-139571428D01*
X124071428Y-139523809D01*
X123595238Y-139285714D02*
X123595238Y-139952380D01*
X123595238Y-139380952D02*
X123547619Y-139333333D01*
X123452380Y-139285714D01*
X123309523Y-139285714D01*
X123214285Y-139333333D01*
X123166666Y-139428571D01*
X123166666Y-139952380D01*
X122261904Y-139952380D02*
X122261904Y-138952380D01*
X122261904Y-139904761D02*
X122357142Y-139952380D01*
X122547619Y-139952380D01*
X122642857Y-139904761D01*
X122690476Y-139857142D01*
X122738095Y-139761904D01*
X122738095Y-139476190D01*
X122690476Y-139380952D01*
X122642857Y-139333333D01*
X122547619Y-139285714D01*
X122357142Y-139285714D01*
X122261904Y-139333333D01*
X121404761Y-139904761D02*
X121500000Y-139952380D01*
X121690476Y-139952380D01*
X121785714Y-139904761D01*
X121833333Y-139809523D01*
X121833333Y-139428571D01*
X121785714Y-139333333D01*
X121690476Y-139285714D01*
X121500000Y-139285714D01*
X121404761Y-139333333D01*
X121357142Y-139428571D01*
X121357142Y-139523809D01*
X121833333Y-139619047D01*
X120928571Y-139952380D02*
X120928571Y-139285714D01*
X120928571Y-139476190D02*
X120880952Y-139380952D01*
X120833333Y-139333333D01*
X120738095Y-139285714D01*
X120642857Y-139285714D01*
X120357142Y-139904761D02*
X120261904Y-139952380D01*
X120071428Y-139952380D01*
X119976190Y-139904761D01*
X119928571Y-139809523D01*
X119928571Y-139761904D01*
X119976190Y-139666666D01*
X120071428Y-139619047D01*
X120214285Y-139619047D01*
X120309523Y-139571428D01*
X120357142Y-139476190D01*
X120357142Y-139428571D01*
X120309523Y-139333333D01*
X120214285Y-139285714D01*
X120071428Y-139285714D01*
X119976190Y-139333333D01*
X119357142Y-139952380D02*
X119452380Y-139904761D01*
X119500000Y-139857142D01*
X119547619Y-139761904D01*
X119547619Y-139476190D01*
X119500000Y-139380952D01*
X119452380Y-139333333D01*
X119357142Y-139285714D01*
X119214285Y-139285714D01*
X119119047Y-139333333D01*
X119071428Y-139380952D01*
X119023809Y-139476190D01*
X119023809Y-139761904D01*
X119071428Y-139857142D01*
X119119047Y-139904761D01*
X119214285Y-139952380D01*
X119357142Y-139952380D01*
X118595238Y-139285714D02*
X118595238Y-139952380D01*
X118595238Y-139380952D02*
X118547619Y-139333333D01*
X118452380Y-139285714D01*
X118309523Y-139285714D01*
X118214285Y-139333333D01*
X118166666Y-139428571D01*
X118166666Y-139952380D01*
X117261904Y-138952380D02*
X117452380Y-138952380D01*
X117547619Y-139000000D01*
X117595238Y-139047619D01*
X117690476Y-139190476D01*
X117738095Y-139380952D01*
X117738095Y-139761904D01*
X117690476Y-139857142D01*
X117642857Y-139904761D01*
X117547619Y-139952380D01*
X117357142Y-139952380D01*
X117261904Y-139904761D01*
X117214285Y-139857142D01*
X117166666Y-139761904D01*
X117166666Y-139523809D01*
X117214285Y-139428571D01*
X117261904Y-139380952D01*
X117357142Y-139333333D01*
X117547619Y-139333333D01*
X117642857Y-139380952D01*
X117690476Y-139428571D01*
X117738095Y-139523809D01*
X116690476Y-139952380D02*
X116500000Y-139952380D01*
X116404761Y-139904761D01*
X116357142Y-139857142D01*
X116261904Y-139714285D01*
X116214285Y-139523809D01*
X116214285Y-139142857D01*
X116261904Y-139047619D01*
X116309523Y-139000000D01*
X116404761Y-138952380D01*
X116595238Y-138952380D01*
X116690476Y-139000000D01*
X116738095Y-139047619D01*
X116785714Y-139142857D01*
X116785714Y-139380952D01*
X116738095Y-139476190D01*
X116690476Y-139523809D01*
X116595238Y-139571428D01*
X116404761Y-139571428D01*
X116309523Y-139523809D01*
X116261904Y-139476190D01*
X116214285Y-139380952D01*
X115833333Y-139904761D02*
X115738095Y-139952380D01*
X115547619Y-139952380D01*
X115452380Y-139904761D01*
X115404761Y-139809523D01*
X115404761Y-139761904D01*
X115452380Y-139666666D01*
X115547619Y-139619047D01*
X115690476Y-139619047D01*
X115785714Y-139571428D01*
X115833333Y-139476190D01*
X115833333Y-139428571D01*
X115785714Y-139333333D01*
X115690476Y-139285714D01*
X115547619Y-139285714D01*
X115452380Y-139333333D01*
X114976190Y-139857142D02*
X114928571Y-139904761D01*
X114976190Y-139952380D01*
X115023809Y-139904761D01*
X114976190Y-139857142D01*
X114976190Y-139952380D01*
X114071428Y-139904761D02*
X114166666Y-139952380D01*
X114357142Y-139952380D01*
X114452380Y-139904761D01*
X114500000Y-139857142D01*
X114547619Y-139761904D01*
X114547619Y-139476190D01*
X114500000Y-139380952D01*
X114452380Y-139333333D01*
X114357142Y-139285714D01*
X114166666Y-139285714D01*
X114071428Y-139333333D01*
X113500000Y-139952380D02*
X113595238Y-139904761D01*
X113642857Y-139857142D01*
X113690476Y-139761904D01*
X113690476Y-139476190D01*
X113642857Y-139380952D01*
X113595238Y-139333333D01*
X113500000Y-139285714D01*
X113357142Y-139285714D01*
X113261904Y-139333333D01*
X113214285Y-139380952D01*
X113166666Y-139476190D01*
X113166666Y-139761904D01*
X113214285Y-139857142D01*
X113261904Y-139904761D01*
X113357142Y-139952380D01*
X113500000Y-139952380D01*
X112738095Y-139952380D02*
X112738095Y-139285714D01*
X112738095Y-139380952D02*
X112690476Y-139333333D01*
X112595238Y-139285714D01*
X112452380Y-139285714D01*
X112357142Y-139333333D01*
X112309523Y-139428571D01*
X112309523Y-139952380D01*
X112309523Y-139428571D02*
X112261904Y-139333333D01*
X112166666Y-139285714D01*
X112023809Y-139285714D01*
X111928571Y-139333333D01*
X111880952Y-139428571D01*
X111880952Y-139952380D01*
X131357142Y-103707142D02*
X131057142Y-104607142D01*
X130757142Y-103707142D01*
X130457142Y-104607142D02*
X130457142Y-103707142D01*
X130242857Y-103707142D01*
X130114285Y-103750000D01*
X130028571Y-103835714D01*
X129985714Y-103921428D01*
X129942857Y-104092857D01*
X129942857Y-104221428D01*
X129985714Y-104392857D01*
X130028571Y-104478571D01*
X130114285Y-104564285D01*
X130242857Y-104607142D01*
X130457142Y-104607142D01*
X129557142Y-104607142D02*
X129557142Y-103707142D01*
X129342857Y-103707142D01*
X129214285Y-103750000D01*
X129128571Y-103835714D01*
X129085714Y-103921428D01*
X129042857Y-104092857D01*
X129042857Y-104221428D01*
X129085714Y-104392857D01*
X129128571Y-104478571D01*
X129214285Y-104564285D01*
X129342857Y-104607142D01*
X129557142Y-104607142D01*
X127714285Y-104950000D02*
X127757142Y-104907142D01*
X127842857Y-104778571D01*
X127885714Y-104692857D01*
X127928571Y-104564285D01*
X127971428Y-104350000D01*
X127971428Y-104178571D01*
X127928571Y-103964285D01*
X127885714Y-103835714D01*
X127842857Y-103750000D01*
X127757142Y-103621428D01*
X127714285Y-103578571D01*
X127457142Y-103707142D02*
X126900000Y-103707142D01*
X127200000Y-104050000D01*
X127071428Y-104050000D01*
X126985714Y-104092857D01*
X126942857Y-104135714D01*
X126900000Y-104221428D01*
X126900000Y-104435714D01*
X126942857Y-104521428D01*
X126985714Y-104564285D01*
X127071428Y-104607142D01*
X127328571Y-104607142D01*
X127414285Y-104564285D01*
X127457142Y-104521428D01*
X126642857Y-103707142D02*
X126342857Y-104607142D01*
X126042857Y-103707142D01*
X125828571Y-104950000D02*
X125785714Y-104907142D01*
X125700000Y-104778571D01*
X125657142Y-104692857D01*
X125614285Y-104564285D01*
X125571428Y-104350000D01*
X125571428Y-104178571D01*
X125614285Y-103964285D01*
X125657142Y-103835714D01*
X125700000Y-103750000D01*
X125785714Y-103621428D01*
X125828571Y-103578571D01*
X131557142Y-106307142D02*
X131257142Y-107207142D01*
X130957142Y-106307142D01*
X130657142Y-107207142D02*
X130657142Y-106307142D01*
X130442857Y-106307142D01*
X130314285Y-106350000D01*
X130228571Y-106435714D01*
X130185714Y-106521428D01*
X130142857Y-106692857D01*
X130142857Y-106821428D01*
X130185714Y-106992857D01*
X130228571Y-107078571D01*
X130314285Y-107164285D01*
X130442857Y-107207142D01*
X130657142Y-107207142D01*
X129757142Y-107207142D02*
X129757142Y-106307142D01*
X129542857Y-106307142D01*
X129414285Y-106350000D01*
X129328571Y-106435714D01*
X129285714Y-106521428D01*
X129242857Y-106692857D01*
X129242857Y-106821428D01*
X129285714Y-106992857D01*
X129328571Y-107078571D01*
X129414285Y-107164285D01*
X129542857Y-107207142D01*
X129757142Y-107207142D01*
X127914285Y-107550000D02*
X127957142Y-107507142D01*
X128042857Y-107378571D01*
X128085714Y-107292857D01*
X128128571Y-107164285D01*
X128171428Y-106950000D01*
X128171428Y-106778571D01*
X128128571Y-106564285D01*
X128085714Y-106435714D01*
X128042857Y-106350000D01*
X127957142Y-106221428D01*
X127914285Y-106178571D01*
X127657142Y-106307142D02*
X127100000Y-106307142D01*
X127400000Y-106650000D01*
X127271428Y-106650000D01*
X127185714Y-106692857D01*
X127142857Y-106735714D01*
X127100000Y-106821428D01*
X127100000Y-107035714D01*
X127142857Y-107121428D01*
X127185714Y-107164285D01*
X127271428Y-107207142D01*
X127528571Y-107207142D01*
X127614285Y-107164285D01*
X127657142Y-107121428D01*
X126842857Y-106307142D02*
X126542857Y-107207142D01*
X126242857Y-106307142D01*
X126028571Y-107550000D02*
X125985714Y-107507142D01*
X125900000Y-107378571D01*
X125857142Y-107292857D01*
X125814285Y-107164285D01*
X125771428Y-106950000D01*
X125771428Y-106778571D01*
X125814285Y-106564285D01*
X125857142Y-106435714D01*
X125900000Y-106350000D01*
X125985714Y-106221428D01*
X126028571Y-106178571D01*
X127561904Y-108700000D02*
X127657142Y-108652380D01*
X127800000Y-108652380D01*
X127942857Y-108700000D01*
X128038095Y-108795238D01*
X128085714Y-108890476D01*
X128133333Y-109080952D01*
X128133333Y-109223809D01*
X128085714Y-109414285D01*
X128038095Y-109509523D01*
X127942857Y-109604761D01*
X127800000Y-109652380D01*
X127704761Y-109652380D01*
X127561904Y-109604761D01*
X127514285Y-109557142D01*
X127514285Y-109223809D01*
X127704761Y-109223809D01*
X127085714Y-109652380D02*
X127085714Y-108652380D01*
X126514285Y-109652380D01*
X126514285Y-108652380D01*
X126038095Y-109652380D02*
X126038095Y-108652380D01*
X125800000Y-108652380D01*
X125657142Y-108700000D01*
X125561904Y-108795238D01*
X125514285Y-108890476D01*
X125466666Y-109080952D01*
X125466666Y-109223809D01*
X125514285Y-109414285D01*
X125561904Y-109509523D01*
X125657142Y-109604761D01*
X125800000Y-109652380D01*
X126038095Y-109652380D01*
X130961904Y-115004761D02*
X130819047Y-115052380D01*
X130580952Y-115052380D01*
X130485714Y-115004761D01*
X130438095Y-114957142D01*
X130390476Y-114861904D01*
X130390476Y-114766666D01*
X130438095Y-114671428D01*
X130485714Y-114623809D01*
X130580952Y-114576190D01*
X130771428Y-114528571D01*
X130866666Y-114480952D01*
X130914285Y-114433333D01*
X130961904Y-114338095D01*
X130961904Y-114242857D01*
X130914285Y-114147619D01*
X130866666Y-114100000D01*
X130771428Y-114052380D01*
X130533333Y-114052380D01*
X130390476Y-114100000D01*
X130057142Y-114052380D02*
X129819047Y-115052380D01*
X129628571Y-114338095D01*
X129438095Y-115052380D01*
X129200000Y-114052380D01*
X128819047Y-115052380D02*
X128819047Y-114052380D01*
X128580952Y-114052380D01*
X128438095Y-114100000D01*
X128342857Y-114195238D01*
X128295238Y-114290476D01*
X128247619Y-114480952D01*
X128247619Y-114623809D01*
X128295238Y-114814285D01*
X128342857Y-114909523D01*
X128438095Y-115004761D01*
X128580952Y-115052380D01*
X128819047Y-115052380D01*
X127247619Y-114957142D02*
X127295238Y-115004761D01*
X127438095Y-115052380D01*
X127533333Y-115052380D01*
X127676190Y-115004761D01*
X127771428Y-114909523D01*
X127819047Y-114814285D01*
X127866666Y-114623809D01*
X127866666Y-114480952D01*
X127819047Y-114290476D01*
X127771428Y-114195238D01*
X127676190Y-114100000D01*
X127533333Y-114052380D01*
X127438095Y-114052380D01*
X127295238Y-114100000D01*
X127247619Y-114147619D01*
X126342857Y-115052380D02*
X126819047Y-115052380D01*
X126819047Y-114052380D01*
X126009523Y-115052380D02*
X126009523Y-114052380D01*
X125438095Y-115052380D02*
X125866666Y-114480952D01*
X125438095Y-114052380D02*
X126009523Y-114623809D01*
X129719047Y-117204761D02*
X129576190Y-117252380D01*
X129338095Y-117252380D01*
X129242857Y-117204761D01*
X129195238Y-117157142D01*
X129147619Y-117061904D01*
X129147619Y-116966666D01*
X129195238Y-116871428D01*
X129242857Y-116823809D01*
X129338095Y-116776190D01*
X129528571Y-116728571D01*
X129623809Y-116680952D01*
X129671428Y-116633333D01*
X129719047Y-116538095D01*
X129719047Y-116442857D01*
X129671428Y-116347619D01*
X129623809Y-116300000D01*
X129528571Y-116252380D01*
X129290476Y-116252380D01*
X129147619Y-116300000D01*
X128814285Y-116252380D02*
X128576190Y-117252380D01*
X128385714Y-116538095D01*
X128195238Y-117252380D01*
X127957142Y-116252380D01*
X127576190Y-117252380D02*
X127576190Y-116252380D01*
X127338095Y-116252380D01*
X127195238Y-116300000D01*
X127100000Y-116395238D01*
X127052380Y-116490476D01*
X127004761Y-116680952D01*
X127004761Y-116823809D01*
X127052380Y-117014285D01*
X127100000Y-117109523D01*
X127195238Y-117204761D01*
X127338095Y-117252380D01*
X127576190Y-117252380D01*
X126576190Y-117252380D02*
X126576190Y-116252380D01*
X125909523Y-116252380D02*
X125719047Y-116252380D01*
X125623809Y-116300000D01*
X125528571Y-116395238D01*
X125480952Y-116585714D01*
X125480952Y-116919047D01*
X125528571Y-117109523D01*
X125623809Y-117204761D01*
X125719047Y-117252380D01*
X125909523Y-117252380D01*
X126004761Y-117204761D01*
X126100000Y-117109523D01*
X126147619Y-116919047D01*
X126147619Y-116585714D01*
X126100000Y-116395238D01*
X126004761Y-116300000D01*
X125909523Y-116252380D01*
X127561904Y-111300000D02*
X127657142Y-111252380D01*
X127800000Y-111252380D01*
X127942857Y-111300000D01*
X128038095Y-111395238D01*
X128085714Y-111490476D01*
X128133333Y-111680952D01*
X128133333Y-111823809D01*
X128085714Y-112014285D01*
X128038095Y-112109523D01*
X127942857Y-112204761D01*
X127800000Y-112252380D01*
X127704761Y-112252380D01*
X127561904Y-112204761D01*
X127514285Y-112157142D01*
X127514285Y-111823809D01*
X127704761Y-111823809D01*
X127085714Y-112252380D02*
X127085714Y-111252380D01*
X126514285Y-112252380D01*
X126514285Y-111252380D01*
X126038095Y-112252380D02*
X126038095Y-111252380D01*
X125800000Y-111252380D01*
X125657142Y-111300000D01*
X125561904Y-111395238D01*
X125514285Y-111490476D01*
X125466666Y-111680952D01*
X125466666Y-111823809D01*
X125514285Y-112014285D01*
X125561904Y-112109523D01*
X125657142Y-112204761D01*
X125800000Y-112252380D01*
X126038095Y-112252380D01*
X113880952Y-135052380D02*
X113880952Y-134052380D01*
X113642857Y-134052380D01*
X113500000Y-134100000D01*
X113404761Y-134195238D01*
X113357142Y-134290476D01*
X113309523Y-134480952D01*
X113309523Y-134623809D01*
X113357142Y-134814285D01*
X113404761Y-134909523D01*
X113500000Y-135004761D01*
X113642857Y-135052380D01*
X113880952Y-135052380D01*
X112880952Y-134671428D02*
X112119047Y-134671428D01*
X113680952Y-132252380D02*
X113680952Y-131252380D01*
X113442857Y-131252380D01*
X113300000Y-131300000D01*
X113204761Y-131395238D01*
X113157142Y-131490476D01*
X113109523Y-131680952D01*
X113109523Y-131823809D01*
X113157142Y-132014285D01*
X113204761Y-132109523D01*
X113300000Y-132204761D01*
X113442857Y-132252380D01*
X113680952Y-132252380D01*
X112680952Y-131871428D02*
X111919047Y-131871428D01*
X112300000Y-132252380D02*
X112300000Y-131490476D01*
X119385714Y-128852380D02*
X119052380Y-129852380D01*
X118719047Y-128852380D01*
X118052380Y-129328571D02*
X117909523Y-129376190D01*
X117861904Y-129423809D01*
X117814285Y-129519047D01*
X117814285Y-129661904D01*
X117861904Y-129757142D01*
X117909523Y-129804761D01*
X118004761Y-129852380D01*
X118385714Y-129852380D01*
X118385714Y-128852380D01*
X118052380Y-128852380D01*
X117957142Y-128900000D01*
X117909523Y-128947619D01*
X117861904Y-129042857D01*
X117861904Y-129138095D01*
X117909523Y-129233333D01*
X117957142Y-129280952D01*
X118052380Y-129328571D01*
X118385714Y-129328571D01*
X117385714Y-128852380D02*
X117385714Y-129661904D01*
X117338095Y-129757142D01*
X117290476Y-129804761D01*
X117195238Y-129852380D01*
X117004761Y-129852380D01*
X116909523Y-129804761D01*
X116861904Y-129757142D01*
X116814285Y-129661904D01*
X116814285Y-128852380D01*
X116385714Y-129804761D02*
X116242857Y-129852380D01*
X116004761Y-129852380D01*
X115909523Y-129804761D01*
X115861904Y-129757142D01*
X115814285Y-129661904D01*
X115814285Y-129566666D01*
X115861904Y-129471428D01*
X115909523Y-129423809D01*
X116004761Y-129376190D01*
X116195238Y-129328571D01*
X116290476Y-129280952D01*
X116338095Y-129233333D01*
X116385714Y-129138095D01*
X116385714Y-129042857D01*
X116338095Y-128947619D01*
X116290476Y-128900000D01*
X116195238Y-128852380D01*
X115957142Y-128852380D01*
X115814285Y-128900000D01*
X114338095Y-130233333D02*
X114385714Y-130185714D01*
X114480952Y-130042857D01*
X114528571Y-129947619D01*
X114576190Y-129804761D01*
X114623809Y-129566666D01*
X114623809Y-129376190D01*
X114576190Y-129138095D01*
X114528571Y-128995238D01*
X114480952Y-128900000D01*
X114385714Y-128757142D01*
X114338095Y-128709523D01*
X113480952Y-128852380D02*
X113957142Y-128852380D01*
X114004761Y-129328571D01*
X113957142Y-129280952D01*
X113861904Y-129233333D01*
X113623809Y-129233333D01*
X113528571Y-129280952D01*
X113480952Y-129328571D01*
X113433333Y-129423809D01*
X113433333Y-129661904D01*
X113480952Y-129757142D01*
X113528571Y-129804761D01*
X113623809Y-129852380D01*
X113861904Y-129852380D01*
X113957142Y-129804761D01*
X114004761Y-129757142D01*
X113147619Y-128852380D02*
X112814285Y-129852380D01*
X112480952Y-128852380D01*
X112242857Y-130233333D02*
X112195238Y-130185714D01*
X112100000Y-130042857D01*
X112052380Y-129947619D01*
X112004761Y-129804761D01*
X111957142Y-129566666D01*
X111957142Y-129376190D01*
X112004761Y-129138095D01*
X112052380Y-128995238D01*
X112100000Y-128900000D01*
X112195238Y-128757142D01*
X112242857Y-128709523D01*
X125138095Y-101252380D02*
X125138095Y-100252380D01*
X125138095Y-100728571D02*
X124566666Y-100728571D01*
X124566666Y-101252380D02*
X124566666Y-100252380D01*
X123947619Y-101252380D02*
X124042857Y-101204761D01*
X124090476Y-101157142D01*
X124138095Y-101061904D01*
X124138095Y-100776190D01*
X124090476Y-100680952D01*
X124042857Y-100633333D01*
X123947619Y-100585714D01*
X123804761Y-100585714D01*
X123709523Y-100633333D01*
X123661904Y-100680952D01*
X123614285Y-100776190D01*
X123614285Y-101061904D01*
X123661904Y-101157142D01*
X123709523Y-101204761D01*
X123804761Y-101252380D01*
X123947619Y-101252380D01*
X123042857Y-101252380D02*
X123138095Y-101204761D01*
X123185714Y-101109523D01*
X123185714Y-100252380D01*
X122757142Y-100585714D02*
X122519047Y-101252380D01*
X122280952Y-100585714D02*
X122519047Y-101252380D01*
X122614285Y-101490476D01*
X122661904Y-101538095D01*
X122757142Y-101585714D01*
X121900000Y-101252380D02*
X121900000Y-100252380D01*
X121233333Y-100252380D02*
X121042857Y-100252380D01*
X120947619Y-100300000D01*
X120852380Y-100395238D01*
X120804761Y-100585714D01*
X120804761Y-100919047D01*
X120852380Y-101109523D01*
X120947619Y-101204761D01*
X121042857Y-101252380D01*
X121233333Y-101252380D01*
X121328571Y-101204761D01*
X121423809Y-101109523D01*
X121471428Y-100919047D01*
X121471428Y-100585714D01*
X121423809Y-100395238D01*
X121328571Y-100300000D01*
X121233333Y-100252380D01*
X120519047Y-100252380D02*
X119947619Y-100252380D01*
X120233333Y-101252380D02*
X120233333Y-100252380D01*
X119852380Y-101347619D02*
X119090476Y-101347619D01*
X118852380Y-101252380D02*
X118852380Y-100252380D01*
X118280952Y-101252380D01*
X118280952Y-100252380D01*
X117233333Y-101252380D02*
X117566666Y-100776190D01*
X117804761Y-101252380D02*
X117804761Y-100252380D01*
X117423809Y-100252380D01*
X117328571Y-100300000D01*
X117280952Y-100347619D01*
X117233333Y-100442857D01*
X117233333Y-100585714D01*
X117280952Y-100680952D01*
X117328571Y-100728571D01*
X117423809Y-100776190D01*
X117804761Y-100776190D01*
X116471428Y-100728571D02*
X116804761Y-100728571D01*
X116804761Y-101252380D02*
X116804761Y-100252380D01*
X116328571Y-100252380D01*
X115471428Y-100252380D02*
X115947619Y-100252380D01*
X115995238Y-100728571D01*
X115947619Y-100680952D01*
X115852380Y-100633333D01*
X115614285Y-100633333D01*
X115519047Y-100680952D01*
X115471428Y-100728571D01*
X115423809Y-100823809D01*
X115423809Y-101061904D01*
X115471428Y-101157142D01*
X115519047Y-101204761D01*
X115614285Y-101252380D01*
X115852380Y-101252380D01*
X115947619Y-101204761D01*
X115995238Y-101157142D01*
X115042857Y-100347619D02*
X114995238Y-100300000D01*
X114900000Y-100252380D01*
X114661904Y-100252380D01*
X114566666Y-100300000D01*
X114519047Y-100347619D01*
X114471428Y-100442857D01*
X114471428Y-100538095D01*
X114519047Y-100680952D01*
X115090476Y-101252380D01*
X114471428Y-101252380D01*
X113900000Y-100680952D02*
X113995238Y-100633333D01*
X114042857Y-100585714D01*
X114090476Y-100490476D01*
X114090476Y-100442857D01*
X114042857Y-100347619D01*
X113995238Y-100300000D01*
X113900000Y-100252380D01*
X113709523Y-100252380D01*
X113614285Y-100300000D01*
X113566666Y-100347619D01*
X113519047Y-100442857D01*
X113519047Y-100490476D01*
X113566666Y-100585714D01*
X113614285Y-100633333D01*
X113709523Y-100680952D01*
X113900000Y-100680952D01*
X113995238Y-100728571D01*
X114042857Y-100776190D01*
X114090476Y-100871428D01*
X114090476Y-101061904D01*
X114042857Y-101157142D01*
X113995238Y-101204761D01*
X113900000Y-101252380D01*
X113709523Y-101252380D01*
X113614285Y-101204761D01*
X113566666Y-101157142D01*
X113519047Y-101061904D01*
X113519047Y-100871428D01*
X113566666Y-100776190D01*
X113614285Y-100728571D01*
X113709523Y-100680952D01*
X112661904Y-100585714D02*
X112661904Y-101252380D01*
X112900000Y-100204761D02*
X113138095Y-100919047D01*
X112519047Y-100919047D01*
X111947619Y-100252380D02*
X111852380Y-100252380D01*
X111757142Y-100300000D01*
X111709523Y-100347619D01*
X111661904Y-100442857D01*
X111614285Y-100633333D01*
X111614285Y-100871428D01*
X111661904Y-101061904D01*
X111709523Y-101157142D01*
X111757142Y-101204761D01*
X111852380Y-101252380D01*
X111947619Y-101252380D01*
X112042857Y-101204761D01*
X112090476Y-101157142D01*
X112138095Y-101061904D01*
X112185714Y-100871428D01*
X112185714Y-100633333D01*
X112138095Y-100442857D01*
X112090476Y-100347619D01*
X112042857Y-100300000D01*
X111947619Y-100252380D01*
X119923809Y-102452380D02*
X119590476Y-103452380D01*
X119257142Y-102452380D01*
X118400000Y-103452380D02*
X118971428Y-103452380D01*
X118685714Y-103452380D02*
X118685714Y-102452380D01*
X118780952Y-102595238D01*
X118876190Y-102690476D01*
X118971428Y-102738095D01*
X117971428Y-103357142D02*
X117923809Y-103404761D01*
X117971428Y-103452380D01*
X118019047Y-103404761D01*
X117971428Y-103357142D01*
X117971428Y-103452380D01*
X116971428Y-103452380D02*
X117542857Y-103452380D01*
X117257142Y-103452380D02*
X117257142Y-102452380D01*
X117352380Y-102595238D01*
X117447619Y-102690476D01*
X117542857Y-102738095D01*
X104128571Y-135252380D02*
X104128571Y-134252380D01*
X103747619Y-134252380D01*
X103652380Y-134300000D01*
X103604761Y-134347619D01*
X103557142Y-134442857D01*
X103557142Y-134585714D01*
X103604761Y-134680952D01*
X103652380Y-134728571D01*
X103747619Y-134776190D01*
X104128571Y-134776190D01*
X102938095Y-134252380D02*
X102842857Y-134252380D01*
X102747619Y-134300000D01*
X102700000Y-134347619D01*
X102652380Y-134442857D01*
X102604761Y-134633333D01*
X102604761Y-134871428D01*
X102652380Y-135061904D01*
X102700000Y-135157142D01*
X102747619Y-135204761D01*
X102842857Y-135252380D01*
X102938095Y-135252380D01*
X103033333Y-135204761D01*
X103080952Y-135157142D01*
X103128571Y-135061904D01*
X103176190Y-134871428D01*
X103176190Y-134633333D01*
X103128571Y-134442857D01*
X103080952Y-134347619D01*
X103033333Y-134300000D01*
X102938095Y-134252380D01*
X102176190Y-135157142D02*
X102128571Y-135204761D01*
X102176190Y-135252380D01*
X102223809Y-135204761D01*
X102176190Y-135157142D01*
X102176190Y-135252380D01*
X101509523Y-134252380D02*
X101414285Y-134252380D01*
X101319047Y-134300000D01*
X101271428Y-134347619D01*
X101223809Y-134442857D01*
X101176190Y-134633333D01*
X101176190Y-134871428D01*
X101223809Y-135061904D01*
X101271428Y-135157142D01*
X101319047Y-135204761D01*
X101414285Y-135252380D01*
X101509523Y-135252380D01*
X101604761Y-135204761D01*
X101652380Y-135157142D01*
X101700000Y-135061904D01*
X101747619Y-134871428D01*
X101747619Y-134633333D01*
X101700000Y-134442857D01*
X101652380Y-134347619D01*
X101604761Y-134300000D01*
X101509523Y-134252380D01*
X100319047Y-134252380D02*
X100509523Y-134252380D01*
X100604761Y-134300000D01*
X100652380Y-134347619D01*
X100747619Y-134490476D01*
X100795238Y-134680952D01*
X100795238Y-135061904D01*
X100747619Y-135157142D01*
X100700000Y-135204761D01*
X100604761Y-135252380D01*
X100414285Y-135252380D01*
X100319047Y-135204761D01*
X100271428Y-135157142D01*
X100223809Y-135061904D01*
X100223809Y-134823809D01*
X100271428Y-134728571D01*
X100319047Y-134680952D01*
X100414285Y-134633333D01*
X100604761Y-134633333D01*
X100700000Y-134680952D01*
X100747619Y-134728571D01*
X100795238Y-134823809D01*
X104128571Y-137852380D02*
X104128571Y-136852380D01*
X103747619Y-136852380D01*
X103652380Y-136900000D01*
X103604761Y-136947619D01*
X103557142Y-137042857D01*
X103557142Y-137185714D01*
X103604761Y-137280952D01*
X103652380Y-137328571D01*
X103747619Y-137376190D01*
X104128571Y-137376190D01*
X102938095Y-136852380D02*
X102842857Y-136852380D01*
X102747619Y-136900000D01*
X102700000Y-136947619D01*
X102652380Y-137042857D01*
X102604761Y-137233333D01*
X102604761Y-137471428D01*
X102652380Y-137661904D01*
X102700000Y-137757142D01*
X102747619Y-137804761D01*
X102842857Y-137852380D01*
X102938095Y-137852380D01*
X103033333Y-137804761D01*
X103080952Y-137757142D01*
X103128571Y-137661904D01*
X103176190Y-137471428D01*
X103176190Y-137233333D01*
X103128571Y-137042857D01*
X103080952Y-136947619D01*
X103033333Y-136900000D01*
X102938095Y-136852380D01*
X102176190Y-137757142D02*
X102128571Y-137804761D01*
X102176190Y-137852380D01*
X102223809Y-137804761D01*
X102176190Y-137757142D01*
X102176190Y-137852380D01*
X101747619Y-136947619D02*
X101700000Y-136900000D01*
X101604761Y-136852380D01*
X101366666Y-136852380D01*
X101271428Y-136900000D01*
X101223809Y-136947619D01*
X101176190Y-137042857D01*
X101176190Y-137138095D01*
X101223809Y-137280952D01*
X101795238Y-137852380D01*
X101176190Y-137852380D01*
X100319047Y-136852380D02*
X100509523Y-136852380D01*
X100604761Y-136900000D01*
X100652380Y-136947619D01*
X100747619Y-137090476D01*
X100795238Y-137280952D01*
X100795238Y-137661904D01*
X100747619Y-137757142D01*
X100700000Y-137804761D01*
X100604761Y-137852380D01*
X100414285Y-137852380D01*
X100319047Y-137804761D01*
X100271428Y-137757142D01*
X100223809Y-137661904D01*
X100223809Y-137423809D01*
X100271428Y-137328571D01*
X100319047Y-137280952D01*
X100414285Y-137233333D01*
X100604761Y-137233333D01*
X100700000Y-137280952D01*
X100747619Y-137328571D01*
X100795238Y-137423809D01*
X104128571Y-132852380D02*
X104128571Y-131852380D01*
X103747619Y-131852380D01*
X103652380Y-131900000D01*
X103604761Y-131947619D01*
X103557142Y-132042857D01*
X103557142Y-132185714D01*
X103604761Y-132280952D01*
X103652380Y-132328571D01*
X103747619Y-132376190D01*
X104128571Y-132376190D01*
X102938095Y-131852380D02*
X102842857Y-131852380D01*
X102747619Y-131900000D01*
X102700000Y-131947619D01*
X102652380Y-132042857D01*
X102604761Y-132233333D01*
X102604761Y-132471428D01*
X102652380Y-132661904D01*
X102700000Y-132757142D01*
X102747619Y-132804761D01*
X102842857Y-132852380D01*
X102938095Y-132852380D01*
X103033333Y-132804761D01*
X103080952Y-132757142D01*
X103128571Y-132661904D01*
X103176190Y-132471428D01*
X103176190Y-132233333D01*
X103128571Y-132042857D01*
X103080952Y-131947619D01*
X103033333Y-131900000D01*
X102938095Y-131852380D01*
X102176190Y-132757142D02*
X102128571Y-132804761D01*
X102176190Y-132852380D01*
X102223809Y-132804761D01*
X102176190Y-132757142D01*
X102176190Y-132852380D01*
X101509523Y-131852380D02*
X101414285Y-131852380D01*
X101319047Y-131900000D01*
X101271428Y-131947619D01*
X101223809Y-132042857D01*
X101176190Y-132233333D01*
X101176190Y-132471428D01*
X101223809Y-132661904D01*
X101271428Y-132757142D01*
X101319047Y-132804761D01*
X101414285Y-132852380D01*
X101509523Y-132852380D01*
X101604761Y-132804761D01*
X101652380Y-132757142D01*
X101700000Y-132661904D01*
X101747619Y-132471428D01*
X101747619Y-132233333D01*
X101700000Y-132042857D01*
X101652380Y-131947619D01*
X101604761Y-131900000D01*
X101509523Y-131852380D01*
X100604761Y-132280952D02*
X100700000Y-132233333D01*
X100747619Y-132185714D01*
X100795238Y-132090476D01*
X100795238Y-132042857D01*
X100747619Y-131947619D01*
X100700000Y-131900000D01*
X100604761Y-131852380D01*
X100414285Y-131852380D01*
X100319047Y-131900000D01*
X100271428Y-131947619D01*
X100223809Y-132042857D01*
X100223809Y-132090476D01*
X100271428Y-132185714D01*
X100319047Y-132233333D01*
X100414285Y-132280952D01*
X100604761Y-132280952D01*
X100700000Y-132328571D01*
X100747619Y-132376190D01*
X100795238Y-132471428D01*
X100795238Y-132661904D01*
X100747619Y-132757142D01*
X100700000Y-132804761D01*
X100604761Y-132852380D01*
X100414285Y-132852380D01*
X100319047Y-132804761D01*
X100271428Y-132757142D01*
X100223809Y-132661904D01*
X100223809Y-132471428D01*
X100271428Y-132376190D01*
X100319047Y-132328571D01*
X100414285Y-132280952D01*
X104128571Y-87052380D02*
X104128571Y-86052380D01*
X103747619Y-86052380D01*
X103652380Y-86100000D01*
X103604761Y-86147619D01*
X103557142Y-86242857D01*
X103557142Y-86385714D01*
X103604761Y-86480952D01*
X103652380Y-86528571D01*
X103747619Y-86576190D01*
X104128571Y-86576190D01*
X102604761Y-87052380D02*
X103176190Y-87052380D01*
X102890476Y-87052380D02*
X102890476Y-86052380D01*
X102985714Y-86195238D01*
X103080952Y-86290476D01*
X103176190Y-86338095D01*
X102176190Y-86957142D02*
X102128571Y-87004761D01*
X102176190Y-87052380D01*
X102223809Y-87004761D01*
X102176190Y-86957142D01*
X102176190Y-87052380D01*
X101176190Y-87052380D02*
X101747619Y-87052380D01*
X101461904Y-87052380D02*
X101461904Y-86052380D01*
X101557142Y-86195238D01*
X101652380Y-86290476D01*
X101747619Y-86338095D01*
X100557142Y-86052380D02*
X100461904Y-86052380D01*
X100366666Y-86100000D01*
X100319047Y-86147619D01*
X100271428Y-86242857D01*
X100223809Y-86433333D01*
X100223809Y-86671428D01*
X100271428Y-86861904D01*
X100319047Y-86957142D01*
X100366666Y-87004761D01*
X100461904Y-87052380D01*
X100557142Y-87052380D01*
X100652380Y-87004761D01*
X100700000Y-86957142D01*
X100747619Y-86861904D01*
X100795238Y-86671428D01*
X100795238Y-86433333D01*
X100747619Y-86242857D01*
X100700000Y-86147619D01*
X100652380Y-86100000D01*
X100557142Y-86052380D01*
X104128571Y-89627380D02*
X104128571Y-88627380D01*
X103747619Y-88627380D01*
X103652380Y-88675000D01*
X103604761Y-88722619D01*
X103557142Y-88817857D01*
X103557142Y-88960714D01*
X103604761Y-89055952D01*
X103652380Y-89103571D01*
X103747619Y-89151190D01*
X104128571Y-89151190D01*
X102604761Y-89627380D02*
X103176190Y-89627380D01*
X102890476Y-89627380D02*
X102890476Y-88627380D01*
X102985714Y-88770238D01*
X103080952Y-88865476D01*
X103176190Y-88913095D01*
X102176190Y-89532142D02*
X102128571Y-89579761D01*
X102176190Y-89627380D01*
X102223809Y-89579761D01*
X102176190Y-89532142D01*
X102176190Y-89627380D01*
X101176190Y-89627380D02*
X101747619Y-89627380D01*
X101461904Y-89627380D02*
X101461904Y-88627380D01*
X101557142Y-88770238D01*
X101652380Y-88865476D01*
X101747619Y-88913095D01*
X100223809Y-89627380D02*
X100795238Y-89627380D01*
X100509523Y-89627380D02*
X100509523Y-88627380D01*
X100604761Y-88770238D01*
X100700000Y-88865476D01*
X100795238Y-88913095D01*
X104128571Y-92227380D02*
X104128571Y-91227380D01*
X103747619Y-91227380D01*
X103652380Y-91275000D01*
X103604761Y-91322619D01*
X103557142Y-91417857D01*
X103557142Y-91560714D01*
X103604761Y-91655952D01*
X103652380Y-91703571D01*
X103747619Y-91751190D01*
X104128571Y-91751190D01*
X102604761Y-92227380D02*
X103176190Y-92227380D01*
X102890476Y-92227380D02*
X102890476Y-91227380D01*
X102985714Y-91370238D01*
X103080952Y-91465476D01*
X103176190Y-91513095D01*
X102176190Y-92132142D02*
X102128571Y-92179761D01*
X102176190Y-92227380D01*
X102223809Y-92179761D01*
X102176190Y-92132142D01*
X102176190Y-92227380D01*
X101176190Y-92227380D02*
X101747619Y-92227380D01*
X101461904Y-92227380D02*
X101461904Y-91227380D01*
X101557142Y-91370238D01*
X101652380Y-91465476D01*
X101747619Y-91513095D01*
X100842857Y-91227380D02*
X100223809Y-91227380D01*
X100557142Y-91608333D01*
X100414285Y-91608333D01*
X100319047Y-91655952D01*
X100271428Y-91703571D01*
X100223809Y-91798809D01*
X100223809Y-92036904D01*
X100271428Y-92132142D01*
X100319047Y-92179761D01*
X100414285Y-92227380D01*
X100700000Y-92227380D01*
X100795238Y-92179761D01*
X100842857Y-92132142D01*
X104128571Y-94827380D02*
X104128571Y-93827380D01*
X103747619Y-93827380D01*
X103652380Y-93875000D01*
X103604761Y-93922619D01*
X103557142Y-94017857D01*
X103557142Y-94160714D01*
X103604761Y-94255952D01*
X103652380Y-94303571D01*
X103747619Y-94351190D01*
X104128571Y-94351190D01*
X102604761Y-94827380D02*
X103176190Y-94827380D01*
X102890476Y-94827380D02*
X102890476Y-93827380D01*
X102985714Y-93970238D01*
X103080952Y-94065476D01*
X103176190Y-94113095D01*
X102176190Y-94732142D02*
X102128571Y-94779761D01*
X102176190Y-94827380D01*
X102223809Y-94779761D01*
X102176190Y-94732142D01*
X102176190Y-94827380D01*
X101176190Y-94827380D02*
X101747619Y-94827380D01*
X101461904Y-94827380D02*
X101461904Y-93827380D01*
X101557142Y-93970238D01*
X101652380Y-94065476D01*
X101747619Y-94113095D01*
X100271428Y-93827380D02*
X100747619Y-93827380D01*
X100795238Y-94303571D01*
X100747619Y-94255952D01*
X100652380Y-94208333D01*
X100414285Y-94208333D01*
X100319047Y-94255952D01*
X100271428Y-94303571D01*
X100223809Y-94398809D01*
X100223809Y-94636904D01*
X100271428Y-94732142D01*
X100319047Y-94779761D01*
X100414285Y-94827380D01*
X100652380Y-94827380D01*
X100747619Y-94779761D01*
X100795238Y-94732142D01*
X104128571Y-104852380D02*
X104128571Y-103852380D01*
X103747619Y-103852380D01*
X103652380Y-103900000D01*
X103604761Y-103947619D01*
X103557142Y-104042857D01*
X103557142Y-104185714D01*
X103604761Y-104280952D01*
X103652380Y-104328571D01*
X103747619Y-104376190D01*
X104128571Y-104376190D01*
X102938095Y-103852380D02*
X102842857Y-103852380D01*
X102747619Y-103900000D01*
X102700000Y-103947619D01*
X102652380Y-104042857D01*
X102604761Y-104233333D01*
X102604761Y-104471428D01*
X102652380Y-104661904D01*
X102700000Y-104757142D01*
X102747619Y-104804761D01*
X102842857Y-104852380D01*
X102938095Y-104852380D01*
X103033333Y-104804761D01*
X103080952Y-104757142D01*
X103128571Y-104661904D01*
X103176190Y-104471428D01*
X103176190Y-104233333D01*
X103128571Y-104042857D01*
X103080952Y-103947619D01*
X103033333Y-103900000D01*
X102938095Y-103852380D01*
X102176190Y-104757142D02*
X102128571Y-104804761D01*
X102176190Y-104852380D01*
X102223809Y-104804761D01*
X102176190Y-104757142D01*
X102176190Y-104852380D01*
X101747619Y-103947619D02*
X101700000Y-103900000D01*
X101604761Y-103852380D01*
X101366666Y-103852380D01*
X101271428Y-103900000D01*
X101223809Y-103947619D01*
X101176190Y-104042857D01*
X101176190Y-104138095D01*
X101223809Y-104280952D01*
X101795238Y-104852380D01*
X101176190Y-104852380D01*
X100700000Y-104852380D02*
X100509523Y-104852380D01*
X100414285Y-104804761D01*
X100366666Y-104757142D01*
X100271428Y-104614285D01*
X100223809Y-104423809D01*
X100223809Y-104042857D01*
X100271428Y-103947619D01*
X100319047Y-103900000D01*
X100414285Y-103852380D01*
X100604761Y-103852380D01*
X100700000Y-103900000D01*
X100747619Y-103947619D01*
X100795238Y-104042857D01*
X100795238Y-104280952D01*
X100747619Y-104376190D01*
X100700000Y-104423809D01*
X100604761Y-104471428D01*
X100414285Y-104471428D01*
X100319047Y-104423809D01*
X100271428Y-104376190D01*
X100223809Y-104280952D01*
X104128571Y-112627380D02*
X104128571Y-111627380D01*
X103747619Y-111627380D01*
X103652380Y-111675000D01*
X103604761Y-111722619D01*
X103557142Y-111817857D01*
X103557142Y-111960714D01*
X103604761Y-112055952D01*
X103652380Y-112103571D01*
X103747619Y-112151190D01*
X104128571Y-112151190D01*
X102938095Y-111627380D02*
X102842857Y-111627380D01*
X102747619Y-111675000D01*
X102700000Y-111722619D01*
X102652380Y-111817857D01*
X102604761Y-112008333D01*
X102604761Y-112246428D01*
X102652380Y-112436904D01*
X102700000Y-112532142D01*
X102747619Y-112579761D01*
X102842857Y-112627380D01*
X102938095Y-112627380D01*
X103033333Y-112579761D01*
X103080952Y-112532142D01*
X103128571Y-112436904D01*
X103176190Y-112246428D01*
X103176190Y-112008333D01*
X103128571Y-111817857D01*
X103080952Y-111722619D01*
X103033333Y-111675000D01*
X102938095Y-111627380D01*
X102176190Y-112532142D02*
X102128571Y-112579761D01*
X102176190Y-112627380D01*
X102223809Y-112579761D01*
X102176190Y-112532142D01*
X102176190Y-112627380D01*
X101509523Y-111627380D02*
X101414285Y-111627380D01*
X101319047Y-111675000D01*
X101271428Y-111722619D01*
X101223809Y-111817857D01*
X101176190Y-112008333D01*
X101176190Y-112246428D01*
X101223809Y-112436904D01*
X101271428Y-112532142D01*
X101319047Y-112579761D01*
X101414285Y-112627380D01*
X101509523Y-112627380D01*
X101604761Y-112579761D01*
X101652380Y-112532142D01*
X101700000Y-112436904D01*
X101747619Y-112246428D01*
X101747619Y-112008333D01*
X101700000Y-111817857D01*
X101652380Y-111722619D01*
X101604761Y-111675000D01*
X101509523Y-111627380D01*
X100319047Y-111960714D02*
X100319047Y-112627380D01*
X100557142Y-111579761D02*
X100795238Y-112294047D01*
X100176190Y-112294047D01*
X104128571Y-117652380D02*
X104128571Y-116652380D01*
X103747619Y-116652380D01*
X103652380Y-116700000D01*
X103604761Y-116747619D01*
X103557142Y-116842857D01*
X103557142Y-116985714D01*
X103604761Y-117080952D01*
X103652380Y-117128571D01*
X103747619Y-117176190D01*
X104128571Y-117176190D01*
X102604761Y-117652380D02*
X103176190Y-117652380D01*
X102890476Y-117652380D02*
X102890476Y-116652380D01*
X102985714Y-116795238D01*
X103080952Y-116890476D01*
X103176190Y-116938095D01*
X102176190Y-117557142D02*
X102128571Y-117604761D01*
X102176190Y-117652380D01*
X102223809Y-117604761D01*
X102176190Y-117557142D01*
X102176190Y-117652380D01*
X101176190Y-117652380D02*
X101747619Y-117652380D01*
X101461904Y-117652380D02*
X101461904Y-116652380D01*
X101557142Y-116795238D01*
X101652380Y-116890476D01*
X101747619Y-116938095D01*
X100319047Y-116985714D02*
X100319047Y-117652380D01*
X100557142Y-116604761D02*
X100795238Y-117319047D01*
X100176190Y-117319047D01*
X104128571Y-127652380D02*
X104128571Y-126652380D01*
X103747619Y-126652380D01*
X103652380Y-126700000D01*
X103604761Y-126747619D01*
X103557142Y-126842857D01*
X103557142Y-126985714D01*
X103604761Y-127080952D01*
X103652380Y-127128571D01*
X103747619Y-127176190D01*
X104128571Y-127176190D01*
X102604761Y-127652380D02*
X103176190Y-127652380D01*
X102890476Y-127652380D02*
X102890476Y-126652380D01*
X102985714Y-126795238D01*
X103080952Y-126890476D01*
X103176190Y-126938095D01*
X102176190Y-127557142D02*
X102128571Y-127604761D01*
X102176190Y-127652380D01*
X102223809Y-127604761D01*
X102176190Y-127557142D01*
X102176190Y-127652380D01*
X101509523Y-126652380D02*
X101414285Y-126652380D01*
X101319047Y-126700000D01*
X101271428Y-126747619D01*
X101223809Y-126842857D01*
X101176190Y-127033333D01*
X101176190Y-127271428D01*
X101223809Y-127461904D01*
X101271428Y-127557142D01*
X101319047Y-127604761D01*
X101414285Y-127652380D01*
X101509523Y-127652380D01*
X101604761Y-127604761D01*
X101652380Y-127557142D01*
X101700000Y-127461904D01*
X101747619Y-127271428D01*
X101747619Y-127033333D01*
X101700000Y-126842857D01*
X101652380Y-126747619D01*
X101604761Y-126700000D01*
X101509523Y-126652380D01*
X100604761Y-127080952D02*
X100700000Y-127033333D01*
X100747619Y-126985714D01*
X100795238Y-126890476D01*
X100795238Y-126842857D01*
X100747619Y-126747619D01*
X100700000Y-126700000D01*
X100604761Y-126652380D01*
X100414285Y-126652380D01*
X100319047Y-126700000D01*
X100271428Y-126747619D01*
X100223809Y-126842857D01*
X100223809Y-126890476D01*
X100271428Y-126985714D01*
X100319047Y-127033333D01*
X100414285Y-127080952D01*
X100604761Y-127080952D01*
X100700000Y-127128571D01*
X100747619Y-127176190D01*
X100795238Y-127271428D01*
X100795238Y-127461904D01*
X100747619Y-127557142D01*
X100700000Y-127604761D01*
X100604761Y-127652380D01*
X100414285Y-127652380D01*
X100319047Y-127604761D01*
X100271428Y-127557142D01*
X100223809Y-127461904D01*
X100223809Y-127271428D01*
X100271428Y-127176190D01*
X100319047Y-127128571D01*
X100414285Y-127080952D01*
X104128571Y-130252380D02*
X104128571Y-129252380D01*
X103747619Y-129252380D01*
X103652380Y-129300000D01*
X103604761Y-129347619D01*
X103557142Y-129442857D01*
X103557142Y-129585714D01*
X103604761Y-129680952D01*
X103652380Y-129728571D01*
X103747619Y-129776190D01*
X104128571Y-129776190D01*
X102938095Y-129252380D02*
X102842857Y-129252380D01*
X102747619Y-129300000D01*
X102700000Y-129347619D01*
X102652380Y-129442857D01*
X102604761Y-129633333D01*
X102604761Y-129871428D01*
X102652380Y-130061904D01*
X102700000Y-130157142D01*
X102747619Y-130204761D01*
X102842857Y-130252380D01*
X102938095Y-130252380D01*
X103033333Y-130204761D01*
X103080952Y-130157142D01*
X103128571Y-130061904D01*
X103176190Y-129871428D01*
X103176190Y-129633333D01*
X103128571Y-129442857D01*
X103080952Y-129347619D01*
X103033333Y-129300000D01*
X102938095Y-129252380D01*
X102176190Y-130157142D02*
X102128571Y-130204761D01*
X102176190Y-130252380D01*
X102223809Y-130204761D01*
X102176190Y-130157142D01*
X102176190Y-130252380D01*
X101747619Y-129347619D02*
X101700000Y-129300000D01*
X101604761Y-129252380D01*
X101366666Y-129252380D01*
X101271428Y-129300000D01*
X101223809Y-129347619D01*
X101176190Y-129442857D01*
X101176190Y-129538095D01*
X101223809Y-129680952D01*
X101795238Y-130252380D01*
X101176190Y-130252380D01*
X100842857Y-129252380D02*
X100176190Y-129252380D01*
X100604761Y-130252380D01*
X104128571Y-125252380D02*
X104128571Y-124252380D01*
X103747619Y-124252380D01*
X103652380Y-124300000D01*
X103604761Y-124347619D01*
X103557142Y-124442857D01*
X103557142Y-124585714D01*
X103604761Y-124680952D01*
X103652380Y-124728571D01*
X103747619Y-124776190D01*
X104128571Y-124776190D01*
X102938095Y-124252380D02*
X102842857Y-124252380D01*
X102747619Y-124300000D01*
X102700000Y-124347619D01*
X102652380Y-124442857D01*
X102604761Y-124633333D01*
X102604761Y-124871428D01*
X102652380Y-125061904D01*
X102700000Y-125157142D01*
X102747619Y-125204761D01*
X102842857Y-125252380D01*
X102938095Y-125252380D01*
X103033333Y-125204761D01*
X103080952Y-125157142D01*
X103128571Y-125061904D01*
X103176190Y-124871428D01*
X103176190Y-124633333D01*
X103128571Y-124442857D01*
X103080952Y-124347619D01*
X103033333Y-124300000D01*
X102938095Y-124252380D01*
X102176190Y-125157142D02*
X102128571Y-125204761D01*
X102176190Y-125252380D01*
X102223809Y-125204761D01*
X102176190Y-125157142D01*
X102176190Y-125252380D01*
X101176190Y-125252380D02*
X101747619Y-125252380D01*
X101461904Y-125252380D02*
X101461904Y-124252380D01*
X101557142Y-124395238D01*
X101652380Y-124490476D01*
X101747619Y-124538095D01*
X100223809Y-125252380D02*
X100795238Y-125252380D01*
X100509523Y-125252380D02*
X100509523Y-124252380D01*
X100604761Y-124395238D01*
X100700000Y-124490476D01*
X100795238Y-124538095D01*
X104128571Y-97227380D02*
X104128571Y-96227380D01*
X103747619Y-96227380D01*
X103652380Y-96275000D01*
X103604761Y-96322619D01*
X103557142Y-96417857D01*
X103557142Y-96560714D01*
X103604761Y-96655952D01*
X103652380Y-96703571D01*
X103747619Y-96751190D01*
X104128571Y-96751190D01*
X102938095Y-96227380D02*
X102842857Y-96227380D01*
X102747619Y-96275000D01*
X102700000Y-96322619D01*
X102652380Y-96417857D01*
X102604761Y-96608333D01*
X102604761Y-96846428D01*
X102652380Y-97036904D01*
X102700000Y-97132142D01*
X102747619Y-97179761D01*
X102842857Y-97227380D01*
X102938095Y-97227380D01*
X103033333Y-97179761D01*
X103080952Y-97132142D01*
X103128571Y-97036904D01*
X103176190Y-96846428D01*
X103176190Y-96608333D01*
X103128571Y-96417857D01*
X103080952Y-96322619D01*
X103033333Y-96275000D01*
X102938095Y-96227380D01*
X102176190Y-97132142D02*
X102128571Y-97179761D01*
X102176190Y-97227380D01*
X102223809Y-97179761D01*
X102176190Y-97132142D01*
X102176190Y-97227380D01*
X101509523Y-96227380D02*
X101414285Y-96227380D01*
X101319047Y-96275000D01*
X101271428Y-96322619D01*
X101223809Y-96417857D01*
X101176190Y-96608333D01*
X101176190Y-96846428D01*
X101223809Y-97036904D01*
X101271428Y-97132142D01*
X101319047Y-97179761D01*
X101414285Y-97227380D01*
X101509523Y-97227380D01*
X101604761Y-97179761D01*
X101652380Y-97132142D01*
X101700000Y-97036904D01*
X101747619Y-96846428D01*
X101747619Y-96608333D01*
X101700000Y-96417857D01*
X101652380Y-96322619D01*
X101604761Y-96275000D01*
X101509523Y-96227380D01*
X100842857Y-96227380D02*
X100223809Y-96227380D01*
X100557142Y-96608333D01*
X100414285Y-96608333D01*
X100319047Y-96655952D01*
X100271428Y-96703571D01*
X100223809Y-96798809D01*
X100223809Y-97036904D01*
X100271428Y-97132142D01*
X100319047Y-97179761D01*
X100414285Y-97227380D01*
X100700000Y-97227380D01*
X100795238Y-97179761D01*
X100842857Y-97132142D01*
X104128571Y-107427380D02*
X104128571Y-106427380D01*
X103747619Y-106427380D01*
X103652380Y-106475000D01*
X103604761Y-106522619D01*
X103557142Y-106617857D01*
X103557142Y-106760714D01*
X103604761Y-106855952D01*
X103652380Y-106903571D01*
X103747619Y-106951190D01*
X104128571Y-106951190D01*
X102938095Y-106427380D02*
X102842857Y-106427380D01*
X102747619Y-106475000D01*
X102700000Y-106522619D01*
X102652380Y-106617857D01*
X102604761Y-106808333D01*
X102604761Y-107046428D01*
X102652380Y-107236904D01*
X102700000Y-107332142D01*
X102747619Y-107379761D01*
X102842857Y-107427380D01*
X102938095Y-107427380D01*
X103033333Y-107379761D01*
X103080952Y-107332142D01*
X103128571Y-107236904D01*
X103176190Y-107046428D01*
X103176190Y-106808333D01*
X103128571Y-106617857D01*
X103080952Y-106522619D01*
X103033333Y-106475000D01*
X102938095Y-106427380D01*
X102176190Y-107332142D02*
X102128571Y-107379761D01*
X102176190Y-107427380D01*
X102223809Y-107379761D01*
X102176190Y-107332142D01*
X102176190Y-107427380D01*
X101795238Y-106427380D02*
X101176190Y-106427380D01*
X101509523Y-106808333D01*
X101366666Y-106808333D01*
X101271428Y-106855952D01*
X101223809Y-106903571D01*
X101176190Y-106998809D01*
X101176190Y-107236904D01*
X101223809Y-107332142D01*
X101271428Y-107379761D01*
X101366666Y-107427380D01*
X101652380Y-107427380D01*
X101747619Y-107379761D01*
X101795238Y-107332142D01*
X100557142Y-106427380D02*
X100461904Y-106427380D01*
X100366666Y-106475000D01*
X100319047Y-106522619D01*
X100271428Y-106617857D01*
X100223809Y-106808333D01*
X100223809Y-107046428D01*
X100271428Y-107236904D01*
X100319047Y-107332142D01*
X100366666Y-107379761D01*
X100461904Y-107427380D01*
X100557142Y-107427380D01*
X100652380Y-107379761D01*
X100700000Y-107332142D01*
X100747619Y-107236904D01*
X100795238Y-107046428D01*
X100795238Y-106808333D01*
X100747619Y-106617857D01*
X100700000Y-106522619D01*
X100652380Y-106475000D01*
X100557142Y-106427380D01*
X104128571Y-110027380D02*
X104128571Y-109027380D01*
X103747619Y-109027380D01*
X103652380Y-109075000D01*
X103604761Y-109122619D01*
X103557142Y-109217857D01*
X103557142Y-109360714D01*
X103604761Y-109455952D01*
X103652380Y-109503571D01*
X103747619Y-109551190D01*
X104128571Y-109551190D01*
X102938095Y-109027380D02*
X102842857Y-109027380D01*
X102747619Y-109075000D01*
X102700000Y-109122619D01*
X102652380Y-109217857D01*
X102604761Y-109408333D01*
X102604761Y-109646428D01*
X102652380Y-109836904D01*
X102700000Y-109932142D01*
X102747619Y-109979761D01*
X102842857Y-110027380D01*
X102938095Y-110027380D01*
X103033333Y-109979761D01*
X103080952Y-109932142D01*
X103128571Y-109836904D01*
X103176190Y-109646428D01*
X103176190Y-109408333D01*
X103128571Y-109217857D01*
X103080952Y-109122619D01*
X103033333Y-109075000D01*
X102938095Y-109027380D01*
X102176190Y-109932142D02*
X102128571Y-109979761D01*
X102176190Y-110027380D01*
X102223809Y-109979761D01*
X102176190Y-109932142D01*
X102176190Y-110027380D01*
X101795238Y-109027380D02*
X101176190Y-109027380D01*
X101509523Y-109408333D01*
X101366666Y-109408333D01*
X101271428Y-109455952D01*
X101223809Y-109503571D01*
X101176190Y-109598809D01*
X101176190Y-109836904D01*
X101223809Y-109932142D01*
X101271428Y-109979761D01*
X101366666Y-110027380D01*
X101652380Y-110027380D01*
X101747619Y-109979761D01*
X101795238Y-109932142D01*
X100223809Y-110027380D02*
X100795238Y-110027380D01*
X100509523Y-110027380D02*
X100509523Y-109027380D01*
X100604761Y-109170238D01*
X100700000Y-109265476D01*
X100795238Y-109313095D01*
X104128571Y-120052380D02*
X104128571Y-119052380D01*
X103747619Y-119052380D01*
X103652380Y-119100000D01*
X103604761Y-119147619D01*
X103557142Y-119242857D01*
X103557142Y-119385714D01*
X103604761Y-119480952D01*
X103652380Y-119528571D01*
X103747619Y-119576190D01*
X104128571Y-119576190D01*
X102604761Y-120052380D02*
X103176190Y-120052380D01*
X102890476Y-120052380D02*
X102890476Y-119052380D01*
X102985714Y-119195238D01*
X103080952Y-119290476D01*
X103176190Y-119338095D01*
X102176190Y-119957142D02*
X102128571Y-120004761D01*
X102176190Y-120052380D01*
X102223809Y-120004761D01*
X102176190Y-119957142D01*
X102176190Y-120052380D01*
X101176190Y-120052380D02*
X101747619Y-120052380D01*
X101461904Y-120052380D02*
X101461904Y-119052380D01*
X101557142Y-119195238D01*
X101652380Y-119290476D01*
X101747619Y-119338095D01*
X100795238Y-119147619D02*
X100747619Y-119100000D01*
X100652380Y-119052380D01*
X100414285Y-119052380D01*
X100319047Y-119100000D01*
X100271428Y-119147619D01*
X100223809Y-119242857D01*
X100223809Y-119338095D01*
X100271428Y-119480952D01*
X100842857Y-120052380D01*
X100223809Y-120052380D01*
X102361904Y-83500000D02*
X102457142Y-83452380D01*
X102600000Y-83452380D01*
X102742857Y-83500000D01*
X102838095Y-83595238D01*
X102885714Y-83690476D01*
X102933333Y-83880952D01*
X102933333Y-84023809D01*
X102885714Y-84214285D01*
X102838095Y-84309523D01*
X102742857Y-84404761D01*
X102600000Y-84452380D01*
X102504761Y-84452380D01*
X102361904Y-84404761D01*
X102314285Y-84357142D01*
X102314285Y-84023809D01*
X102504761Y-84023809D01*
X101885714Y-84452380D02*
X101885714Y-83452380D01*
X101314285Y-84452380D01*
X101314285Y-83452380D01*
X100838095Y-84452380D02*
X100838095Y-83452380D01*
X100600000Y-83452380D01*
X100457142Y-83500000D01*
X100361904Y-83595238D01*
X100314285Y-83690476D01*
X100266666Y-83880952D01*
X100266666Y-84023809D01*
X100314285Y-84214285D01*
X100361904Y-84309523D01*
X100457142Y-84404761D01*
X100600000Y-84452380D01*
X100838095Y-84452380D01*
X104128571Y-115052380D02*
X104128571Y-114052380D01*
X103747619Y-114052380D01*
X103652380Y-114100000D01*
X103604761Y-114147619D01*
X103557142Y-114242857D01*
X103557142Y-114385714D01*
X103604761Y-114480952D01*
X103652380Y-114528571D01*
X103747619Y-114576190D01*
X104128571Y-114576190D01*
X102938095Y-114052380D02*
X102842857Y-114052380D01*
X102747619Y-114100000D01*
X102700000Y-114147619D01*
X102652380Y-114242857D01*
X102604761Y-114433333D01*
X102604761Y-114671428D01*
X102652380Y-114861904D01*
X102700000Y-114957142D01*
X102747619Y-115004761D01*
X102842857Y-115052380D01*
X102938095Y-115052380D01*
X103033333Y-115004761D01*
X103080952Y-114957142D01*
X103128571Y-114861904D01*
X103176190Y-114671428D01*
X103176190Y-114433333D01*
X103128571Y-114242857D01*
X103080952Y-114147619D01*
X103033333Y-114100000D01*
X102938095Y-114052380D01*
X102176190Y-114957142D02*
X102128571Y-115004761D01*
X102176190Y-115052380D01*
X102223809Y-115004761D01*
X102176190Y-114957142D01*
X102176190Y-115052380D01*
X101509523Y-114052380D02*
X101414285Y-114052380D01*
X101319047Y-114100000D01*
X101271428Y-114147619D01*
X101223809Y-114242857D01*
X101176190Y-114433333D01*
X101176190Y-114671428D01*
X101223809Y-114861904D01*
X101271428Y-114957142D01*
X101319047Y-115004761D01*
X101414285Y-115052380D01*
X101509523Y-115052380D01*
X101604761Y-115004761D01*
X101652380Y-114957142D01*
X101700000Y-114861904D01*
X101747619Y-114671428D01*
X101747619Y-114433333D01*
X101700000Y-114242857D01*
X101652380Y-114147619D01*
X101604761Y-114100000D01*
X101509523Y-114052380D01*
X100271428Y-114052380D02*
X100747619Y-114052380D01*
X100795238Y-114528571D01*
X100747619Y-114480952D01*
X100652380Y-114433333D01*
X100414285Y-114433333D01*
X100319047Y-114480952D01*
X100271428Y-114528571D01*
X100223809Y-114623809D01*
X100223809Y-114861904D01*
X100271428Y-114957142D01*
X100319047Y-115004761D01*
X100414285Y-115052380D01*
X100652380Y-115052380D01*
X100747619Y-115004761D01*
X100795238Y-114957142D01*
X104128571Y-122652380D02*
X104128571Y-121652380D01*
X103747619Y-121652380D01*
X103652380Y-121700000D01*
X103604761Y-121747619D01*
X103557142Y-121842857D01*
X103557142Y-121985714D01*
X103604761Y-122080952D01*
X103652380Y-122128571D01*
X103747619Y-122176190D01*
X104128571Y-122176190D01*
X102938095Y-121652380D02*
X102842857Y-121652380D01*
X102747619Y-121700000D01*
X102700000Y-121747619D01*
X102652380Y-121842857D01*
X102604761Y-122033333D01*
X102604761Y-122271428D01*
X102652380Y-122461904D01*
X102700000Y-122557142D01*
X102747619Y-122604761D01*
X102842857Y-122652380D01*
X102938095Y-122652380D01*
X103033333Y-122604761D01*
X103080952Y-122557142D01*
X103128571Y-122461904D01*
X103176190Y-122271428D01*
X103176190Y-122033333D01*
X103128571Y-121842857D01*
X103080952Y-121747619D01*
X103033333Y-121700000D01*
X102938095Y-121652380D01*
X102176190Y-122557142D02*
X102128571Y-122604761D01*
X102176190Y-122652380D01*
X102223809Y-122604761D01*
X102176190Y-122557142D01*
X102176190Y-122652380D01*
X101747619Y-121747619D02*
X101700000Y-121700000D01*
X101604761Y-121652380D01*
X101366666Y-121652380D01*
X101271428Y-121700000D01*
X101223809Y-121747619D01*
X101176190Y-121842857D01*
X101176190Y-121938095D01*
X101223809Y-122080952D01*
X101795238Y-122652380D01*
X101176190Y-122652380D01*
X100271428Y-121652380D02*
X100747619Y-121652380D01*
X100795238Y-122128571D01*
X100747619Y-122080952D01*
X100652380Y-122033333D01*
X100414285Y-122033333D01*
X100319047Y-122080952D01*
X100271428Y-122128571D01*
X100223809Y-122223809D01*
X100223809Y-122461904D01*
X100271428Y-122557142D01*
X100319047Y-122604761D01*
X100414285Y-122652380D01*
X100652380Y-122652380D01*
X100747619Y-122604761D01*
X100795238Y-122557142D01*
X104128571Y-102427380D02*
X104128571Y-101427380D01*
X103747619Y-101427380D01*
X103652380Y-101475000D01*
X103604761Y-101522619D01*
X103557142Y-101617857D01*
X103557142Y-101760714D01*
X103604761Y-101855952D01*
X103652380Y-101903571D01*
X103747619Y-101951190D01*
X104128571Y-101951190D01*
X102938095Y-101427380D02*
X102842857Y-101427380D01*
X102747619Y-101475000D01*
X102700000Y-101522619D01*
X102652380Y-101617857D01*
X102604761Y-101808333D01*
X102604761Y-102046428D01*
X102652380Y-102236904D01*
X102700000Y-102332142D01*
X102747619Y-102379761D01*
X102842857Y-102427380D01*
X102938095Y-102427380D01*
X103033333Y-102379761D01*
X103080952Y-102332142D01*
X103128571Y-102236904D01*
X103176190Y-102046428D01*
X103176190Y-101808333D01*
X103128571Y-101617857D01*
X103080952Y-101522619D01*
X103033333Y-101475000D01*
X102938095Y-101427380D01*
X102176190Y-102332142D02*
X102128571Y-102379761D01*
X102176190Y-102427380D01*
X102223809Y-102379761D01*
X102176190Y-102332142D01*
X102176190Y-102427380D01*
X101747619Y-101522619D02*
X101700000Y-101475000D01*
X101604761Y-101427380D01*
X101366666Y-101427380D01*
X101271428Y-101475000D01*
X101223809Y-101522619D01*
X101176190Y-101617857D01*
X101176190Y-101713095D01*
X101223809Y-101855952D01*
X101795238Y-102427380D01*
X101176190Y-102427380D01*
X100604761Y-101855952D02*
X100700000Y-101808333D01*
X100747619Y-101760714D01*
X100795238Y-101665476D01*
X100795238Y-101617857D01*
X100747619Y-101522619D01*
X100700000Y-101475000D01*
X100604761Y-101427380D01*
X100414285Y-101427380D01*
X100319047Y-101475000D01*
X100271428Y-101522619D01*
X100223809Y-101617857D01*
X100223809Y-101665476D01*
X100271428Y-101760714D01*
X100319047Y-101808333D01*
X100414285Y-101855952D01*
X100604761Y-101855952D01*
X100700000Y-101903571D01*
X100747619Y-101951190D01*
X100795238Y-102046428D01*
X100795238Y-102236904D01*
X100747619Y-102332142D01*
X100700000Y-102379761D01*
X100604761Y-102427380D01*
X100414285Y-102427380D01*
X100319047Y-102379761D01*
X100271428Y-102332142D01*
X100223809Y-102236904D01*
X100223809Y-102046428D01*
X100271428Y-101951190D01*
X100319047Y-101903571D01*
X100414285Y-101855952D01*
X104128571Y-99827380D02*
X104128571Y-98827380D01*
X103747619Y-98827380D01*
X103652380Y-98875000D01*
X103604761Y-98922619D01*
X103557142Y-99017857D01*
X103557142Y-99160714D01*
X103604761Y-99255952D01*
X103652380Y-99303571D01*
X103747619Y-99351190D01*
X104128571Y-99351190D01*
X102938095Y-98827380D02*
X102842857Y-98827380D01*
X102747619Y-98875000D01*
X102700000Y-98922619D01*
X102652380Y-99017857D01*
X102604761Y-99208333D01*
X102604761Y-99446428D01*
X102652380Y-99636904D01*
X102700000Y-99732142D01*
X102747619Y-99779761D01*
X102842857Y-99827380D01*
X102938095Y-99827380D01*
X103033333Y-99779761D01*
X103080952Y-99732142D01*
X103128571Y-99636904D01*
X103176190Y-99446428D01*
X103176190Y-99208333D01*
X103128571Y-99017857D01*
X103080952Y-98922619D01*
X103033333Y-98875000D01*
X102938095Y-98827380D01*
X102176190Y-99732142D02*
X102128571Y-99779761D01*
X102176190Y-99827380D01*
X102223809Y-99779761D01*
X102176190Y-99732142D01*
X102176190Y-99827380D01*
X101509523Y-98827380D02*
X101414285Y-98827380D01*
X101319047Y-98875000D01*
X101271428Y-98922619D01*
X101223809Y-99017857D01*
X101176190Y-99208333D01*
X101176190Y-99446428D01*
X101223809Y-99636904D01*
X101271428Y-99732142D01*
X101319047Y-99779761D01*
X101414285Y-99827380D01*
X101509523Y-99827380D01*
X101604761Y-99779761D01*
X101652380Y-99732142D01*
X101700000Y-99636904D01*
X101747619Y-99446428D01*
X101747619Y-99208333D01*
X101700000Y-99017857D01*
X101652380Y-98922619D01*
X101604761Y-98875000D01*
X101509523Y-98827380D01*
X100795238Y-98922619D02*
X100747619Y-98875000D01*
X100652380Y-98827380D01*
X100414285Y-98827380D01*
X100319047Y-98875000D01*
X100271428Y-98922619D01*
X100223809Y-99017857D01*
X100223809Y-99113095D01*
X100271428Y-99255952D01*
X100842857Y-99827380D01*
X100223809Y-99827380D01*
X136528571Y-119852380D02*
X136528571Y-118852380D01*
X136147619Y-118852380D01*
X136052380Y-118900000D01*
X136004761Y-118947619D01*
X135957142Y-119042857D01*
X135957142Y-119185714D01*
X136004761Y-119280952D01*
X136052380Y-119328571D01*
X136147619Y-119376190D01*
X136528571Y-119376190D01*
X135338095Y-118852380D02*
X135242857Y-118852380D01*
X135147619Y-118900000D01*
X135100000Y-118947619D01*
X135052380Y-119042857D01*
X135004761Y-119233333D01*
X135004761Y-119471428D01*
X135052380Y-119661904D01*
X135100000Y-119757142D01*
X135147619Y-119804761D01*
X135242857Y-119852380D01*
X135338095Y-119852380D01*
X135433333Y-119804761D01*
X135480952Y-119757142D01*
X135528571Y-119661904D01*
X135576190Y-119471428D01*
X135576190Y-119233333D01*
X135528571Y-119042857D01*
X135480952Y-118947619D01*
X135433333Y-118900000D01*
X135338095Y-118852380D01*
X134576190Y-119757142D02*
X134528571Y-119804761D01*
X134576190Y-119852380D01*
X134623809Y-119804761D01*
X134576190Y-119757142D01*
X134576190Y-119852380D01*
X133576190Y-119852380D02*
X134147619Y-119852380D01*
X133861904Y-119852380D02*
X133861904Y-118852380D01*
X133957142Y-118995238D01*
X134052380Y-119090476D01*
X134147619Y-119138095D01*
X132671428Y-118852380D02*
X133147619Y-118852380D01*
X133195238Y-119328571D01*
X133147619Y-119280952D01*
X133052380Y-119233333D01*
X132814285Y-119233333D01*
X132719047Y-119280952D01*
X132671428Y-119328571D01*
X132623809Y-119423809D01*
X132623809Y-119661904D01*
X132671428Y-119757142D01*
X132719047Y-119804761D01*
X132814285Y-119852380D01*
X133052380Y-119852380D01*
X133147619Y-119804761D01*
X133195238Y-119757142D01*
X136728571Y-122452380D02*
X136728571Y-121452380D01*
X136347619Y-121452380D01*
X136252380Y-121500000D01*
X136204761Y-121547619D01*
X136157142Y-121642857D01*
X136157142Y-121785714D01*
X136204761Y-121880952D01*
X136252380Y-121928571D01*
X136347619Y-121976190D01*
X136728571Y-121976190D01*
X135538095Y-121452380D02*
X135442857Y-121452380D01*
X135347619Y-121500000D01*
X135300000Y-121547619D01*
X135252380Y-121642857D01*
X135204761Y-121833333D01*
X135204761Y-122071428D01*
X135252380Y-122261904D01*
X135300000Y-122357142D01*
X135347619Y-122404761D01*
X135442857Y-122452380D01*
X135538095Y-122452380D01*
X135633333Y-122404761D01*
X135680952Y-122357142D01*
X135728571Y-122261904D01*
X135776190Y-122071428D01*
X135776190Y-121833333D01*
X135728571Y-121642857D01*
X135680952Y-121547619D01*
X135633333Y-121500000D01*
X135538095Y-121452380D01*
X134776190Y-122357142D02*
X134728571Y-122404761D01*
X134776190Y-122452380D01*
X134823809Y-122404761D01*
X134776190Y-122357142D01*
X134776190Y-122452380D01*
X133776190Y-122452380D02*
X134347619Y-122452380D01*
X134061904Y-122452380D02*
X134061904Y-121452380D01*
X134157142Y-121595238D01*
X134252380Y-121690476D01*
X134347619Y-121738095D01*
X132919047Y-121785714D02*
X132919047Y-122452380D01*
X133157142Y-121404761D02*
X133395238Y-122119047D01*
X132776190Y-122119047D01*
X136728571Y-107652380D02*
X136728571Y-106652380D01*
X136347619Y-106652380D01*
X136252380Y-106700000D01*
X136204761Y-106747619D01*
X136157142Y-106842857D01*
X136157142Y-106985714D01*
X136204761Y-107080952D01*
X136252380Y-107128571D01*
X136347619Y-107176190D01*
X136728571Y-107176190D01*
X135204761Y-107652380D02*
X135776190Y-107652380D01*
X135490476Y-107652380D02*
X135490476Y-106652380D01*
X135585714Y-106795238D01*
X135680952Y-106890476D01*
X135776190Y-106938095D01*
X134776190Y-107557142D02*
X134728571Y-107604761D01*
X134776190Y-107652380D01*
X134823809Y-107604761D01*
X134776190Y-107557142D01*
X134776190Y-107652380D01*
X134109523Y-106652380D02*
X134014285Y-106652380D01*
X133919047Y-106700000D01*
X133871428Y-106747619D01*
X133823809Y-106842857D01*
X133776190Y-107033333D01*
X133776190Y-107271428D01*
X133823809Y-107461904D01*
X133871428Y-107557142D01*
X133919047Y-107604761D01*
X134014285Y-107652380D01*
X134109523Y-107652380D01*
X134204761Y-107604761D01*
X134252380Y-107557142D01*
X134300000Y-107461904D01*
X134347619Y-107271428D01*
X134347619Y-107033333D01*
X134300000Y-106842857D01*
X134252380Y-106747619D01*
X134204761Y-106700000D01*
X134109523Y-106652380D01*
X133442857Y-106652380D02*
X132776190Y-106652380D01*
X133204761Y-107652380D01*
X136728571Y-92452380D02*
X136728571Y-91452380D01*
X136347619Y-91452380D01*
X136252380Y-91500000D01*
X136204761Y-91547619D01*
X136157142Y-91642857D01*
X136157142Y-91785714D01*
X136204761Y-91880952D01*
X136252380Y-91928571D01*
X136347619Y-91976190D01*
X136728571Y-91976190D01*
X135204761Y-92452380D02*
X135776190Y-92452380D01*
X135490476Y-92452380D02*
X135490476Y-91452380D01*
X135585714Y-91595238D01*
X135680952Y-91690476D01*
X135776190Y-91738095D01*
X134776190Y-92357142D02*
X134728571Y-92404761D01*
X134776190Y-92452380D01*
X134823809Y-92404761D01*
X134776190Y-92357142D01*
X134776190Y-92452380D01*
X134109523Y-91452380D02*
X134014285Y-91452380D01*
X133919047Y-91500000D01*
X133871428Y-91547619D01*
X133823809Y-91642857D01*
X133776190Y-91833333D01*
X133776190Y-92071428D01*
X133823809Y-92261904D01*
X133871428Y-92357142D01*
X133919047Y-92404761D01*
X134014285Y-92452380D01*
X134109523Y-92452380D01*
X134204761Y-92404761D01*
X134252380Y-92357142D01*
X134300000Y-92261904D01*
X134347619Y-92071428D01*
X134347619Y-91833333D01*
X134300000Y-91642857D01*
X134252380Y-91547619D01*
X134204761Y-91500000D01*
X134109523Y-91452380D01*
X132919047Y-91785714D02*
X132919047Y-92452380D01*
X133157142Y-91404761D02*
X133395238Y-92119047D01*
X132776190Y-92119047D01*
X136728571Y-94852380D02*
X136728571Y-93852380D01*
X136347619Y-93852380D01*
X136252380Y-93900000D01*
X136204761Y-93947619D01*
X136157142Y-94042857D01*
X136157142Y-94185714D01*
X136204761Y-94280952D01*
X136252380Y-94328571D01*
X136347619Y-94376190D01*
X136728571Y-94376190D01*
X135204761Y-94852380D02*
X135776190Y-94852380D01*
X135490476Y-94852380D02*
X135490476Y-93852380D01*
X135585714Y-93995238D01*
X135680952Y-94090476D01*
X135776190Y-94138095D01*
X134776190Y-94757142D02*
X134728571Y-94804761D01*
X134776190Y-94852380D01*
X134823809Y-94804761D01*
X134776190Y-94757142D01*
X134776190Y-94852380D01*
X134109523Y-93852380D02*
X134014285Y-93852380D01*
X133919047Y-93900000D01*
X133871428Y-93947619D01*
X133823809Y-94042857D01*
X133776190Y-94233333D01*
X133776190Y-94471428D01*
X133823809Y-94661904D01*
X133871428Y-94757142D01*
X133919047Y-94804761D01*
X134014285Y-94852380D01*
X134109523Y-94852380D01*
X134204761Y-94804761D01*
X134252380Y-94757142D01*
X134300000Y-94661904D01*
X134347619Y-94471428D01*
X134347619Y-94233333D01*
X134300000Y-94042857D01*
X134252380Y-93947619D01*
X134204761Y-93900000D01*
X134109523Y-93852380D01*
X133395238Y-93947619D02*
X133347619Y-93900000D01*
X133252380Y-93852380D01*
X133014285Y-93852380D01*
X132919047Y-93900000D01*
X132871428Y-93947619D01*
X132823809Y-94042857D01*
X132823809Y-94138095D01*
X132871428Y-94280952D01*
X133442857Y-94852380D01*
X132823809Y-94852380D01*
X136728571Y-102452380D02*
X136728571Y-101452380D01*
X136347619Y-101452380D01*
X136252380Y-101500000D01*
X136204761Y-101547619D01*
X136157142Y-101642857D01*
X136157142Y-101785714D01*
X136204761Y-101880952D01*
X136252380Y-101928571D01*
X136347619Y-101976190D01*
X136728571Y-101976190D01*
X135204761Y-102452380D02*
X135776190Y-102452380D01*
X135490476Y-102452380D02*
X135490476Y-101452380D01*
X135585714Y-101595238D01*
X135680952Y-101690476D01*
X135776190Y-101738095D01*
X134776190Y-102357142D02*
X134728571Y-102404761D01*
X134776190Y-102452380D01*
X134823809Y-102404761D01*
X134776190Y-102357142D01*
X134776190Y-102452380D01*
X134109523Y-101452380D02*
X134014285Y-101452380D01*
X133919047Y-101500000D01*
X133871428Y-101547619D01*
X133823809Y-101642857D01*
X133776190Y-101833333D01*
X133776190Y-102071428D01*
X133823809Y-102261904D01*
X133871428Y-102357142D01*
X133919047Y-102404761D01*
X134014285Y-102452380D01*
X134109523Y-102452380D01*
X134204761Y-102404761D01*
X134252380Y-102357142D01*
X134300000Y-102261904D01*
X134347619Y-102071428D01*
X134347619Y-101833333D01*
X134300000Y-101642857D01*
X134252380Y-101547619D01*
X134204761Y-101500000D01*
X134109523Y-101452380D01*
X133157142Y-101452380D02*
X133061904Y-101452380D01*
X132966666Y-101500000D01*
X132919047Y-101547619D01*
X132871428Y-101642857D01*
X132823809Y-101833333D01*
X132823809Y-102071428D01*
X132871428Y-102261904D01*
X132919047Y-102357142D01*
X132966666Y-102404761D01*
X133061904Y-102452380D01*
X133157142Y-102452380D01*
X133252380Y-102404761D01*
X133300000Y-102357142D01*
X133347619Y-102261904D01*
X133395238Y-102071428D01*
X133395238Y-101833333D01*
X133347619Y-101642857D01*
X133300000Y-101547619D01*
X133252380Y-101500000D01*
X133157142Y-101452380D01*
X136728571Y-110052380D02*
X136728571Y-109052380D01*
X136347619Y-109052380D01*
X136252380Y-109100000D01*
X136204761Y-109147619D01*
X136157142Y-109242857D01*
X136157142Y-109385714D01*
X136204761Y-109480952D01*
X136252380Y-109528571D01*
X136347619Y-109576190D01*
X136728571Y-109576190D01*
X135204761Y-110052380D02*
X135776190Y-110052380D01*
X135490476Y-110052380D02*
X135490476Y-109052380D01*
X135585714Y-109195238D01*
X135680952Y-109290476D01*
X135776190Y-109338095D01*
X134776190Y-109957142D02*
X134728571Y-110004761D01*
X134776190Y-110052380D01*
X134823809Y-110004761D01*
X134776190Y-109957142D01*
X134776190Y-110052380D01*
X134109523Y-109052380D02*
X134014285Y-109052380D01*
X133919047Y-109100000D01*
X133871428Y-109147619D01*
X133823809Y-109242857D01*
X133776190Y-109433333D01*
X133776190Y-109671428D01*
X133823809Y-109861904D01*
X133871428Y-109957142D01*
X133919047Y-110004761D01*
X134014285Y-110052380D01*
X134109523Y-110052380D01*
X134204761Y-110004761D01*
X134252380Y-109957142D01*
X134300000Y-109861904D01*
X134347619Y-109671428D01*
X134347619Y-109433333D01*
X134300000Y-109242857D01*
X134252380Y-109147619D01*
X134204761Y-109100000D01*
X134109523Y-109052380D01*
X132871428Y-109052380D02*
X133347619Y-109052380D01*
X133395238Y-109528571D01*
X133347619Y-109480952D01*
X133252380Y-109433333D01*
X133014285Y-109433333D01*
X132919047Y-109480952D01*
X132871428Y-109528571D01*
X132823809Y-109623809D01*
X132823809Y-109861904D01*
X132871428Y-109957142D01*
X132919047Y-110004761D01*
X133014285Y-110052380D01*
X133252380Y-110052380D01*
X133347619Y-110004761D01*
X133395238Y-109957142D01*
X136728571Y-105052380D02*
X136728571Y-104052380D01*
X136347619Y-104052380D01*
X136252380Y-104100000D01*
X136204761Y-104147619D01*
X136157142Y-104242857D01*
X136157142Y-104385714D01*
X136204761Y-104480952D01*
X136252380Y-104528571D01*
X136347619Y-104576190D01*
X136728571Y-104576190D01*
X135538095Y-104052380D02*
X135442857Y-104052380D01*
X135347619Y-104100000D01*
X135300000Y-104147619D01*
X135252380Y-104242857D01*
X135204761Y-104433333D01*
X135204761Y-104671428D01*
X135252380Y-104861904D01*
X135300000Y-104957142D01*
X135347619Y-105004761D01*
X135442857Y-105052380D01*
X135538095Y-105052380D01*
X135633333Y-105004761D01*
X135680952Y-104957142D01*
X135728571Y-104861904D01*
X135776190Y-104671428D01*
X135776190Y-104433333D01*
X135728571Y-104242857D01*
X135680952Y-104147619D01*
X135633333Y-104100000D01*
X135538095Y-104052380D01*
X134776190Y-104957142D02*
X134728571Y-105004761D01*
X134776190Y-105052380D01*
X134823809Y-105004761D01*
X134776190Y-104957142D01*
X134776190Y-105052380D01*
X134347619Y-104147619D02*
X134300000Y-104100000D01*
X134204761Y-104052380D01*
X133966666Y-104052380D01*
X133871428Y-104100000D01*
X133823809Y-104147619D01*
X133776190Y-104242857D01*
X133776190Y-104338095D01*
X133823809Y-104480952D01*
X134395238Y-105052380D01*
X133776190Y-105052380D01*
X133395238Y-104147619D02*
X133347619Y-104100000D01*
X133252380Y-104052380D01*
X133014285Y-104052380D01*
X132919047Y-104100000D01*
X132871428Y-104147619D01*
X132823809Y-104242857D01*
X132823809Y-104338095D01*
X132871428Y-104480952D01*
X133442857Y-105052380D01*
X132823809Y-105052380D01*
X136528571Y-117652380D02*
X136528571Y-116652380D01*
X136147619Y-116652380D01*
X136052380Y-116700000D01*
X136004761Y-116747619D01*
X135957142Y-116842857D01*
X135957142Y-116985714D01*
X136004761Y-117080952D01*
X136052380Y-117128571D01*
X136147619Y-117176190D01*
X136528571Y-117176190D01*
X135338095Y-116652380D02*
X135242857Y-116652380D01*
X135147619Y-116700000D01*
X135100000Y-116747619D01*
X135052380Y-116842857D01*
X135004761Y-117033333D01*
X135004761Y-117271428D01*
X135052380Y-117461904D01*
X135100000Y-117557142D01*
X135147619Y-117604761D01*
X135242857Y-117652380D01*
X135338095Y-117652380D01*
X135433333Y-117604761D01*
X135480952Y-117557142D01*
X135528571Y-117461904D01*
X135576190Y-117271428D01*
X135576190Y-117033333D01*
X135528571Y-116842857D01*
X135480952Y-116747619D01*
X135433333Y-116700000D01*
X135338095Y-116652380D01*
X134576190Y-117557142D02*
X134528571Y-117604761D01*
X134576190Y-117652380D01*
X134623809Y-117604761D01*
X134576190Y-117557142D01*
X134576190Y-117652380D01*
X133576190Y-117652380D02*
X134147619Y-117652380D01*
X133861904Y-117652380D02*
X133861904Y-116652380D01*
X133957142Y-116795238D01*
X134052380Y-116890476D01*
X134147619Y-116938095D01*
X133242857Y-116652380D02*
X132576190Y-116652380D01*
X133004761Y-117652380D01*
X136728571Y-112452380D02*
X136728571Y-111452380D01*
X136347619Y-111452380D01*
X136252380Y-111500000D01*
X136204761Y-111547619D01*
X136157142Y-111642857D01*
X136157142Y-111785714D01*
X136204761Y-111880952D01*
X136252380Y-111928571D01*
X136347619Y-111976190D01*
X136728571Y-111976190D01*
X135538095Y-111452380D02*
X135442857Y-111452380D01*
X135347619Y-111500000D01*
X135300000Y-111547619D01*
X135252380Y-111642857D01*
X135204761Y-111833333D01*
X135204761Y-112071428D01*
X135252380Y-112261904D01*
X135300000Y-112357142D01*
X135347619Y-112404761D01*
X135442857Y-112452380D01*
X135538095Y-112452380D01*
X135633333Y-112404761D01*
X135680952Y-112357142D01*
X135728571Y-112261904D01*
X135776190Y-112071428D01*
X135776190Y-111833333D01*
X135728571Y-111642857D01*
X135680952Y-111547619D01*
X135633333Y-111500000D01*
X135538095Y-111452380D01*
X134776190Y-112357142D02*
X134728571Y-112404761D01*
X134776190Y-112452380D01*
X134823809Y-112404761D01*
X134776190Y-112357142D01*
X134776190Y-112452380D01*
X134347619Y-111547619D02*
X134300000Y-111500000D01*
X134204761Y-111452380D01*
X133966666Y-111452380D01*
X133871428Y-111500000D01*
X133823809Y-111547619D01*
X133776190Y-111642857D01*
X133776190Y-111738095D01*
X133823809Y-111880952D01*
X134395238Y-112452380D01*
X133776190Y-112452380D01*
X132919047Y-111785714D02*
X132919047Y-112452380D01*
X133157142Y-111404761D02*
X133395238Y-112119047D01*
X132776190Y-112119047D01*
X136728571Y-84652380D02*
X136728571Y-83652380D01*
X136347619Y-83652380D01*
X136252380Y-83700000D01*
X136204761Y-83747619D01*
X136157142Y-83842857D01*
X136157142Y-83985714D01*
X136204761Y-84080952D01*
X136252380Y-84128571D01*
X136347619Y-84176190D01*
X136728571Y-84176190D01*
X135538095Y-83652380D02*
X135442857Y-83652380D01*
X135347619Y-83700000D01*
X135300000Y-83747619D01*
X135252380Y-83842857D01*
X135204761Y-84033333D01*
X135204761Y-84271428D01*
X135252380Y-84461904D01*
X135300000Y-84557142D01*
X135347619Y-84604761D01*
X135442857Y-84652380D01*
X135538095Y-84652380D01*
X135633333Y-84604761D01*
X135680952Y-84557142D01*
X135728571Y-84461904D01*
X135776190Y-84271428D01*
X135776190Y-84033333D01*
X135728571Y-83842857D01*
X135680952Y-83747619D01*
X135633333Y-83700000D01*
X135538095Y-83652380D01*
X134776190Y-84557142D02*
X134728571Y-84604761D01*
X134776190Y-84652380D01*
X134823809Y-84604761D01*
X134776190Y-84557142D01*
X134776190Y-84652380D01*
X133776190Y-84652380D02*
X134347619Y-84652380D01*
X134061904Y-84652380D02*
X134061904Y-83652380D01*
X134157142Y-83795238D01*
X134252380Y-83890476D01*
X134347619Y-83938095D01*
X133157142Y-83652380D02*
X133061904Y-83652380D01*
X132966666Y-83700000D01*
X132919047Y-83747619D01*
X132871428Y-83842857D01*
X132823809Y-84033333D01*
X132823809Y-84271428D01*
X132871428Y-84461904D01*
X132919047Y-84557142D01*
X132966666Y-84604761D01*
X133061904Y-84652380D01*
X133157142Y-84652380D01*
X133252380Y-84604761D01*
X133300000Y-84557142D01*
X133347619Y-84461904D01*
X133395238Y-84271428D01*
X133395238Y-84033333D01*
X133347619Y-83842857D01*
X133300000Y-83747619D01*
X133252380Y-83700000D01*
X133157142Y-83652380D01*
X136728571Y-97652380D02*
X136728571Y-96652380D01*
X136347619Y-96652380D01*
X136252380Y-96700000D01*
X136204761Y-96747619D01*
X136157142Y-96842857D01*
X136157142Y-96985714D01*
X136204761Y-97080952D01*
X136252380Y-97128571D01*
X136347619Y-97176190D01*
X136728571Y-97176190D01*
X135204761Y-97652380D02*
X135776190Y-97652380D01*
X135490476Y-97652380D02*
X135490476Y-96652380D01*
X135585714Y-96795238D01*
X135680952Y-96890476D01*
X135776190Y-96938095D01*
X134776190Y-97557142D02*
X134728571Y-97604761D01*
X134776190Y-97652380D01*
X134823809Y-97604761D01*
X134776190Y-97557142D01*
X134776190Y-97652380D01*
X134109523Y-96652380D02*
X134014285Y-96652380D01*
X133919047Y-96700000D01*
X133871428Y-96747619D01*
X133823809Y-96842857D01*
X133776190Y-97033333D01*
X133776190Y-97271428D01*
X133823809Y-97461904D01*
X133871428Y-97557142D01*
X133919047Y-97604761D01*
X134014285Y-97652380D01*
X134109523Y-97652380D01*
X134204761Y-97604761D01*
X134252380Y-97557142D01*
X134300000Y-97461904D01*
X134347619Y-97271428D01*
X134347619Y-97033333D01*
X134300000Y-96842857D01*
X134252380Y-96747619D01*
X134204761Y-96700000D01*
X134109523Y-96652380D01*
X132823809Y-97652380D02*
X133395238Y-97652380D01*
X133109523Y-97652380D02*
X133109523Y-96652380D01*
X133204761Y-96795238D01*
X133300000Y-96890476D01*
X133395238Y-96938095D01*
X136728571Y-100052380D02*
X136728571Y-99052380D01*
X136347619Y-99052380D01*
X136252380Y-99100000D01*
X136204761Y-99147619D01*
X136157142Y-99242857D01*
X136157142Y-99385714D01*
X136204761Y-99480952D01*
X136252380Y-99528571D01*
X136347619Y-99576190D01*
X136728571Y-99576190D01*
X135204761Y-100052380D02*
X135776190Y-100052380D01*
X135490476Y-100052380D02*
X135490476Y-99052380D01*
X135585714Y-99195238D01*
X135680952Y-99290476D01*
X135776190Y-99338095D01*
X134776190Y-99957142D02*
X134728571Y-100004761D01*
X134776190Y-100052380D01*
X134823809Y-100004761D01*
X134776190Y-99957142D01*
X134776190Y-100052380D01*
X134109523Y-99052380D02*
X134014285Y-99052380D01*
X133919047Y-99100000D01*
X133871428Y-99147619D01*
X133823809Y-99242857D01*
X133776190Y-99433333D01*
X133776190Y-99671428D01*
X133823809Y-99861904D01*
X133871428Y-99957142D01*
X133919047Y-100004761D01*
X134014285Y-100052380D01*
X134109523Y-100052380D01*
X134204761Y-100004761D01*
X134252380Y-99957142D01*
X134300000Y-99861904D01*
X134347619Y-99671428D01*
X134347619Y-99433333D01*
X134300000Y-99242857D01*
X134252380Y-99147619D01*
X134204761Y-99100000D01*
X134109523Y-99052380D01*
X133442857Y-99052380D02*
X132823809Y-99052380D01*
X133157142Y-99433333D01*
X133014285Y-99433333D01*
X132919047Y-99480952D01*
X132871428Y-99528571D01*
X132823809Y-99623809D01*
X132823809Y-99861904D01*
X132871428Y-99957142D01*
X132919047Y-100004761D01*
X133014285Y-100052380D01*
X133300000Y-100052380D01*
X133395238Y-100004761D01*
X133442857Y-99957142D01*
X136728571Y-115252380D02*
X136728571Y-114252380D01*
X136347619Y-114252380D01*
X136252380Y-114300000D01*
X136204761Y-114347619D01*
X136157142Y-114442857D01*
X136157142Y-114585714D01*
X136204761Y-114680952D01*
X136252380Y-114728571D01*
X136347619Y-114776190D01*
X136728571Y-114776190D01*
X135538095Y-114252380D02*
X135442857Y-114252380D01*
X135347619Y-114300000D01*
X135300000Y-114347619D01*
X135252380Y-114442857D01*
X135204761Y-114633333D01*
X135204761Y-114871428D01*
X135252380Y-115061904D01*
X135300000Y-115157142D01*
X135347619Y-115204761D01*
X135442857Y-115252380D01*
X135538095Y-115252380D01*
X135633333Y-115204761D01*
X135680952Y-115157142D01*
X135728571Y-115061904D01*
X135776190Y-114871428D01*
X135776190Y-114633333D01*
X135728571Y-114442857D01*
X135680952Y-114347619D01*
X135633333Y-114300000D01*
X135538095Y-114252380D01*
X134776190Y-115157142D02*
X134728571Y-115204761D01*
X134776190Y-115252380D01*
X134823809Y-115204761D01*
X134776190Y-115157142D01*
X134776190Y-115252380D01*
X134347619Y-114347619D02*
X134300000Y-114300000D01*
X134204761Y-114252380D01*
X133966666Y-114252380D01*
X133871428Y-114300000D01*
X133823809Y-114347619D01*
X133776190Y-114442857D01*
X133776190Y-114538095D01*
X133823809Y-114680952D01*
X134395238Y-115252380D01*
X133776190Y-115252380D01*
X133157142Y-114252380D02*
X133061904Y-114252380D01*
X132966666Y-114300000D01*
X132919047Y-114347619D01*
X132871428Y-114442857D01*
X132823809Y-114633333D01*
X132823809Y-114871428D01*
X132871428Y-115061904D01*
X132919047Y-115157142D01*
X132966666Y-115204761D01*
X133061904Y-115252380D01*
X133157142Y-115252380D01*
X133252380Y-115204761D01*
X133300000Y-115157142D01*
X133347619Y-115061904D01*
X133395238Y-114871428D01*
X133395238Y-114633333D01*
X133347619Y-114442857D01*
X133300000Y-114347619D01*
X133252380Y-114300000D01*
X133157142Y-114252380D01*
X136728571Y-127852380D02*
X136728571Y-126852380D01*
X136347619Y-126852380D01*
X136252380Y-126900000D01*
X136204761Y-126947619D01*
X136157142Y-127042857D01*
X136157142Y-127185714D01*
X136204761Y-127280952D01*
X136252380Y-127328571D01*
X136347619Y-127376190D01*
X136728571Y-127376190D01*
X135538095Y-126852380D02*
X135442857Y-126852380D01*
X135347619Y-126900000D01*
X135300000Y-126947619D01*
X135252380Y-127042857D01*
X135204761Y-127233333D01*
X135204761Y-127471428D01*
X135252380Y-127661904D01*
X135300000Y-127757142D01*
X135347619Y-127804761D01*
X135442857Y-127852380D01*
X135538095Y-127852380D01*
X135633333Y-127804761D01*
X135680952Y-127757142D01*
X135728571Y-127661904D01*
X135776190Y-127471428D01*
X135776190Y-127233333D01*
X135728571Y-127042857D01*
X135680952Y-126947619D01*
X135633333Y-126900000D01*
X135538095Y-126852380D01*
X134776190Y-127757142D02*
X134728571Y-127804761D01*
X134776190Y-127852380D01*
X134823809Y-127804761D01*
X134776190Y-127757142D01*
X134776190Y-127852380D01*
X133776190Y-127852380D02*
X134347619Y-127852380D01*
X134061904Y-127852380D02*
X134061904Y-126852380D01*
X134157142Y-126995238D01*
X134252380Y-127090476D01*
X134347619Y-127138095D01*
X132919047Y-126852380D02*
X133109523Y-126852380D01*
X133204761Y-126900000D01*
X133252380Y-126947619D01*
X133347619Y-127090476D01*
X133395238Y-127280952D01*
X133395238Y-127661904D01*
X133347619Y-127757142D01*
X133300000Y-127804761D01*
X133204761Y-127852380D01*
X133014285Y-127852380D01*
X132919047Y-127804761D01*
X132871428Y-127757142D01*
X132823809Y-127661904D01*
X132823809Y-127423809D01*
X132871428Y-127328571D01*
X132919047Y-127280952D01*
X133014285Y-127233333D01*
X133204761Y-127233333D01*
X133300000Y-127280952D01*
X133347619Y-127328571D01*
X133395238Y-127423809D01*
X136728571Y-125252380D02*
X136728571Y-124252380D01*
X136347619Y-124252380D01*
X136252380Y-124300000D01*
X136204761Y-124347619D01*
X136157142Y-124442857D01*
X136157142Y-124585714D01*
X136204761Y-124680952D01*
X136252380Y-124728571D01*
X136347619Y-124776190D01*
X136728571Y-124776190D01*
X135538095Y-124252380D02*
X135442857Y-124252380D01*
X135347619Y-124300000D01*
X135300000Y-124347619D01*
X135252380Y-124442857D01*
X135204761Y-124633333D01*
X135204761Y-124871428D01*
X135252380Y-125061904D01*
X135300000Y-125157142D01*
X135347619Y-125204761D01*
X135442857Y-125252380D01*
X135538095Y-125252380D01*
X135633333Y-125204761D01*
X135680952Y-125157142D01*
X135728571Y-125061904D01*
X135776190Y-124871428D01*
X135776190Y-124633333D01*
X135728571Y-124442857D01*
X135680952Y-124347619D01*
X135633333Y-124300000D01*
X135538095Y-124252380D01*
X134776190Y-125157142D02*
X134728571Y-125204761D01*
X134776190Y-125252380D01*
X134823809Y-125204761D01*
X134776190Y-125157142D01*
X134776190Y-125252380D01*
X133776190Y-125252380D02*
X134347619Y-125252380D01*
X134061904Y-125252380D02*
X134061904Y-124252380D01*
X134157142Y-124395238D01*
X134252380Y-124490476D01*
X134347619Y-124538095D01*
X133442857Y-124252380D02*
X132823809Y-124252380D01*
X133157142Y-124633333D01*
X133014285Y-124633333D01*
X132919047Y-124680952D01*
X132871428Y-124728571D01*
X132823809Y-124823809D01*
X132823809Y-125061904D01*
X132871428Y-125157142D01*
X132919047Y-125204761D01*
X133014285Y-125252380D01*
X133300000Y-125252380D01*
X133395238Y-125204761D01*
X133442857Y-125157142D01*
X136728571Y-87252380D02*
X136728571Y-86252380D01*
X136347619Y-86252380D01*
X136252380Y-86300000D01*
X136204761Y-86347619D01*
X136157142Y-86442857D01*
X136157142Y-86585714D01*
X136204761Y-86680952D01*
X136252380Y-86728571D01*
X136347619Y-86776190D01*
X136728571Y-86776190D01*
X135538095Y-86252380D02*
X135442857Y-86252380D01*
X135347619Y-86300000D01*
X135300000Y-86347619D01*
X135252380Y-86442857D01*
X135204761Y-86633333D01*
X135204761Y-86871428D01*
X135252380Y-87061904D01*
X135300000Y-87157142D01*
X135347619Y-87204761D01*
X135442857Y-87252380D01*
X135538095Y-87252380D01*
X135633333Y-87204761D01*
X135680952Y-87157142D01*
X135728571Y-87061904D01*
X135776190Y-86871428D01*
X135776190Y-86633333D01*
X135728571Y-86442857D01*
X135680952Y-86347619D01*
X135633333Y-86300000D01*
X135538095Y-86252380D01*
X134776190Y-87157142D02*
X134728571Y-87204761D01*
X134776190Y-87252380D01*
X134823809Y-87204761D01*
X134776190Y-87157142D01*
X134776190Y-87252380D01*
X134109523Y-86252380D02*
X134014285Y-86252380D01*
X133919047Y-86300000D01*
X133871428Y-86347619D01*
X133823809Y-86442857D01*
X133776190Y-86633333D01*
X133776190Y-86871428D01*
X133823809Y-87061904D01*
X133871428Y-87157142D01*
X133919047Y-87204761D01*
X134014285Y-87252380D01*
X134109523Y-87252380D01*
X134204761Y-87204761D01*
X134252380Y-87157142D01*
X134300000Y-87061904D01*
X134347619Y-86871428D01*
X134347619Y-86633333D01*
X134300000Y-86442857D01*
X134252380Y-86347619D01*
X134204761Y-86300000D01*
X134109523Y-86252380D01*
X133300000Y-87252380D02*
X133109523Y-87252380D01*
X133014285Y-87204761D01*
X132966666Y-87157142D01*
X132871428Y-87014285D01*
X132823809Y-86823809D01*
X132823809Y-86442857D01*
X132871428Y-86347619D01*
X132919047Y-86300000D01*
X133014285Y-86252380D01*
X133204761Y-86252380D01*
X133300000Y-86300000D01*
X133347619Y-86347619D01*
X133395238Y-86442857D01*
X133395238Y-86680952D01*
X133347619Y-86776190D01*
X133300000Y-86823809D01*
X133204761Y-86871428D01*
X133014285Y-86871428D01*
X132919047Y-86823809D01*
X132871428Y-86776190D01*
X132823809Y-86680952D01*
X136728571Y-89852380D02*
X136728571Y-88852380D01*
X136347619Y-88852380D01*
X136252380Y-88900000D01*
X136204761Y-88947619D01*
X136157142Y-89042857D01*
X136157142Y-89185714D01*
X136204761Y-89280952D01*
X136252380Y-89328571D01*
X136347619Y-89376190D01*
X136728571Y-89376190D01*
X135204761Y-89852380D02*
X135776190Y-89852380D01*
X135490476Y-89852380D02*
X135490476Y-88852380D01*
X135585714Y-88995238D01*
X135680952Y-89090476D01*
X135776190Y-89138095D01*
X134776190Y-89757142D02*
X134728571Y-89804761D01*
X134776190Y-89852380D01*
X134823809Y-89804761D01*
X134776190Y-89757142D01*
X134776190Y-89852380D01*
X134109523Y-88852380D02*
X134014285Y-88852380D01*
X133919047Y-88900000D01*
X133871428Y-88947619D01*
X133823809Y-89042857D01*
X133776190Y-89233333D01*
X133776190Y-89471428D01*
X133823809Y-89661904D01*
X133871428Y-89757142D01*
X133919047Y-89804761D01*
X134014285Y-89852380D01*
X134109523Y-89852380D01*
X134204761Y-89804761D01*
X134252380Y-89757142D01*
X134300000Y-89661904D01*
X134347619Y-89471428D01*
X134347619Y-89233333D01*
X134300000Y-89042857D01*
X134252380Y-88947619D01*
X134204761Y-88900000D01*
X134109523Y-88852380D01*
X132919047Y-88852380D02*
X133109523Y-88852380D01*
X133204761Y-88900000D01*
X133252380Y-88947619D01*
X133347619Y-89090476D01*
X133395238Y-89280952D01*
X133395238Y-89661904D01*
X133347619Y-89757142D01*
X133300000Y-89804761D01*
X133204761Y-89852380D01*
X133014285Y-89852380D01*
X132919047Y-89804761D01*
X132871428Y-89757142D01*
X132823809Y-89661904D01*
X132823809Y-89423809D01*
X132871428Y-89328571D01*
X132919047Y-89280952D01*
X133014285Y-89233333D01*
X133204761Y-89233333D01*
X133300000Y-89280952D01*
X133347619Y-89328571D01*
X133395238Y-89423809D01*
X115697063Y-117452664D02*
X115697063Y-116452664D01*
X115316111Y-116452664D01*
X115220872Y-116500284D01*
X115173253Y-116547903D01*
X115125634Y-116643141D01*
X115125634Y-116785998D01*
X115173253Y-116881236D01*
X115220872Y-116928855D01*
X115316111Y-116976474D01*
X115697063Y-116976474D01*
X114506587Y-116452664D02*
X114411349Y-116452664D01*
X114316111Y-116500284D01*
X114268492Y-116547903D01*
X114220872Y-116643141D01*
X114173253Y-116833617D01*
X114173253Y-117071712D01*
X114220872Y-117262188D01*
X114268492Y-117357426D01*
X114316111Y-117405045D01*
X114411349Y-117452664D01*
X114506587Y-117452664D01*
X114601825Y-117405045D01*
X114649444Y-117357426D01*
X114697063Y-117262188D01*
X114744682Y-117071712D01*
X114744682Y-116833617D01*
X114697063Y-116643141D01*
X114649444Y-116547903D01*
X114601825Y-116500284D01*
X114506587Y-116452664D01*
X113744682Y-117357426D02*
X113697063Y-117405045D01*
X113744682Y-117452664D01*
X113792301Y-117405045D01*
X113744682Y-117357426D01*
X113744682Y-117452664D01*
X112744682Y-117452664D02*
X113316111Y-117452664D01*
X113030396Y-117452664D02*
X113030396Y-116452664D01*
X113125634Y-116595522D01*
X113220872Y-116690760D01*
X113316111Y-116738379D01*
X112363730Y-116547903D02*
X112316111Y-116500284D01*
X112220872Y-116452664D01*
X111982777Y-116452664D01*
X111887539Y-116500284D01*
X111839920Y-116547903D01*
X111792301Y-116643141D01*
X111792301Y-116738379D01*
X111839920Y-116881236D01*
X112411349Y-117452664D01*
X111792301Y-117452664D01*
X115697063Y-114652664D02*
X115697063Y-113652664D01*
X115316111Y-113652664D01*
X115220872Y-113700284D01*
X115173253Y-113747903D01*
X115125634Y-113843141D01*
X115125634Y-113985998D01*
X115173253Y-114081236D01*
X115220872Y-114128855D01*
X115316111Y-114176474D01*
X115697063Y-114176474D01*
X114173253Y-114652664D02*
X114744682Y-114652664D01*
X114458968Y-114652664D02*
X114458968Y-113652664D01*
X114554206Y-113795522D01*
X114649444Y-113890760D01*
X114744682Y-113938379D01*
X113744682Y-114557426D02*
X113697063Y-114605045D01*
X113744682Y-114652664D01*
X113792301Y-114605045D01*
X113744682Y-114557426D01*
X113744682Y-114652664D01*
X113078015Y-113652664D02*
X112982777Y-113652664D01*
X112887539Y-113700284D01*
X112839920Y-113747903D01*
X112792301Y-113843141D01*
X112744682Y-114033617D01*
X112744682Y-114271712D01*
X112792301Y-114462188D01*
X112839920Y-114557426D01*
X112887539Y-114605045D01*
X112982777Y-114652664D01*
X113078015Y-114652664D01*
X113173253Y-114605045D01*
X113220872Y-114557426D01*
X113268492Y-114462188D01*
X113316111Y-114271712D01*
X113316111Y-114033617D01*
X113268492Y-113843141D01*
X113220872Y-113747903D01*
X113173253Y-113700284D01*
X113078015Y-113652664D01*
X112268492Y-114652664D02*
X112078015Y-114652664D01*
X111982777Y-114605045D01*
X111935158Y-114557426D01*
X111839920Y-114414569D01*
X111792301Y-114224093D01*
X111792301Y-113843141D01*
X111839920Y-113747903D01*
X111887539Y-113700284D01*
X111982777Y-113652664D01*
X112173253Y-113652664D01*
X112268492Y-113700284D01*
X112316111Y-113747903D01*
X112363730Y-113843141D01*
X112363730Y-114081236D01*
X112316111Y-114176474D01*
X112268492Y-114224093D01*
X112173253Y-114271712D01*
X111982777Y-114271712D01*
X111887539Y-114224093D01*
X111839920Y-114176474D01*
X111792301Y-114081236D01*
X115697063Y-112252664D02*
X115697063Y-111252664D01*
X115316111Y-111252664D01*
X115220872Y-111300284D01*
X115173253Y-111347903D01*
X115125634Y-111443141D01*
X115125634Y-111585998D01*
X115173253Y-111681236D01*
X115220872Y-111728855D01*
X115316111Y-111776474D01*
X115697063Y-111776474D01*
X114506587Y-111252664D02*
X114411349Y-111252664D01*
X114316111Y-111300284D01*
X114268492Y-111347903D01*
X114220872Y-111443141D01*
X114173253Y-111633617D01*
X114173253Y-111871712D01*
X114220872Y-112062188D01*
X114268492Y-112157426D01*
X114316111Y-112205045D01*
X114411349Y-112252664D01*
X114506587Y-112252664D01*
X114601825Y-112205045D01*
X114649444Y-112157426D01*
X114697063Y-112062188D01*
X114744682Y-111871712D01*
X114744682Y-111633617D01*
X114697063Y-111443141D01*
X114649444Y-111347903D01*
X114601825Y-111300284D01*
X114506587Y-111252664D01*
X113744682Y-112157426D02*
X113697063Y-112205045D01*
X113744682Y-112252664D01*
X113792301Y-112205045D01*
X113744682Y-112157426D01*
X113744682Y-112252664D01*
X113078015Y-111252664D02*
X112982777Y-111252664D01*
X112887539Y-111300284D01*
X112839920Y-111347903D01*
X112792301Y-111443141D01*
X112744682Y-111633617D01*
X112744682Y-111871712D01*
X112792301Y-112062188D01*
X112839920Y-112157426D01*
X112887539Y-112205045D01*
X112982777Y-112252664D01*
X113078015Y-112252664D01*
X113173253Y-112205045D01*
X113220872Y-112157426D01*
X113268492Y-112062188D01*
X113316111Y-111871712D01*
X113316111Y-111633617D01*
X113268492Y-111443141D01*
X113220872Y-111347903D01*
X113173253Y-111300284D01*
X113078015Y-111252664D01*
X112411349Y-111252664D02*
X111744682Y-111252664D01*
X112173253Y-112252664D01*
X115697063Y-125252664D02*
X115697063Y-124252664D01*
X115316111Y-124252664D01*
X115220872Y-124300284D01*
X115173253Y-124347903D01*
X115125634Y-124443141D01*
X115125634Y-124585998D01*
X115173253Y-124681236D01*
X115220872Y-124728855D01*
X115316111Y-124776474D01*
X115697063Y-124776474D01*
X114506587Y-124252664D02*
X114411349Y-124252664D01*
X114316111Y-124300284D01*
X114268492Y-124347903D01*
X114220872Y-124443141D01*
X114173253Y-124633617D01*
X114173253Y-124871712D01*
X114220872Y-125062188D01*
X114268492Y-125157426D01*
X114316111Y-125205045D01*
X114411349Y-125252664D01*
X114506587Y-125252664D01*
X114601825Y-125205045D01*
X114649444Y-125157426D01*
X114697063Y-125062188D01*
X114744682Y-124871712D01*
X114744682Y-124633617D01*
X114697063Y-124443141D01*
X114649444Y-124347903D01*
X114601825Y-124300284D01*
X114506587Y-124252664D01*
X113744682Y-125157426D02*
X113697063Y-125205045D01*
X113744682Y-125252664D01*
X113792301Y-125205045D01*
X113744682Y-125157426D01*
X113744682Y-125252664D01*
X112744682Y-125252664D02*
X113316111Y-125252664D01*
X113030396Y-125252664D02*
X113030396Y-124252664D01*
X113125634Y-124395522D01*
X113220872Y-124490760D01*
X113316111Y-124538379D01*
X112268492Y-125252664D02*
X112078015Y-125252664D01*
X111982777Y-125205045D01*
X111935158Y-125157426D01*
X111839920Y-125014569D01*
X111792301Y-124824093D01*
X111792301Y-124443141D01*
X111839920Y-124347903D01*
X111887539Y-124300284D01*
X111982777Y-124252664D01*
X112173253Y-124252664D01*
X112268492Y-124300284D01*
X112316111Y-124347903D01*
X112363730Y-124443141D01*
X112363730Y-124681236D01*
X112316111Y-124776474D01*
X112268492Y-124824093D01*
X112173253Y-124871712D01*
X111982777Y-124871712D01*
X111887539Y-124824093D01*
X111839920Y-124776474D01*
X111792301Y-124681236D01*
X115697063Y-122852664D02*
X115697063Y-121852664D01*
X115316111Y-121852664D01*
X115220872Y-121900284D01*
X115173253Y-121947903D01*
X115125634Y-122043141D01*
X115125634Y-122185998D01*
X115173253Y-122281236D01*
X115220872Y-122328855D01*
X115316111Y-122376474D01*
X115697063Y-122376474D01*
X114506587Y-121852664D02*
X114411349Y-121852664D01*
X114316111Y-121900284D01*
X114268492Y-121947903D01*
X114220872Y-122043141D01*
X114173253Y-122233617D01*
X114173253Y-122471712D01*
X114220872Y-122662188D01*
X114268492Y-122757426D01*
X114316111Y-122805045D01*
X114411349Y-122852664D01*
X114506587Y-122852664D01*
X114601825Y-122805045D01*
X114649444Y-122757426D01*
X114697063Y-122662188D01*
X114744682Y-122471712D01*
X114744682Y-122233617D01*
X114697063Y-122043141D01*
X114649444Y-121947903D01*
X114601825Y-121900284D01*
X114506587Y-121852664D01*
X113744682Y-122757426D02*
X113697063Y-122805045D01*
X113744682Y-122852664D01*
X113792301Y-122805045D01*
X113744682Y-122757426D01*
X113744682Y-122852664D01*
X113316111Y-121947903D02*
X113268492Y-121900284D01*
X113173253Y-121852664D01*
X112935158Y-121852664D01*
X112839920Y-121900284D01*
X112792301Y-121947903D01*
X112744682Y-122043141D01*
X112744682Y-122138379D01*
X112792301Y-122281236D01*
X113363730Y-122852664D01*
X112744682Y-122852664D01*
X111792301Y-122852664D02*
X112363730Y-122852664D01*
X112078015Y-122852664D02*
X112078015Y-121852664D01*
X112173253Y-121995522D01*
X112268492Y-122090760D01*
X112363730Y-122138379D01*
X119578015Y-127452664D02*
X119578015Y-126452664D01*
X119197063Y-126452664D01*
X119101825Y-126500284D01*
X119054206Y-126547903D01*
X119006587Y-126643141D01*
X119006587Y-126785998D01*
X119054206Y-126881236D01*
X119101825Y-126928855D01*
X119197063Y-126976474D01*
X119578015Y-126976474D01*
X118387539Y-126452664D02*
X118292301Y-126452664D01*
X118197063Y-126500284D01*
X118149444Y-126547903D01*
X118101825Y-126643141D01*
X118054206Y-126833617D01*
X118054206Y-127071712D01*
X118101825Y-127262188D01*
X118149444Y-127357426D01*
X118197063Y-127405045D01*
X118292301Y-127452664D01*
X118387539Y-127452664D01*
X118482777Y-127405045D01*
X118530396Y-127357426D01*
X118578015Y-127262188D01*
X118625634Y-127071712D01*
X118625634Y-126833617D01*
X118578015Y-126643141D01*
X118530396Y-126547903D01*
X118482777Y-126500284D01*
X118387539Y-126452664D01*
X117625634Y-127357426D02*
X117578015Y-127405045D01*
X117625634Y-127452664D01*
X117673253Y-127405045D01*
X117625634Y-127357426D01*
X117625634Y-127452664D01*
X116625634Y-127452664D02*
X117197063Y-127452664D01*
X116911349Y-127452664D02*
X116911349Y-126452664D01*
X117006587Y-126595522D01*
X117101825Y-126690760D01*
X117197063Y-126738379D01*
X116054206Y-126881236D02*
X116149444Y-126833617D01*
X116197063Y-126785998D01*
X116244682Y-126690760D01*
X116244682Y-126643141D01*
X116197063Y-126547903D01*
X116149444Y-126500284D01*
X116054206Y-126452664D01*
X115863730Y-126452664D01*
X115768492Y-126500284D01*
X115720872Y-126547903D01*
X115673253Y-126643141D01*
X115673253Y-126690760D01*
X115720872Y-126785998D01*
X115768492Y-126833617D01*
X115863730Y-126881236D01*
X116054206Y-126881236D01*
X116149444Y-126928855D01*
X116197063Y-126976474D01*
X116244682Y-127071712D01*
X116244682Y-127262188D01*
X116197063Y-127357426D01*
X116149444Y-127405045D01*
X116054206Y-127452664D01*
X115863730Y-127452664D01*
X115768492Y-127405045D01*
X115720872Y-127357426D01*
X115673253Y-127262188D01*
X115673253Y-127071712D01*
X115720872Y-126976474D01*
X115768492Y-126928855D01*
X115863730Y-126881236D01*
X114530396Y-126405045D02*
X115387539Y-127690760D01*
X113625634Y-127452664D02*
X113958968Y-126976474D01*
X114197063Y-127452664D02*
X114197063Y-126452664D01*
X113816111Y-126452664D01*
X113720872Y-126500284D01*
X113673253Y-126547903D01*
X113625634Y-126643141D01*
X113625634Y-126785998D01*
X113673253Y-126881236D01*
X113720872Y-126928855D01*
X113816111Y-126976474D01*
X114197063Y-126976474D01*
X113244682Y-127405045D02*
X113101825Y-127452664D01*
X112863730Y-127452664D01*
X112768492Y-127405045D01*
X112720872Y-127357426D01*
X112673253Y-127262188D01*
X112673253Y-127166950D01*
X112720872Y-127071712D01*
X112768492Y-127024093D01*
X112863730Y-126976474D01*
X113054206Y-126928855D01*
X113149444Y-126881236D01*
X113197063Y-126833617D01*
X113244682Y-126738379D01*
X113244682Y-126643141D01*
X113197063Y-126547903D01*
X113149444Y-126500284D01*
X113054206Y-126452664D01*
X112816111Y-126452664D01*
X112673253Y-126500284D01*
X112387539Y-126452664D02*
X111816111Y-126452664D01*
X112101825Y-127452664D02*
X112101825Y-126452664D01*
X115697063Y-120052664D02*
X115697063Y-119052664D01*
X115316111Y-119052664D01*
X115220872Y-119100284D01*
X115173253Y-119147903D01*
X115125634Y-119243141D01*
X115125634Y-119385998D01*
X115173253Y-119481236D01*
X115220872Y-119528855D01*
X115316111Y-119576474D01*
X115697063Y-119576474D01*
X114506587Y-119052664D02*
X114411349Y-119052664D01*
X114316111Y-119100284D01*
X114268492Y-119147903D01*
X114220872Y-119243141D01*
X114173253Y-119433617D01*
X114173253Y-119671712D01*
X114220872Y-119862188D01*
X114268492Y-119957426D01*
X114316111Y-120005045D01*
X114411349Y-120052664D01*
X114506587Y-120052664D01*
X114601825Y-120005045D01*
X114649444Y-119957426D01*
X114697063Y-119862188D01*
X114744682Y-119671712D01*
X114744682Y-119433617D01*
X114697063Y-119243141D01*
X114649444Y-119147903D01*
X114601825Y-119100284D01*
X114506587Y-119052664D01*
X113744682Y-119957426D02*
X113697063Y-120005045D01*
X113744682Y-120052664D01*
X113792301Y-120005045D01*
X113744682Y-119957426D01*
X113744682Y-120052664D01*
X113316111Y-119147903D02*
X113268492Y-119100284D01*
X113173253Y-119052664D01*
X112935158Y-119052664D01*
X112839920Y-119100284D01*
X112792301Y-119147903D01*
X112744682Y-119243141D01*
X112744682Y-119338379D01*
X112792301Y-119481236D01*
X113363730Y-120052664D01*
X112744682Y-120052664D01*
X112411349Y-119052664D02*
X111792301Y-119052664D01*
X112125634Y-119433617D01*
X111982777Y-119433617D01*
X111887539Y-119481236D01*
X111839920Y-119528855D01*
X111792301Y-119624093D01*
X111792301Y-119862188D01*
X111839920Y-119957426D01*
X111887539Y-120005045D01*
X111982777Y-120052664D01*
X112268492Y-120052664D01*
X112363730Y-120005045D01*
X112411349Y-119957426D01*
M02*
