M48
;DRILL file {KiCad (5.0.0-3-g5ebb6b6)} date 2019 February 03, Sunday 17:20:36
;FORMAT={-:-/ absolute / metric / decimal}
FMAT,2
METRIC,TZ
T1C0.300
T2C1.000
%
G90
G05
M71
T1
X100.4Y-113.8
X100.8Y-83.
X101.2Y-114.4
X101.6Y-83.
X102.Y-115.
X102.4Y-83.
X102.8Y-111.6
X103.2Y-83.
X103.6Y-110.8
X104.Y-83.
X104.8Y-83.
X105.6Y-83.
X106.4Y-83.
X107.2Y-83.
X108.Y-83.
X108.8Y-83.
X109.6Y-83.
X110.6Y-98.4
X111.6Y-102.6
X113.8Y-85.
X113.8Y-90.4
X113.8Y-91.5
X113.8Y-86.2
X113.8Y-87.2
X113.8Y-88.2
X113.8Y-89.4
X113.8Y-93.8
X113.8Y-95.6
X114.Y-92.6
X120.8Y-102.6
X122.6Y-87.2
X122.6Y-89.4
X122.6Y-91.6
X122.6Y-85.
X122.6Y-86.
X122.6Y-88.2
X122.6Y-90.4
X122.6Y-92.6
X122.6Y-93.8
X127.Y-83.
X127.155Y-116.645
X127.8Y-83.
X128.6Y-90.6
X128.6Y-83.
X128.6Y-91.6
X128.6Y-92.8
X128.6Y-93.8
X128.6Y-95.
X128.6Y-115.2
X129.4Y-83.
X129.6Y-98.
X129.6Y-100.6
X130.Y-116.5
X130.2Y-83.
X130.4Y-97.
X130.4Y-100.
X131.Y-83.
X131.Y-93.8
X131.Y-95.
X131.1Y-90.6
X131.1Y-91.6
X131.1Y-92.8
X131.2Y-119.4
X131.8Y-83.
X132.6Y-83.
X133.4Y-83.
X134.2Y-83.
X135.Y-83.
X135.8Y-83.
X136.6Y-83.
T2
X109.8Y-111.6
X109.8Y-114.14
X109.8Y-116.68
X109.8Y-119.22
X109.8Y-121.76
X109.8Y-124.3
X109.8Y-126.84
X109.8Y-129.38
X109.8Y-131.92
X109.8Y-134.46
X139.Y-84.22
X139.Y-86.76
X139.Y-89.3
X139.Y-91.84
X139.Y-94.38
X139.Y-96.92
X139.Y-99.46
X139.Y-102.
X139.Y-104.54
X139.Y-107.08
X139.Y-109.62
X139.Y-112.16
X139.Y-114.7
X139.Y-117.24
X139.Y-119.78
X139.Y-122.32
X139.Y-124.86
X139.Y-127.4
X123.4Y-104.26
X123.4Y-106.8
X123.4Y-109.34
X123.4Y-111.88
X123.4Y-114.42
X123.4Y-116.96
X98.2Y-84.2
X98.2Y-86.74
X98.2Y-89.28
X98.2Y-91.82
X98.2Y-94.36
X98.2Y-96.9
X98.2Y-99.44
X98.2Y-101.98
X98.2Y-104.52
X98.2Y-107.06
X98.2Y-109.6
X98.2Y-112.14
X98.2Y-114.68
X98.2Y-117.22
X98.2Y-119.76
X98.2Y-122.3
X98.2Y-124.84
X98.2Y-127.38
X98.2Y-129.92
X98.2Y-132.46
X98.2Y-135.
X98.2Y-137.54
T0
M30
