G04 #@! TF.GenerationSoftware,KiCad,Pcbnew,(5.0.0)*
G04 #@! TF.CreationDate,2018-09-13T11:25:45+02:00*
G04 #@! TF.ProjectId,HolyIoT-NRF52840-Breakout,486F6C79496F542D4E52463532383430,1.0*
G04 #@! TF.SameCoordinates,Original*
G04 #@! TF.FileFunction,Copper,L1,Top,Signal*
G04 #@! TF.FilePolarity,Positive*
%FSLAX46Y46*%
G04 Gerber Fmt 4.6, Leading zero omitted, Abs format (unit mm)*
G04 Created by KiCad (PCBNEW (5.0.0)) date 09/13/18 11:25:45*
%MOMM*%
%LPD*%
G01*
G04 APERTURE LIST*
G04 #@! TA.AperFunction,ComponentPad*
%ADD10R,1.700000X1.700000*%
G04 #@! TD*
G04 #@! TA.AperFunction,ComponentPad*
%ADD11O,1.700000X1.700000*%
G04 #@! TD*
G04 #@! TA.AperFunction,SMDPad,CuDef*
%ADD12R,0.800000X1.000000*%
G04 #@! TD*
G04 #@! TA.AperFunction,SMDPad,CuDef*
%ADD13R,1.000000X0.800000*%
G04 #@! TD*
G04 #@! TA.AperFunction,SMDPad,CuDef*
%ADD14R,2.400000X0.740000*%
G04 #@! TD*
G04 #@! TA.AperFunction,SMDPad,CuDef*
%ADD15R,1.397000X0.889000*%
G04 #@! TD*
G04 #@! TA.AperFunction,SMDPad,CuDef*
%ADD16R,0.400000X1.350000*%
G04 #@! TD*
G04 #@! TA.AperFunction,ComponentPad*
%ADD17O,1.250000X0.950000*%
G04 #@! TD*
G04 #@! TA.AperFunction,ComponentPad*
%ADD18O,1.000000X1.550000*%
G04 #@! TD*
G04 #@! TA.AperFunction,ViaPad*
%ADD19C,0.600000*%
G04 #@! TD*
G04 #@! TA.AperFunction,Conductor*
%ADD20C,0.200000*%
G04 #@! TD*
G04 APERTURE END LIST*
D10*
G04 #@! TO.P,J2,1*
G04 #@! TO.N,Net-(J2-Pad1)*
X139000000Y-127400000D03*
D11*
G04 #@! TO.P,J2,2*
G04 #@! TO.N,Net-(J2-Pad2)*
X139000000Y-124860000D03*
G04 #@! TO.P,J2,3*
G04 #@! TO.N,Net-(J2-Pad3)*
X139000000Y-122320000D03*
G04 #@! TO.P,J2,4*
G04 #@! TO.N,Net-(J2-Pad4)*
X139000000Y-119780000D03*
G04 #@! TO.P,J2,5*
G04 #@! TO.N,Net-(J2-Pad5)*
X139000000Y-117240000D03*
G04 #@! TO.P,J2,6*
G04 #@! TO.N,Net-(J2-Pad6)*
X139000000Y-114700000D03*
G04 #@! TO.P,J2,7*
G04 #@! TO.N,Net-(J2-Pad7)*
X139000000Y-112160000D03*
G04 #@! TO.P,J2,8*
G04 #@! TO.N,Net-(J2-Pad8)*
X139000000Y-109620000D03*
G04 #@! TO.P,J2,9*
G04 #@! TO.N,Net-(J2-Pad9)*
X139000000Y-107080000D03*
G04 #@! TO.P,J2,10*
G04 #@! TO.N,Net-(J2-Pad10)*
X139000000Y-104540000D03*
G04 #@! TO.P,J2,11*
G04 #@! TO.N,Net-(J2-Pad11)*
X139000000Y-102000000D03*
G04 #@! TO.P,J2,12*
G04 #@! TO.N,Net-(J2-Pad12)*
X139000000Y-99460000D03*
G04 #@! TO.P,J2,13*
G04 #@! TO.N,Net-(J2-Pad13)*
X139000000Y-96920000D03*
G04 #@! TO.P,J2,14*
G04 #@! TO.N,Net-(J2-Pad14)*
X139000000Y-94380000D03*
G04 #@! TO.P,J2,15*
G04 #@! TO.N,Net-(J2-Pad15)*
X139000000Y-91840000D03*
G04 #@! TO.P,J2,16*
G04 #@! TO.N,Net-(J2-Pad16)*
X139000000Y-89300000D03*
G04 #@! TO.P,J2,17*
G04 #@! TO.N,Net-(J2-Pad17)*
X139000000Y-86760000D03*
G04 #@! TO.P,J2,18*
G04 #@! TO.N,Net-(J2-Pad18)*
X139000000Y-84220000D03*
G04 #@! TD*
D12*
G04 #@! TO.P,U1,47*
G04 #@! TO.N,Net-(C1-Pad1)*
X121550000Y-97500000D03*
G04 #@! TO.P,U1,45*
G04 #@! TO.N,Net-(R2-Pad1)*
X123750000Y-97500000D03*
G04 #@! TO.P,U1,46*
G04 #@! TO.N,Net-(R1-Pad1)*
X122650000Y-97500000D03*
G04 #@! TO.P,U1,48*
G04 #@! TO.N,Net-(J3-Pad7)*
X120450000Y-97500000D03*
G04 #@! TO.P,U1,55*
G04 #@! TO.N,V_NRF*
X112750000Y-97500000D03*
G04 #@! TO.P,U1,49*
G04 #@! TO.N,Net-(J3-Pad6)*
X119350000Y-97500000D03*
G04 #@! TO.P,U1,50*
G04 #@! TO.N,Net-(J3-Pad5)*
X118250000Y-97500000D03*
G04 #@! TO.P,U1,51*
G04 #@! TO.N,Net-(J3-Pad4)*
X117150000Y-97500000D03*
G04 #@! TO.P,U1,52*
G04 #@! TO.N,Net-(J3-Pad3)*
X116050000Y-97500000D03*
G04 #@! TO.P,U1,53*
G04 #@! TO.N,Net-(J3-Pad2)*
X114950000Y-97500000D03*
G04 #@! TO.P,U1,54*
G04 #@! TO.N,Net-(J3-Pad1)*
X113850000Y-97500000D03*
D13*
G04 #@! TO.P,U1,40*
G04 #@! TO.N,Net-(J2-Pad13)*
X125000000Y-91600000D03*
G04 #@! TO.P,U1,42*
G04 #@! TO.N,Net-(J2-Pad11)*
X125000000Y-93800000D03*
G04 #@! TO.P,U1,41*
G04 #@! TO.N,Net-(J2-Pad12)*
X125000000Y-92700000D03*
G04 #@! TO.P,U1,39*
G04 #@! TO.N,Net-(J2-Pad14)*
X125000000Y-90500000D03*
G04 #@! TO.P,U1,44*
G04 #@! TO.N,GND*
X125000000Y-96000000D03*
G04 #@! TO.P,U1,43*
G04 #@! TO.N,Net-(J2-Pad10)*
X125000000Y-94900000D03*
G04 #@! TO.P,U1,32*
G04 #@! TO.N,GND*
X125000000Y-82800000D03*
G04 #@! TO.P,U1,38*
G04 #@! TO.N,SWDCLK*
X125000000Y-89400000D03*
G04 #@! TO.P,U1,37*
G04 #@! TO.N,SWDIO*
X125000000Y-88300000D03*
G04 #@! TO.P,U1,36*
G04 #@! TO.N,Net-(J2-Pad15)*
X125000000Y-87200000D03*
G04 #@! TO.P,U1,35*
G04 #@! TO.N,Net-(J2-Pad16)*
X125000000Y-86100000D03*
G04 #@! TO.P,U1,34*
G04 #@! TO.N,Net-(J2-Pad17)*
X125000000Y-85000000D03*
G04 #@! TO.P,U1,33*
G04 #@! TO.N,Net-(J2-Pad18)*
X125000000Y-83900000D03*
G04 #@! TO.P,U1,13*
G04 #@! TO.N,Net-(J1-Pad13)*
X111500000Y-96000000D03*
G04 #@! TO.P,U1,12*
G04 #@! TO.N,Net-(J1-Pad12)*
X111500000Y-94900000D03*
G04 #@! TO.P,U1,11*
G04 #@! TO.N,Net-(J1-Pad11)*
X111500000Y-93800000D03*
G04 #@! TO.P,U1,10*
G04 #@! TO.N,Net-(J1-Pad10)*
X111500000Y-92700000D03*
G04 #@! TO.P,U1,9*
G04 #@! TO.N,Net-(J1-Pad9)*
X111500000Y-91600000D03*
G04 #@! TO.P,U1,8*
G04 #@! TO.N,Net-(J1-Pad8)*
X111500000Y-90500000D03*
G04 #@! TO.P,U1,27*
G04 #@! TO.N,Net-(J2-Pad5)*
X122600000Y-89400000D03*
G04 #@! TO.P,U1,25*
G04 #@! TO.N,Net-(J2-Pad7)*
X122600000Y-87200000D03*
G04 #@! TO.P,U1,24*
G04 #@! TO.N,Net-(J2-Pad8)*
X122600000Y-86100000D03*
G04 #@! TO.P,U1,29*
G04 #@! TO.N,Net-(J2-Pad3)*
X122600000Y-91600000D03*
G04 #@! TO.P,U1,30*
G04 #@! TO.N,Net-(J2-Pad2)*
X122600000Y-92700000D03*
G04 #@! TO.P,U1,31*
G04 #@! TO.N,Net-(J2-Pad1)*
X122600000Y-93800000D03*
G04 #@! TO.P,U1,28*
G04 #@! TO.N,Net-(J2-Pad4)*
X122600000Y-90500000D03*
G04 #@! TO.P,U1,23*
G04 #@! TO.N,Net-(J2-Pad9)*
X122600000Y-85000000D03*
G04 #@! TO.P,U1,26*
G04 #@! TO.N,Net-(J2-Pad6)*
X122600000Y-88300000D03*
G04 #@! TO.P,U1,22*
G04 #@! TO.N,Net-(J1-Pad22)*
X113900000Y-93800000D03*
G04 #@! TO.P,U1,21*
G04 #@! TO.N,Net-(J1-Pad21)*
X113900000Y-92700000D03*
G04 #@! TO.P,U1,20*
G04 #@! TO.N,Net-(J1-Pad20)*
X113900000Y-91600000D03*
G04 #@! TO.P,U1,19*
G04 #@! TO.N,Net-(J1-Pad19)*
X113900000Y-90500000D03*
G04 #@! TO.P,U1,18*
G04 #@! TO.N,Net-(J1-Pad18)*
X113900000Y-89400000D03*
G04 #@! TO.P,U1,17*
G04 #@! TO.N,Net-(J1-Pad17)*
X113900000Y-88300000D03*
G04 #@! TO.P,U1,16*
G04 #@! TO.N,Net-(J1-Pad16)*
X113900000Y-87200000D03*
G04 #@! TO.P,U1,15*
G04 #@! TO.N,Net-(J1-Pad15)*
X113900000Y-86100000D03*
G04 #@! TO.P,U1,14*
G04 #@! TO.N,Net-(J1-Pad14)*
X113900000Y-85000000D03*
G04 #@! TO.P,U1,7*
G04 #@! TO.N,Net-(J1-Pad7)*
X111500000Y-89400000D03*
G04 #@! TO.P,U1,6*
G04 #@! TO.N,Net-(J1-Pad6)*
X111500000Y-88300000D03*
G04 #@! TO.P,U1,5*
G04 #@! TO.N,Net-(J1-Pad5)*
X111500000Y-87200000D03*
G04 #@! TO.P,U1,4*
G04 #@! TO.N,Net-(J1-Pad4)*
X111500000Y-86100000D03*
G04 #@! TO.P,U1,3*
G04 #@! TO.N,Net-(J1-Pad3)*
X111500000Y-85000000D03*
G04 #@! TO.P,U1,2*
G04 #@! TO.N,Net-(J1-Pad2)*
X111500000Y-83900000D03*
G04 #@! TO.P,U1,1*
G04 #@! TO.N,GND*
X111500000Y-82800000D03*
G04 #@! TD*
D14*
G04 #@! TO.P,J4,1*
G04 #@! TO.N,V_NRF*
X123650000Y-107060000D03*
G04 #@! TO.P,J4,2*
G04 #@! TO.N,SWDIO*
X127550000Y-107060000D03*
G04 #@! TO.P,J4,3*
G04 #@! TO.N,GND*
X123650000Y-108330000D03*
G04 #@! TO.P,J4,4*
G04 #@! TO.N,SWDCLK*
X127550000Y-108330000D03*
G04 #@! TO.P,J4,5*
G04 #@! TO.N,N/C*
X123650000Y-109600000D03*
G04 #@! TO.P,J4,6*
X127550000Y-109600000D03*
G04 #@! TO.P,J4,7*
X123650000Y-110870000D03*
G04 #@! TO.P,J4,8*
X127550000Y-110870000D03*
G04 #@! TO.P,J4,9*
X123650000Y-112140000D03*
G04 #@! TO.P,J4,10*
X127550000Y-112140000D03*
G04 #@! TD*
D15*
G04 #@! TO.P,R2,2*
G04 #@! TO.N,Net-(P1-Pad3)*
X126800000Y-133352500D03*
G04 #@! TO.P,R2,1*
G04 #@! TO.N,Net-(R2-Pad1)*
X126800000Y-131447500D03*
G04 #@! TD*
G04 #@! TO.P,R1,1*
G04 #@! TO.N,Net-(R1-Pad1)*
X124000000Y-131447500D03*
G04 #@! TO.P,R1,2*
G04 #@! TO.N,Net-(P1-Pad2)*
X124000000Y-133352500D03*
G04 #@! TD*
G04 #@! TO.P,C1,1*
G04 #@! TO.N,Net-(C1-Pad1)*
X121200000Y-133352500D03*
G04 #@! TO.P,C1,2*
G04 #@! TO.N,GND*
X121200000Y-131447500D03*
G04 #@! TD*
D10*
G04 #@! TO.P,J1,1*
G04 #@! TO.N,GND*
X98200000Y-84200000D03*
D11*
G04 #@! TO.P,J1,2*
G04 #@! TO.N,Net-(J1-Pad2)*
X98200000Y-86740000D03*
G04 #@! TO.P,J1,3*
G04 #@! TO.N,Net-(J1-Pad3)*
X98200000Y-89280000D03*
G04 #@! TO.P,J1,4*
G04 #@! TO.N,Net-(J1-Pad4)*
X98200000Y-91820000D03*
G04 #@! TO.P,J1,5*
G04 #@! TO.N,Net-(J1-Pad5)*
X98200000Y-94360000D03*
G04 #@! TO.P,J1,6*
G04 #@! TO.N,Net-(J1-Pad6)*
X98200000Y-96900000D03*
G04 #@! TO.P,J1,7*
G04 #@! TO.N,Net-(J1-Pad7)*
X98200000Y-99440000D03*
G04 #@! TO.P,J1,8*
G04 #@! TO.N,Net-(J1-Pad8)*
X98200000Y-101980000D03*
G04 #@! TO.P,J1,9*
G04 #@! TO.N,Net-(J1-Pad9)*
X98200000Y-104520000D03*
G04 #@! TO.P,J1,10*
G04 #@! TO.N,Net-(J1-Pad10)*
X98200000Y-107060000D03*
G04 #@! TO.P,J1,11*
G04 #@! TO.N,Net-(J1-Pad11)*
X98200000Y-109600000D03*
G04 #@! TO.P,J1,12*
G04 #@! TO.N,Net-(J1-Pad12)*
X98200000Y-112140000D03*
G04 #@! TO.P,J1,13*
G04 #@! TO.N,Net-(J1-Pad13)*
X98200000Y-114680000D03*
G04 #@! TO.P,J1,14*
G04 #@! TO.N,Net-(J1-Pad14)*
X98200000Y-117220000D03*
G04 #@! TO.P,J1,15*
G04 #@! TO.N,Net-(J1-Pad15)*
X98200000Y-119760000D03*
G04 #@! TO.P,J1,16*
G04 #@! TO.N,Net-(J1-Pad16)*
X98200000Y-122300000D03*
G04 #@! TO.P,J1,17*
G04 #@! TO.N,Net-(J1-Pad17)*
X98200000Y-124840000D03*
G04 #@! TO.P,J1,18*
G04 #@! TO.N,Net-(J1-Pad18)*
X98200000Y-127380000D03*
G04 #@! TO.P,J1,19*
G04 #@! TO.N,Net-(J1-Pad19)*
X98200000Y-129920000D03*
G04 #@! TO.P,J1,20*
G04 #@! TO.N,Net-(J1-Pad20)*
X98200000Y-132460000D03*
G04 #@! TO.P,J1,21*
G04 #@! TO.N,Net-(J1-Pad21)*
X98200000Y-135000000D03*
G04 #@! TO.P,J1,22*
G04 #@! TO.N,Net-(J1-Pad22)*
X98200000Y-137540000D03*
G04 #@! TD*
D16*
G04 #@! TO.P,P1,1*
G04 #@! TO.N,Net-(C1-Pad1)*
X134299100Y-137437460D03*
G04 #@! TO.P,P1,2*
G04 #@! TO.N,Net-(P1-Pad2)*
X134949100Y-137437460D03*
G04 #@! TO.P,P1,3*
G04 #@! TO.N,Net-(P1-Pad3)*
X135599100Y-137437460D03*
G04 #@! TO.P,P1,4*
G04 #@! TO.N,N/C*
X136249100Y-137437460D03*
G04 #@! TO.P,P1,5*
G04 #@! TO.N,GND*
X136899100Y-137437460D03*
D17*
G04 #@! TO.P,P1,6*
G04 #@! TO.N,N/C*
X133099100Y-137437460D03*
X138099100Y-137437460D03*
D18*
X132099100Y-140137460D03*
X139099100Y-140137460D03*
G04 #@! TD*
D10*
G04 #@! TO.P,J3,1*
G04 #@! TO.N,Net-(J3-Pad1)*
X109800000Y-111600000D03*
D11*
G04 #@! TO.P,J3,2*
G04 #@! TO.N,Net-(J3-Pad2)*
X109800000Y-114140000D03*
G04 #@! TO.P,J3,3*
G04 #@! TO.N,Net-(J3-Pad3)*
X109800000Y-116680000D03*
G04 #@! TO.P,J3,4*
G04 #@! TO.N,Net-(J3-Pad4)*
X109800000Y-119220000D03*
G04 #@! TO.P,J3,5*
G04 #@! TO.N,Net-(J3-Pad5)*
X109800000Y-121760000D03*
G04 #@! TO.P,J3,6*
G04 #@! TO.N,Net-(J3-Pad6)*
X109800000Y-124300000D03*
G04 #@! TO.P,J3,7*
G04 #@! TO.N,Net-(J3-Pad7)*
X109800000Y-126840000D03*
G04 #@! TD*
D15*
G04 #@! TO.P,C2,1*
G04 #@! TO.N,V_NRF*
X109600000Y-104047500D03*
G04 #@! TO.P,C2,2*
G04 #@! TO.N,GND*
X109600000Y-105952500D03*
G04 #@! TD*
D19*
G04 #@! TO.N,Net-(J2-Pad2)*
X122600000Y-92600000D03*
X131200000Y-119400000D03*
G04 #@! TO.N,Net-(J2-Pad3)*
X122599998Y-91600000D03*
X130200000Y-117300000D03*
G04 #@! TO.N,Net-(J2-Pad4)*
X122600000Y-90400000D03*
G04 #@! TO.N,Net-(J2-Pad5)*
X122599998Y-89400000D03*
G04 #@! TO.N,Net-(J2-Pad6)*
X122600000Y-88200000D03*
G04 #@! TO.N,Net-(J2-Pad7)*
X122599998Y-87200000D03*
G04 #@! TO.N,Net-(J2-Pad8)*
X122600000Y-86000000D03*
G04 #@! TO.N,Net-(J2-Pad9)*
X122600000Y-85000000D03*
G04 #@! TO.N,GND*
X110600000Y-98400000D03*
X113800000Y-95600000D03*
G04 #@! TO.N,Net-(J2-Pad11)*
X131000000Y-93800000D03*
X128600000Y-93800000D03*
G04 #@! TO.N,Net-(J2-Pad10)*
X131000000Y-95000000D03*
X128600000Y-95000006D03*
G04 #@! TO.N,Net-(J2-Pad12)*
X128600000Y-92800000D03*
X131100000Y-92800000D03*
G04 #@! TO.N,Net-(J2-Pad14)*
X128599996Y-90600000D03*
X131100000Y-90600000D03*
G04 #@! TO.N,Net-(J1-Pad22)*
X113800000Y-93800000D03*
G04 #@! TO.N,Net-(J1-Pad21)*
X114000000Y-92600000D03*
G04 #@! TO.N,Net-(J1-Pad20)*
X113799999Y-91500012D03*
G04 #@! TO.N,Net-(J1-Pad19)*
X113799998Y-90400000D03*
G04 #@! TO.N,Net-(J1-Pad18)*
X113800000Y-89400000D03*
X103600000Y-110800000D03*
G04 #@! TO.N,Net-(J1-Pad17)*
X113800000Y-88200000D03*
X102800000Y-111600000D03*
G04 #@! TO.N,Net-(J1-Pad16)*
X113800000Y-87200000D03*
X102000000Y-115000000D03*
G04 #@! TO.N,Net-(J1-Pad15)*
X113800000Y-86200000D03*
X101200000Y-114400000D03*
G04 #@! TO.N,Net-(J1-Pad14)*
X113799998Y-85000000D03*
X100400000Y-113800016D03*
G04 #@! TO.N,Net-(C1-Pad1)*
X119400000Y-133200000D03*
X118200000Y-128600000D03*
G04 #@! TO.N,SWDCLK*
X129600000Y-98000000D03*
X129595005Y-100202497D03*
G04 #@! TO.N,SWDIO*
X130400000Y-97000000D03*
X130400000Y-99600000D03*
G04 #@! TO.N,V_NRF*
X111600000Y-104000000D03*
X120799994Y-104000000D03*
G04 #@! TO.N,Net-(J2-Pad1)*
X122600000Y-93800000D03*
G04 #@! TO.N,Net-(J2-Pad13)*
X131100000Y-91600000D03*
X128600000Y-91600000D03*
G04 #@! TD*
D20*
G04 #@! TO.N,Net-(J1-Pad2)*
X101040000Y-83900000D02*
X98200000Y-86740000D01*
X111500000Y-83900000D02*
X101040000Y-83900000D01*
G04 #@! TO.N,Net-(J1-Pad3)*
X98200000Y-89000000D02*
X98200000Y-89280000D01*
X102200000Y-85000000D02*
X98200000Y-89000000D01*
X111500000Y-85000000D02*
X102200000Y-85000000D01*
G04 #@! TO.N,Net-(J1-Pad4)*
X110800000Y-86100000D02*
X110700000Y-86000000D01*
X98200000Y-91400000D02*
X98200000Y-91820000D01*
X103600000Y-86000000D02*
X98200000Y-91400000D01*
X110700000Y-86000000D02*
X103600000Y-86000000D01*
X111500000Y-86100000D02*
X110800000Y-86100000D01*
G04 #@! TO.N,Net-(J1-Pad5)*
X98200000Y-94200000D02*
X98200000Y-94360000D01*
X105200000Y-87200000D02*
X98200000Y-94200000D01*
X111500000Y-87200000D02*
X105200000Y-87200000D01*
G04 #@! TO.N,Net-(J1-Pad6)*
X98200000Y-96400000D02*
X98200000Y-96900000D01*
X110700000Y-88200000D02*
X106400000Y-88200000D01*
X106400000Y-88200000D02*
X98200000Y-96400000D01*
X110800000Y-88300000D02*
X110700000Y-88200000D01*
X111500000Y-88300000D02*
X110800000Y-88300000D01*
G04 #@! TO.N,Net-(J1-Pad7)*
X98200000Y-99000000D02*
X98200000Y-99440000D01*
X107800000Y-89400000D02*
X98200000Y-99000000D01*
X111500000Y-89400000D02*
X107800000Y-89400000D01*
G04 #@! TO.N,Net-(J1-Pad8)*
X100200000Y-98600000D02*
X100200000Y-99980000D01*
X100200000Y-99980000D02*
X98200000Y-101980000D01*
X108300000Y-90500000D02*
X100200000Y-98600000D01*
X111500000Y-90500000D02*
X108300000Y-90500000D01*
G04 #@! TO.N,Net-(J1-Pad9)*
X101200000Y-101520000D02*
X98200000Y-104520000D01*
X101200000Y-99200000D02*
X101200000Y-101520000D01*
X108800000Y-91600000D02*
X101200000Y-99200000D01*
X111500000Y-91600000D02*
X108800000Y-91600000D01*
G04 #@! TO.N,Net-(J1-Pad10)*
X102400000Y-102860000D02*
X98200000Y-107060000D01*
X102400000Y-99600000D02*
X102400000Y-102860000D01*
X109300000Y-92700000D02*
X102400000Y-99600000D01*
X111500000Y-92700000D02*
X109300000Y-92700000D01*
G04 #@! TO.N,Net-(J1-Pad11)*
X103400000Y-104400000D02*
X98200000Y-109600000D01*
X103400000Y-100200000D02*
X103400000Y-104400000D01*
X109800000Y-93800000D02*
X103400000Y-100200000D01*
X111500000Y-93800000D02*
X109800000Y-93800000D01*
G04 #@! TO.N,Net-(J1-Pad12)*
X104600000Y-105740000D02*
X98600000Y-111740000D01*
X104600000Y-100600000D02*
X104600000Y-105740000D01*
X110300000Y-94900000D02*
X104600000Y-100600000D01*
X98600000Y-111740000D02*
X98200000Y-112140000D01*
X111500000Y-94900000D02*
X110300000Y-94900000D01*
G04 #@! TO.N,Net-(J1-Pad13)*
X98200000Y-114563996D02*
X98200000Y-114680000D01*
X106000000Y-106763996D02*
X98200000Y-114563996D01*
X106000000Y-101500000D02*
X106000000Y-106763996D01*
X111500000Y-96000000D02*
X106000000Y-101500000D01*
G04 #@! TO.N,Net-(J2-Pad2)*
X131499999Y-119699999D02*
X131200000Y-119400000D01*
X136660000Y-124860000D02*
X131499999Y-119699999D01*
X139000000Y-124860000D02*
X136660000Y-124860000D01*
G04 #@! TO.N,Net-(J2-Pad3)*
X135220000Y-122320000D02*
X130499999Y-117599999D01*
X130499999Y-117599999D02*
X130200000Y-117300000D01*
X139000000Y-122320000D02*
X135220000Y-122320000D01*
G04 #@! TO.N,Net-(J3-Pad1)*
X112600000Y-109850000D02*
X112600000Y-99450000D01*
X113850000Y-98200000D02*
X113850000Y-97500000D01*
X110850000Y-111600000D02*
X112600000Y-109850000D01*
X112600000Y-99450000D02*
X113850000Y-98200000D01*
X109800000Y-111600000D02*
X110850000Y-111600000D01*
G04 #@! TO.N,Net-(J3-Pad2)*
X111200000Y-114200000D02*
X113400000Y-112000000D01*
X114950000Y-98250000D02*
X114950000Y-97500000D01*
X113400000Y-112000000D02*
X113400000Y-99800000D01*
X111062081Y-114200000D02*
X111200000Y-114200000D01*
X113400000Y-99800000D02*
X114950000Y-98250000D01*
X111002081Y-114140000D02*
X111062081Y-114200000D01*
X109800000Y-114140000D02*
X111002081Y-114140000D01*
G04 #@! TO.N,Net-(J3-Pad3)*
X112320000Y-116680000D02*
X109800000Y-116680000D01*
X114200000Y-100050000D02*
X114200000Y-114800000D01*
X116050000Y-98200000D02*
X114200000Y-100050000D01*
X114200000Y-114800000D02*
X112320000Y-116680000D01*
X116050000Y-98200000D02*
X116050000Y-97500000D01*
G04 #@! TO.N,Net-(J3-Pad4)*
X117150000Y-98250000D02*
X117150000Y-97500000D01*
X115000000Y-100400000D02*
X117150000Y-98250000D01*
X115000000Y-117000000D02*
X115000000Y-100400000D01*
X112780000Y-119220000D02*
X115000000Y-117000000D01*
X109800000Y-119220000D02*
X112780000Y-119220000D01*
G04 #@! TO.N,Net-(J3-Pad5)*
X118250000Y-98150000D02*
X118250000Y-97500000D01*
X115800000Y-118000000D02*
X115800000Y-100600000D01*
X115800000Y-100600000D02*
X118250000Y-98150000D01*
X112040000Y-121760000D02*
X115800000Y-118000000D01*
X109800000Y-121760000D02*
X112040000Y-121760000D01*
G04 #@! TO.N,Net-(J3-Pad6)*
X119350000Y-98200000D02*
X119350000Y-97500000D01*
X116600000Y-100950000D02*
X119350000Y-98200000D01*
X116600000Y-119200000D02*
X116600000Y-100950000D01*
X109800000Y-124300000D02*
X109900000Y-124400000D01*
X111400000Y-124400000D02*
X116600000Y-119200000D01*
X109900000Y-124400000D02*
X111400000Y-124400000D01*
G04 #@! TO.N,Net-(J3-Pad7)*
X117400000Y-101250000D02*
X120450000Y-98200000D01*
X120450000Y-98200000D02*
X120450000Y-97500000D01*
X117400000Y-122000000D02*
X117400000Y-101250000D01*
X112560000Y-126840000D02*
X117400000Y-122000000D01*
X109800000Y-126840000D02*
X112560000Y-126840000D01*
G04 #@! TO.N,Net-(J2-Pad11)*
X128000000Y-93800000D02*
X128600000Y-93800000D01*
X128000000Y-93800000D02*
X125000000Y-93800000D01*
X131600000Y-93800000D02*
X131000000Y-93800000D01*
X136200000Y-98400000D02*
X131600000Y-93800000D01*
X139000000Y-102000000D02*
X136200000Y-99200000D01*
X136200000Y-99200000D02*
X136200000Y-98400000D01*
G04 #@! TO.N,Net-(J2-Pad10)*
X125000000Y-94900000D02*
X128499994Y-94900000D01*
X128499994Y-94900000D02*
X128600000Y-95000006D01*
X131400000Y-95000000D02*
X131000000Y-95000000D01*
X135400000Y-99000000D02*
X131400000Y-95000000D01*
X139000000Y-104540000D02*
X135400000Y-100940000D01*
X135400000Y-100940000D02*
X135400000Y-99000000D01*
G04 #@! TO.N,Net-(J2-Pad12)*
X125000000Y-92700000D02*
X125100000Y-92800000D01*
X125100000Y-92800000D02*
X128600000Y-92800000D01*
X138600000Y-99460000D02*
X139000000Y-99460000D01*
X131100000Y-92800000D02*
X131940000Y-92800000D01*
X131940000Y-92800000D02*
X138600000Y-99460000D01*
G04 #@! TO.N,Net-(J2-Pad18)*
X137379978Y-82599978D02*
X139000000Y-84220000D01*
X127800022Y-82599978D02*
X137379978Y-82599978D01*
X125000000Y-83900000D02*
X126500000Y-83900000D01*
X126500000Y-83900000D02*
X127800022Y-82599978D01*
G04 #@! TO.N,Net-(J2-Pad16)*
X126300000Y-86100000D02*
X125000000Y-86100000D01*
X128800000Y-83600000D02*
X126300000Y-86100000D01*
X134400000Y-83600000D02*
X128800000Y-83600000D01*
X136200000Y-85400000D02*
X134400000Y-83600000D01*
X139000000Y-89300000D02*
X136200000Y-86500000D01*
X136200000Y-86500000D02*
X136200000Y-85400000D01*
G04 #@! TO.N,Net-(J2-Pad15)*
X126400000Y-87200000D02*
X125000000Y-87200000D01*
X129400000Y-84200000D02*
X126400000Y-87200000D01*
X134000000Y-84200000D02*
X129400000Y-84200000D01*
X135600000Y-85800000D02*
X134000000Y-84200000D01*
X139000000Y-91840000D02*
X135600000Y-88440000D01*
X135600000Y-88440000D02*
X135600000Y-85800000D01*
G04 #@! TO.N,Net-(J2-Pad14)*
X131100000Y-90600000D02*
X134820000Y-90600000D01*
X128499996Y-90500000D02*
X128599996Y-90600000D01*
X125000000Y-90500000D02*
X128499996Y-90500000D01*
X137750001Y-93530001D02*
X134820000Y-90600000D01*
X138150001Y-93530001D02*
X137750001Y-93530001D01*
X139000000Y-94380000D02*
X138150001Y-93530001D01*
G04 #@! TO.N,Net-(J2-Pad17)*
X135339989Y-83099989D02*
X139000000Y-86760000D01*
X128100011Y-83099989D02*
X135339989Y-83099989D01*
X125000000Y-85000000D02*
X126200000Y-85000000D01*
X126200000Y-85000000D02*
X128100011Y-83099989D01*
G04 #@! TO.N,Net-(J1-Pad18)*
X100820000Y-127380000D02*
X98200000Y-127380000D01*
X102200000Y-126000000D02*
X100820000Y-127380000D01*
X102200000Y-121800000D02*
X102200000Y-126000000D01*
X103600000Y-110800000D02*
X103600000Y-120400000D01*
X103600000Y-120400000D02*
X102200000Y-121800000D01*
G04 #@! TO.N,Net-(J1-Pad17)*
X100360000Y-124840000D02*
X98200000Y-124840000D01*
X101000000Y-124200000D02*
X100360000Y-124840000D01*
X101000000Y-121600000D02*
X101000000Y-124200000D01*
X102800000Y-111600000D02*
X102800000Y-119800000D01*
X102800000Y-119800000D02*
X101000000Y-121600000D01*
G04 #@! TO.N,Net-(J1-Pad16)*
X102000000Y-115424264D02*
X102000000Y-115000000D01*
X102000000Y-118500000D02*
X102000000Y-115424264D01*
X98200000Y-122300000D02*
X102000000Y-118500000D01*
G04 #@! TO.N,Net-(J1-Pad15)*
X101099998Y-114924266D02*
X101200000Y-114824264D01*
X101099998Y-116860002D02*
X101099998Y-114924266D01*
X98200000Y-119760000D02*
X101099998Y-116860002D01*
X101200000Y-114824264D02*
X101200000Y-114400000D01*
G04 #@! TO.N,Net-(J1-Pad14)*
X100400000Y-115020000D02*
X100400000Y-114224280D01*
X98200000Y-117220000D02*
X100400000Y-115020000D01*
X100400000Y-114224280D02*
X100400000Y-113800016D01*
G04 #@! TO.N,Net-(C1-Pad1)*
X134299100Y-137437460D02*
X134299100Y-135899100D01*
X134299100Y-135899100D02*
X133800000Y-135400000D01*
X133800000Y-135400000D02*
X121800000Y-135400000D01*
X121200000Y-134800000D02*
X121200000Y-133352500D01*
X121800000Y-135400000D02*
X121200000Y-134800000D01*
X118200000Y-101550000D02*
X118200000Y-128600000D01*
X121550000Y-98200000D02*
X118200000Y-101550000D01*
X121550000Y-97500000D02*
X121550000Y-98200000D01*
X119552500Y-133352500D02*
X119400000Y-133200000D01*
X121200000Y-133352500D02*
X119552500Y-133352500D01*
G04 #@! TO.N,Net-(R1-Pad1)*
X124000000Y-130200000D02*
X124000000Y-131447500D01*
X119000000Y-101850000D02*
X119000000Y-125200000D01*
X122650000Y-98200000D02*
X119000000Y-101850000D01*
X119000000Y-125200000D02*
X124000000Y-130200000D01*
X122650000Y-97500000D02*
X122650000Y-98200000D01*
G04 #@! TO.N,Net-(R2-Pad1)*
X126800000Y-130400000D02*
X126800000Y-131447500D01*
X119800000Y-123400000D02*
X126800000Y-130400000D01*
X119800000Y-102150000D02*
X119800000Y-123400000D01*
X123750000Y-98200000D02*
X119800000Y-102150000D01*
X123750000Y-97500000D02*
X123750000Y-98200000D01*
G04 #@! TO.N,SWDCLK*
X125000000Y-89400000D02*
X128636004Y-89400000D01*
X129600000Y-90363996D02*
X129600000Y-97575736D01*
X128636004Y-89400000D02*
X129600000Y-90363996D01*
X129600000Y-97575736D02*
X129600000Y-98000000D01*
X129295006Y-100502496D02*
X129595005Y-100202497D01*
X125600000Y-107780000D02*
X125600000Y-104197502D01*
X125600000Y-104197502D02*
X129295006Y-100502496D01*
X127550000Y-108330000D02*
X126150000Y-108330000D01*
X126150000Y-108330000D02*
X125600000Y-107780000D01*
G04 #@! TO.N,SWDIO*
X125000000Y-88300000D02*
X128300000Y-88300000D01*
X128300000Y-88300000D02*
X130100001Y-90100001D01*
X130100001Y-90100001D02*
X130100001Y-96700001D01*
X130100001Y-96700001D02*
X130400000Y-97000000D01*
X127550000Y-106490000D02*
X130400000Y-103640000D01*
X130400000Y-100024264D02*
X130400000Y-99600000D01*
X130400000Y-103640000D02*
X130400000Y-100024264D01*
X127550000Y-107060000D02*
X127550000Y-106490000D01*
G04 #@! TO.N,V_NRF*
X112750000Y-98050000D02*
X112750000Y-97500000D01*
X109600000Y-101200000D02*
X112750000Y-98050000D01*
X109600000Y-104047500D02*
X109600000Y-101200000D01*
X109647500Y-104000000D02*
X109600000Y-104047500D01*
X111600000Y-104000000D02*
X109647500Y-104000000D01*
X121160000Y-104000000D02*
X120799994Y-104000000D01*
X123650000Y-107060000D02*
X123650000Y-106490000D01*
X123650000Y-106490000D02*
X121160000Y-104000000D01*
G04 #@! TO.N,Net-(J2-Pad13)*
X131100000Y-91600000D02*
X133280000Y-91600000D01*
X125000000Y-91600000D02*
X128600000Y-91600000D01*
X133680000Y-91600000D02*
X133280000Y-91600000D01*
X139000000Y-96920000D02*
X133680000Y-91600000D01*
G04 #@! TO.N,Net-(P1-Pad2)*
X124000000Y-133352500D02*
X124000000Y-133997000D01*
X124000000Y-133997000D02*
X124803000Y-134800000D01*
X124803000Y-134800000D02*
X134200000Y-134800000D01*
X134949100Y-135549100D02*
X134949100Y-137437460D01*
X134200000Y-134800000D02*
X134949100Y-135549100D01*
G04 #@! TO.N,Net-(P1-Pad3)*
X135599100Y-137437460D02*
X135599100Y-135399100D01*
X133552500Y-133352500D02*
X126800000Y-133352500D01*
X135599100Y-135399100D02*
X133552500Y-133352500D01*
G04 #@! TD*
G04 #@! TO.N,GND*
G36*
X110544000Y-82646000D02*
X111346000Y-82646000D01*
X111346000Y-82626000D01*
X111654000Y-82626000D01*
X111654000Y-82646000D01*
X112456000Y-82646000D01*
X112527000Y-82575000D01*
X123973000Y-82575000D01*
X124044000Y-82646000D01*
X124846000Y-82646000D01*
X124846000Y-82626000D01*
X125154000Y-82626000D01*
X125154000Y-82646000D01*
X125956000Y-82646000D01*
X126027000Y-82575000D01*
X126976472Y-82575000D01*
X126251473Y-83300000D01*
X126100020Y-83300000D01*
X126108000Y-83259883D01*
X126108000Y-83106000D01*
X125956000Y-82954000D01*
X125154000Y-82954000D01*
X125154000Y-82974000D01*
X124846000Y-82974000D01*
X124846000Y-82954000D01*
X124044000Y-82954000D01*
X123892000Y-83106000D01*
X123892000Y-83259883D01*
X123915365Y-83377347D01*
X123961197Y-83487996D01*
X123997581Y-83542448D01*
X123997581Y-84300000D01*
X124007235Y-84398017D01*
X124023004Y-84450000D01*
X124007235Y-84501983D01*
X123997581Y-84600000D01*
X123997581Y-85400000D01*
X124007235Y-85498017D01*
X124023004Y-85550000D01*
X124007235Y-85601983D01*
X123997581Y-85700000D01*
X123997581Y-86500000D01*
X124007235Y-86598017D01*
X124023004Y-86650000D01*
X124007235Y-86701983D01*
X123997581Y-86800000D01*
X123997581Y-87600000D01*
X124007235Y-87698017D01*
X124023004Y-87750000D01*
X124007235Y-87801983D01*
X123997581Y-87900000D01*
X123997581Y-88700000D01*
X124007235Y-88798017D01*
X124023004Y-88850000D01*
X124007235Y-88901983D01*
X123997581Y-89000000D01*
X123997581Y-89800000D01*
X124007235Y-89898017D01*
X124023004Y-89950000D01*
X124007235Y-90001983D01*
X123997581Y-90100000D01*
X123997581Y-90900000D01*
X124007235Y-90998017D01*
X124023004Y-91050000D01*
X124007235Y-91101983D01*
X123997581Y-91200000D01*
X123997581Y-92000000D01*
X124007235Y-92098017D01*
X124023004Y-92150000D01*
X124007235Y-92201983D01*
X123997581Y-92300000D01*
X123997581Y-93100000D01*
X124007235Y-93198017D01*
X124023004Y-93250000D01*
X124007235Y-93301983D01*
X123997581Y-93400000D01*
X123997581Y-94200000D01*
X124007235Y-94298017D01*
X124023004Y-94350000D01*
X124007235Y-94401983D01*
X123997581Y-94500000D01*
X123997581Y-95257552D01*
X123961197Y-95312004D01*
X123915365Y-95422653D01*
X123892000Y-95540117D01*
X123892000Y-95694000D01*
X124044000Y-95846000D01*
X124846000Y-95846000D01*
X124846000Y-95826000D01*
X125154000Y-95826000D01*
X125154000Y-95846000D01*
X125956000Y-95846000D01*
X126108000Y-95694000D01*
X126108000Y-95540117D01*
X126100020Y-95500000D01*
X127971933Y-95500000D01*
X127978599Y-95509976D01*
X128090030Y-95621407D01*
X128221058Y-95708957D01*
X128366649Y-95769263D01*
X128521207Y-95800006D01*
X128678793Y-95800006D01*
X128833351Y-95769263D01*
X128978942Y-95708957D01*
X129000001Y-95694886D01*
X129000001Y-97468628D01*
X128978599Y-97490030D01*
X128891049Y-97621058D01*
X128830743Y-97766649D01*
X128800000Y-97921207D01*
X128800000Y-98078793D01*
X128830743Y-98233351D01*
X128891049Y-98378942D01*
X128978599Y-98509970D01*
X129090030Y-98621401D01*
X129221058Y-98708951D01*
X129366649Y-98769257D01*
X129521207Y-98800000D01*
X129678793Y-98800000D01*
X129833351Y-98769257D01*
X129978942Y-98708951D01*
X130109970Y-98621401D01*
X130221401Y-98509970D01*
X130308951Y-98378942D01*
X130369257Y-98233351D01*
X130400000Y-98078793D01*
X130400000Y-97921207D01*
X130375891Y-97800000D01*
X130478793Y-97800000D01*
X130633351Y-97769257D01*
X130778942Y-97708951D01*
X130909970Y-97621401D01*
X131021401Y-97509970D01*
X131108951Y-97378942D01*
X131169257Y-97233351D01*
X131200000Y-97078793D01*
X131200000Y-96921207D01*
X131169257Y-96766649D01*
X131108951Y-96621058D01*
X131021401Y-96490030D01*
X130909970Y-96378599D01*
X130778942Y-96291049D01*
X130700001Y-96258350D01*
X130700001Y-95741650D01*
X130766649Y-95769257D01*
X130921207Y-95800000D01*
X131078793Y-95800000D01*
X131233351Y-95769257D01*
X131295137Y-95743664D01*
X134800001Y-99248529D01*
X134800000Y-100910526D01*
X134797097Y-100940000D01*
X134800000Y-100969473D01*
X134808682Y-101057620D01*
X134842990Y-101170720D01*
X134898704Y-101274954D01*
X134973683Y-101366317D01*
X134996586Y-101385113D01*
X137720107Y-104108635D01*
X137669533Y-104275354D01*
X137643468Y-104540000D01*
X137669533Y-104804646D01*
X137746728Y-105059122D01*
X137872085Y-105293649D01*
X138040787Y-105499213D01*
X138246351Y-105667915D01*
X138480878Y-105793272D01*
X138536022Y-105810000D01*
X138480878Y-105826728D01*
X138246351Y-105952085D01*
X138040787Y-106120787D01*
X137872085Y-106326351D01*
X137746728Y-106560878D01*
X137669533Y-106815354D01*
X137643468Y-107080000D01*
X137669533Y-107344646D01*
X137746728Y-107599122D01*
X137872085Y-107833649D01*
X138040787Y-108039213D01*
X138246351Y-108207915D01*
X138480878Y-108333272D01*
X138536022Y-108350000D01*
X138480878Y-108366728D01*
X138246351Y-108492085D01*
X138040787Y-108660787D01*
X137872085Y-108866351D01*
X137746728Y-109100878D01*
X137669533Y-109355354D01*
X137643468Y-109620000D01*
X137669533Y-109884646D01*
X137746728Y-110139122D01*
X137872085Y-110373649D01*
X138040787Y-110579213D01*
X138246351Y-110747915D01*
X138480878Y-110873272D01*
X138536022Y-110890000D01*
X138480878Y-110906728D01*
X138246351Y-111032085D01*
X138040787Y-111200787D01*
X137872085Y-111406351D01*
X137746728Y-111640878D01*
X137669533Y-111895354D01*
X137643468Y-112160000D01*
X137669533Y-112424646D01*
X137746728Y-112679122D01*
X137872085Y-112913649D01*
X138040787Y-113119213D01*
X138246351Y-113287915D01*
X138480878Y-113413272D01*
X138536022Y-113430000D01*
X138480878Y-113446728D01*
X138246351Y-113572085D01*
X138040787Y-113740787D01*
X137872085Y-113946351D01*
X137746728Y-114180878D01*
X137669533Y-114435354D01*
X137643468Y-114700000D01*
X137669533Y-114964646D01*
X137746728Y-115219122D01*
X137872085Y-115453649D01*
X138040787Y-115659213D01*
X138246351Y-115827915D01*
X138480878Y-115953272D01*
X138536022Y-115970000D01*
X138480878Y-115986728D01*
X138246351Y-116112085D01*
X138040787Y-116280787D01*
X137872085Y-116486351D01*
X137746728Y-116720878D01*
X137669533Y-116975354D01*
X137643468Y-117240000D01*
X137669533Y-117504646D01*
X137746728Y-117759122D01*
X137872085Y-117993649D01*
X138040787Y-118199213D01*
X138246351Y-118367915D01*
X138480878Y-118493272D01*
X138536022Y-118510000D01*
X138480878Y-118526728D01*
X138246351Y-118652085D01*
X138040787Y-118820787D01*
X137872085Y-119026351D01*
X137746728Y-119260878D01*
X137669533Y-119515354D01*
X137643468Y-119780000D01*
X137669533Y-120044646D01*
X137746728Y-120299122D01*
X137872085Y-120533649D01*
X138040787Y-120739213D01*
X138246351Y-120907915D01*
X138480878Y-121033272D01*
X138536022Y-121050000D01*
X138480878Y-121066728D01*
X138246351Y-121192085D01*
X138040787Y-121360787D01*
X137872085Y-121566351D01*
X137789958Y-121720000D01*
X135468529Y-121720000D01*
X131000000Y-117251473D01*
X131000000Y-117221207D01*
X130969257Y-117066649D01*
X130908951Y-116921058D01*
X130821401Y-116790030D01*
X130709970Y-116678599D01*
X130578942Y-116591049D01*
X130433351Y-116530743D01*
X130278793Y-116500000D01*
X130121207Y-116500000D01*
X129966649Y-116530743D01*
X129821058Y-116591049D01*
X129690030Y-116678599D01*
X129578599Y-116790030D01*
X129491049Y-116921058D01*
X129430743Y-117066649D01*
X129400000Y-117221207D01*
X129400000Y-117378793D01*
X129430743Y-117533351D01*
X129491049Y-117678942D01*
X129578599Y-117809970D01*
X129690030Y-117921401D01*
X129821058Y-118008951D01*
X129966649Y-118069257D01*
X130121207Y-118100000D01*
X130151473Y-118100000D01*
X130773979Y-118722506D01*
X130690030Y-118778599D01*
X130578599Y-118890030D01*
X130491049Y-119021058D01*
X130430743Y-119166649D01*
X130400000Y-119321207D01*
X130400000Y-119478793D01*
X130430743Y-119633351D01*
X130491049Y-119778942D01*
X130578599Y-119909970D01*
X130690030Y-120021401D01*
X130821058Y-120108951D01*
X130966649Y-120169257D01*
X131121207Y-120200000D01*
X131151473Y-120200000D01*
X136214896Y-125263425D01*
X136233683Y-125286317D01*
X136325045Y-125361296D01*
X136429279Y-125417010D01*
X136505068Y-125440000D01*
X136542378Y-125451318D01*
X136659999Y-125462903D01*
X136689473Y-125460000D01*
X137789958Y-125460000D01*
X137872085Y-125613649D01*
X138040787Y-125819213D01*
X138246351Y-125987915D01*
X138357978Y-126047581D01*
X138150000Y-126047581D01*
X138051983Y-126057235D01*
X137957733Y-126085825D01*
X137870871Y-126132254D01*
X137794736Y-126194736D01*
X137732254Y-126270871D01*
X137685825Y-126357733D01*
X137657235Y-126451983D01*
X137647581Y-126550000D01*
X137647581Y-128250000D01*
X137657235Y-128348017D01*
X137685825Y-128442267D01*
X137732254Y-128529129D01*
X137794736Y-128605264D01*
X137870871Y-128667746D01*
X137957733Y-128714175D01*
X138051983Y-128742765D01*
X138150000Y-128752419D01*
X139850000Y-128752419D01*
X139948017Y-128742765D01*
X140042267Y-128714175D01*
X140129129Y-128667746D01*
X140205264Y-128605264D01*
X140267746Y-128529129D01*
X140314175Y-128442267D01*
X140342765Y-128348017D01*
X140352419Y-128250000D01*
X140352419Y-126550000D01*
X140342765Y-126451983D01*
X140314175Y-126357733D01*
X140267746Y-126270871D01*
X140205264Y-126194736D01*
X140129129Y-126132254D01*
X140042267Y-126085825D01*
X139948017Y-126057235D01*
X139850000Y-126047581D01*
X139642022Y-126047581D01*
X139753649Y-125987915D01*
X139959213Y-125819213D01*
X140127915Y-125613649D01*
X140253272Y-125379122D01*
X140330467Y-125124646D01*
X140356532Y-124860000D01*
X140330467Y-124595354D01*
X140253272Y-124340878D01*
X140127915Y-124106351D01*
X139959213Y-123900787D01*
X139753649Y-123732085D01*
X139519122Y-123606728D01*
X139463978Y-123590000D01*
X139519122Y-123573272D01*
X139753649Y-123447915D01*
X139959213Y-123279213D01*
X140127915Y-123073649D01*
X140253272Y-122839122D01*
X140330467Y-122584646D01*
X140356532Y-122320000D01*
X140330467Y-122055354D01*
X140253272Y-121800878D01*
X140127915Y-121566351D01*
X139959213Y-121360787D01*
X139753649Y-121192085D01*
X139519122Y-121066728D01*
X139463978Y-121050000D01*
X139519122Y-121033272D01*
X139753649Y-120907915D01*
X139959213Y-120739213D01*
X140127915Y-120533649D01*
X140253272Y-120299122D01*
X140330467Y-120044646D01*
X140356532Y-119780000D01*
X140330467Y-119515354D01*
X140253272Y-119260878D01*
X140127915Y-119026351D01*
X139959213Y-118820787D01*
X139753649Y-118652085D01*
X139519122Y-118526728D01*
X139463978Y-118510000D01*
X139519122Y-118493272D01*
X139753649Y-118367915D01*
X139959213Y-118199213D01*
X140127915Y-117993649D01*
X140253272Y-117759122D01*
X140330467Y-117504646D01*
X140356532Y-117240000D01*
X140330467Y-116975354D01*
X140253272Y-116720878D01*
X140127915Y-116486351D01*
X139959213Y-116280787D01*
X139753649Y-116112085D01*
X139519122Y-115986728D01*
X139463978Y-115970000D01*
X139519122Y-115953272D01*
X139753649Y-115827915D01*
X139959213Y-115659213D01*
X140127915Y-115453649D01*
X140253272Y-115219122D01*
X140330467Y-114964646D01*
X140356532Y-114700000D01*
X140330467Y-114435354D01*
X140253272Y-114180878D01*
X140127915Y-113946351D01*
X139959213Y-113740787D01*
X139753649Y-113572085D01*
X139519122Y-113446728D01*
X139463978Y-113430000D01*
X139519122Y-113413272D01*
X139753649Y-113287915D01*
X139959213Y-113119213D01*
X140127915Y-112913649D01*
X140253272Y-112679122D01*
X140330467Y-112424646D01*
X140356532Y-112160000D01*
X140330467Y-111895354D01*
X140253272Y-111640878D01*
X140127915Y-111406351D01*
X139959213Y-111200787D01*
X139753649Y-111032085D01*
X139519122Y-110906728D01*
X139463978Y-110890000D01*
X139519122Y-110873272D01*
X139753649Y-110747915D01*
X139959213Y-110579213D01*
X140127915Y-110373649D01*
X140253272Y-110139122D01*
X140330467Y-109884646D01*
X140356532Y-109620000D01*
X140330467Y-109355354D01*
X140253272Y-109100878D01*
X140127915Y-108866351D01*
X139959213Y-108660787D01*
X139753649Y-108492085D01*
X139519122Y-108366728D01*
X139463978Y-108350000D01*
X139519122Y-108333272D01*
X139753649Y-108207915D01*
X139959213Y-108039213D01*
X140127915Y-107833649D01*
X140253272Y-107599122D01*
X140330467Y-107344646D01*
X140356532Y-107080000D01*
X140330467Y-106815354D01*
X140253272Y-106560878D01*
X140127915Y-106326351D01*
X139959213Y-106120787D01*
X139753649Y-105952085D01*
X139519122Y-105826728D01*
X139463978Y-105810000D01*
X139519122Y-105793272D01*
X139753649Y-105667915D01*
X139959213Y-105499213D01*
X140127915Y-105293649D01*
X140253272Y-105059122D01*
X140330467Y-104804646D01*
X140356532Y-104540000D01*
X140330467Y-104275354D01*
X140253272Y-104020878D01*
X140127915Y-103786351D01*
X139959213Y-103580787D01*
X139753649Y-103412085D01*
X139519122Y-103286728D01*
X139463978Y-103270000D01*
X139519122Y-103253272D01*
X139753649Y-103127915D01*
X139959213Y-102959213D01*
X140127915Y-102753649D01*
X140253272Y-102519122D01*
X140330467Y-102264646D01*
X140356532Y-102000000D01*
X140330467Y-101735354D01*
X140253272Y-101480878D01*
X140127915Y-101246351D01*
X139959213Y-101040787D01*
X139753649Y-100872085D01*
X139519122Y-100746728D01*
X139463978Y-100730000D01*
X139519122Y-100713272D01*
X139753649Y-100587915D01*
X139959213Y-100419213D01*
X140127915Y-100213649D01*
X140253272Y-99979122D01*
X140330467Y-99724646D01*
X140356532Y-99460000D01*
X140330467Y-99195354D01*
X140253272Y-98940878D01*
X140127915Y-98706351D01*
X139959213Y-98500787D01*
X139753649Y-98332085D01*
X139519122Y-98206728D01*
X139463978Y-98190000D01*
X139519122Y-98173272D01*
X139753649Y-98047915D01*
X139959213Y-97879213D01*
X140127915Y-97673649D01*
X140253272Y-97439122D01*
X140330467Y-97184646D01*
X140356532Y-96920000D01*
X140330467Y-96655354D01*
X140253272Y-96400878D01*
X140127915Y-96166351D01*
X139959213Y-95960787D01*
X139753649Y-95792085D01*
X139519122Y-95666728D01*
X139463978Y-95650000D01*
X139519122Y-95633272D01*
X139753649Y-95507915D01*
X139959213Y-95339213D01*
X140127915Y-95133649D01*
X140253272Y-94899122D01*
X140330467Y-94644646D01*
X140356532Y-94380000D01*
X140330467Y-94115354D01*
X140253272Y-93860878D01*
X140127915Y-93626351D01*
X139959213Y-93420787D01*
X139753649Y-93252085D01*
X139519122Y-93126728D01*
X139463978Y-93110000D01*
X139519122Y-93093272D01*
X139753649Y-92967915D01*
X139959213Y-92799213D01*
X140127915Y-92593649D01*
X140253272Y-92359122D01*
X140330467Y-92104646D01*
X140356532Y-91840000D01*
X140330467Y-91575354D01*
X140253272Y-91320878D01*
X140127915Y-91086351D01*
X139959213Y-90880787D01*
X139753649Y-90712085D01*
X139519122Y-90586728D01*
X139463978Y-90570000D01*
X139519122Y-90553272D01*
X139753649Y-90427915D01*
X139959213Y-90259213D01*
X140127915Y-90053649D01*
X140253272Y-89819122D01*
X140330467Y-89564646D01*
X140356532Y-89300000D01*
X140330467Y-89035354D01*
X140253272Y-88780878D01*
X140127915Y-88546351D01*
X139959213Y-88340787D01*
X139753649Y-88172085D01*
X139519122Y-88046728D01*
X139463978Y-88030000D01*
X139519122Y-88013272D01*
X139753649Y-87887915D01*
X139959213Y-87719213D01*
X140127915Y-87513649D01*
X140253272Y-87279122D01*
X140330467Y-87024646D01*
X140356532Y-86760000D01*
X140330467Y-86495354D01*
X140253272Y-86240878D01*
X140127915Y-86006351D01*
X139959213Y-85800787D01*
X139753649Y-85632085D01*
X139519122Y-85506728D01*
X139463978Y-85490000D01*
X139519122Y-85473272D01*
X139753649Y-85347915D01*
X139959213Y-85179213D01*
X140127915Y-84973649D01*
X140253272Y-84739122D01*
X140330467Y-84484646D01*
X140356532Y-84220000D01*
X140330467Y-83955354D01*
X140253272Y-83700878D01*
X140127915Y-83466351D01*
X139959213Y-83260787D01*
X139753649Y-83092085D01*
X139519122Y-82966728D01*
X139264646Y-82889533D01*
X139066321Y-82870000D01*
X138933679Y-82870000D01*
X138735354Y-82889533D01*
X138568635Y-82940107D01*
X138203527Y-82575000D01*
X140425001Y-82575000D01*
X140425000Y-141425000D01*
X96575000Y-141425000D01*
X96575000Y-139813341D01*
X131099100Y-139813341D01*
X131099100Y-140461580D01*
X131113570Y-140608494D01*
X131170751Y-140796995D01*
X131263609Y-140970718D01*
X131388573Y-141122988D01*
X131540843Y-141247952D01*
X131714566Y-141340809D01*
X131903067Y-141397990D01*
X132099100Y-141417298D01*
X132295134Y-141397990D01*
X132483635Y-141340809D01*
X132657358Y-141247952D01*
X132809628Y-141122988D01*
X132934592Y-140970718D01*
X133027449Y-140796995D01*
X133084630Y-140608493D01*
X133099100Y-140461579D01*
X133099100Y-139813341D01*
X138099100Y-139813341D01*
X138099100Y-140461580D01*
X138113570Y-140608494D01*
X138170751Y-140796995D01*
X138263609Y-140970718D01*
X138388573Y-141122988D01*
X138540843Y-141247952D01*
X138714566Y-141340809D01*
X138903067Y-141397990D01*
X139099100Y-141417298D01*
X139295134Y-141397990D01*
X139483635Y-141340809D01*
X139657358Y-141247952D01*
X139809628Y-141122988D01*
X139934592Y-140970718D01*
X140027449Y-140796995D01*
X140084630Y-140608493D01*
X140099100Y-140461579D01*
X140099100Y-139813340D01*
X140084630Y-139666426D01*
X140027449Y-139477925D01*
X139934592Y-139304202D01*
X139809628Y-139151932D01*
X139657358Y-139026968D01*
X139483634Y-138934111D01*
X139295133Y-138876930D01*
X139099100Y-138857622D01*
X138903066Y-138876930D01*
X138714565Y-138934111D01*
X138540842Y-139026968D01*
X138388572Y-139151932D01*
X138263608Y-139304202D01*
X138170751Y-139477926D01*
X138113570Y-139666427D01*
X138099100Y-139813341D01*
X133099100Y-139813341D01*
X133099100Y-139813340D01*
X133084630Y-139666426D01*
X133027449Y-139477925D01*
X132934592Y-139304202D01*
X132809628Y-139151932D01*
X132657358Y-139026968D01*
X132483634Y-138934111D01*
X132295133Y-138876930D01*
X132099100Y-138857622D01*
X131903066Y-138876930D01*
X131714565Y-138934111D01*
X131540842Y-139026968D01*
X131388572Y-139151932D01*
X131263608Y-139304202D01*
X131170751Y-139477926D01*
X131113570Y-139666427D01*
X131099100Y-139813341D01*
X96575000Y-139813341D01*
X96575000Y-84506000D01*
X96742000Y-84506000D01*
X96742000Y-85109883D01*
X96765365Y-85227347D01*
X96811197Y-85337996D01*
X96877735Y-85437577D01*
X96962422Y-85522264D01*
X97062004Y-85588803D01*
X97172653Y-85634635D01*
X97290117Y-85658000D01*
X97390403Y-85658000D01*
X97240787Y-85780787D01*
X97072085Y-85986351D01*
X96946728Y-86220878D01*
X96869533Y-86475354D01*
X96843468Y-86740000D01*
X96869533Y-87004646D01*
X96946728Y-87259122D01*
X97072085Y-87493649D01*
X97240787Y-87699213D01*
X97446351Y-87867915D01*
X97680878Y-87993272D01*
X97736022Y-88010000D01*
X97680878Y-88026728D01*
X97446351Y-88152085D01*
X97240787Y-88320787D01*
X97072085Y-88526351D01*
X96946728Y-88760878D01*
X96869533Y-89015354D01*
X96843468Y-89280000D01*
X96869533Y-89544646D01*
X96946728Y-89799122D01*
X97072085Y-90033649D01*
X97240787Y-90239213D01*
X97446351Y-90407915D01*
X97680878Y-90533272D01*
X97736022Y-90550000D01*
X97680878Y-90566728D01*
X97446351Y-90692085D01*
X97240787Y-90860787D01*
X97072085Y-91066351D01*
X96946728Y-91300878D01*
X96869533Y-91555354D01*
X96843468Y-91820000D01*
X96869533Y-92084646D01*
X96946728Y-92339122D01*
X97072085Y-92573649D01*
X97240787Y-92779213D01*
X97446351Y-92947915D01*
X97680878Y-93073272D01*
X97736022Y-93090000D01*
X97680878Y-93106728D01*
X97446351Y-93232085D01*
X97240787Y-93400787D01*
X97072085Y-93606351D01*
X96946728Y-93840878D01*
X96869533Y-94095354D01*
X96843468Y-94360000D01*
X96869533Y-94624646D01*
X96946728Y-94879122D01*
X97072085Y-95113649D01*
X97240787Y-95319213D01*
X97446351Y-95487915D01*
X97680878Y-95613272D01*
X97736022Y-95630000D01*
X97680878Y-95646728D01*
X97446351Y-95772085D01*
X97240787Y-95940787D01*
X97072085Y-96146351D01*
X96946728Y-96380878D01*
X96869533Y-96635354D01*
X96843468Y-96900000D01*
X96869533Y-97164646D01*
X96946728Y-97419122D01*
X97072085Y-97653649D01*
X97240787Y-97859213D01*
X97446351Y-98027915D01*
X97680878Y-98153272D01*
X97736022Y-98170000D01*
X97680878Y-98186728D01*
X97446351Y-98312085D01*
X97240787Y-98480787D01*
X97072085Y-98686351D01*
X96946728Y-98920878D01*
X96869533Y-99175354D01*
X96843468Y-99440000D01*
X96869533Y-99704646D01*
X96946728Y-99959122D01*
X97072085Y-100193649D01*
X97240787Y-100399213D01*
X97446351Y-100567915D01*
X97680878Y-100693272D01*
X97736022Y-100710000D01*
X97680878Y-100726728D01*
X97446351Y-100852085D01*
X97240787Y-101020787D01*
X97072085Y-101226351D01*
X96946728Y-101460878D01*
X96869533Y-101715354D01*
X96843468Y-101980000D01*
X96869533Y-102244646D01*
X96946728Y-102499122D01*
X97072085Y-102733649D01*
X97240787Y-102939213D01*
X97446351Y-103107915D01*
X97680878Y-103233272D01*
X97736022Y-103250000D01*
X97680878Y-103266728D01*
X97446351Y-103392085D01*
X97240787Y-103560787D01*
X97072085Y-103766351D01*
X96946728Y-104000878D01*
X96869533Y-104255354D01*
X96843468Y-104520000D01*
X96869533Y-104784646D01*
X96946728Y-105039122D01*
X97072085Y-105273649D01*
X97240787Y-105479213D01*
X97446351Y-105647915D01*
X97680878Y-105773272D01*
X97736022Y-105790000D01*
X97680878Y-105806728D01*
X97446351Y-105932085D01*
X97240787Y-106100787D01*
X97072085Y-106306351D01*
X96946728Y-106540878D01*
X96869533Y-106795354D01*
X96843468Y-107060000D01*
X96869533Y-107324646D01*
X96946728Y-107579122D01*
X97072085Y-107813649D01*
X97240787Y-108019213D01*
X97446351Y-108187915D01*
X97680878Y-108313272D01*
X97736022Y-108330000D01*
X97680878Y-108346728D01*
X97446351Y-108472085D01*
X97240787Y-108640787D01*
X97072085Y-108846351D01*
X96946728Y-109080878D01*
X96869533Y-109335354D01*
X96843468Y-109600000D01*
X96869533Y-109864646D01*
X96946728Y-110119122D01*
X97072085Y-110353649D01*
X97240787Y-110559213D01*
X97446351Y-110727915D01*
X97680878Y-110853272D01*
X97736022Y-110870000D01*
X97680878Y-110886728D01*
X97446351Y-111012085D01*
X97240787Y-111180787D01*
X97072085Y-111386351D01*
X96946728Y-111620878D01*
X96869533Y-111875354D01*
X96843468Y-112140000D01*
X96869533Y-112404646D01*
X96946728Y-112659122D01*
X97072085Y-112893649D01*
X97240787Y-113099213D01*
X97446351Y-113267915D01*
X97680878Y-113393272D01*
X97736022Y-113410000D01*
X97680878Y-113426728D01*
X97446351Y-113552085D01*
X97240787Y-113720787D01*
X97072085Y-113926351D01*
X96946728Y-114160878D01*
X96869533Y-114415354D01*
X96843468Y-114680000D01*
X96869533Y-114944646D01*
X96946728Y-115199122D01*
X97072085Y-115433649D01*
X97240787Y-115639213D01*
X97446351Y-115807915D01*
X97680878Y-115933272D01*
X97736022Y-115950000D01*
X97680878Y-115966728D01*
X97446351Y-116092085D01*
X97240787Y-116260787D01*
X97072085Y-116466351D01*
X96946728Y-116700878D01*
X96869533Y-116955354D01*
X96843468Y-117220000D01*
X96869533Y-117484646D01*
X96946728Y-117739122D01*
X97072085Y-117973649D01*
X97240787Y-118179213D01*
X97446351Y-118347915D01*
X97680878Y-118473272D01*
X97736022Y-118490000D01*
X97680878Y-118506728D01*
X97446351Y-118632085D01*
X97240787Y-118800787D01*
X97072085Y-119006351D01*
X96946728Y-119240878D01*
X96869533Y-119495354D01*
X96843468Y-119760000D01*
X96869533Y-120024646D01*
X96946728Y-120279122D01*
X97072085Y-120513649D01*
X97240787Y-120719213D01*
X97446351Y-120887915D01*
X97680878Y-121013272D01*
X97736022Y-121030000D01*
X97680878Y-121046728D01*
X97446351Y-121172085D01*
X97240787Y-121340787D01*
X97072085Y-121546351D01*
X96946728Y-121780878D01*
X96869533Y-122035354D01*
X96843468Y-122300000D01*
X96869533Y-122564646D01*
X96946728Y-122819122D01*
X97072085Y-123053649D01*
X97240787Y-123259213D01*
X97446351Y-123427915D01*
X97680878Y-123553272D01*
X97736022Y-123570000D01*
X97680878Y-123586728D01*
X97446351Y-123712085D01*
X97240787Y-123880787D01*
X97072085Y-124086351D01*
X96946728Y-124320878D01*
X96869533Y-124575354D01*
X96843468Y-124840000D01*
X96869533Y-125104646D01*
X96946728Y-125359122D01*
X97072085Y-125593649D01*
X97240787Y-125799213D01*
X97446351Y-125967915D01*
X97680878Y-126093272D01*
X97736022Y-126110000D01*
X97680878Y-126126728D01*
X97446351Y-126252085D01*
X97240787Y-126420787D01*
X97072085Y-126626351D01*
X96946728Y-126860878D01*
X96869533Y-127115354D01*
X96843468Y-127380000D01*
X96869533Y-127644646D01*
X96946728Y-127899122D01*
X97072085Y-128133649D01*
X97240787Y-128339213D01*
X97446351Y-128507915D01*
X97680878Y-128633272D01*
X97736022Y-128650000D01*
X97680878Y-128666728D01*
X97446351Y-128792085D01*
X97240787Y-128960787D01*
X97072085Y-129166351D01*
X96946728Y-129400878D01*
X96869533Y-129655354D01*
X96843468Y-129920000D01*
X96869533Y-130184646D01*
X96946728Y-130439122D01*
X97072085Y-130673649D01*
X97240787Y-130879213D01*
X97446351Y-131047915D01*
X97680878Y-131173272D01*
X97736022Y-131190000D01*
X97680878Y-131206728D01*
X97446351Y-131332085D01*
X97240787Y-131500787D01*
X97072085Y-131706351D01*
X96946728Y-131940878D01*
X96869533Y-132195354D01*
X96843468Y-132460000D01*
X96869533Y-132724646D01*
X96946728Y-132979122D01*
X97072085Y-133213649D01*
X97240787Y-133419213D01*
X97446351Y-133587915D01*
X97680878Y-133713272D01*
X97736022Y-133730000D01*
X97680878Y-133746728D01*
X97446351Y-133872085D01*
X97240787Y-134040787D01*
X97072085Y-134246351D01*
X96946728Y-134480878D01*
X96869533Y-134735354D01*
X96843468Y-135000000D01*
X96869533Y-135264646D01*
X96946728Y-135519122D01*
X97072085Y-135753649D01*
X97240787Y-135959213D01*
X97446351Y-136127915D01*
X97680878Y-136253272D01*
X97736022Y-136270000D01*
X97680878Y-136286728D01*
X97446351Y-136412085D01*
X97240787Y-136580787D01*
X97072085Y-136786351D01*
X96946728Y-137020878D01*
X96869533Y-137275354D01*
X96843468Y-137540000D01*
X96869533Y-137804646D01*
X96946728Y-138059122D01*
X97072085Y-138293649D01*
X97240787Y-138499213D01*
X97446351Y-138667915D01*
X97680878Y-138793272D01*
X97935354Y-138870467D01*
X98133679Y-138890000D01*
X98266321Y-138890000D01*
X98464646Y-138870467D01*
X98719122Y-138793272D01*
X98953649Y-138667915D01*
X99159213Y-138499213D01*
X99327915Y-138293649D01*
X99453272Y-138059122D01*
X99530467Y-137804646D01*
X99556532Y-137540000D01*
X99530467Y-137275354D01*
X99453272Y-137020878D01*
X99327915Y-136786351D01*
X99159213Y-136580787D01*
X98953649Y-136412085D01*
X98719122Y-136286728D01*
X98663978Y-136270000D01*
X98719122Y-136253272D01*
X98953649Y-136127915D01*
X99159213Y-135959213D01*
X99327915Y-135753649D01*
X99453272Y-135519122D01*
X99530467Y-135264646D01*
X99556532Y-135000000D01*
X99530467Y-134735354D01*
X99453272Y-134480878D01*
X99327915Y-134246351D01*
X99159213Y-134040787D01*
X98953649Y-133872085D01*
X98719122Y-133746728D01*
X98663978Y-133730000D01*
X98719122Y-133713272D01*
X98953649Y-133587915D01*
X99159213Y-133419213D01*
X99327915Y-133213649D01*
X99377326Y-133121207D01*
X118600000Y-133121207D01*
X118600000Y-133278793D01*
X118630743Y-133433351D01*
X118691049Y-133578942D01*
X118778599Y-133709970D01*
X118890030Y-133821401D01*
X119021058Y-133908951D01*
X119166649Y-133969257D01*
X119321207Y-134000000D01*
X119478793Y-134000000D01*
X119633351Y-133969257D01*
X119673806Y-133952500D01*
X120026172Y-133952500D01*
X120037325Y-133989267D01*
X120083754Y-134076129D01*
X120146236Y-134152264D01*
X120222371Y-134214746D01*
X120309233Y-134261175D01*
X120403483Y-134289765D01*
X120501500Y-134299419D01*
X120600000Y-134299419D01*
X120600000Y-134770526D01*
X120597097Y-134800000D01*
X120600000Y-134829473D01*
X120608682Y-134917620D01*
X120642990Y-135030720D01*
X120698704Y-135134954D01*
X120773683Y-135226317D01*
X120796586Y-135245113D01*
X121354891Y-135803419D01*
X121373683Y-135826317D01*
X121465045Y-135901296D01*
X121569279Y-135957010D01*
X121679412Y-135990418D01*
X121682379Y-135991318D01*
X121799999Y-136002903D01*
X121829473Y-136000000D01*
X133551473Y-136000000D01*
X133699101Y-136147628D01*
X133699101Y-136461707D01*
X133681354Y-136483331D01*
X133648247Y-136545269D01*
X133624021Y-136532320D01*
X133440233Y-136476568D01*
X133296992Y-136462460D01*
X132901208Y-136462460D01*
X132757967Y-136476568D01*
X132574179Y-136532320D01*
X132404798Y-136622855D01*
X132256335Y-136744695D01*
X132134495Y-136893158D01*
X132043960Y-137062539D01*
X131988208Y-137246327D01*
X131969383Y-137437460D01*
X131988208Y-137628593D01*
X132043960Y-137812381D01*
X132134495Y-137981762D01*
X132256335Y-138130225D01*
X132404798Y-138252065D01*
X132574179Y-138342600D01*
X132757967Y-138398352D01*
X132901208Y-138412460D01*
X133296992Y-138412460D01*
X133440233Y-138398352D01*
X133624021Y-138342600D01*
X133648247Y-138329651D01*
X133681354Y-138391589D01*
X133743836Y-138467724D01*
X133819971Y-138530206D01*
X133906833Y-138576635D01*
X134001083Y-138605225D01*
X134099100Y-138614879D01*
X134499100Y-138614879D01*
X134597117Y-138605225D01*
X134624100Y-138597040D01*
X134651083Y-138605225D01*
X134749100Y-138614879D01*
X135149100Y-138614879D01*
X135247117Y-138605225D01*
X135274100Y-138597040D01*
X135301083Y-138605225D01*
X135399100Y-138614879D01*
X135799100Y-138614879D01*
X135897117Y-138605225D01*
X135924100Y-138597040D01*
X135951083Y-138605225D01*
X136049100Y-138614879D01*
X136356652Y-138614879D01*
X136411104Y-138651263D01*
X136521753Y-138697095D01*
X136639217Y-138720460D01*
X136647100Y-138720460D01*
X136799100Y-138568460D01*
X136799100Y-138472044D01*
X136804364Y-138467724D01*
X136866846Y-138391589D01*
X136913275Y-138304727D01*
X136941865Y-138210477D01*
X136951519Y-138112460D01*
X136951519Y-137437460D01*
X136969383Y-137437460D01*
X136988208Y-137628593D01*
X136999100Y-137664499D01*
X136999100Y-138568460D01*
X137151100Y-138720460D01*
X137158983Y-138720460D01*
X137276447Y-138697095D01*
X137387096Y-138651263D01*
X137486677Y-138584725D01*
X137571364Y-138500038D01*
X137637903Y-138400456D01*
X137652079Y-138366231D01*
X137757967Y-138398352D01*
X137901208Y-138412460D01*
X138296992Y-138412460D01*
X138440233Y-138398352D01*
X138624021Y-138342600D01*
X138793402Y-138252065D01*
X138941865Y-138130225D01*
X139063705Y-137981762D01*
X139154240Y-137812381D01*
X139209992Y-137628593D01*
X139228817Y-137437460D01*
X139209992Y-137246327D01*
X139154240Y-137062539D01*
X139063705Y-136893158D01*
X138941865Y-136744695D01*
X138793402Y-136622855D01*
X138624021Y-136532320D01*
X138440233Y-136476568D01*
X138296992Y-136462460D01*
X137901208Y-136462460D01*
X137757967Y-136476568D01*
X137652079Y-136508689D01*
X137637903Y-136474464D01*
X137571364Y-136374882D01*
X137486677Y-136290195D01*
X137387096Y-136223657D01*
X137276447Y-136177825D01*
X137158983Y-136154460D01*
X137151100Y-136154460D01*
X136999100Y-136306460D01*
X136999100Y-137210421D01*
X136988208Y-137246327D01*
X136969383Y-137437460D01*
X136951519Y-137437460D01*
X136951519Y-136762460D01*
X136941865Y-136664443D01*
X136913275Y-136570193D01*
X136866846Y-136483331D01*
X136804364Y-136407196D01*
X136799100Y-136402876D01*
X136799100Y-136306460D01*
X136647100Y-136154460D01*
X136639217Y-136154460D01*
X136521753Y-136177825D01*
X136411104Y-136223657D01*
X136356652Y-136260041D01*
X136199100Y-136260041D01*
X136199100Y-135428565D01*
X136202002Y-135399099D01*
X136199100Y-135369633D01*
X136199100Y-135369626D01*
X136190418Y-135281479D01*
X136156110Y-135168379D01*
X136100396Y-135064145D01*
X136025417Y-134972783D01*
X136002519Y-134953991D01*
X133997613Y-132949086D01*
X133978817Y-132926183D01*
X133887455Y-132851204D01*
X133783221Y-132795490D01*
X133670121Y-132761182D01*
X133581974Y-132752500D01*
X133552500Y-132749597D01*
X133523026Y-132752500D01*
X127973828Y-132752500D01*
X127962675Y-132715733D01*
X127916246Y-132628871D01*
X127853764Y-132552736D01*
X127777629Y-132490254D01*
X127690767Y-132443825D01*
X127596517Y-132415235D01*
X127498500Y-132405581D01*
X126101500Y-132405581D01*
X126003483Y-132415235D01*
X125909233Y-132443825D01*
X125822371Y-132490254D01*
X125746236Y-132552736D01*
X125683754Y-132628871D01*
X125637325Y-132715733D01*
X125608735Y-132809983D01*
X125599081Y-132908000D01*
X125599081Y-133797000D01*
X125608735Y-133895017D01*
X125637325Y-133989267D01*
X125683754Y-134076129D01*
X125746236Y-134152264D01*
X125804403Y-134200000D01*
X125051528Y-134200000D01*
X125026317Y-134174789D01*
X125053764Y-134152264D01*
X125116246Y-134076129D01*
X125162675Y-133989267D01*
X125191265Y-133895017D01*
X125200919Y-133797000D01*
X125200919Y-132908000D01*
X125191265Y-132809983D01*
X125162675Y-132715733D01*
X125116246Y-132628871D01*
X125053764Y-132552736D01*
X124977629Y-132490254D01*
X124890767Y-132443825D01*
X124796517Y-132415235D01*
X124698500Y-132405581D01*
X123301500Y-132405581D01*
X123203483Y-132415235D01*
X123109233Y-132443825D01*
X123022371Y-132490254D01*
X122946236Y-132552736D01*
X122883754Y-132628871D01*
X122837325Y-132715733D01*
X122808735Y-132809983D01*
X122799081Y-132908000D01*
X122799081Y-133797000D01*
X122808735Y-133895017D01*
X122837325Y-133989267D01*
X122883754Y-134076129D01*
X122946236Y-134152264D01*
X123022371Y-134214746D01*
X123109233Y-134261175D01*
X123203483Y-134289765D01*
X123301500Y-134299419D01*
X123481314Y-134299419D01*
X123498705Y-134331955D01*
X123573684Y-134423317D01*
X123596581Y-134442108D01*
X123954473Y-134800000D01*
X122048528Y-134800000D01*
X121800000Y-134551473D01*
X121800000Y-134299419D01*
X121898500Y-134299419D01*
X121996517Y-134289765D01*
X122090767Y-134261175D01*
X122177629Y-134214746D01*
X122253764Y-134152264D01*
X122316246Y-134076129D01*
X122362675Y-133989267D01*
X122391265Y-133895017D01*
X122400919Y-133797000D01*
X122400919Y-132908000D01*
X122391265Y-132809983D01*
X122362675Y-132715733D01*
X122316246Y-132628871D01*
X122253764Y-132552736D01*
X122177629Y-132490254D01*
X122118836Y-132458828D01*
X122186496Y-132430803D01*
X122286077Y-132364265D01*
X122370764Y-132279578D01*
X122437303Y-132179996D01*
X122483135Y-132069347D01*
X122506500Y-131951883D01*
X122506500Y-131753500D01*
X122354500Y-131601500D01*
X121354000Y-131601500D01*
X121354000Y-131621500D01*
X121046000Y-131621500D01*
X121046000Y-131601500D01*
X120045500Y-131601500D01*
X119893500Y-131753500D01*
X119893500Y-131951883D01*
X119916865Y-132069347D01*
X119962697Y-132179996D01*
X120029236Y-132279578D01*
X120113923Y-132364265D01*
X120213504Y-132430803D01*
X120281164Y-132458828D01*
X120222371Y-132490254D01*
X120146236Y-132552736D01*
X120083754Y-132628871D01*
X120037881Y-132714694D01*
X120021401Y-132690030D01*
X119909970Y-132578599D01*
X119778942Y-132491049D01*
X119633351Y-132430743D01*
X119478793Y-132400000D01*
X119321207Y-132400000D01*
X119166649Y-132430743D01*
X119021058Y-132491049D01*
X118890030Y-132578599D01*
X118778599Y-132690030D01*
X118691049Y-132821058D01*
X118630743Y-132966649D01*
X118600000Y-133121207D01*
X99377326Y-133121207D01*
X99453272Y-132979122D01*
X99530467Y-132724646D01*
X99556532Y-132460000D01*
X99530467Y-132195354D01*
X99453272Y-131940878D01*
X99327915Y-131706351D01*
X99159213Y-131500787D01*
X98953649Y-131332085D01*
X98719122Y-131206728D01*
X98663978Y-131190000D01*
X98719122Y-131173272D01*
X98953649Y-131047915D01*
X99081345Y-130943117D01*
X119893500Y-130943117D01*
X119893500Y-131141500D01*
X120045500Y-131293500D01*
X121046000Y-131293500D01*
X121046000Y-130547000D01*
X121354000Y-130547000D01*
X121354000Y-131293500D01*
X122354500Y-131293500D01*
X122506500Y-131141500D01*
X122506500Y-130943117D01*
X122483135Y-130825653D01*
X122437303Y-130715004D01*
X122370764Y-130615422D01*
X122286077Y-130530735D01*
X122186496Y-130464197D01*
X122075847Y-130418365D01*
X121958383Y-130395000D01*
X121506000Y-130395000D01*
X121354000Y-130547000D01*
X121046000Y-130547000D01*
X120894000Y-130395000D01*
X120441617Y-130395000D01*
X120324153Y-130418365D01*
X120213504Y-130464197D01*
X120113923Y-130530735D01*
X120029236Y-130615422D01*
X119962697Y-130715004D01*
X119916865Y-130825653D01*
X119893500Y-130943117D01*
X99081345Y-130943117D01*
X99159213Y-130879213D01*
X99327915Y-130673649D01*
X99453272Y-130439122D01*
X99530467Y-130184646D01*
X99556532Y-129920000D01*
X99530467Y-129655354D01*
X99453272Y-129400878D01*
X99327915Y-129166351D01*
X99159213Y-128960787D01*
X98953649Y-128792085D01*
X98719122Y-128666728D01*
X98663978Y-128650000D01*
X98719122Y-128633272D01*
X98953649Y-128507915D01*
X99159213Y-128339213D01*
X99327915Y-128133649D01*
X99410042Y-127980000D01*
X100790526Y-127980000D01*
X100820000Y-127982903D01*
X100849474Y-127980000D01*
X100937621Y-127971318D01*
X101050721Y-127937010D01*
X101154955Y-127881296D01*
X101246317Y-127806317D01*
X101265113Y-127783414D01*
X102603419Y-126445109D01*
X102626317Y-126426317D01*
X102701296Y-126334955D01*
X102757010Y-126230721D01*
X102791318Y-126117621D01*
X102800000Y-126029474D01*
X102802903Y-126000000D01*
X102800000Y-125970526D01*
X102800000Y-122048527D01*
X104003419Y-120845109D01*
X104026317Y-120826317D01*
X104101296Y-120734955D01*
X104157010Y-120630721D01*
X104191318Y-120517621D01*
X104200000Y-120429474D01*
X104202903Y-120400000D01*
X104200000Y-120370526D01*
X104200000Y-111331371D01*
X104221401Y-111309970D01*
X104308951Y-111178942D01*
X104369257Y-111033351D01*
X104400000Y-110878793D01*
X104400000Y-110721207D01*
X104369257Y-110566649D01*
X104308951Y-110421058D01*
X104221401Y-110290030D01*
X104109970Y-110178599D01*
X103978942Y-110091049D01*
X103833351Y-110030743D01*
X103678793Y-110000000D01*
X103612524Y-110000000D01*
X106403419Y-107209105D01*
X106426317Y-107190313D01*
X106501296Y-107098951D01*
X106551514Y-107005000D01*
X106557010Y-106994718D01*
X106591318Y-106881617D01*
X106602903Y-106763996D01*
X106600000Y-106734522D01*
X106600000Y-106258500D01*
X108293500Y-106258500D01*
X108293500Y-106456883D01*
X108316865Y-106574347D01*
X108362697Y-106684996D01*
X108429236Y-106784578D01*
X108513923Y-106869265D01*
X108613504Y-106935803D01*
X108724153Y-106981635D01*
X108841617Y-107005000D01*
X109294000Y-107005000D01*
X109446000Y-106853000D01*
X109446000Y-106106500D01*
X109754000Y-106106500D01*
X109754000Y-106853000D01*
X109906000Y-107005000D01*
X110358383Y-107005000D01*
X110475847Y-106981635D01*
X110586496Y-106935803D01*
X110686077Y-106869265D01*
X110770764Y-106784578D01*
X110837303Y-106684996D01*
X110883135Y-106574347D01*
X110906500Y-106456883D01*
X110906500Y-106258500D01*
X110754500Y-106106500D01*
X109754000Y-106106500D01*
X109446000Y-106106500D01*
X108445500Y-106106500D01*
X108293500Y-106258500D01*
X106600000Y-106258500D01*
X106600000Y-101748527D01*
X111446109Y-96902419D01*
X111857192Y-96902419D01*
X111847581Y-97000000D01*
X111847581Y-98000000D01*
X111856896Y-98094576D01*
X109196582Y-100754891D01*
X109173684Y-100773683D01*
X109098705Y-100865045D01*
X109054578Y-100947601D01*
X109042991Y-100969279D01*
X109008682Y-101082380D01*
X108997097Y-101200000D01*
X109000001Y-101229483D01*
X109000000Y-103100581D01*
X108901500Y-103100581D01*
X108803483Y-103110235D01*
X108709233Y-103138825D01*
X108622371Y-103185254D01*
X108546236Y-103247736D01*
X108483754Y-103323871D01*
X108437325Y-103410733D01*
X108408735Y-103504983D01*
X108399081Y-103603000D01*
X108399081Y-104492000D01*
X108408735Y-104590017D01*
X108437325Y-104684267D01*
X108483754Y-104771129D01*
X108546236Y-104847264D01*
X108622371Y-104909746D01*
X108681164Y-104941172D01*
X108613504Y-104969197D01*
X108513923Y-105035735D01*
X108429236Y-105120422D01*
X108362697Y-105220004D01*
X108316865Y-105330653D01*
X108293500Y-105448117D01*
X108293500Y-105646500D01*
X108445500Y-105798500D01*
X109446000Y-105798500D01*
X109446000Y-105778500D01*
X109754000Y-105778500D01*
X109754000Y-105798500D01*
X110754500Y-105798500D01*
X110906500Y-105646500D01*
X110906500Y-105448117D01*
X110883135Y-105330653D01*
X110837303Y-105220004D01*
X110770764Y-105120422D01*
X110686077Y-105035735D01*
X110586496Y-104969197D01*
X110518836Y-104941172D01*
X110577629Y-104909746D01*
X110653764Y-104847264D01*
X110716246Y-104771129D01*
X110762675Y-104684267D01*
X110788237Y-104600000D01*
X111068629Y-104600000D01*
X111090030Y-104621401D01*
X111221058Y-104708951D01*
X111366649Y-104769257D01*
X111521207Y-104800000D01*
X111678793Y-104800000D01*
X111833351Y-104769257D01*
X111978942Y-104708951D01*
X112000000Y-104694880D01*
X112000000Y-109601472D01*
X111089640Y-110511832D01*
X111067746Y-110470871D01*
X111005264Y-110394736D01*
X110929129Y-110332254D01*
X110842267Y-110285825D01*
X110748017Y-110257235D01*
X110650000Y-110247581D01*
X108950000Y-110247581D01*
X108851983Y-110257235D01*
X108757733Y-110285825D01*
X108670871Y-110332254D01*
X108594736Y-110394736D01*
X108532254Y-110470871D01*
X108485825Y-110557733D01*
X108457235Y-110651983D01*
X108447581Y-110750000D01*
X108447581Y-112450000D01*
X108457235Y-112548017D01*
X108485825Y-112642267D01*
X108532254Y-112729129D01*
X108594736Y-112805264D01*
X108670871Y-112867746D01*
X108757733Y-112914175D01*
X108851983Y-112942765D01*
X108950000Y-112952419D01*
X109157978Y-112952419D01*
X109046351Y-113012085D01*
X108840787Y-113180787D01*
X108672085Y-113386351D01*
X108546728Y-113620878D01*
X108469533Y-113875354D01*
X108443468Y-114140000D01*
X108469533Y-114404646D01*
X108546728Y-114659122D01*
X108672085Y-114893649D01*
X108840787Y-115099213D01*
X109046351Y-115267915D01*
X109280878Y-115393272D01*
X109336022Y-115410000D01*
X109280878Y-115426728D01*
X109046351Y-115552085D01*
X108840787Y-115720787D01*
X108672085Y-115926351D01*
X108546728Y-116160878D01*
X108469533Y-116415354D01*
X108443468Y-116680000D01*
X108469533Y-116944646D01*
X108546728Y-117199122D01*
X108672085Y-117433649D01*
X108840787Y-117639213D01*
X109046351Y-117807915D01*
X109280878Y-117933272D01*
X109336022Y-117950000D01*
X109280878Y-117966728D01*
X109046351Y-118092085D01*
X108840787Y-118260787D01*
X108672085Y-118466351D01*
X108546728Y-118700878D01*
X108469533Y-118955354D01*
X108443468Y-119220000D01*
X108469533Y-119484646D01*
X108546728Y-119739122D01*
X108672085Y-119973649D01*
X108840787Y-120179213D01*
X109046351Y-120347915D01*
X109280878Y-120473272D01*
X109336022Y-120490000D01*
X109280878Y-120506728D01*
X109046351Y-120632085D01*
X108840787Y-120800787D01*
X108672085Y-121006351D01*
X108546728Y-121240878D01*
X108469533Y-121495354D01*
X108443468Y-121760000D01*
X108469533Y-122024646D01*
X108546728Y-122279122D01*
X108672085Y-122513649D01*
X108840787Y-122719213D01*
X109046351Y-122887915D01*
X109280878Y-123013272D01*
X109336022Y-123030000D01*
X109280878Y-123046728D01*
X109046351Y-123172085D01*
X108840787Y-123340787D01*
X108672085Y-123546351D01*
X108546728Y-123780878D01*
X108469533Y-124035354D01*
X108443468Y-124300000D01*
X108469533Y-124564646D01*
X108546728Y-124819122D01*
X108672085Y-125053649D01*
X108840787Y-125259213D01*
X109046351Y-125427915D01*
X109280878Y-125553272D01*
X109336022Y-125570000D01*
X109280878Y-125586728D01*
X109046351Y-125712085D01*
X108840787Y-125880787D01*
X108672085Y-126086351D01*
X108546728Y-126320878D01*
X108469533Y-126575354D01*
X108443468Y-126840000D01*
X108469533Y-127104646D01*
X108546728Y-127359122D01*
X108672085Y-127593649D01*
X108840787Y-127799213D01*
X109046351Y-127967915D01*
X109280878Y-128093272D01*
X109535354Y-128170467D01*
X109733679Y-128190000D01*
X109866321Y-128190000D01*
X110064646Y-128170467D01*
X110319122Y-128093272D01*
X110553649Y-127967915D01*
X110759213Y-127799213D01*
X110927915Y-127593649D01*
X111010042Y-127440000D01*
X112530526Y-127440000D01*
X112560000Y-127442903D01*
X112589474Y-127440000D01*
X112677621Y-127431318D01*
X112790721Y-127397010D01*
X112894955Y-127341296D01*
X112986317Y-127266317D01*
X113005113Y-127243414D01*
X117600001Y-122648527D01*
X117600001Y-128068628D01*
X117578599Y-128090030D01*
X117491049Y-128221058D01*
X117430743Y-128366649D01*
X117400000Y-128521207D01*
X117400000Y-128678793D01*
X117430743Y-128833351D01*
X117491049Y-128978942D01*
X117578599Y-129109970D01*
X117690030Y-129221401D01*
X117821058Y-129308951D01*
X117966649Y-129369257D01*
X118121207Y-129400000D01*
X118278793Y-129400000D01*
X118433351Y-129369257D01*
X118578942Y-129308951D01*
X118709970Y-129221401D01*
X118821401Y-129109970D01*
X118908951Y-128978942D01*
X118969257Y-128833351D01*
X119000000Y-128678793D01*
X119000000Y-128521207D01*
X118969257Y-128366649D01*
X118908951Y-128221058D01*
X118821401Y-128090030D01*
X118800000Y-128068629D01*
X118800000Y-125848527D01*
X123400000Y-130448528D01*
X123400000Y-130500581D01*
X123301500Y-130500581D01*
X123203483Y-130510235D01*
X123109233Y-130538825D01*
X123022371Y-130585254D01*
X122946236Y-130647736D01*
X122883754Y-130723871D01*
X122837325Y-130810733D01*
X122808735Y-130904983D01*
X122799081Y-131003000D01*
X122799081Y-131892000D01*
X122808735Y-131990017D01*
X122837325Y-132084267D01*
X122883754Y-132171129D01*
X122946236Y-132247264D01*
X123022371Y-132309746D01*
X123109233Y-132356175D01*
X123203483Y-132384765D01*
X123301500Y-132394419D01*
X124698500Y-132394419D01*
X124796517Y-132384765D01*
X124890767Y-132356175D01*
X124977629Y-132309746D01*
X125053764Y-132247264D01*
X125116246Y-132171129D01*
X125162675Y-132084267D01*
X125191265Y-131990017D01*
X125200919Y-131892000D01*
X125200919Y-131003000D01*
X125191265Y-130904983D01*
X125162675Y-130810733D01*
X125116246Y-130723871D01*
X125053764Y-130647736D01*
X124977629Y-130585254D01*
X124890767Y-130538825D01*
X124796517Y-130510235D01*
X124698500Y-130500581D01*
X124600000Y-130500581D01*
X124600000Y-130229474D01*
X124602903Y-130200000D01*
X124591318Y-130082379D01*
X124557010Y-129969278D01*
X124519287Y-129898704D01*
X124501296Y-129865045D01*
X124426317Y-129773683D01*
X124403420Y-129754892D01*
X119600000Y-124951473D01*
X119600000Y-124048527D01*
X126056487Y-130505015D01*
X126003483Y-130510235D01*
X125909233Y-130538825D01*
X125822371Y-130585254D01*
X125746236Y-130647736D01*
X125683754Y-130723871D01*
X125637325Y-130810733D01*
X125608735Y-130904983D01*
X125599081Y-131003000D01*
X125599081Y-131892000D01*
X125608735Y-131990017D01*
X125637325Y-132084267D01*
X125683754Y-132171129D01*
X125746236Y-132247264D01*
X125822371Y-132309746D01*
X125909233Y-132356175D01*
X126003483Y-132384765D01*
X126101500Y-132394419D01*
X127498500Y-132394419D01*
X127596517Y-132384765D01*
X127690767Y-132356175D01*
X127777629Y-132309746D01*
X127853764Y-132247264D01*
X127916246Y-132171129D01*
X127962675Y-132084267D01*
X127991265Y-131990017D01*
X128000919Y-131892000D01*
X128000919Y-131003000D01*
X127991265Y-130904983D01*
X127962675Y-130810733D01*
X127916246Y-130723871D01*
X127853764Y-130647736D01*
X127777629Y-130585254D01*
X127690767Y-130538825D01*
X127596517Y-130510235D01*
X127498500Y-130500581D01*
X127400000Y-130500581D01*
X127400000Y-130429474D01*
X127402903Y-130400000D01*
X127391318Y-130282379D01*
X127357010Y-130169279D01*
X127301296Y-130065045D01*
X127226317Y-129973683D01*
X127203420Y-129954892D01*
X120400000Y-123151473D01*
X120400000Y-104694885D01*
X120421052Y-104708951D01*
X120566643Y-104769257D01*
X120721201Y-104800000D01*
X120878787Y-104800000D01*
X121033345Y-104769257D01*
X121066851Y-104755378D01*
X122499053Y-106187581D01*
X122450000Y-106187581D01*
X122351983Y-106197235D01*
X122257733Y-106225825D01*
X122170871Y-106272254D01*
X122094736Y-106334736D01*
X122032254Y-106410871D01*
X121985825Y-106497733D01*
X121957235Y-106591983D01*
X121947581Y-106690000D01*
X121947581Y-107430000D01*
X121957235Y-107528017D01*
X121972900Y-107579659D01*
X121911197Y-107672004D01*
X121865365Y-107782653D01*
X121842000Y-107900117D01*
X121842000Y-108024000D01*
X121994000Y-108176000D01*
X123496000Y-108176000D01*
X123496000Y-108156000D01*
X123804000Y-108156000D01*
X123804000Y-108176000D01*
X123824000Y-108176000D01*
X123824000Y-108484000D01*
X123804000Y-108484000D01*
X123804000Y-108504000D01*
X123496000Y-108504000D01*
X123496000Y-108484000D01*
X121994000Y-108484000D01*
X121842000Y-108636000D01*
X121842000Y-108759883D01*
X121865365Y-108877347D01*
X121911197Y-108987996D01*
X121972900Y-109080341D01*
X121957235Y-109131983D01*
X121947581Y-109230000D01*
X121947581Y-109970000D01*
X121957235Y-110068017D01*
X121985825Y-110162267D01*
X122024702Y-110235000D01*
X121985825Y-110307733D01*
X121957235Y-110401983D01*
X121947581Y-110500000D01*
X121947581Y-111240000D01*
X121957235Y-111338017D01*
X121985825Y-111432267D01*
X122024702Y-111505000D01*
X121985825Y-111577733D01*
X121957235Y-111671983D01*
X121947581Y-111770000D01*
X121947581Y-112510000D01*
X121957235Y-112608017D01*
X121985825Y-112702267D01*
X122032254Y-112789129D01*
X122094736Y-112865264D01*
X122170871Y-112927746D01*
X122257733Y-112974175D01*
X122351983Y-113002765D01*
X122450000Y-113012419D01*
X124850000Y-113012419D01*
X124948017Y-113002765D01*
X125042267Y-112974175D01*
X125129129Y-112927746D01*
X125205264Y-112865264D01*
X125267746Y-112789129D01*
X125314175Y-112702267D01*
X125342765Y-112608017D01*
X125352419Y-112510000D01*
X125352419Y-111770000D01*
X125342765Y-111671983D01*
X125314175Y-111577733D01*
X125275298Y-111505000D01*
X125314175Y-111432267D01*
X125342765Y-111338017D01*
X125352419Y-111240000D01*
X125352419Y-110500000D01*
X125342765Y-110401983D01*
X125314175Y-110307733D01*
X125275298Y-110235000D01*
X125314175Y-110162267D01*
X125342765Y-110068017D01*
X125352419Y-109970000D01*
X125352419Y-109230000D01*
X125342765Y-109131983D01*
X125327100Y-109080341D01*
X125388803Y-108987996D01*
X125434635Y-108877347D01*
X125458000Y-108759883D01*
X125458000Y-108636000D01*
X125306002Y-108484002D01*
X125455473Y-108484002D01*
X125704895Y-108733424D01*
X125723683Y-108756317D01*
X125815045Y-108831296D01*
X125877448Y-108864651D01*
X125885825Y-108892267D01*
X125924702Y-108965000D01*
X125885825Y-109037733D01*
X125857235Y-109131983D01*
X125847581Y-109230000D01*
X125847581Y-109970000D01*
X125857235Y-110068017D01*
X125885825Y-110162267D01*
X125924702Y-110235000D01*
X125885825Y-110307733D01*
X125857235Y-110401983D01*
X125847581Y-110500000D01*
X125847581Y-111240000D01*
X125857235Y-111338017D01*
X125885825Y-111432267D01*
X125924702Y-111505000D01*
X125885825Y-111577733D01*
X125857235Y-111671983D01*
X125847581Y-111770000D01*
X125847581Y-112510000D01*
X125857235Y-112608017D01*
X125885825Y-112702267D01*
X125932254Y-112789129D01*
X125994736Y-112865264D01*
X126070871Y-112927746D01*
X126157733Y-112974175D01*
X126251983Y-113002765D01*
X126350000Y-113012419D01*
X128750000Y-113012419D01*
X128848017Y-113002765D01*
X128942267Y-112974175D01*
X129029129Y-112927746D01*
X129105264Y-112865264D01*
X129167746Y-112789129D01*
X129214175Y-112702267D01*
X129242765Y-112608017D01*
X129252419Y-112510000D01*
X129252419Y-111770000D01*
X129242765Y-111671983D01*
X129214175Y-111577733D01*
X129175298Y-111505000D01*
X129214175Y-111432267D01*
X129242765Y-111338017D01*
X129252419Y-111240000D01*
X129252419Y-110500000D01*
X129242765Y-110401983D01*
X129214175Y-110307733D01*
X129175298Y-110235000D01*
X129214175Y-110162267D01*
X129242765Y-110068017D01*
X129252419Y-109970000D01*
X129252419Y-109230000D01*
X129242765Y-109131983D01*
X129214175Y-109037733D01*
X129175298Y-108965000D01*
X129214175Y-108892267D01*
X129242765Y-108798017D01*
X129252419Y-108700000D01*
X129252419Y-107960000D01*
X129242765Y-107861983D01*
X129214175Y-107767733D01*
X129175298Y-107695000D01*
X129214175Y-107622267D01*
X129242765Y-107528017D01*
X129252419Y-107430000D01*
X129252419Y-106690000D01*
X129242765Y-106591983D01*
X129214175Y-106497733D01*
X129167746Y-106410871D01*
X129105264Y-106334736D01*
X129029129Y-106272254D01*
X128942267Y-106225825D01*
X128848017Y-106197235D01*
X128750000Y-106187581D01*
X128700946Y-106187581D01*
X130803420Y-104085108D01*
X130826317Y-104066317D01*
X130901296Y-103974955D01*
X130957010Y-103870721D01*
X130991318Y-103757621D01*
X131000000Y-103669474D01*
X131000000Y-103669473D01*
X131002903Y-103640000D01*
X131000000Y-103610526D01*
X131000000Y-100131371D01*
X131021401Y-100109970D01*
X131108951Y-99978942D01*
X131169257Y-99833351D01*
X131200000Y-99678793D01*
X131200000Y-99521207D01*
X131169257Y-99366649D01*
X131108951Y-99221058D01*
X131021401Y-99090030D01*
X130909970Y-98978599D01*
X130778942Y-98891049D01*
X130633351Y-98830743D01*
X130478793Y-98800000D01*
X130321207Y-98800000D01*
X130166649Y-98830743D01*
X130021058Y-98891049D01*
X129890030Y-98978599D01*
X129778599Y-99090030D01*
X129691049Y-99221058D01*
X129630743Y-99366649D01*
X129623613Y-99402497D01*
X129516212Y-99402497D01*
X129361654Y-99433240D01*
X129216063Y-99493546D01*
X129085035Y-99581096D01*
X128973604Y-99692527D01*
X128886054Y-99823555D01*
X128825748Y-99969146D01*
X128795005Y-100123704D01*
X128795005Y-100153969D01*
X125196582Y-103752393D01*
X125173684Y-103771185D01*
X125098705Y-103862547D01*
X125067351Y-103921207D01*
X125042991Y-103966781D01*
X125008682Y-104079882D01*
X124997097Y-104197502D01*
X125000001Y-104226986D01*
X125000000Y-106213004D01*
X124948017Y-106197235D01*
X124850000Y-106187581D01*
X124168687Y-106187581D01*
X124151296Y-106155045D01*
X124076317Y-106063683D01*
X124053419Y-106044891D01*
X121605113Y-103596586D01*
X121586317Y-103573683D01*
X121494955Y-103498704D01*
X121390721Y-103442990D01*
X121367229Y-103435864D01*
X121309964Y-103378599D01*
X121178936Y-103291049D01*
X121033345Y-103230743D01*
X120878787Y-103200000D01*
X120721201Y-103200000D01*
X120566643Y-103230743D01*
X120421052Y-103291049D01*
X120400000Y-103305115D01*
X120400000Y-102398527D01*
X124153419Y-98645109D01*
X124176317Y-98626317D01*
X124251296Y-98534955D01*
X124278845Y-98483413D01*
X124342267Y-98464175D01*
X124429129Y-98417746D01*
X124505264Y-98355264D01*
X124567746Y-98279129D01*
X124614175Y-98192267D01*
X124642765Y-98098017D01*
X124652419Y-98000000D01*
X124652419Y-97008000D01*
X124694000Y-97008000D01*
X124846000Y-96856000D01*
X124846000Y-96154000D01*
X125154000Y-96154000D01*
X125154000Y-96856000D01*
X125306000Y-97008000D01*
X125559883Y-97008000D01*
X125677347Y-96984635D01*
X125787996Y-96938803D01*
X125887578Y-96872264D01*
X125972265Y-96787577D01*
X126038803Y-96687996D01*
X126084635Y-96577347D01*
X126108000Y-96459883D01*
X126108000Y-96306000D01*
X125956000Y-96154000D01*
X125154000Y-96154000D01*
X124846000Y-96154000D01*
X124044000Y-96154000D01*
X123892000Y-96306000D01*
X123892000Y-96459883D01*
X123899499Y-96497581D01*
X123350000Y-96497581D01*
X123251983Y-96507235D01*
X123200000Y-96523004D01*
X123148017Y-96507235D01*
X123050000Y-96497581D01*
X122250000Y-96497581D01*
X122151983Y-96507235D01*
X122100000Y-96523004D01*
X122048017Y-96507235D01*
X121950000Y-96497581D01*
X121150000Y-96497581D01*
X121051983Y-96507235D01*
X121000000Y-96523004D01*
X120948017Y-96507235D01*
X120850000Y-96497581D01*
X120050000Y-96497581D01*
X119951983Y-96507235D01*
X119900000Y-96523004D01*
X119848017Y-96507235D01*
X119750000Y-96497581D01*
X118950000Y-96497581D01*
X118851983Y-96507235D01*
X118800000Y-96523004D01*
X118748017Y-96507235D01*
X118650000Y-96497581D01*
X117850000Y-96497581D01*
X117751983Y-96507235D01*
X117700000Y-96523004D01*
X117648017Y-96507235D01*
X117550000Y-96497581D01*
X116750000Y-96497581D01*
X116651983Y-96507235D01*
X116600000Y-96523004D01*
X116548017Y-96507235D01*
X116450000Y-96497581D01*
X115650000Y-96497581D01*
X115551983Y-96507235D01*
X115500000Y-96523004D01*
X115448017Y-96507235D01*
X115350000Y-96497581D01*
X114550000Y-96497581D01*
X114451983Y-96507235D01*
X114400000Y-96523004D01*
X114348017Y-96507235D01*
X114250000Y-96497581D01*
X113450000Y-96497581D01*
X113351983Y-96507235D01*
X113300000Y-96523004D01*
X113248017Y-96507235D01*
X113150000Y-96497581D01*
X112492808Y-96497581D01*
X112502419Y-96400000D01*
X112502419Y-95600000D01*
X112492765Y-95501983D01*
X112476996Y-95450000D01*
X112492765Y-95398017D01*
X112502419Y-95300000D01*
X112502419Y-94500000D01*
X112492765Y-94401983D01*
X112476996Y-94350000D01*
X112492765Y-94298017D01*
X112502419Y-94200000D01*
X112502419Y-93400000D01*
X112492765Y-93301983D01*
X112476996Y-93250000D01*
X112492765Y-93198017D01*
X112502419Y-93100000D01*
X112502419Y-92300000D01*
X112492765Y-92201983D01*
X112476996Y-92150000D01*
X112492765Y-92098017D01*
X112502419Y-92000000D01*
X112502419Y-91200000D01*
X112492765Y-91101983D01*
X112476996Y-91050000D01*
X112492765Y-90998017D01*
X112502419Y-90900000D01*
X112502419Y-90100000D01*
X112492765Y-90001983D01*
X112476996Y-89950000D01*
X112492765Y-89898017D01*
X112502419Y-89800000D01*
X112502419Y-89000000D01*
X112492765Y-88901983D01*
X112476996Y-88850000D01*
X112492765Y-88798017D01*
X112502419Y-88700000D01*
X112502419Y-87900000D01*
X112492765Y-87801983D01*
X112476996Y-87750000D01*
X112492765Y-87698017D01*
X112502419Y-87600000D01*
X112502419Y-86800000D01*
X112492765Y-86701983D01*
X112476996Y-86650000D01*
X112492765Y-86598017D01*
X112502419Y-86500000D01*
X112502419Y-85700000D01*
X112492765Y-85601983D01*
X112476996Y-85550000D01*
X112492765Y-85498017D01*
X112502419Y-85400000D01*
X112502419Y-84600000D01*
X112897581Y-84600000D01*
X112897581Y-85400000D01*
X112907235Y-85498017D01*
X112923004Y-85550000D01*
X112907235Y-85601983D01*
X112897581Y-85700000D01*
X112897581Y-86500000D01*
X112907235Y-86598017D01*
X112923004Y-86650000D01*
X112907235Y-86701983D01*
X112897581Y-86800000D01*
X112897581Y-87600000D01*
X112907235Y-87698017D01*
X112923004Y-87750000D01*
X112907235Y-87801983D01*
X112897581Y-87900000D01*
X112897581Y-88700000D01*
X112907235Y-88798017D01*
X112923004Y-88850000D01*
X112907235Y-88901983D01*
X112897581Y-89000000D01*
X112897581Y-89800000D01*
X112907235Y-89898017D01*
X112923004Y-89950000D01*
X112907235Y-90001983D01*
X112897581Y-90100000D01*
X112897581Y-90900000D01*
X112907235Y-90998017D01*
X112923004Y-91050000D01*
X112907235Y-91101983D01*
X112897581Y-91200000D01*
X112897581Y-92000000D01*
X112907235Y-92098017D01*
X112923004Y-92150000D01*
X112907235Y-92201983D01*
X112897581Y-92300000D01*
X112897581Y-93100000D01*
X112907235Y-93198017D01*
X112923004Y-93250000D01*
X112907235Y-93301983D01*
X112897581Y-93400000D01*
X112897581Y-94200000D01*
X112907235Y-94298017D01*
X112935825Y-94392267D01*
X112982254Y-94479129D01*
X113044736Y-94555264D01*
X113120871Y-94617746D01*
X113207733Y-94664175D01*
X113301983Y-94692765D01*
X113400000Y-94702419D01*
X114400000Y-94702419D01*
X114498017Y-94692765D01*
X114592267Y-94664175D01*
X114679129Y-94617746D01*
X114755264Y-94555264D01*
X114817746Y-94479129D01*
X114864175Y-94392267D01*
X114892765Y-94298017D01*
X114902419Y-94200000D01*
X114902419Y-93400000D01*
X114892765Y-93301983D01*
X114876996Y-93250000D01*
X114892765Y-93198017D01*
X114902419Y-93100000D01*
X114902419Y-92300000D01*
X114892765Y-92201983D01*
X114876996Y-92150000D01*
X114892765Y-92098017D01*
X114902419Y-92000000D01*
X114902419Y-91200000D01*
X114892765Y-91101983D01*
X114876996Y-91050000D01*
X114892765Y-90998017D01*
X114902419Y-90900000D01*
X114902419Y-90100000D01*
X114892765Y-90001983D01*
X114876996Y-89950000D01*
X114892765Y-89898017D01*
X114902419Y-89800000D01*
X114902419Y-89000000D01*
X114892765Y-88901983D01*
X114876996Y-88850000D01*
X114892765Y-88798017D01*
X114902419Y-88700000D01*
X114902419Y-87900000D01*
X114892765Y-87801983D01*
X114876996Y-87750000D01*
X114892765Y-87698017D01*
X114902419Y-87600000D01*
X114902419Y-86800000D01*
X114892765Y-86701983D01*
X114876996Y-86650000D01*
X114892765Y-86598017D01*
X114902419Y-86500000D01*
X114902419Y-85700000D01*
X114892765Y-85601983D01*
X114876996Y-85550000D01*
X114892765Y-85498017D01*
X114902419Y-85400000D01*
X114902419Y-84600000D01*
X121597581Y-84600000D01*
X121597581Y-85400000D01*
X121607235Y-85498017D01*
X121623004Y-85550000D01*
X121607235Y-85601983D01*
X121597581Y-85700000D01*
X121597581Y-86500000D01*
X121607235Y-86598017D01*
X121623004Y-86650000D01*
X121607235Y-86701983D01*
X121597581Y-86800000D01*
X121597581Y-87600000D01*
X121607235Y-87698017D01*
X121623004Y-87750000D01*
X121607235Y-87801983D01*
X121597581Y-87900000D01*
X121597581Y-88700000D01*
X121607235Y-88798017D01*
X121623004Y-88850000D01*
X121607235Y-88901983D01*
X121597581Y-89000000D01*
X121597581Y-89800000D01*
X121607235Y-89898017D01*
X121623004Y-89950000D01*
X121607235Y-90001983D01*
X121597581Y-90100000D01*
X121597581Y-90900000D01*
X121607235Y-90998017D01*
X121623004Y-91050000D01*
X121607235Y-91101983D01*
X121597581Y-91200000D01*
X121597581Y-92000000D01*
X121607235Y-92098017D01*
X121623004Y-92150000D01*
X121607235Y-92201983D01*
X121597581Y-92300000D01*
X121597581Y-93100000D01*
X121607235Y-93198017D01*
X121623004Y-93250000D01*
X121607235Y-93301983D01*
X121597581Y-93400000D01*
X121597581Y-94200000D01*
X121607235Y-94298017D01*
X121635825Y-94392267D01*
X121682254Y-94479129D01*
X121744736Y-94555264D01*
X121820871Y-94617746D01*
X121907733Y-94664175D01*
X122001983Y-94692765D01*
X122100000Y-94702419D01*
X123100000Y-94702419D01*
X123198017Y-94692765D01*
X123292267Y-94664175D01*
X123379129Y-94617746D01*
X123455264Y-94555264D01*
X123517746Y-94479129D01*
X123564175Y-94392267D01*
X123592765Y-94298017D01*
X123602419Y-94200000D01*
X123602419Y-93400000D01*
X123592765Y-93301983D01*
X123576996Y-93250000D01*
X123592765Y-93198017D01*
X123602419Y-93100000D01*
X123602419Y-92300000D01*
X123592765Y-92201983D01*
X123576996Y-92150000D01*
X123592765Y-92098017D01*
X123602419Y-92000000D01*
X123602419Y-91200000D01*
X123592765Y-91101983D01*
X123576996Y-91050000D01*
X123592765Y-90998017D01*
X123602419Y-90900000D01*
X123602419Y-90100000D01*
X123592765Y-90001983D01*
X123576996Y-89950000D01*
X123592765Y-89898017D01*
X123602419Y-89800000D01*
X123602419Y-89000000D01*
X123592765Y-88901983D01*
X123576996Y-88850000D01*
X123592765Y-88798017D01*
X123602419Y-88700000D01*
X123602419Y-87900000D01*
X123592765Y-87801983D01*
X123576996Y-87750000D01*
X123592765Y-87698017D01*
X123602419Y-87600000D01*
X123602419Y-86800000D01*
X123592765Y-86701983D01*
X123576996Y-86650000D01*
X123592765Y-86598017D01*
X123602419Y-86500000D01*
X123602419Y-85700000D01*
X123592765Y-85601983D01*
X123576996Y-85550000D01*
X123592765Y-85498017D01*
X123602419Y-85400000D01*
X123602419Y-84600000D01*
X123592765Y-84501983D01*
X123564175Y-84407733D01*
X123517746Y-84320871D01*
X123455264Y-84244736D01*
X123379129Y-84182254D01*
X123292267Y-84135825D01*
X123198017Y-84107235D01*
X123100000Y-84097581D01*
X122100000Y-84097581D01*
X122001983Y-84107235D01*
X121907733Y-84135825D01*
X121820871Y-84182254D01*
X121744736Y-84244736D01*
X121682254Y-84320871D01*
X121635825Y-84407733D01*
X121607235Y-84501983D01*
X121597581Y-84600000D01*
X114902419Y-84600000D01*
X114892765Y-84501983D01*
X114864175Y-84407733D01*
X114817746Y-84320871D01*
X114755264Y-84244736D01*
X114679129Y-84182254D01*
X114592267Y-84135825D01*
X114498017Y-84107235D01*
X114400000Y-84097581D01*
X113400000Y-84097581D01*
X113301983Y-84107235D01*
X113207733Y-84135825D01*
X113120871Y-84182254D01*
X113044736Y-84244736D01*
X112982254Y-84320871D01*
X112935825Y-84407733D01*
X112907235Y-84501983D01*
X112897581Y-84600000D01*
X112502419Y-84600000D01*
X112492765Y-84501983D01*
X112476996Y-84450000D01*
X112492765Y-84398017D01*
X112502419Y-84300000D01*
X112502419Y-83542448D01*
X112538803Y-83487996D01*
X112584635Y-83377347D01*
X112608000Y-83259883D01*
X112608000Y-83106000D01*
X112456000Y-82954000D01*
X111654000Y-82954000D01*
X111654000Y-82974000D01*
X111346000Y-82974000D01*
X111346000Y-82954000D01*
X110544000Y-82954000D01*
X110392000Y-83106000D01*
X110392000Y-83259883D01*
X110399980Y-83300000D01*
X101069476Y-83300000D01*
X101040000Y-83297097D01*
X100922379Y-83308681D01*
X100809279Y-83342990D01*
X100705045Y-83398704D01*
X100613683Y-83473683D01*
X100594894Y-83496578D01*
X99621736Y-84469736D01*
X99506000Y-84354000D01*
X98354000Y-84354000D01*
X98354000Y-84374000D01*
X98046000Y-84374000D01*
X98046000Y-84354000D01*
X96894000Y-84354000D01*
X96742000Y-84506000D01*
X96575000Y-84506000D01*
X96575000Y-83290117D01*
X96742000Y-83290117D01*
X96742000Y-83894000D01*
X96894000Y-84046000D01*
X98046000Y-84046000D01*
X98046000Y-82894000D01*
X98354000Y-82894000D01*
X98354000Y-84046000D01*
X99506000Y-84046000D01*
X99658000Y-83894000D01*
X99658000Y-83290117D01*
X99634635Y-83172653D01*
X99588803Y-83062004D01*
X99522265Y-82962423D01*
X99437578Y-82877736D01*
X99337996Y-82811197D01*
X99227347Y-82765365D01*
X99109883Y-82742000D01*
X98506000Y-82742000D01*
X98354000Y-82894000D01*
X98046000Y-82894000D01*
X97894000Y-82742000D01*
X97290117Y-82742000D01*
X97172653Y-82765365D01*
X97062004Y-82811197D01*
X96962422Y-82877736D01*
X96877735Y-82962423D01*
X96811197Y-83062004D01*
X96765365Y-83172653D01*
X96742000Y-83290117D01*
X96575000Y-83290117D01*
X96575000Y-82575000D01*
X110473000Y-82575000D01*
X110544000Y-82646000D01*
X110544000Y-82646000D01*
G37*
X110544000Y-82646000D02*
X111346000Y-82646000D01*
X111346000Y-82626000D01*
X111654000Y-82626000D01*
X111654000Y-82646000D01*
X112456000Y-82646000D01*
X112527000Y-82575000D01*
X123973000Y-82575000D01*
X124044000Y-82646000D01*
X124846000Y-82646000D01*
X124846000Y-82626000D01*
X125154000Y-82626000D01*
X125154000Y-82646000D01*
X125956000Y-82646000D01*
X126027000Y-82575000D01*
X126976472Y-82575000D01*
X126251473Y-83300000D01*
X126100020Y-83300000D01*
X126108000Y-83259883D01*
X126108000Y-83106000D01*
X125956000Y-82954000D01*
X125154000Y-82954000D01*
X125154000Y-82974000D01*
X124846000Y-82974000D01*
X124846000Y-82954000D01*
X124044000Y-82954000D01*
X123892000Y-83106000D01*
X123892000Y-83259883D01*
X123915365Y-83377347D01*
X123961197Y-83487996D01*
X123997581Y-83542448D01*
X123997581Y-84300000D01*
X124007235Y-84398017D01*
X124023004Y-84450000D01*
X124007235Y-84501983D01*
X123997581Y-84600000D01*
X123997581Y-85400000D01*
X124007235Y-85498017D01*
X124023004Y-85550000D01*
X124007235Y-85601983D01*
X123997581Y-85700000D01*
X123997581Y-86500000D01*
X124007235Y-86598017D01*
X124023004Y-86650000D01*
X124007235Y-86701983D01*
X123997581Y-86800000D01*
X123997581Y-87600000D01*
X124007235Y-87698017D01*
X124023004Y-87750000D01*
X124007235Y-87801983D01*
X123997581Y-87900000D01*
X123997581Y-88700000D01*
X124007235Y-88798017D01*
X124023004Y-88850000D01*
X124007235Y-88901983D01*
X123997581Y-89000000D01*
X123997581Y-89800000D01*
X124007235Y-89898017D01*
X124023004Y-89950000D01*
X124007235Y-90001983D01*
X123997581Y-90100000D01*
X123997581Y-90900000D01*
X124007235Y-90998017D01*
X124023004Y-91050000D01*
X124007235Y-91101983D01*
X123997581Y-91200000D01*
X123997581Y-92000000D01*
X124007235Y-92098017D01*
X124023004Y-92150000D01*
X124007235Y-92201983D01*
X123997581Y-92300000D01*
X123997581Y-93100000D01*
X124007235Y-93198017D01*
X124023004Y-93250000D01*
X124007235Y-93301983D01*
X123997581Y-93400000D01*
X123997581Y-94200000D01*
X124007235Y-94298017D01*
X124023004Y-94350000D01*
X124007235Y-94401983D01*
X123997581Y-94500000D01*
X123997581Y-95257552D01*
X123961197Y-95312004D01*
X123915365Y-95422653D01*
X123892000Y-95540117D01*
X123892000Y-95694000D01*
X124044000Y-95846000D01*
X124846000Y-95846000D01*
X124846000Y-95826000D01*
X125154000Y-95826000D01*
X125154000Y-95846000D01*
X125956000Y-95846000D01*
X126108000Y-95694000D01*
X126108000Y-95540117D01*
X126100020Y-95500000D01*
X127971933Y-95500000D01*
X127978599Y-95509976D01*
X128090030Y-95621407D01*
X128221058Y-95708957D01*
X128366649Y-95769263D01*
X128521207Y-95800006D01*
X128678793Y-95800006D01*
X128833351Y-95769263D01*
X128978942Y-95708957D01*
X129000001Y-95694886D01*
X129000001Y-97468628D01*
X128978599Y-97490030D01*
X128891049Y-97621058D01*
X128830743Y-97766649D01*
X128800000Y-97921207D01*
X128800000Y-98078793D01*
X128830743Y-98233351D01*
X128891049Y-98378942D01*
X128978599Y-98509970D01*
X129090030Y-98621401D01*
X129221058Y-98708951D01*
X129366649Y-98769257D01*
X129521207Y-98800000D01*
X129678793Y-98800000D01*
X129833351Y-98769257D01*
X129978942Y-98708951D01*
X130109970Y-98621401D01*
X130221401Y-98509970D01*
X130308951Y-98378942D01*
X130369257Y-98233351D01*
X130400000Y-98078793D01*
X130400000Y-97921207D01*
X130375891Y-97800000D01*
X130478793Y-97800000D01*
X130633351Y-97769257D01*
X130778942Y-97708951D01*
X130909970Y-97621401D01*
X131021401Y-97509970D01*
X131108951Y-97378942D01*
X131169257Y-97233351D01*
X131200000Y-97078793D01*
X131200000Y-96921207D01*
X131169257Y-96766649D01*
X131108951Y-96621058D01*
X131021401Y-96490030D01*
X130909970Y-96378599D01*
X130778942Y-96291049D01*
X130700001Y-96258350D01*
X130700001Y-95741650D01*
X130766649Y-95769257D01*
X130921207Y-95800000D01*
X131078793Y-95800000D01*
X131233351Y-95769257D01*
X131295137Y-95743664D01*
X134800001Y-99248529D01*
X134800000Y-100910526D01*
X134797097Y-100940000D01*
X134800000Y-100969473D01*
X134808682Y-101057620D01*
X134842990Y-101170720D01*
X134898704Y-101274954D01*
X134973683Y-101366317D01*
X134996586Y-101385113D01*
X137720107Y-104108635D01*
X137669533Y-104275354D01*
X137643468Y-104540000D01*
X137669533Y-104804646D01*
X137746728Y-105059122D01*
X137872085Y-105293649D01*
X138040787Y-105499213D01*
X138246351Y-105667915D01*
X138480878Y-105793272D01*
X138536022Y-105810000D01*
X138480878Y-105826728D01*
X138246351Y-105952085D01*
X138040787Y-106120787D01*
X137872085Y-106326351D01*
X137746728Y-106560878D01*
X137669533Y-106815354D01*
X137643468Y-107080000D01*
X137669533Y-107344646D01*
X137746728Y-107599122D01*
X137872085Y-107833649D01*
X138040787Y-108039213D01*
X138246351Y-108207915D01*
X138480878Y-108333272D01*
X138536022Y-108350000D01*
X138480878Y-108366728D01*
X138246351Y-108492085D01*
X138040787Y-108660787D01*
X137872085Y-108866351D01*
X137746728Y-109100878D01*
X137669533Y-109355354D01*
X137643468Y-109620000D01*
X137669533Y-109884646D01*
X137746728Y-110139122D01*
X137872085Y-110373649D01*
X138040787Y-110579213D01*
X138246351Y-110747915D01*
X138480878Y-110873272D01*
X138536022Y-110890000D01*
X138480878Y-110906728D01*
X138246351Y-111032085D01*
X138040787Y-111200787D01*
X137872085Y-111406351D01*
X137746728Y-111640878D01*
X137669533Y-111895354D01*
X137643468Y-112160000D01*
X137669533Y-112424646D01*
X137746728Y-112679122D01*
X137872085Y-112913649D01*
X138040787Y-113119213D01*
X138246351Y-113287915D01*
X138480878Y-113413272D01*
X138536022Y-113430000D01*
X138480878Y-113446728D01*
X138246351Y-113572085D01*
X138040787Y-113740787D01*
X137872085Y-113946351D01*
X137746728Y-114180878D01*
X137669533Y-114435354D01*
X137643468Y-114700000D01*
X137669533Y-114964646D01*
X137746728Y-115219122D01*
X137872085Y-115453649D01*
X138040787Y-115659213D01*
X138246351Y-115827915D01*
X138480878Y-115953272D01*
X138536022Y-115970000D01*
X138480878Y-115986728D01*
X138246351Y-116112085D01*
X138040787Y-116280787D01*
X137872085Y-116486351D01*
X137746728Y-116720878D01*
X137669533Y-116975354D01*
X137643468Y-117240000D01*
X137669533Y-117504646D01*
X137746728Y-117759122D01*
X137872085Y-117993649D01*
X138040787Y-118199213D01*
X138246351Y-118367915D01*
X138480878Y-118493272D01*
X138536022Y-118510000D01*
X138480878Y-118526728D01*
X138246351Y-118652085D01*
X138040787Y-118820787D01*
X137872085Y-119026351D01*
X137746728Y-119260878D01*
X137669533Y-119515354D01*
X137643468Y-119780000D01*
X137669533Y-120044646D01*
X137746728Y-120299122D01*
X137872085Y-120533649D01*
X138040787Y-120739213D01*
X138246351Y-120907915D01*
X138480878Y-121033272D01*
X138536022Y-121050000D01*
X138480878Y-121066728D01*
X138246351Y-121192085D01*
X138040787Y-121360787D01*
X137872085Y-121566351D01*
X137789958Y-121720000D01*
X135468529Y-121720000D01*
X131000000Y-117251473D01*
X131000000Y-117221207D01*
X130969257Y-117066649D01*
X130908951Y-116921058D01*
X130821401Y-116790030D01*
X130709970Y-116678599D01*
X130578942Y-116591049D01*
X130433351Y-116530743D01*
X130278793Y-116500000D01*
X130121207Y-116500000D01*
X129966649Y-116530743D01*
X129821058Y-116591049D01*
X129690030Y-116678599D01*
X129578599Y-116790030D01*
X129491049Y-116921058D01*
X129430743Y-117066649D01*
X129400000Y-117221207D01*
X129400000Y-117378793D01*
X129430743Y-117533351D01*
X129491049Y-117678942D01*
X129578599Y-117809970D01*
X129690030Y-117921401D01*
X129821058Y-118008951D01*
X129966649Y-118069257D01*
X130121207Y-118100000D01*
X130151473Y-118100000D01*
X130773979Y-118722506D01*
X130690030Y-118778599D01*
X130578599Y-118890030D01*
X130491049Y-119021058D01*
X130430743Y-119166649D01*
X130400000Y-119321207D01*
X130400000Y-119478793D01*
X130430743Y-119633351D01*
X130491049Y-119778942D01*
X130578599Y-119909970D01*
X130690030Y-120021401D01*
X130821058Y-120108951D01*
X130966649Y-120169257D01*
X131121207Y-120200000D01*
X131151473Y-120200000D01*
X136214896Y-125263425D01*
X136233683Y-125286317D01*
X136325045Y-125361296D01*
X136429279Y-125417010D01*
X136505068Y-125440000D01*
X136542378Y-125451318D01*
X136659999Y-125462903D01*
X136689473Y-125460000D01*
X137789958Y-125460000D01*
X137872085Y-125613649D01*
X138040787Y-125819213D01*
X138246351Y-125987915D01*
X138357978Y-126047581D01*
X138150000Y-126047581D01*
X138051983Y-126057235D01*
X137957733Y-126085825D01*
X137870871Y-126132254D01*
X137794736Y-126194736D01*
X137732254Y-126270871D01*
X137685825Y-126357733D01*
X137657235Y-126451983D01*
X137647581Y-126550000D01*
X137647581Y-128250000D01*
X137657235Y-128348017D01*
X137685825Y-128442267D01*
X137732254Y-128529129D01*
X137794736Y-128605264D01*
X137870871Y-128667746D01*
X137957733Y-128714175D01*
X138051983Y-128742765D01*
X138150000Y-128752419D01*
X139850000Y-128752419D01*
X139948017Y-128742765D01*
X140042267Y-128714175D01*
X140129129Y-128667746D01*
X140205264Y-128605264D01*
X140267746Y-128529129D01*
X140314175Y-128442267D01*
X140342765Y-128348017D01*
X140352419Y-128250000D01*
X140352419Y-126550000D01*
X140342765Y-126451983D01*
X140314175Y-126357733D01*
X140267746Y-126270871D01*
X140205264Y-126194736D01*
X140129129Y-126132254D01*
X140042267Y-126085825D01*
X139948017Y-126057235D01*
X139850000Y-126047581D01*
X139642022Y-126047581D01*
X139753649Y-125987915D01*
X139959213Y-125819213D01*
X140127915Y-125613649D01*
X140253272Y-125379122D01*
X140330467Y-125124646D01*
X140356532Y-124860000D01*
X140330467Y-124595354D01*
X140253272Y-124340878D01*
X140127915Y-124106351D01*
X139959213Y-123900787D01*
X139753649Y-123732085D01*
X139519122Y-123606728D01*
X139463978Y-123590000D01*
X139519122Y-123573272D01*
X139753649Y-123447915D01*
X139959213Y-123279213D01*
X140127915Y-123073649D01*
X140253272Y-122839122D01*
X140330467Y-122584646D01*
X140356532Y-122320000D01*
X140330467Y-122055354D01*
X140253272Y-121800878D01*
X140127915Y-121566351D01*
X139959213Y-121360787D01*
X139753649Y-121192085D01*
X139519122Y-121066728D01*
X139463978Y-121050000D01*
X139519122Y-121033272D01*
X139753649Y-120907915D01*
X139959213Y-120739213D01*
X140127915Y-120533649D01*
X140253272Y-120299122D01*
X140330467Y-120044646D01*
X140356532Y-119780000D01*
X140330467Y-119515354D01*
X140253272Y-119260878D01*
X140127915Y-119026351D01*
X139959213Y-118820787D01*
X139753649Y-118652085D01*
X139519122Y-118526728D01*
X139463978Y-118510000D01*
X139519122Y-118493272D01*
X139753649Y-118367915D01*
X139959213Y-118199213D01*
X140127915Y-117993649D01*
X140253272Y-117759122D01*
X140330467Y-117504646D01*
X140356532Y-117240000D01*
X140330467Y-116975354D01*
X140253272Y-116720878D01*
X140127915Y-116486351D01*
X139959213Y-116280787D01*
X139753649Y-116112085D01*
X139519122Y-115986728D01*
X139463978Y-115970000D01*
X139519122Y-115953272D01*
X139753649Y-115827915D01*
X139959213Y-115659213D01*
X140127915Y-115453649D01*
X140253272Y-115219122D01*
X140330467Y-114964646D01*
X140356532Y-114700000D01*
X140330467Y-114435354D01*
X140253272Y-114180878D01*
X140127915Y-113946351D01*
X139959213Y-113740787D01*
X139753649Y-113572085D01*
X139519122Y-113446728D01*
X139463978Y-113430000D01*
X139519122Y-113413272D01*
X139753649Y-113287915D01*
X139959213Y-113119213D01*
X140127915Y-112913649D01*
X140253272Y-112679122D01*
X140330467Y-112424646D01*
X140356532Y-112160000D01*
X140330467Y-111895354D01*
X140253272Y-111640878D01*
X140127915Y-111406351D01*
X139959213Y-111200787D01*
X139753649Y-111032085D01*
X139519122Y-110906728D01*
X139463978Y-110890000D01*
X139519122Y-110873272D01*
X139753649Y-110747915D01*
X139959213Y-110579213D01*
X140127915Y-110373649D01*
X140253272Y-110139122D01*
X140330467Y-109884646D01*
X140356532Y-109620000D01*
X140330467Y-109355354D01*
X140253272Y-109100878D01*
X140127915Y-108866351D01*
X139959213Y-108660787D01*
X139753649Y-108492085D01*
X139519122Y-108366728D01*
X139463978Y-108350000D01*
X139519122Y-108333272D01*
X139753649Y-108207915D01*
X139959213Y-108039213D01*
X140127915Y-107833649D01*
X140253272Y-107599122D01*
X140330467Y-107344646D01*
X140356532Y-107080000D01*
X140330467Y-106815354D01*
X140253272Y-106560878D01*
X140127915Y-106326351D01*
X139959213Y-106120787D01*
X139753649Y-105952085D01*
X139519122Y-105826728D01*
X139463978Y-105810000D01*
X139519122Y-105793272D01*
X139753649Y-105667915D01*
X139959213Y-105499213D01*
X140127915Y-105293649D01*
X140253272Y-105059122D01*
X140330467Y-104804646D01*
X140356532Y-104540000D01*
X140330467Y-104275354D01*
X140253272Y-104020878D01*
X140127915Y-103786351D01*
X139959213Y-103580787D01*
X139753649Y-103412085D01*
X139519122Y-103286728D01*
X139463978Y-103270000D01*
X139519122Y-103253272D01*
X139753649Y-103127915D01*
X139959213Y-102959213D01*
X140127915Y-102753649D01*
X140253272Y-102519122D01*
X140330467Y-102264646D01*
X140356532Y-102000000D01*
X140330467Y-101735354D01*
X140253272Y-101480878D01*
X140127915Y-101246351D01*
X139959213Y-101040787D01*
X139753649Y-100872085D01*
X139519122Y-100746728D01*
X139463978Y-100730000D01*
X139519122Y-100713272D01*
X139753649Y-100587915D01*
X139959213Y-100419213D01*
X140127915Y-100213649D01*
X140253272Y-99979122D01*
X140330467Y-99724646D01*
X140356532Y-99460000D01*
X140330467Y-99195354D01*
X140253272Y-98940878D01*
X140127915Y-98706351D01*
X139959213Y-98500787D01*
X139753649Y-98332085D01*
X139519122Y-98206728D01*
X139463978Y-98190000D01*
X139519122Y-98173272D01*
X139753649Y-98047915D01*
X139959213Y-97879213D01*
X140127915Y-97673649D01*
X140253272Y-97439122D01*
X140330467Y-97184646D01*
X140356532Y-96920000D01*
X140330467Y-96655354D01*
X140253272Y-96400878D01*
X140127915Y-96166351D01*
X139959213Y-95960787D01*
X139753649Y-95792085D01*
X139519122Y-95666728D01*
X139463978Y-95650000D01*
X139519122Y-95633272D01*
X139753649Y-95507915D01*
X139959213Y-95339213D01*
X140127915Y-95133649D01*
X140253272Y-94899122D01*
X140330467Y-94644646D01*
X140356532Y-94380000D01*
X140330467Y-94115354D01*
X140253272Y-93860878D01*
X140127915Y-93626351D01*
X139959213Y-93420787D01*
X139753649Y-93252085D01*
X139519122Y-93126728D01*
X139463978Y-93110000D01*
X139519122Y-93093272D01*
X139753649Y-92967915D01*
X139959213Y-92799213D01*
X140127915Y-92593649D01*
X140253272Y-92359122D01*
X140330467Y-92104646D01*
X140356532Y-91840000D01*
X140330467Y-91575354D01*
X140253272Y-91320878D01*
X140127915Y-91086351D01*
X139959213Y-90880787D01*
X139753649Y-90712085D01*
X139519122Y-90586728D01*
X139463978Y-90570000D01*
X139519122Y-90553272D01*
X139753649Y-90427915D01*
X139959213Y-90259213D01*
X140127915Y-90053649D01*
X140253272Y-89819122D01*
X140330467Y-89564646D01*
X140356532Y-89300000D01*
X140330467Y-89035354D01*
X140253272Y-88780878D01*
X140127915Y-88546351D01*
X139959213Y-88340787D01*
X139753649Y-88172085D01*
X139519122Y-88046728D01*
X139463978Y-88030000D01*
X139519122Y-88013272D01*
X139753649Y-87887915D01*
X139959213Y-87719213D01*
X140127915Y-87513649D01*
X140253272Y-87279122D01*
X140330467Y-87024646D01*
X140356532Y-86760000D01*
X140330467Y-86495354D01*
X140253272Y-86240878D01*
X140127915Y-86006351D01*
X139959213Y-85800787D01*
X139753649Y-85632085D01*
X139519122Y-85506728D01*
X139463978Y-85490000D01*
X139519122Y-85473272D01*
X139753649Y-85347915D01*
X139959213Y-85179213D01*
X140127915Y-84973649D01*
X140253272Y-84739122D01*
X140330467Y-84484646D01*
X140356532Y-84220000D01*
X140330467Y-83955354D01*
X140253272Y-83700878D01*
X140127915Y-83466351D01*
X139959213Y-83260787D01*
X139753649Y-83092085D01*
X139519122Y-82966728D01*
X139264646Y-82889533D01*
X139066321Y-82870000D01*
X138933679Y-82870000D01*
X138735354Y-82889533D01*
X138568635Y-82940107D01*
X138203527Y-82575000D01*
X140425001Y-82575000D01*
X140425000Y-141425000D01*
X96575000Y-141425000D01*
X96575000Y-139813341D01*
X131099100Y-139813341D01*
X131099100Y-140461580D01*
X131113570Y-140608494D01*
X131170751Y-140796995D01*
X131263609Y-140970718D01*
X131388573Y-141122988D01*
X131540843Y-141247952D01*
X131714566Y-141340809D01*
X131903067Y-141397990D01*
X132099100Y-141417298D01*
X132295134Y-141397990D01*
X132483635Y-141340809D01*
X132657358Y-141247952D01*
X132809628Y-141122988D01*
X132934592Y-140970718D01*
X133027449Y-140796995D01*
X133084630Y-140608493D01*
X133099100Y-140461579D01*
X133099100Y-139813341D01*
X138099100Y-139813341D01*
X138099100Y-140461580D01*
X138113570Y-140608494D01*
X138170751Y-140796995D01*
X138263609Y-140970718D01*
X138388573Y-141122988D01*
X138540843Y-141247952D01*
X138714566Y-141340809D01*
X138903067Y-141397990D01*
X139099100Y-141417298D01*
X139295134Y-141397990D01*
X139483635Y-141340809D01*
X139657358Y-141247952D01*
X139809628Y-141122988D01*
X139934592Y-140970718D01*
X140027449Y-140796995D01*
X140084630Y-140608493D01*
X140099100Y-140461579D01*
X140099100Y-139813340D01*
X140084630Y-139666426D01*
X140027449Y-139477925D01*
X139934592Y-139304202D01*
X139809628Y-139151932D01*
X139657358Y-139026968D01*
X139483634Y-138934111D01*
X139295133Y-138876930D01*
X139099100Y-138857622D01*
X138903066Y-138876930D01*
X138714565Y-138934111D01*
X138540842Y-139026968D01*
X138388572Y-139151932D01*
X138263608Y-139304202D01*
X138170751Y-139477926D01*
X138113570Y-139666427D01*
X138099100Y-139813341D01*
X133099100Y-139813341D01*
X133099100Y-139813340D01*
X133084630Y-139666426D01*
X133027449Y-139477925D01*
X132934592Y-139304202D01*
X132809628Y-139151932D01*
X132657358Y-139026968D01*
X132483634Y-138934111D01*
X132295133Y-138876930D01*
X132099100Y-138857622D01*
X131903066Y-138876930D01*
X131714565Y-138934111D01*
X131540842Y-139026968D01*
X131388572Y-139151932D01*
X131263608Y-139304202D01*
X131170751Y-139477926D01*
X131113570Y-139666427D01*
X131099100Y-139813341D01*
X96575000Y-139813341D01*
X96575000Y-84506000D01*
X96742000Y-84506000D01*
X96742000Y-85109883D01*
X96765365Y-85227347D01*
X96811197Y-85337996D01*
X96877735Y-85437577D01*
X96962422Y-85522264D01*
X97062004Y-85588803D01*
X97172653Y-85634635D01*
X97290117Y-85658000D01*
X97390403Y-85658000D01*
X97240787Y-85780787D01*
X97072085Y-85986351D01*
X96946728Y-86220878D01*
X96869533Y-86475354D01*
X96843468Y-86740000D01*
X96869533Y-87004646D01*
X96946728Y-87259122D01*
X97072085Y-87493649D01*
X97240787Y-87699213D01*
X97446351Y-87867915D01*
X97680878Y-87993272D01*
X97736022Y-88010000D01*
X97680878Y-88026728D01*
X97446351Y-88152085D01*
X97240787Y-88320787D01*
X97072085Y-88526351D01*
X96946728Y-88760878D01*
X96869533Y-89015354D01*
X96843468Y-89280000D01*
X96869533Y-89544646D01*
X96946728Y-89799122D01*
X97072085Y-90033649D01*
X97240787Y-90239213D01*
X97446351Y-90407915D01*
X97680878Y-90533272D01*
X97736022Y-90550000D01*
X97680878Y-90566728D01*
X97446351Y-90692085D01*
X97240787Y-90860787D01*
X97072085Y-91066351D01*
X96946728Y-91300878D01*
X96869533Y-91555354D01*
X96843468Y-91820000D01*
X96869533Y-92084646D01*
X96946728Y-92339122D01*
X97072085Y-92573649D01*
X97240787Y-92779213D01*
X97446351Y-92947915D01*
X97680878Y-93073272D01*
X97736022Y-93090000D01*
X97680878Y-93106728D01*
X97446351Y-93232085D01*
X97240787Y-93400787D01*
X97072085Y-93606351D01*
X96946728Y-93840878D01*
X96869533Y-94095354D01*
X96843468Y-94360000D01*
X96869533Y-94624646D01*
X96946728Y-94879122D01*
X97072085Y-95113649D01*
X97240787Y-95319213D01*
X97446351Y-95487915D01*
X97680878Y-95613272D01*
X97736022Y-95630000D01*
X97680878Y-95646728D01*
X97446351Y-95772085D01*
X97240787Y-95940787D01*
X97072085Y-96146351D01*
X96946728Y-96380878D01*
X96869533Y-96635354D01*
X96843468Y-96900000D01*
X96869533Y-97164646D01*
X96946728Y-97419122D01*
X97072085Y-97653649D01*
X97240787Y-97859213D01*
X97446351Y-98027915D01*
X97680878Y-98153272D01*
X97736022Y-98170000D01*
X97680878Y-98186728D01*
X97446351Y-98312085D01*
X97240787Y-98480787D01*
X97072085Y-98686351D01*
X96946728Y-98920878D01*
X96869533Y-99175354D01*
X96843468Y-99440000D01*
X96869533Y-99704646D01*
X96946728Y-99959122D01*
X97072085Y-100193649D01*
X97240787Y-100399213D01*
X97446351Y-100567915D01*
X97680878Y-100693272D01*
X97736022Y-100710000D01*
X97680878Y-100726728D01*
X97446351Y-100852085D01*
X97240787Y-101020787D01*
X97072085Y-101226351D01*
X96946728Y-101460878D01*
X96869533Y-101715354D01*
X96843468Y-101980000D01*
X96869533Y-102244646D01*
X96946728Y-102499122D01*
X97072085Y-102733649D01*
X97240787Y-102939213D01*
X97446351Y-103107915D01*
X97680878Y-103233272D01*
X97736022Y-103250000D01*
X97680878Y-103266728D01*
X97446351Y-103392085D01*
X97240787Y-103560787D01*
X97072085Y-103766351D01*
X96946728Y-104000878D01*
X96869533Y-104255354D01*
X96843468Y-104520000D01*
X96869533Y-104784646D01*
X96946728Y-105039122D01*
X97072085Y-105273649D01*
X97240787Y-105479213D01*
X97446351Y-105647915D01*
X97680878Y-105773272D01*
X97736022Y-105790000D01*
X97680878Y-105806728D01*
X97446351Y-105932085D01*
X97240787Y-106100787D01*
X97072085Y-106306351D01*
X96946728Y-106540878D01*
X96869533Y-106795354D01*
X96843468Y-107060000D01*
X96869533Y-107324646D01*
X96946728Y-107579122D01*
X97072085Y-107813649D01*
X97240787Y-108019213D01*
X97446351Y-108187915D01*
X97680878Y-108313272D01*
X97736022Y-108330000D01*
X97680878Y-108346728D01*
X97446351Y-108472085D01*
X97240787Y-108640787D01*
X97072085Y-108846351D01*
X96946728Y-109080878D01*
X96869533Y-109335354D01*
X96843468Y-109600000D01*
X96869533Y-109864646D01*
X96946728Y-110119122D01*
X97072085Y-110353649D01*
X97240787Y-110559213D01*
X97446351Y-110727915D01*
X97680878Y-110853272D01*
X97736022Y-110870000D01*
X97680878Y-110886728D01*
X97446351Y-111012085D01*
X97240787Y-111180787D01*
X97072085Y-111386351D01*
X96946728Y-111620878D01*
X96869533Y-111875354D01*
X96843468Y-112140000D01*
X96869533Y-112404646D01*
X96946728Y-112659122D01*
X97072085Y-112893649D01*
X97240787Y-113099213D01*
X97446351Y-113267915D01*
X97680878Y-113393272D01*
X97736022Y-113410000D01*
X97680878Y-113426728D01*
X97446351Y-113552085D01*
X97240787Y-113720787D01*
X97072085Y-113926351D01*
X96946728Y-114160878D01*
X96869533Y-114415354D01*
X96843468Y-114680000D01*
X96869533Y-114944646D01*
X96946728Y-115199122D01*
X97072085Y-115433649D01*
X97240787Y-115639213D01*
X97446351Y-115807915D01*
X97680878Y-115933272D01*
X97736022Y-115950000D01*
X97680878Y-115966728D01*
X97446351Y-116092085D01*
X97240787Y-116260787D01*
X97072085Y-116466351D01*
X96946728Y-116700878D01*
X96869533Y-116955354D01*
X96843468Y-117220000D01*
X96869533Y-117484646D01*
X96946728Y-117739122D01*
X97072085Y-117973649D01*
X97240787Y-118179213D01*
X97446351Y-118347915D01*
X97680878Y-118473272D01*
X97736022Y-118490000D01*
X97680878Y-118506728D01*
X97446351Y-118632085D01*
X97240787Y-118800787D01*
X97072085Y-119006351D01*
X96946728Y-119240878D01*
X96869533Y-119495354D01*
X96843468Y-119760000D01*
X96869533Y-120024646D01*
X96946728Y-120279122D01*
X97072085Y-120513649D01*
X97240787Y-120719213D01*
X97446351Y-120887915D01*
X97680878Y-121013272D01*
X97736022Y-121030000D01*
X97680878Y-121046728D01*
X97446351Y-121172085D01*
X97240787Y-121340787D01*
X97072085Y-121546351D01*
X96946728Y-121780878D01*
X96869533Y-122035354D01*
X96843468Y-122300000D01*
X96869533Y-122564646D01*
X96946728Y-122819122D01*
X97072085Y-123053649D01*
X97240787Y-123259213D01*
X97446351Y-123427915D01*
X97680878Y-123553272D01*
X97736022Y-123570000D01*
X97680878Y-123586728D01*
X97446351Y-123712085D01*
X97240787Y-123880787D01*
X97072085Y-124086351D01*
X96946728Y-124320878D01*
X96869533Y-124575354D01*
X96843468Y-124840000D01*
X96869533Y-125104646D01*
X96946728Y-125359122D01*
X97072085Y-125593649D01*
X97240787Y-125799213D01*
X97446351Y-125967915D01*
X97680878Y-126093272D01*
X97736022Y-126110000D01*
X97680878Y-126126728D01*
X97446351Y-126252085D01*
X97240787Y-126420787D01*
X97072085Y-126626351D01*
X96946728Y-126860878D01*
X96869533Y-127115354D01*
X96843468Y-127380000D01*
X96869533Y-127644646D01*
X96946728Y-127899122D01*
X97072085Y-128133649D01*
X97240787Y-128339213D01*
X97446351Y-128507915D01*
X97680878Y-128633272D01*
X97736022Y-128650000D01*
X97680878Y-128666728D01*
X97446351Y-128792085D01*
X97240787Y-128960787D01*
X97072085Y-129166351D01*
X96946728Y-129400878D01*
X96869533Y-129655354D01*
X96843468Y-129920000D01*
X96869533Y-130184646D01*
X96946728Y-130439122D01*
X97072085Y-130673649D01*
X97240787Y-130879213D01*
X97446351Y-131047915D01*
X97680878Y-131173272D01*
X97736022Y-131190000D01*
X97680878Y-131206728D01*
X97446351Y-131332085D01*
X97240787Y-131500787D01*
X97072085Y-131706351D01*
X96946728Y-131940878D01*
X96869533Y-132195354D01*
X96843468Y-132460000D01*
X96869533Y-132724646D01*
X96946728Y-132979122D01*
X97072085Y-133213649D01*
X97240787Y-133419213D01*
X97446351Y-133587915D01*
X97680878Y-133713272D01*
X97736022Y-133730000D01*
X97680878Y-133746728D01*
X97446351Y-133872085D01*
X97240787Y-134040787D01*
X97072085Y-134246351D01*
X96946728Y-134480878D01*
X96869533Y-134735354D01*
X96843468Y-135000000D01*
X96869533Y-135264646D01*
X96946728Y-135519122D01*
X97072085Y-135753649D01*
X97240787Y-135959213D01*
X97446351Y-136127915D01*
X97680878Y-136253272D01*
X97736022Y-136270000D01*
X97680878Y-136286728D01*
X97446351Y-136412085D01*
X97240787Y-136580787D01*
X97072085Y-136786351D01*
X96946728Y-137020878D01*
X96869533Y-137275354D01*
X96843468Y-137540000D01*
X96869533Y-137804646D01*
X96946728Y-138059122D01*
X97072085Y-138293649D01*
X97240787Y-138499213D01*
X97446351Y-138667915D01*
X97680878Y-138793272D01*
X97935354Y-138870467D01*
X98133679Y-138890000D01*
X98266321Y-138890000D01*
X98464646Y-138870467D01*
X98719122Y-138793272D01*
X98953649Y-138667915D01*
X99159213Y-138499213D01*
X99327915Y-138293649D01*
X99453272Y-138059122D01*
X99530467Y-137804646D01*
X99556532Y-137540000D01*
X99530467Y-137275354D01*
X99453272Y-137020878D01*
X99327915Y-136786351D01*
X99159213Y-136580787D01*
X98953649Y-136412085D01*
X98719122Y-136286728D01*
X98663978Y-136270000D01*
X98719122Y-136253272D01*
X98953649Y-136127915D01*
X99159213Y-135959213D01*
X99327915Y-135753649D01*
X99453272Y-135519122D01*
X99530467Y-135264646D01*
X99556532Y-135000000D01*
X99530467Y-134735354D01*
X99453272Y-134480878D01*
X99327915Y-134246351D01*
X99159213Y-134040787D01*
X98953649Y-133872085D01*
X98719122Y-133746728D01*
X98663978Y-133730000D01*
X98719122Y-133713272D01*
X98953649Y-133587915D01*
X99159213Y-133419213D01*
X99327915Y-133213649D01*
X99377326Y-133121207D01*
X118600000Y-133121207D01*
X118600000Y-133278793D01*
X118630743Y-133433351D01*
X118691049Y-133578942D01*
X118778599Y-133709970D01*
X118890030Y-133821401D01*
X119021058Y-133908951D01*
X119166649Y-133969257D01*
X119321207Y-134000000D01*
X119478793Y-134000000D01*
X119633351Y-133969257D01*
X119673806Y-133952500D01*
X120026172Y-133952500D01*
X120037325Y-133989267D01*
X120083754Y-134076129D01*
X120146236Y-134152264D01*
X120222371Y-134214746D01*
X120309233Y-134261175D01*
X120403483Y-134289765D01*
X120501500Y-134299419D01*
X120600000Y-134299419D01*
X120600000Y-134770526D01*
X120597097Y-134800000D01*
X120600000Y-134829473D01*
X120608682Y-134917620D01*
X120642990Y-135030720D01*
X120698704Y-135134954D01*
X120773683Y-135226317D01*
X120796586Y-135245113D01*
X121354891Y-135803419D01*
X121373683Y-135826317D01*
X121465045Y-135901296D01*
X121569279Y-135957010D01*
X121679412Y-135990418D01*
X121682379Y-135991318D01*
X121799999Y-136002903D01*
X121829473Y-136000000D01*
X133551473Y-136000000D01*
X133699101Y-136147628D01*
X133699101Y-136461707D01*
X133681354Y-136483331D01*
X133648247Y-136545269D01*
X133624021Y-136532320D01*
X133440233Y-136476568D01*
X133296992Y-136462460D01*
X132901208Y-136462460D01*
X132757967Y-136476568D01*
X132574179Y-136532320D01*
X132404798Y-136622855D01*
X132256335Y-136744695D01*
X132134495Y-136893158D01*
X132043960Y-137062539D01*
X131988208Y-137246327D01*
X131969383Y-137437460D01*
X131988208Y-137628593D01*
X132043960Y-137812381D01*
X132134495Y-137981762D01*
X132256335Y-138130225D01*
X132404798Y-138252065D01*
X132574179Y-138342600D01*
X132757967Y-138398352D01*
X132901208Y-138412460D01*
X133296992Y-138412460D01*
X133440233Y-138398352D01*
X133624021Y-138342600D01*
X133648247Y-138329651D01*
X133681354Y-138391589D01*
X133743836Y-138467724D01*
X133819971Y-138530206D01*
X133906833Y-138576635D01*
X134001083Y-138605225D01*
X134099100Y-138614879D01*
X134499100Y-138614879D01*
X134597117Y-138605225D01*
X134624100Y-138597040D01*
X134651083Y-138605225D01*
X134749100Y-138614879D01*
X135149100Y-138614879D01*
X135247117Y-138605225D01*
X135274100Y-138597040D01*
X135301083Y-138605225D01*
X135399100Y-138614879D01*
X135799100Y-138614879D01*
X135897117Y-138605225D01*
X135924100Y-138597040D01*
X135951083Y-138605225D01*
X136049100Y-138614879D01*
X136356652Y-138614879D01*
X136411104Y-138651263D01*
X136521753Y-138697095D01*
X136639217Y-138720460D01*
X136647100Y-138720460D01*
X136799100Y-138568460D01*
X136799100Y-138472044D01*
X136804364Y-138467724D01*
X136866846Y-138391589D01*
X136913275Y-138304727D01*
X136941865Y-138210477D01*
X136951519Y-138112460D01*
X136951519Y-137437460D01*
X136969383Y-137437460D01*
X136988208Y-137628593D01*
X136999100Y-137664499D01*
X136999100Y-138568460D01*
X137151100Y-138720460D01*
X137158983Y-138720460D01*
X137276447Y-138697095D01*
X137387096Y-138651263D01*
X137486677Y-138584725D01*
X137571364Y-138500038D01*
X137637903Y-138400456D01*
X137652079Y-138366231D01*
X137757967Y-138398352D01*
X137901208Y-138412460D01*
X138296992Y-138412460D01*
X138440233Y-138398352D01*
X138624021Y-138342600D01*
X138793402Y-138252065D01*
X138941865Y-138130225D01*
X139063705Y-137981762D01*
X139154240Y-137812381D01*
X139209992Y-137628593D01*
X139228817Y-137437460D01*
X139209992Y-137246327D01*
X139154240Y-137062539D01*
X139063705Y-136893158D01*
X138941865Y-136744695D01*
X138793402Y-136622855D01*
X138624021Y-136532320D01*
X138440233Y-136476568D01*
X138296992Y-136462460D01*
X137901208Y-136462460D01*
X137757967Y-136476568D01*
X137652079Y-136508689D01*
X137637903Y-136474464D01*
X137571364Y-136374882D01*
X137486677Y-136290195D01*
X137387096Y-136223657D01*
X137276447Y-136177825D01*
X137158983Y-136154460D01*
X137151100Y-136154460D01*
X136999100Y-136306460D01*
X136999100Y-137210421D01*
X136988208Y-137246327D01*
X136969383Y-137437460D01*
X136951519Y-137437460D01*
X136951519Y-136762460D01*
X136941865Y-136664443D01*
X136913275Y-136570193D01*
X136866846Y-136483331D01*
X136804364Y-136407196D01*
X136799100Y-136402876D01*
X136799100Y-136306460D01*
X136647100Y-136154460D01*
X136639217Y-136154460D01*
X136521753Y-136177825D01*
X136411104Y-136223657D01*
X136356652Y-136260041D01*
X136199100Y-136260041D01*
X136199100Y-135428565D01*
X136202002Y-135399099D01*
X136199100Y-135369633D01*
X136199100Y-135369626D01*
X136190418Y-135281479D01*
X136156110Y-135168379D01*
X136100396Y-135064145D01*
X136025417Y-134972783D01*
X136002519Y-134953991D01*
X133997613Y-132949086D01*
X133978817Y-132926183D01*
X133887455Y-132851204D01*
X133783221Y-132795490D01*
X133670121Y-132761182D01*
X133581974Y-132752500D01*
X133552500Y-132749597D01*
X133523026Y-132752500D01*
X127973828Y-132752500D01*
X127962675Y-132715733D01*
X127916246Y-132628871D01*
X127853764Y-132552736D01*
X127777629Y-132490254D01*
X127690767Y-132443825D01*
X127596517Y-132415235D01*
X127498500Y-132405581D01*
X126101500Y-132405581D01*
X126003483Y-132415235D01*
X125909233Y-132443825D01*
X125822371Y-132490254D01*
X125746236Y-132552736D01*
X125683754Y-132628871D01*
X125637325Y-132715733D01*
X125608735Y-132809983D01*
X125599081Y-132908000D01*
X125599081Y-133797000D01*
X125608735Y-133895017D01*
X125637325Y-133989267D01*
X125683754Y-134076129D01*
X125746236Y-134152264D01*
X125804403Y-134200000D01*
X125051528Y-134200000D01*
X125026317Y-134174789D01*
X125053764Y-134152264D01*
X125116246Y-134076129D01*
X125162675Y-133989267D01*
X125191265Y-133895017D01*
X125200919Y-133797000D01*
X125200919Y-132908000D01*
X125191265Y-132809983D01*
X125162675Y-132715733D01*
X125116246Y-132628871D01*
X125053764Y-132552736D01*
X124977629Y-132490254D01*
X124890767Y-132443825D01*
X124796517Y-132415235D01*
X124698500Y-132405581D01*
X123301500Y-132405581D01*
X123203483Y-132415235D01*
X123109233Y-132443825D01*
X123022371Y-132490254D01*
X122946236Y-132552736D01*
X122883754Y-132628871D01*
X122837325Y-132715733D01*
X122808735Y-132809983D01*
X122799081Y-132908000D01*
X122799081Y-133797000D01*
X122808735Y-133895017D01*
X122837325Y-133989267D01*
X122883754Y-134076129D01*
X122946236Y-134152264D01*
X123022371Y-134214746D01*
X123109233Y-134261175D01*
X123203483Y-134289765D01*
X123301500Y-134299419D01*
X123481314Y-134299419D01*
X123498705Y-134331955D01*
X123573684Y-134423317D01*
X123596581Y-134442108D01*
X123954473Y-134800000D01*
X122048528Y-134800000D01*
X121800000Y-134551473D01*
X121800000Y-134299419D01*
X121898500Y-134299419D01*
X121996517Y-134289765D01*
X122090767Y-134261175D01*
X122177629Y-134214746D01*
X122253764Y-134152264D01*
X122316246Y-134076129D01*
X122362675Y-133989267D01*
X122391265Y-133895017D01*
X122400919Y-133797000D01*
X122400919Y-132908000D01*
X122391265Y-132809983D01*
X122362675Y-132715733D01*
X122316246Y-132628871D01*
X122253764Y-132552736D01*
X122177629Y-132490254D01*
X122118836Y-132458828D01*
X122186496Y-132430803D01*
X122286077Y-132364265D01*
X122370764Y-132279578D01*
X122437303Y-132179996D01*
X122483135Y-132069347D01*
X122506500Y-131951883D01*
X122506500Y-131753500D01*
X122354500Y-131601500D01*
X121354000Y-131601500D01*
X121354000Y-131621500D01*
X121046000Y-131621500D01*
X121046000Y-131601500D01*
X120045500Y-131601500D01*
X119893500Y-131753500D01*
X119893500Y-131951883D01*
X119916865Y-132069347D01*
X119962697Y-132179996D01*
X120029236Y-132279578D01*
X120113923Y-132364265D01*
X120213504Y-132430803D01*
X120281164Y-132458828D01*
X120222371Y-132490254D01*
X120146236Y-132552736D01*
X120083754Y-132628871D01*
X120037881Y-132714694D01*
X120021401Y-132690030D01*
X119909970Y-132578599D01*
X119778942Y-132491049D01*
X119633351Y-132430743D01*
X119478793Y-132400000D01*
X119321207Y-132400000D01*
X119166649Y-132430743D01*
X119021058Y-132491049D01*
X118890030Y-132578599D01*
X118778599Y-132690030D01*
X118691049Y-132821058D01*
X118630743Y-132966649D01*
X118600000Y-133121207D01*
X99377326Y-133121207D01*
X99453272Y-132979122D01*
X99530467Y-132724646D01*
X99556532Y-132460000D01*
X99530467Y-132195354D01*
X99453272Y-131940878D01*
X99327915Y-131706351D01*
X99159213Y-131500787D01*
X98953649Y-131332085D01*
X98719122Y-131206728D01*
X98663978Y-131190000D01*
X98719122Y-131173272D01*
X98953649Y-131047915D01*
X99081345Y-130943117D01*
X119893500Y-130943117D01*
X119893500Y-131141500D01*
X120045500Y-131293500D01*
X121046000Y-131293500D01*
X121046000Y-130547000D01*
X121354000Y-130547000D01*
X121354000Y-131293500D01*
X122354500Y-131293500D01*
X122506500Y-131141500D01*
X122506500Y-130943117D01*
X122483135Y-130825653D01*
X122437303Y-130715004D01*
X122370764Y-130615422D01*
X122286077Y-130530735D01*
X122186496Y-130464197D01*
X122075847Y-130418365D01*
X121958383Y-130395000D01*
X121506000Y-130395000D01*
X121354000Y-130547000D01*
X121046000Y-130547000D01*
X120894000Y-130395000D01*
X120441617Y-130395000D01*
X120324153Y-130418365D01*
X120213504Y-130464197D01*
X120113923Y-130530735D01*
X120029236Y-130615422D01*
X119962697Y-130715004D01*
X119916865Y-130825653D01*
X119893500Y-130943117D01*
X99081345Y-130943117D01*
X99159213Y-130879213D01*
X99327915Y-130673649D01*
X99453272Y-130439122D01*
X99530467Y-130184646D01*
X99556532Y-129920000D01*
X99530467Y-129655354D01*
X99453272Y-129400878D01*
X99327915Y-129166351D01*
X99159213Y-128960787D01*
X98953649Y-128792085D01*
X98719122Y-128666728D01*
X98663978Y-128650000D01*
X98719122Y-128633272D01*
X98953649Y-128507915D01*
X99159213Y-128339213D01*
X99327915Y-128133649D01*
X99410042Y-127980000D01*
X100790526Y-127980000D01*
X100820000Y-127982903D01*
X100849474Y-127980000D01*
X100937621Y-127971318D01*
X101050721Y-127937010D01*
X101154955Y-127881296D01*
X101246317Y-127806317D01*
X101265113Y-127783414D01*
X102603419Y-126445109D01*
X102626317Y-126426317D01*
X102701296Y-126334955D01*
X102757010Y-126230721D01*
X102791318Y-126117621D01*
X102800000Y-126029474D01*
X102802903Y-126000000D01*
X102800000Y-125970526D01*
X102800000Y-122048527D01*
X104003419Y-120845109D01*
X104026317Y-120826317D01*
X104101296Y-120734955D01*
X104157010Y-120630721D01*
X104191318Y-120517621D01*
X104200000Y-120429474D01*
X104202903Y-120400000D01*
X104200000Y-120370526D01*
X104200000Y-111331371D01*
X104221401Y-111309970D01*
X104308951Y-111178942D01*
X104369257Y-111033351D01*
X104400000Y-110878793D01*
X104400000Y-110721207D01*
X104369257Y-110566649D01*
X104308951Y-110421058D01*
X104221401Y-110290030D01*
X104109970Y-110178599D01*
X103978942Y-110091049D01*
X103833351Y-110030743D01*
X103678793Y-110000000D01*
X103612524Y-110000000D01*
X106403419Y-107209105D01*
X106426317Y-107190313D01*
X106501296Y-107098951D01*
X106551514Y-107005000D01*
X106557010Y-106994718D01*
X106591318Y-106881617D01*
X106602903Y-106763996D01*
X106600000Y-106734522D01*
X106600000Y-106258500D01*
X108293500Y-106258500D01*
X108293500Y-106456883D01*
X108316865Y-106574347D01*
X108362697Y-106684996D01*
X108429236Y-106784578D01*
X108513923Y-106869265D01*
X108613504Y-106935803D01*
X108724153Y-106981635D01*
X108841617Y-107005000D01*
X109294000Y-107005000D01*
X109446000Y-106853000D01*
X109446000Y-106106500D01*
X109754000Y-106106500D01*
X109754000Y-106853000D01*
X109906000Y-107005000D01*
X110358383Y-107005000D01*
X110475847Y-106981635D01*
X110586496Y-106935803D01*
X110686077Y-106869265D01*
X110770764Y-106784578D01*
X110837303Y-106684996D01*
X110883135Y-106574347D01*
X110906500Y-106456883D01*
X110906500Y-106258500D01*
X110754500Y-106106500D01*
X109754000Y-106106500D01*
X109446000Y-106106500D01*
X108445500Y-106106500D01*
X108293500Y-106258500D01*
X106600000Y-106258500D01*
X106600000Y-101748527D01*
X111446109Y-96902419D01*
X111857192Y-96902419D01*
X111847581Y-97000000D01*
X111847581Y-98000000D01*
X111856896Y-98094576D01*
X109196582Y-100754891D01*
X109173684Y-100773683D01*
X109098705Y-100865045D01*
X109054578Y-100947601D01*
X109042991Y-100969279D01*
X109008682Y-101082380D01*
X108997097Y-101200000D01*
X109000001Y-101229483D01*
X109000000Y-103100581D01*
X108901500Y-103100581D01*
X108803483Y-103110235D01*
X108709233Y-103138825D01*
X108622371Y-103185254D01*
X108546236Y-103247736D01*
X108483754Y-103323871D01*
X108437325Y-103410733D01*
X108408735Y-103504983D01*
X108399081Y-103603000D01*
X108399081Y-104492000D01*
X108408735Y-104590017D01*
X108437325Y-104684267D01*
X108483754Y-104771129D01*
X108546236Y-104847264D01*
X108622371Y-104909746D01*
X108681164Y-104941172D01*
X108613504Y-104969197D01*
X108513923Y-105035735D01*
X108429236Y-105120422D01*
X108362697Y-105220004D01*
X108316865Y-105330653D01*
X108293500Y-105448117D01*
X108293500Y-105646500D01*
X108445500Y-105798500D01*
X109446000Y-105798500D01*
X109446000Y-105778500D01*
X109754000Y-105778500D01*
X109754000Y-105798500D01*
X110754500Y-105798500D01*
X110906500Y-105646500D01*
X110906500Y-105448117D01*
X110883135Y-105330653D01*
X110837303Y-105220004D01*
X110770764Y-105120422D01*
X110686077Y-105035735D01*
X110586496Y-104969197D01*
X110518836Y-104941172D01*
X110577629Y-104909746D01*
X110653764Y-104847264D01*
X110716246Y-104771129D01*
X110762675Y-104684267D01*
X110788237Y-104600000D01*
X111068629Y-104600000D01*
X111090030Y-104621401D01*
X111221058Y-104708951D01*
X111366649Y-104769257D01*
X111521207Y-104800000D01*
X111678793Y-104800000D01*
X111833351Y-104769257D01*
X111978942Y-104708951D01*
X112000000Y-104694880D01*
X112000000Y-109601472D01*
X111089640Y-110511832D01*
X111067746Y-110470871D01*
X111005264Y-110394736D01*
X110929129Y-110332254D01*
X110842267Y-110285825D01*
X110748017Y-110257235D01*
X110650000Y-110247581D01*
X108950000Y-110247581D01*
X108851983Y-110257235D01*
X108757733Y-110285825D01*
X108670871Y-110332254D01*
X108594736Y-110394736D01*
X108532254Y-110470871D01*
X108485825Y-110557733D01*
X108457235Y-110651983D01*
X108447581Y-110750000D01*
X108447581Y-112450000D01*
X108457235Y-112548017D01*
X108485825Y-112642267D01*
X108532254Y-112729129D01*
X108594736Y-112805264D01*
X108670871Y-112867746D01*
X108757733Y-112914175D01*
X108851983Y-112942765D01*
X108950000Y-112952419D01*
X109157978Y-112952419D01*
X109046351Y-113012085D01*
X108840787Y-113180787D01*
X108672085Y-113386351D01*
X108546728Y-113620878D01*
X108469533Y-113875354D01*
X108443468Y-114140000D01*
X108469533Y-114404646D01*
X108546728Y-114659122D01*
X108672085Y-114893649D01*
X108840787Y-115099213D01*
X109046351Y-115267915D01*
X109280878Y-115393272D01*
X109336022Y-115410000D01*
X109280878Y-115426728D01*
X109046351Y-115552085D01*
X108840787Y-115720787D01*
X108672085Y-115926351D01*
X108546728Y-116160878D01*
X108469533Y-116415354D01*
X108443468Y-116680000D01*
X108469533Y-116944646D01*
X108546728Y-117199122D01*
X108672085Y-117433649D01*
X108840787Y-117639213D01*
X109046351Y-117807915D01*
X109280878Y-117933272D01*
X109336022Y-117950000D01*
X109280878Y-117966728D01*
X109046351Y-118092085D01*
X108840787Y-118260787D01*
X108672085Y-118466351D01*
X108546728Y-118700878D01*
X108469533Y-118955354D01*
X108443468Y-119220000D01*
X108469533Y-119484646D01*
X108546728Y-119739122D01*
X108672085Y-119973649D01*
X108840787Y-120179213D01*
X109046351Y-120347915D01*
X109280878Y-120473272D01*
X109336022Y-120490000D01*
X109280878Y-120506728D01*
X109046351Y-120632085D01*
X108840787Y-120800787D01*
X108672085Y-121006351D01*
X108546728Y-121240878D01*
X108469533Y-121495354D01*
X108443468Y-121760000D01*
X108469533Y-122024646D01*
X108546728Y-122279122D01*
X108672085Y-122513649D01*
X108840787Y-122719213D01*
X109046351Y-122887915D01*
X109280878Y-123013272D01*
X109336022Y-123030000D01*
X109280878Y-123046728D01*
X109046351Y-123172085D01*
X108840787Y-123340787D01*
X108672085Y-123546351D01*
X108546728Y-123780878D01*
X108469533Y-124035354D01*
X108443468Y-124300000D01*
X108469533Y-124564646D01*
X108546728Y-124819122D01*
X108672085Y-125053649D01*
X108840787Y-125259213D01*
X109046351Y-125427915D01*
X109280878Y-125553272D01*
X109336022Y-125570000D01*
X109280878Y-125586728D01*
X109046351Y-125712085D01*
X108840787Y-125880787D01*
X108672085Y-126086351D01*
X108546728Y-126320878D01*
X108469533Y-126575354D01*
X108443468Y-126840000D01*
X108469533Y-127104646D01*
X108546728Y-127359122D01*
X108672085Y-127593649D01*
X108840787Y-127799213D01*
X109046351Y-127967915D01*
X109280878Y-128093272D01*
X109535354Y-128170467D01*
X109733679Y-128190000D01*
X109866321Y-128190000D01*
X110064646Y-128170467D01*
X110319122Y-128093272D01*
X110553649Y-127967915D01*
X110759213Y-127799213D01*
X110927915Y-127593649D01*
X111010042Y-127440000D01*
X112530526Y-127440000D01*
X112560000Y-127442903D01*
X112589474Y-127440000D01*
X112677621Y-127431318D01*
X112790721Y-127397010D01*
X112894955Y-127341296D01*
X112986317Y-127266317D01*
X113005113Y-127243414D01*
X117600001Y-122648527D01*
X117600001Y-128068628D01*
X117578599Y-128090030D01*
X117491049Y-128221058D01*
X117430743Y-128366649D01*
X117400000Y-128521207D01*
X117400000Y-128678793D01*
X117430743Y-128833351D01*
X117491049Y-128978942D01*
X117578599Y-129109970D01*
X117690030Y-129221401D01*
X117821058Y-129308951D01*
X117966649Y-129369257D01*
X118121207Y-129400000D01*
X118278793Y-129400000D01*
X118433351Y-129369257D01*
X118578942Y-129308951D01*
X118709970Y-129221401D01*
X118821401Y-129109970D01*
X118908951Y-128978942D01*
X118969257Y-128833351D01*
X119000000Y-128678793D01*
X119000000Y-128521207D01*
X118969257Y-128366649D01*
X118908951Y-128221058D01*
X118821401Y-128090030D01*
X118800000Y-128068629D01*
X118800000Y-125848527D01*
X123400000Y-130448528D01*
X123400000Y-130500581D01*
X123301500Y-130500581D01*
X123203483Y-130510235D01*
X123109233Y-130538825D01*
X123022371Y-130585254D01*
X122946236Y-130647736D01*
X122883754Y-130723871D01*
X122837325Y-130810733D01*
X122808735Y-130904983D01*
X122799081Y-131003000D01*
X122799081Y-131892000D01*
X122808735Y-131990017D01*
X122837325Y-132084267D01*
X122883754Y-132171129D01*
X122946236Y-132247264D01*
X123022371Y-132309746D01*
X123109233Y-132356175D01*
X123203483Y-132384765D01*
X123301500Y-132394419D01*
X124698500Y-132394419D01*
X124796517Y-132384765D01*
X124890767Y-132356175D01*
X124977629Y-132309746D01*
X125053764Y-132247264D01*
X125116246Y-132171129D01*
X125162675Y-132084267D01*
X125191265Y-131990017D01*
X125200919Y-131892000D01*
X125200919Y-131003000D01*
X125191265Y-130904983D01*
X125162675Y-130810733D01*
X125116246Y-130723871D01*
X125053764Y-130647736D01*
X124977629Y-130585254D01*
X124890767Y-130538825D01*
X124796517Y-130510235D01*
X124698500Y-130500581D01*
X124600000Y-130500581D01*
X124600000Y-130229474D01*
X124602903Y-130200000D01*
X124591318Y-130082379D01*
X124557010Y-129969278D01*
X124519287Y-129898704D01*
X124501296Y-129865045D01*
X124426317Y-129773683D01*
X124403420Y-129754892D01*
X119600000Y-124951473D01*
X119600000Y-124048527D01*
X126056487Y-130505015D01*
X126003483Y-130510235D01*
X125909233Y-130538825D01*
X125822371Y-130585254D01*
X125746236Y-130647736D01*
X125683754Y-130723871D01*
X125637325Y-130810733D01*
X125608735Y-130904983D01*
X125599081Y-131003000D01*
X125599081Y-131892000D01*
X125608735Y-131990017D01*
X125637325Y-132084267D01*
X125683754Y-132171129D01*
X125746236Y-132247264D01*
X125822371Y-132309746D01*
X125909233Y-132356175D01*
X126003483Y-132384765D01*
X126101500Y-132394419D01*
X127498500Y-132394419D01*
X127596517Y-132384765D01*
X127690767Y-132356175D01*
X127777629Y-132309746D01*
X127853764Y-132247264D01*
X127916246Y-132171129D01*
X127962675Y-132084267D01*
X127991265Y-131990017D01*
X128000919Y-131892000D01*
X128000919Y-131003000D01*
X127991265Y-130904983D01*
X127962675Y-130810733D01*
X127916246Y-130723871D01*
X127853764Y-130647736D01*
X127777629Y-130585254D01*
X127690767Y-130538825D01*
X127596517Y-130510235D01*
X127498500Y-130500581D01*
X127400000Y-130500581D01*
X127400000Y-130429474D01*
X127402903Y-130400000D01*
X127391318Y-130282379D01*
X127357010Y-130169279D01*
X127301296Y-130065045D01*
X127226317Y-129973683D01*
X127203420Y-129954892D01*
X120400000Y-123151473D01*
X120400000Y-104694885D01*
X120421052Y-104708951D01*
X120566643Y-104769257D01*
X120721201Y-104800000D01*
X120878787Y-104800000D01*
X121033345Y-104769257D01*
X121066851Y-104755378D01*
X122499053Y-106187581D01*
X122450000Y-106187581D01*
X122351983Y-106197235D01*
X122257733Y-106225825D01*
X122170871Y-106272254D01*
X122094736Y-106334736D01*
X122032254Y-106410871D01*
X121985825Y-106497733D01*
X121957235Y-106591983D01*
X121947581Y-106690000D01*
X121947581Y-107430000D01*
X121957235Y-107528017D01*
X121972900Y-107579659D01*
X121911197Y-107672004D01*
X121865365Y-107782653D01*
X121842000Y-107900117D01*
X121842000Y-108024000D01*
X121994000Y-108176000D01*
X123496000Y-108176000D01*
X123496000Y-108156000D01*
X123804000Y-108156000D01*
X123804000Y-108176000D01*
X123824000Y-108176000D01*
X123824000Y-108484000D01*
X123804000Y-108484000D01*
X123804000Y-108504000D01*
X123496000Y-108504000D01*
X123496000Y-108484000D01*
X121994000Y-108484000D01*
X121842000Y-108636000D01*
X121842000Y-108759883D01*
X121865365Y-108877347D01*
X121911197Y-108987996D01*
X121972900Y-109080341D01*
X121957235Y-109131983D01*
X121947581Y-109230000D01*
X121947581Y-109970000D01*
X121957235Y-110068017D01*
X121985825Y-110162267D01*
X122024702Y-110235000D01*
X121985825Y-110307733D01*
X121957235Y-110401983D01*
X121947581Y-110500000D01*
X121947581Y-111240000D01*
X121957235Y-111338017D01*
X121985825Y-111432267D01*
X122024702Y-111505000D01*
X121985825Y-111577733D01*
X121957235Y-111671983D01*
X121947581Y-111770000D01*
X121947581Y-112510000D01*
X121957235Y-112608017D01*
X121985825Y-112702267D01*
X122032254Y-112789129D01*
X122094736Y-112865264D01*
X122170871Y-112927746D01*
X122257733Y-112974175D01*
X122351983Y-113002765D01*
X122450000Y-113012419D01*
X124850000Y-113012419D01*
X124948017Y-113002765D01*
X125042267Y-112974175D01*
X125129129Y-112927746D01*
X125205264Y-112865264D01*
X125267746Y-112789129D01*
X125314175Y-112702267D01*
X125342765Y-112608017D01*
X125352419Y-112510000D01*
X125352419Y-111770000D01*
X125342765Y-111671983D01*
X125314175Y-111577733D01*
X125275298Y-111505000D01*
X125314175Y-111432267D01*
X125342765Y-111338017D01*
X125352419Y-111240000D01*
X125352419Y-110500000D01*
X125342765Y-110401983D01*
X125314175Y-110307733D01*
X125275298Y-110235000D01*
X125314175Y-110162267D01*
X125342765Y-110068017D01*
X125352419Y-109970000D01*
X125352419Y-109230000D01*
X125342765Y-109131983D01*
X125327100Y-109080341D01*
X125388803Y-108987996D01*
X125434635Y-108877347D01*
X125458000Y-108759883D01*
X125458000Y-108636000D01*
X125306002Y-108484002D01*
X125455473Y-108484002D01*
X125704895Y-108733424D01*
X125723683Y-108756317D01*
X125815045Y-108831296D01*
X125877448Y-108864651D01*
X125885825Y-108892267D01*
X125924702Y-108965000D01*
X125885825Y-109037733D01*
X125857235Y-109131983D01*
X125847581Y-109230000D01*
X125847581Y-109970000D01*
X125857235Y-110068017D01*
X125885825Y-110162267D01*
X125924702Y-110235000D01*
X125885825Y-110307733D01*
X125857235Y-110401983D01*
X125847581Y-110500000D01*
X125847581Y-111240000D01*
X125857235Y-111338017D01*
X125885825Y-111432267D01*
X125924702Y-111505000D01*
X125885825Y-111577733D01*
X125857235Y-111671983D01*
X125847581Y-111770000D01*
X125847581Y-112510000D01*
X125857235Y-112608017D01*
X125885825Y-112702267D01*
X125932254Y-112789129D01*
X125994736Y-112865264D01*
X126070871Y-112927746D01*
X126157733Y-112974175D01*
X126251983Y-113002765D01*
X126350000Y-113012419D01*
X128750000Y-113012419D01*
X128848017Y-113002765D01*
X128942267Y-112974175D01*
X129029129Y-112927746D01*
X129105264Y-112865264D01*
X129167746Y-112789129D01*
X129214175Y-112702267D01*
X129242765Y-112608017D01*
X129252419Y-112510000D01*
X129252419Y-111770000D01*
X129242765Y-111671983D01*
X129214175Y-111577733D01*
X129175298Y-111505000D01*
X129214175Y-111432267D01*
X129242765Y-111338017D01*
X129252419Y-111240000D01*
X129252419Y-110500000D01*
X129242765Y-110401983D01*
X129214175Y-110307733D01*
X129175298Y-110235000D01*
X129214175Y-110162267D01*
X129242765Y-110068017D01*
X129252419Y-109970000D01*
X129252419Y-109230000D01*
X129242765Y-109131983D01*
X129214175Y-109037733D01*
X129175298Y-108965000D01*
X129214175Y-108892267D01*
X129242765Y-108798017D01*
X129252419Y-108700000D01*
X129252419Y-107960000D01*
X129242765Y-107861983D01*
X129214175Y-107767733D01*
X129175298Y-107695000D01*
X129214175Y-107622267D01*
X129242765Y-107528017D01*
X129252419Y-107430000D01*
X129252419Y-106690000D01*
X129242765Y-106591983D01*
X129214175Y-106497733D01*
X129167746Y-106410871D01*
X129105264Y-106334736D01*
X129029129Y-106272254D01*
X128942267Y-106225825D01*
X128848017Y-106197235D01*
X128750000Y-106187581D01*
X128700946Y-106187581D01*
X130803420Y-104085108D01*
X130826317Y-104066317D01*
X130901296Y-103974955D01*
X130957010Y-103870721D01*
X130991318Y-103757621D01*
X131000000Y-103669474D01*
X131000000Y-103669473D01*
X131002903Y-103640000D01*
X131000000Y-103610526D01*
X131000000Y-100131371D01*
X131021401Y-100109970D01*
X131108951Y-99978942D01*
X131169257Y-99833351D01*
X131200000Y-99678793D01*
X131200000Y-99521207D01*
X131169257Y-99366649D01*
X131108951Y-99221058D01*
X131021401Y-99090030D01*
X130909970Y-98978599D01*
X130778942Y-98891049D01*
X130633351Y-98830743D01*
X130478793Y-98800000D01*
X130321207Y-98800000D01*
X130166649Y-98830743D01*
X130021058Y-98891049D01*
X129890030Y-98978599D01*
X129778599Y-99090030D01*
X129691049Y-99221058D01*
X129630743Y-99366649D01*
X129623613Y-99402497D01*
X129516212Y-99402497D01*
X129361654Y-99433240D01*
X129216063Y-99493546D01*
X129085035Y-99581096D01*
X128973604Y-99692527D01*
X128886054Y-99823555D01*
X128825748Y-99969146D01*
X128795005Y-100123704D01*
X128795005Y-100153969D01*
X125196582Y-103752393D01*
X125173684Y-103771185D01*
X125098705Y-103862547D01*
X125067351Y-103921207D01*
X125042991Y-103966781D01*
X125008682Y-104079882D01*
X124997097Y-104197502D01*
X125000001Y-104226986D01*
X125000000Y-106213004D01*
X124948017Y-106197235D01*
X124850000Y-106187581D01*
X124168687Y-106187581D01*
X124151296Y-106155045D01*
X124076317Y-106063683D01*
X124053419Y-106044891D01*
X121605113Y-103596586D01*
X121586317Y-103573683D01*
X121494955Y-103498704D01*
X121390721Y-103442990D01*
X121367229Y-103435864D01*
X121309964Y-103378599D01*
X121178936Y-103291049D01*
X121033345Y-103230743D01*
X120878787Y-103200000D01*
X120721201Y-103200000D01*
X120566643Y-103230743D01*
X120421052Y-103291049D01*
X120400000Y-103305115D01*
X120400000Y-102398527D01*
X124153419Y-98645109D01*
X124176317Y-98626317D01*
X124251296Y-98534955D01*
X124278845Y-98483413D01*
X124342267Y-98464175D01*
X124429129Y-98417746D01*
X124505264Y-98355264D01*
X124567746Y-98279129D01*
X124614175Y-98192267D01*
X124642765Y-98098017D01*
X124652419Y-98000000D01*
X124652419Y-97008000D01*
X124694000Y-97008000D01*
X124846000Y-96856000D01*
X124846000Y-96154000D01*
X125154000Y-96154000D01*
X125154000Y-96856000D01*
X125306000Y-97008000D01*
X125559883Y-97008000D01*
X125677347Y-96984635D01*
X125787996Y-96938803D01*
X125887578Y-96872264D01*
X125972265Y-96787577D01*
X126038803Y-96687996D01*
X126084635Y-96577347D01*
X126108000Y-96459883D01*
X126108000Y-96306000D01*
X125956000Y-96154000D01*
X125154000Y-96154000D01*
X124846000Y-96154000D01*
X124044000Y-96154000D01*
X123892000Y-96306000D01*
X123892000Y-96459883D01*
X123899499Y-96497581D01*
X123350000Y-96497581D01*
X123251983Y-96507235D01*
X123200000Y-96523004D01*
X123148017Y-96507235D01*
X123050000Y-96497581D01*
X122250000Y-96497581D01*
X122151983Y-96507235D01*
X122100000Y-96523004D01*
X122048017Y-96507235D01*
X121950000Y-96497581D01*
X121150000Y-96497581D01*
X121051983Y-96507235D01*
X121000000Y-96523004D01*
X120948017Y-96507235D01*
X120850000Y-96497581D01*
X120050000Y-96497581D01*
X119951983Y-96507235D01*
X119900000Y-96523004D01*
X119848017Y-96507235D01*
X119750000Y-96497581D01*
X118950000Y-96497581D01*
X118851983Y-96507235D01*
X118800000Y-96523004D01*
X118748017Y-96507235D01*
X118650000Y-96497581D01*
X117850000Y-96497581D01*
X117751983Y-96507235D01*
X117700000Y-96523004D01*
X117648017Y-96507235D01*
X117550000Y-96497581D01*
X116750000Y-96497581D01*
X116651983Y-96507235D01*
X116600000Y-96523004D01*
X116548017Y-96507235D01*
X116450000Y-96497581D01*
X115650000Y-96497581D01*
X115551983Y-96507235D01*
X115500000Y-96523004D01*
X115448017Y-96507235D01*
X115350000Y-96497581D01*
X114550000Y-96497581D01*
X114451983Y-96507235D01*
X114400000Y-96523004D01*
X114348017Y-96507235D01*
X114250000Y-96497581D01*
X113450000Y-96497581D01*
X113351983Y-96507235D01*
X113300000Y-96523004D01*
X113248017Y-96507235D01*
X113150000Y-96497581D01*
X112492808Y-96497581D01*
X112502419Y-96400000D01*
X112502419Y-95600000D01*
X112492765Y-95501983D01*
X112476996Y-95450000D01*
X112492765Y-95398017D01*
X112502419Y-95300000D01*
X112502419Y-94500000D01*
X112492765Y-94401983D01*
X112476996Y-94350000D01*
X112492765Y-94298017D01*
X112502419Y-94200000D01*
X112502419Y-93400000D01*
X112492765Y-93301983D01*
X112476996Y-93250000D01*
X112492765Y-93198017D01*
X112502419Y-93100000D01*
X112502419Y-92300000D01*
X112492765Y-92201983D01*
X112476996Y-92150000D01*
X112492765Y-92098017D01*
X112502419Y-92000000D01*
X112502419Y-91200000D01*
X112492765Y-91101983D01*
X112476996Y-91050000D01*
X112492765Y-90998017D01*
X112502419Y-90900000D01*
X112502419Y-90100000D01*
X112492765Y-90001983D01*
X112476996Y-89950000D01*
X112492765Y-89898017D01*
X112502419Y-89800000D01*
X112502419Y-89000000D01*
X112492765Y-88901983D01*
X112476996Y-88850000D01*
X112492765Y-88798017D01*
X112502419Y-88700000D01*
X112502419Y-87900000D01*
X112492765Y-87801983D01*
X112476996Y-87750000D01*
X112492765Y-87698017D01*
X112502419Y-87600000D01*
X112502419Y-86800000D01*
X112492765Y-86701983D01*
X112476996Y-86650000D01*
X112492765Y-86598017D01*
X112502419Y-86500000D01*
X112502419Y-85700000D01*
X112492765Y-85601983D01*
X112476996Y-85550000D01*
X112492765Y-85498017D01*
X112502419Y-85400000D01*
X112502419Y-84600000D01*
X112897581Y-84600000D01*
X112897581Y-85400000D01*
X112907235Y-85498017D01*
X112923004Y-85550000D01*
X112907235Y-85601983D01*
X112897581Y-85700000D01*
X112897581Y-86500000D01*
X112907235Y-86598017D01*
X112923004Y-86650000D01*
X112907235Y-86701983D01*
X112897581Y-86800000D01*
X112897581Y-87600000D01*
X112907235Y-87698017D01*
X112923004Y-87750000D01*
X112907235Y-87801983D01*
X112897581Y-87900000D01*
X112897581Y-88700000D01*
X112907235Y-88798017D01*
X112923004Y-88850000D01*
X112907235Y-88901983D01*
X112897581Y-89000000D01*
X112897581Y-89800000D01*
X112907235Y-89898017D01*
X112923004Y-89950000D01*
X112907235Y-90001983D01*
X112897581Y-90100000D01*
X112897581Y-90900000D01*
X112907235Y-90998017D01*
X112923004Y-91050000D01*
X112907235Y-91101983D01*
X112897581Y-91200000D01*
X112897581Y-92000000D01*
X112907235Y-92098017D01*
X112923004Y-92150000D01*
X112907235Y-92201983D01*
X112897581Y-92300000D01*
X112897581Y-93100000D01*
X112907235Y-93198017D01*
X112923004Y-93250000D01*
X112907235Y-93301983D01*
X112897581Y-93400000D01*
X112897581Y-94200000D01*
X112907235Y-94298017D01*
X112935825Y-94392267D01*
X112982254Y-94479129D01*
X113044736Y-94555264D01*
X113120871Y-94617746D01*
X113207733Y-94664175D01*
X113301983Y-94692765D01*
X113400000Y-94702419D01*
X114400000Y-94702419D01*
X114498017Y-94692765D01*
X114592267Y-94664175D01*
X114679129Y-94617746D01*
X114755264Y-94555264D01*
X114817746Y-94479129D01*
X114864175Y-94392267D01*
X114892765Y-94298017D01*
X114902419Y-94200000D01*
X114902419Y-93400000D01*
X114892765Y-93301983D01*
X114876996Y-93250000D01*
X114892765Y-93198017D01*
X114902419Y-93100000D01*
X114902419Y-92300000D01*
X114892765Y-92201983D01*
X114876996Y-92150000D01*
X114892765Y-92098017D01*
X114902419Y-92000000D01*
X114902419Y-91200000D01*
X114892765Y-91101983D01*
X114876996Y-91050000D01*
X114892765Y-90998017D01*
X114902419Y-90900000D01*
X114902419Y-90100000D01*
X114892765Y-90001983D01*
X114876996Y-89950000D01*
X114892765Y-89898017D01*
X114902419Y-89800000D01*
X114902419Y-89000000D01*
X114892765Y-88901983D01*
X114876996Y-88850000D01*
X114892765Y-88798017D01*
X114902419Y-88700000D01*
X114902419Y-87900000D01*
X114892765Y-87801983D01*
X114876996Y-87750000D01*
X114892765Y-87698017D01*
X114902419Y-87600000D01*
X114902419Y-86800000D01*
X114892765Y-86701983D01*
X114876996Y-86650000D01*
X114892765Y-86598017D01*
X114902419Y-86500000D01*
X114902419Y-85700000D01*
X114892765Y-85601983D01*
X114876996Y-85550000D01*
X114892765Y-85498017D01*
X114902419Y-85400000D01*
X114902419Y-84600000D01*
X121597581Y-84600000D01*
X121597581Y-85400000D01*
X121607235Y-85498017D01*
X121623004Y-85550000D01*
X121607235Y-85601983D01*
X121597581Y-85700000D01*
X121597581Y-86500000D01*
X121607235Y-86598017D01*
X121623004Y-86650000D01*
X121607235Y-86701983D01*
X121597581Y-86800000D01*
X121597581Y-87600000D01*
X121607235Y-87698017D01*
X121623004Y-87750000D01*
X121607235Y-87801983D01*
X121597581Y-87900000D01*
X121597581Y-88700000D01*
X121607235Y-88798017D01*
X121623004Y-88850000D01*
X121607235Y-88901983D01*
X121597581Y-89000000D01*
X121597581Y-89800000D01*
X121607235Y-89898017D01*
X121623004Y-89950000D01*
X121607235Y-90001983D01*
X121597581Y-90100000D01*
X121597581Y-90900000D01*
X121607235Y-90998017D01*
X121623004Y-91050000D01*
X121607235Y-91101983D01*
X121597581Y-91200000D01*
X121597581Y-92000000D01*
X121607235Y-92098017D01*
X121623004Y-92150000D01*
X121607235Y-92201983D01*
X121597581Y-92300000D01*
X121597581Y-93100000D01*
X121607235Y-93198017D01*
X121623004Y-93250000D01*
X121607235Y-93301983D01*
X121597581Y-93400000D01*
X121597581Y-94200000D01*
X121607235Y-94298017D01*
X121635825Y-94392267D01*
X121682254Y-94479129D01*
X121744736Y-94555264D01*
X121820871Y-94617746D01*
X121907733Y-94664175D01*
X122001983Y-94692765D01*
X122100000Y-94702419D01*
X123100000Y-94702419D01*
X123198017Y-94692765D01*
X123292267Y-94664175D01*
X123379129Y-94617746D01*
X123455264Y-94555264D01*
X123517746Y-94479129D01*
X123564175Y-94392267D01*
X123592765Y-94298017D01*
X123602419Y-94200000D01*
X123602419Y-93400000D01*
X123592765Y-93301983D01*
X123576996Y-93250000D01*
X123592765Y-93198017D01*
X123602419Y-93100000D01*
X123602419Y-92300000D01*
X123592765Y-92201983D01*
X123576996Y-92150000D01*
X123592765Y-92098017D01*
X123602419Y-92000000D01*
X123602419Y-91200000D01*
X123592765Y-91101983D01*
X123576996Y-91050000D01*
X123592765Y-90998017D01*
X123602419Y-90900000D01*
X123602419Y-90100000D01*
X123592765Y-90001983D01*
X123576996Y-89950000D01*
X123592765Y-89898017D01*
X123602419Y-89800000D01*
X123602419Y-89000000D01*
X123592765Y-88901983D01*
X123576996Y-88850000D01*
X123592765Y-88798017D01*
X123602419Y-88700000D01*
X123602419Y-87900000D01*
X123592765Y-87801983D01*
X123576996Y-87750000D01*
X123592765Y-87698017D01*
X123602419Y-87600000D01*
X123602419Y-86800000D01*
X123592765Y-86701983D01*
X123576996Y-86650000D01*
X123592765Y-86598017D01*
X123602419Y-86500000D01*
X123602419Y-85700000D01*
X123592765Y-85601983D01*
X123576996Y-85550000D01*
X123592765Y-85498017D01*
X123602419Y-85400000D01*
X123602419Y-84600000D01*
X123592765Y-84501983D01*
X123564175Y-84407733D01*
X123517746Y-84320871D01*
X123455264Y-84244736D01*
X123379129Y-84182254D01*
X123292267Y-84135825D01*
X123198017Y-84107235D01*
X123100000Y-84097581D01*
X122100000Y-84097581D01*
X122001983Y-84107235D01*
X121907733Y-84135825D01*
X121820871Y-84182254D01*
X121744736Y-84244736D01*
X121682254Y-84320871D01*
X121635825Y-84407733D01*
X121607235Y-84501983D01*
X121597581Y-84600000D01*
X114902419Y-84600000D01*
X114892765Y-84501983D01*
X114864175Y-84407733D01*
X114817746Y-84320871D01*
X114755264Y-84244736D01*
X114679129Y-84182254D01*
X114592267Y-84135825D01*
X114498017Y-84107235D01*
X114400000Y-84097581D01*
X113400000Y-84097581D01*
X113301983Y-84107235D01*
X113207733Y-84135825D01*
X113120871Y-84182254D01*
X113044736Y-84244736D01*
X112982254Y-84320871D01*
X112935825Y-84407733D01*
X112907235Y-84501983D01*
X112897581Y-84600000D01*
X112502419Y-84600000D01*
X112492765Y-84501983D01*
X112476996Y-84450000D01*
X112492765Y-84398017D01*
X112502419Y-84300000D01*
X112502419Y-83542448D01*
X112538803Y-83487996D01*
X112584635Y-83377347D01*
X112608000Y-83259883D01*
X112608000Y-83106000D01*
X112456000Y-82954000D01*
X111654000Y-82954000D01*
X111654000Y-82974000D01*
X111346000Y-82974000D01*
X111346000Y-82954000D01*
X110544000Y-82954000D01*
X110392000Y-83106000D01*
X110392000Y-83259883D01*
X110399980Y-83300000D01*
X101069476Y-83300000D01*
X101040000Y-83297097D01*
X100922379Y-83308681D01*
X100809279Y-83342990D01*
X100705045Y-83398704D01*
X100613683Y-83473683D01*
X100594894Y-83496578D01*
X99621736Y-84469736D01*
X99506000Y-84354000D01*
X98354000Y-84354000D01*
X98354000Y-84374000D01*
X98046000Y-84374000D01*
X98046000Y-84354000D01*
X96894000Y-84354000D01*
X96742000Y-84506000D01*
X96575000Y-84506000D01*
X96575000Y-83290117D01*
X96742000Y-83290117D01*
X96742000Y-83894000D01*
X96894000Y-84046000D01*
X98046000Y-84046000D01*
X98046000Y-82894000D01*
X98354000Y-82894000D01*
X98354000Y-84046000D01*
X99506000Y-84046000D01*
X99658000Y-83894000D01*
X99658000Y-83290117D01*
X99634635Y-83172653D01*
X99588803Y-83062004D01*
X99522265Y-82962423D01*
X99437578Y-82877736D01*
X99337996Y-82811197D01*
X99227347Y-82765365D01*
X99109883Y-82742000D01*
X98506000Y-82742000D01*
X98354000Y-82894000D01*
X98046000Y-82894000D01*
X97894000Y-82742000D01*
X97290117Y-82742000D01*
X97172653Y-82765365D01*
X97062004Y-82811197D01*
X96962422Y-82877736D01*
X96877735Y-82962423D01*
X96811197Y-83062004D01*
X96765365Y-83172653D01*
X96742000Y-83290117D01*
X96575000Y-83290117D01*
X96575000Y-82575000D01*
X110473000Y-82575000D01*
X110544000Y-82646000D01*
G04 #@! TD*
M02*
