G04 #@! TF.GenerationSoftware,KiCad,Pcbnew,(5.0.0)*
G04 #@! TF.CreationDate,2018-09-13T11:25:45+02:00*
G04 #@! TF.ProjectId,HolyIoT-NRF52840-Breakout,486F6C79496F542D4E52463532383430,1.0*
G04 #@! TF.SameCoordinates,Original*
G04 #@! TF.FileFunction,Soldermask,Top*
G04 #@! TF.FilePolarity,Negative*
%FSLAX46Y46*%
G04 Gerber Fmt 4.6, Leading zero omitted, Abs format (unit mm)*
G04 Created by KiCad (PCBNEW (5.0.0)) date 09/13/18 11:25:45*
%MOMM*%
%LPD*%
G01*
G04 APERTURE LIST*
%ADD10R,2.100000X2.100000*%
%ADD11O,2.100000X2.100000*%
%ADD12R,1.000000X1.200000*%
%ADD13R,1.200000X1.000000*%
%ADD14R,2.800000X1.140000*%
%ADD15R,1.797000X1.289000*%
%ADD16R,0.800000X1.750000*%
%ADD17O,1.650000X1.350000*%
%ADD18O,1.400000X1.950000*%
%ADD19C,1.000000*%
G04 APERTURE END LIST*
D10*
G04 #@! TO.C,J2*
X139000000Y-127400000D03*
D11*
X139000000Y-124860000D03*
X139000000Y-122320000D03*
X139000000Y-119780000D03*
X139000000Y-117240000D03*
X139000000Y-114700000D03*
X139000000Y-112160000D03*
X139000000Y-109620000D03*
X139000000Y-107080000D03*
X139000000Y-104540000D03*
X139000000Y-102000000D03*
X139000000Y-99460000D03*
X139000000Y-96920000D03*
X139000000Y-94380000D03*
X139000000Y-91840000D03*
X139000000Y-89300000D03*
X139000000Y-86760000D03*
X139000000Y-84220000D03*
G04 #@! TD*
D12*
G04 #@! TO.C,U1*
X121550000Y-97500000D03*
X123750000Y-97500000D03*
X122650000Y-97500000D03*
X120450000Y-97500000D03*
X112750000Y-97500000D03*
X119350000Y-97500000D03*
X118250000Y-97500000D03*
X117150000Y-97500000D03*
X116050000Y-97500000D03*
X114950000Y-97500000D03*
X113850000Y-97500000D03*
D13*
X125000000Y-91600000D03*
X125000000Y-93800000D03*
X125000000Y-92700000D03*
X125000000Y-90500000D03*
X125000000Y-96000000D03*
X125000000Y-94900000D03*
X125000000Y-82800000D03*
X125000000Y-89400000D03*
X125000000Y-88300000D03*
X125000000Y-87200000D03*
X125000000Y-86100000D03*
X125000000Y-85000000D03*
X125000000Y-83900000D03*
X111500000Y-96000000D03*
X111500000Y-94900000D03*
X111500000Y-93800000D03*
X111500000Y-92700000D03*
X111500000Y-91600000D03*
X111500000Y-90500000D03*
X122600000Y-89400000D03*
X122600000Y-87200000D03*
X122600000Y-86100000D03*
X122600000Y-91600000D03*
X122600000Y-92700000D03*
X122600000Y-93800000D03*
X122600000Y-90500000D03*
X122600000Y-85000000D03*
X122600000Y-88300000D03*
X113900000Y-93800000D03*
X113900000Y-92700000D03*
X113900000Y-91600000D03*
X113900000Y-90500000D03*
X113900000Y-89400000D03*
X113900000Y-88300000D03*
X113900000Y-87200000D03*
X113900000Y-86100000D03*
X113900000Y-85000000D03*
X111500000Y-89400000D03*
X111500000Y-88300000D03*
X111500000Y-87200000D03*
X111500000Y-86100000D03*
X111500000Y-85000000D03*
X111500000Y-83900000D03*
X111500000Y-82800000D03*
G04 #@! TD*
D14*
G04 #@! TO.C,J4*
X123650000Y-107060000D03*
X127550000Y-107060000D03*
X123650000Y-108330000D03*
X127550000Y-108330000D03*
X123650000Y-109600000D03*
X127550000Y-109600000D03*
X123650000Y-110870000D03*
X127550000Y-110870000D03*
X123650000Y-112140000D03*
X127550000Y-112140000D03*
G04 #@! TD*
D15*
G04 #@! TO.C,R2*
X126800000Y-133352500D03*
X126800000Y-131447500D03*
G04 #@! TD*
G04 #@! TO.C,R1*
X124000000Y-131447500D03*
X124000000Y-133352500D03*
G04 #@! TD*
G04 #@! TO.C,C1*
X121200000Y-133352500D03*
X121200000Y-131447500D03*
G04 #@! TD*
D10*
G04 #@! TO.C,J1*
X98200000Y-84200000D03*
D11*
X98200000Y-86740000D03*
X98200000Y-89280000D03*
X98200000Y-91820000D03*
X98200000Y-94360000D03*
X98200000Y-96900000D03*
X98200000Y-99440000D03*
X98200000Y-101980000D03*
X98200000Y-104520000D03*
X98200000Y-107060000D03*
X98200000Y-109600000D03*
X98200000Y-112140000D03*
X98200000Y-114680000D03*
X98200000Y-117220000D03*
X98200000Y-119760000D03*
X98200000Y-122300000D03*
X98200000Y-124840000D03*
X98200000Y-127380000D03*
X98200000Y-129920000D03*
X98200000Y-132460000D03*
X98200000Y-135000000D03*
X98200000Y-137540000D03*
G04 #@! TD*
D16*
G04 #@! TO.C,P1*
X134299100Y-137437460D03*
X134949100Y-137437460D03*
X135599100Y-137437460D03*
X136249100Y-137437460D03*
X136899100Y-137437460D03*
D17*
X133099100Y-137437460D03*
X138099100Y-137437460D03*
D18*
X132099100Y-140137460D03*
X139099100Y-140137460D03*
G04 #@! TD*
D10*
G04 #@! TO.C,J3*
X109800000Y-111600000D03*
D11*
X109800000Y-114140000D03*
X109800000Y-116680000D03*
X109800000Y-119220000D03*
X109800000Y-121760000D03*
X109800000Y-124300000D03*
X109800000Y-126840000D03*
G04 #@! TD*
D15*
G04 #@! TO.C,C2*
X109600000Y-104047500D03*
X109600000Y-105952500D03*
G04 #@! TD*
D19*
X122600000Y-92600000D03*
X131200000Y-119400000D03*
X122599998Y-91600000D03*
X130200000Y-117300000D03*
X122600000Y-90400000D03*
X122599998Y-89400000D03*
X122600000Y-88200000D03*
X122599998Y-87200000D03*
X122600000Y-86000000D03*
X122600000Y-85000000D03*
X110600000Y-98400000D03*
X113800000Y-95600000D03*
X131000000Y-93800000D03*
X128600000Y-93800000D03*
X131000000Y-95000000D03*
X128600000Y-95000006D03*
X128600000Y-92800000D03*
X131100000Y-92800000D03*
X128599996Y-90600000D03*
X131100000Y-90600000D03*
X113800000Y-93800000D03*
X114000000Y-92600000D03*
X113799999Y-91500012D03*
X113799998Y-90400000D03*
X113800000Y-89400000D03*
X103600000Y-110800000D03*
X113800000Y-88200000D03*
X102800000Y-111600000D03*
X113800000Y-87200000D03*
X102000000Y-115000000D03*
X113800000Y-86200000D03*
X101200000Y-114400000D03*
X113799998Y-85000000D03*
X100400000Y-113800016D03*
X119400000Y-133200000D03*
X118200000Y-128600000D03*
X129600000Y-98000000D03*
X129595005Y-100202497D03*
X130400000Y-97000000D03*
X130400000Y-99600000D03*
X111600000Y-104000000D03*
X120799994Y-104000000D03*
X122600000Y-93800000D03*
X131100000Y-91600000D03*
X128600000Y-91600000D03*
M02*
